<?xml version="1.0" encoding="utf-8"?>
<svg xmlns="http://www.w3.org/2000/svg" xmlns:xlink="http://www.w3.org/1999/xlink" width="600" height="400" viewBox="0 0 2400 1600">
<defs>
  <clipPath id="clip360">
    <rect x="0" y="0" width="2400" height="1600"/>
  </clipPath>
</defs>
<path clip-path="url(#clip360)" d="
M0 1600 L2400 1600 L2400 0 L0 0  Z
  " fill="#ffffff" fill-rule="evenodd" fill-opacity="1"/>
<defs>
  <clipPath id="clip361">
    <rect x="480" y="0" width="1681" height="1600"/>
  </clipPath>
</defs>
<path clip-path="url(#clip360)" d="
M102.74 1505.26 L2352.76 1505.26 L2352.76 47.2441 L102.74 47.2441  Z
  " fill="#ffffff" fill-rule="evenodd" fill-opacity="1"/>
<defs>
  <clipPath id="clip362">
    <rect x="102" y="47" width="2251" height="1459"/>
  </clipPath>
</defs>
<polyline clip-path="url(#clip362)" style="stroke:#000000; stroke-width:2; stroke-opacity:0.1; fill:none" points="
  378.685,1505.26 378.685,47.2441 
  "/>
<polyline clip-path="url(#clip362)" style="stroke:#000000; stroke-width:2; stroke-opacity:0.1; fill:none" points="
  803.217,1505.26 803.217,47.2441 
  "/>
<polyline clip-path="url(#clip362)" style="stroke:#000000; stroke-width:2; stroke-opacity:0.1; fill:none" points="
  1227.75,1505.26 1227.75,47.2441 
  "/>
<polyline clip-path="url(#clip362)" style="stroke:#000000; stroke-width:2; stroke-opacity:0.1; fill:none" points="
  1652.28,1505.26 1652.28,47.2441 
  "/>
<polyline clip-path="url(#clip362)" style="stroke:#000000; stroke-width:2; stroke-opacity:0.1; fill:none" points="
  2076.81,1505.26 2076.81,47.2441 
  "/>
<polyline clip-path="url(#clip360)" style="stroke:#000000; stroke-width:4; stroke-opacity:1; fill:none" points="
  102.74,1505.26 2352.76,1505.26 
  "/>
<polyline clip-path="url(#clip360)" style="stroke:#000000; stroke-width:4; stroke-opacity:1; fill:none" points="
  378.685,1505.26 378.685,1487.76 
  "/>
<polyline clip-path="url(#clip360)" style="stroke:#000000; stroke-width:4; stroke-opacity:1; fill:none" points="
  803.217,1505.26 803.217,1487.76 
  "/>
<polyline clip-path="url(#clip360)" style="stroke:#000000; stroke-width:4; stroke-opacity:1; fill:none" points="
  1227.75,1505.26 1227.75,1487.76 
  "/>
<polyline clip-path="url(#clip360)" style="stroke:#000000; stroke-width:4; stroke-opacity:1; fill:none" points="
  1652.28,1505.26 1652.28,1487.76 
  "/>
<polyline clip-path="url(#clip360)" style="stroke:#000000; stroke-width:4; stroke-opacity:1; fill:none" points="
  2076.81,1505.26 2076.81,1487.76 
  "/>
<path clip-path="url(#clip360)" d="M 0 0 M350.098 1549.1 L379.773 1549.1 L379.773 1553.04 L350.098 1553.04 L350.098 1549.1 Z" fill="#000000" fill-rule="evenodd" fill-opacity="1" /><path clip-path="url(#clip360)" d="M 0 0 M397.69 1535.45 L385.885 1553.89 L397.69 1553.89 L397.69 1535.45 M396.463 1531.37 L402.343 1531.37 L402.343 1553.89 L407.273 1553.89 L407.273 1557.78 L402.343 1557.78 L402.343 1565.93 L397.69 1565.93 L397.69 1557.78 L382.088 1557.78 L382.088 1553.27 L396.463 1531.37 Z" fill="#000000" fill-rule="evenodd" fill-opacity="1" /><path clip-path="url(#clip360)" d="M 0 0 M775.671 1549.1 L805.346 1549.1 L805.346 1553.04 L775.671 1553.04 L775.671 1549.1 Z" fill="#000000" fill-rule="evenodd" fill-opacity="1" /><path clip-path="url(#clip360)" d="M 0 0 M814.444 1562 L830.763 1562 L830.763 1565.93 L808.819 1565.93 L808.819 1562 Q811.481 1559.24 816.064 1554.61 Q820.67 1549.96 821.851 1548.62 Q824.096 1546.09 824.976 1544.36 Q825.879 1542.6 825.879 1540.91 Q825.879 1538.15 823.934 1536.42 Q822.013 1534.68 818.911 1534.68 Q816.712 1534.68 814.258 1535.45 Q811.828 1536.21 809.05 1537.76 L809.05 1533.04 Q811.874 1531.9 814.328 1531.33 Q816.782 1530.75 818.819 1530.75 Q824.189 1530.75 827.383 1533.43 Q830.578 1536.12 830.578 1540.61 Q830.578 1542.74 829.768 1544.66 Q828.981 1546.56 826.874 1549.15 Q826.295 1549.82 823.194 1553.04 Q820.092 1556.23 814.444 1562 Z" fill="#000000" fill-rule="evenodd" fill-opacity="1" /><path clip-path="url(#clip360)" d="M 0 0 M1227.75 1534.45 Q1224.14 1534.45 1222.31 1538.02 Q1220.5 1541.56 1220.5 1548.69 Q1220.5 1555.79 1222.31 1559.36 Q1224.14 1562.9 1227.75 1562.9 Q1231.38 1562.9 1233.19 1559.36 Q1235.02 1555.79 1235.02 1548.69 Q1235.02 1541.56 1233.19 1538.02 Q1231.38 1534.45 1227.75 1534.45 M1227.75 1530.75 Q1233.56 1530.75 1236.61 1535.35 Q1239.69 1539.94 1239.69 1548.69 Q1239.69 1557.41 1236.61 1562.02 Q1233.56 1566.6 1227.75 1566.6 Q1221.94 1566.6 1218.86 1562.02 Q1215.8 1557.41 1215.8 1548.69 Q1215.8 1539.94 1218.86 1535.35 Q1221.94 1530.75 1227.75 1530.75 Z" fill="#000000" fill-rule="evenodd" fill-opacity="1" /><path clip-path="url(#clip360)" d="M 0 0 M1646.93 1562 L1663.25 1562 L1663.25 1565.93 L1641.31 1565.93 L1641.31 1562 Q1643.97 1559.24 1648.55 1554.61 Q1653.16 1549.96 1654.34 1548.62 Q1656.58 1546.09 1657.46 1544.36 Q1658.37 1542.6 1658.37 1540.91 Q1658.37 1538.15 1656.42 1536.42 Q1654.5 1534.68 1651.4 1534.68 Q1649.2 1534.68 1646.75 1535.45 Q1644.32 1536.21 1641.54 1537.76 L1641.54 1533.04 Q1644.36 1531.9 1646.82 1531.33 Q1649.27 1530.75 1651.31 1530.75 Q1656.68 1530.75 1659.87 1533.43 Q1663.07 1536.12 1663.07 1540.61 Q1663.07 1542.74 1662.26 1544.66 Q1661.47 1546.56 1659.36 1549.15 Q1658.78 1549.82 1655.68 1553.04 Q1652.58 1556.23 1646.93 1562 Z" fill="#000000" fill-rule="evenodd" fill-opacity="1" /><path clip-path="url(#clip360)" d="M 0 0 M2079.82 1535.45 L2068.01 1553.89 L2079.82 1553.89 L2079.82 1535.45 M2078.59 1531.37 L2084.47 1531.37 L2084.47 1553.89 L2089.4 1553.89 L2089.4 1557.78 L2084.47 1557.78 L2084.47 1565.93 L2079.82 1565.93 L2079.82 1557.78 L2064.22 1557.78 L2064.22 1553.27 L2078.59 1531.37 Z" fill="#000000" fill-rule="evenodd" fill-opacity="1" /><path clip-path="url(#clip360)" d="M 0 0 M1239.09 1588.6 L1239.09 1593.47 L1233.49 1593.47 Q1230.34 1593.47 1229.1 1594.74 Q1227.89 1596.01 1227.89 1599.32 L1227.89 1602.48 L1237.54 1602.48 L1237.54 1607.03 L1227.89 1607.03 L1227.89 1638.12 L1222 1638.12 L1222 1607.03 L1216.4 1607.03 L1216.4 1602.48 L1222 1602.48 L1222 1599.99 Q1222 1594.04 1224.77 1591.34 Q1227.54 1588.6 1233.56 1588.6 L1239.09 1588.6 Z" fill="#000000" fill-rule="evenodd" fill-opacity="1" /><polyline clip-path="url(#clip362)" style="stroke:#000000; stroke-width:2; stroke-opacity:0.1; fill:none" points="
  102.74,1473.33 2352.76,1473.33 
  "/>
<polyline clip-path="url(#clip362)" style="stroke:#000000; stroke-width:2; stroke-opacity:0.1; fill:none" points="
  102.74,1124.79 2352.76,1124.79 
  "/>
<polyline clip-path="url(#clip362)" style="stroke:#000000; stroke-width:2; stroke-opacity:0.1; fill:none" points="
  102.74,776.252 2352.76,776.252 
  "/>
<polyline clip-path="url(#clip362)" style="stroke:#000000; stroke-width:2; stroke-opacity:0.1; fill:none" points="
  102.74,427.715 2352.76,427.715 
  "/>
<polyline clip-path="url(#clip362)" style="stroke:#000000; stroke-width:2; stroke-opacity:0.1; fill:none" points="
  102.74,79.1779 2352.76,79.1779 
  "/>
<polyline clip-path="url(#clip360)" style="stroke:#000000; stroke-width:4; stroke-opacity:1; fill:none" points="
  102.74,1505.26 102.74,47.2441 
  "/>
<polyline clip-path="url(#clip360)" style="stroke:#000000; stroke-width:4; stroke-opacity:1; fill:none" points="
  102.74,1473.33 129.74,1473.33 
  "/>
<polyline clip-path="url(#clip360)" style="stroke:#000000; stroke-width:4; stroke-opacity:1; fill:none" points="
  102.74,1124.79 129.74,1124.79 
  "/>
<polyline clip-path="url(#clip360)" style="stroke:#000000; stroke-width:4; stroke-opacity:1; fill:none" points="
  102.74,776.252 129.74,776.252 
  "/>
<polyline clip-path="url(#clip360)" style="stroke:#000000; stroke-width:4; stroke-opacity:1; fill:none" points="
  102.74,427.715 129.74,427.715 
  "/>
<polyline clip-path="url(#clip360)" style="stroke:#000000; stroke-width:4; stroke-opacity:1; fill:none" points="
  102.74,79.1779 129.74,79.1779 
  "/>
<path clip-path="url(#clip360)" d="M 0 0 M-9.18536 1459.12 Q-12.7965 1459.12 -14.6251 1462.69 Q-16.4307 1466.23 -16.4307 1473.36 Q-16.4307 1480.47 -14.6251 1484.03 Q-12.7965 1487.57 -9.18536 1487.57 Q-5.55112 1487.57 -3.74558 1484.03 Q-1.91688 1480.47 -1.91688 1473.36 Q-1.91688 1466.23 -3.74558 1462.69 Q-5.55112 1459.12 -9.18536 1459.12 M-9.18536 1455.42 Q-3.37521 1455.42 -0.319668 1460.03 Q2.75902 1464.61 2.75902 1473.36 Q2.75902 1482.09 -0.319668 1486.69 Q-3.37521 1491.28 -9.18536 1491.28 Q-14.9955 1491.28 -18.0742 1486.69 Q-21.1297 1482.09 -21.1297 1473.36 Q-21.1297 1464.61 -18.0742 1460.03 Q-14.9955 1455.42 -9.18536 1455.42 Z" fill="#000000" fill-rule="evenodd" fill-opacity="1" /><path clip-path="url(#clip360)" d="M 0 0 M7.82844 1484.73 L12.7127 1484.73 L12.7127 1490.61 L7.82844 1490.61 L7.82844 1484.73 Z" fill="#000000" fill-rule="evenodd" fill-opacity="1" /><path clip-path="url(#clip360)" d="M 0 0 M27.782 1459.12 Q24.1709 1459.12 22.3422 1462.69 Q20.5367 1466.23 20.5367 1473.36 Q20.5367 1480.47 22.3422 1484.03 Q24.1709 1487.57 27.782 1487.57 Q31.4163 1487.57 33.2218 1484.03 Q35.0505 1480.47 35.0505 1473.36 Q35.0505 1466.23 33.2218 1462.69 Q31.4163 1459.12 27.782 1459.12 M27.782 1455.42 Q33.5922 1455.42 36.6477 1460.03 Q39.7264 1464.61 39.7264 1473.36 Q39.7264 1482.09 36.6477 1486.69 Q33.5922 1491.28 27.782 1491.28 Q21.9719 1491.28 18.8932 1486.69 Q15.8377 1482.09 15.8377 1473.36 Q15.8377 1464.61 18.8932 1460.03 Q21.9719 1455.42 27.782 1455.42 Z" fill="#000000" fill-rule="evenodd" fill-opacity="1" /><path clip-path="url(#clip360)" d="M 0 0 M54.7958 1459.12 Q51.1847 1459.12 49.356 1462.69 Q47.5504 1466.23 47.5504 1473.36 Q47.5504 1480.47 49.356 1484.03 Q51.1847 1487.57 54.7958 1487.57 Q58.43 1487.57 60.2356 1484.03 Q62.0643 1480.47 62.0643 1473.36 Q62.0643 1466.23 60.2356 1462.69 Q58.43 1459.12 54.7958 1459.12 M54.7958 1455.42 Q60.6059 1455.42 63.6615 1460.03 Q66.7402 1464.61 66.7402 1473.36 Q66.7402 1482.09 63.6615 1486.69 Q60.6059 1491.28 54.7958 1491.28 Q48.9856 1491.28 45.9069 1486.69 Q42.8514 1482.09 42.8514 1473.36 Q42.8514 1464.61 45.9069 1460.03 Q48.9856 1455.42 54.7958 1455.42 Z" fill="#000000" fill-rule="evenodd" fill-opacity="1" /><path clip-path="url(#clip360)" d="M 0 0 M-6.59278 1110.59 Q-10.2039 1110.59 -12.0326 1114.15 Q-13.8381 1117.69 -13.8381 1124.82 Q-13.8381 1131.93 -12.0326 1135.49 Q-10.2039 1139.04 -6.59278 1139.04 Q-2.95854 1139.04 -1.153 1135.49 Q0.675697 1131.93 0.675697 1124.82 Q0.675697 1117.69 -1.153 1114.15 Q-2.95854 1110.59 -6.59278 1110.59 M-6.59278 1106.88 Q-0.782629 1106.88 2.27291 1111.49 Q5.3516 1116.07 5.3516 1124.82 Q5.3516 1133.55 2.27291 1138.16 Q-0.782629 1142.74 -6.59278 1142.74 Q-12.4029 1142.74 -15.4816 1138.16 Q-18.5372 1133.55 -18.5372 1124.82 Q-18.5372 1116.07 -15.4816 1111.49 Q-12.4029 1106.88 -6.59278 1106.88 Z" fill="#000000" fill-rule="evenodd" fill-opacity="1" /><path clip-path="url(#clip360)" d="M 0 0 M10.421 1136.19 L15.3052 1136.19 L15.3052 1142.07 L10.421 1142.07 L10.421 1136.19 Z" fill="#000000" fill-rule="evenodd" fill-opacity="1" /><path clip-path="url(#clip360)" d="M 0 0 M24.4024 1138.13 L40.7218 1138.13 L40.7218 1142.07 L18.7775 1142.07 L18.7775 1138.13 Q21.4395 1135.38 26.0228 1130.75 Q30.6292 1126.1 31.8098 1124.75 Q34.0551 1122.23 34.9348 1120.5 Q35.8375 1118.74 35.8375 1117.05 Q35.8375 1114.29 33.8931 1112.56 Q31.9718 1110.82 28.87 1110.82 Q26.6709 1110.82 24.2172 1111.58 Q21.7867 1112.35 19.0089 1113.9 L19.0089 1109.18 Q21.833 1108.04 24.2867 1107.46 Q26.7404 1106.88 28.7774 1106.88 Q34.1477 1106.88 37.3422 1109.57 Q40.5366 1112.25 40.5366 1116.75 Q40.5366 1118.87 39.7264 1120.8 Q38.9394 1122.69 36.8329 1125.29 Q36.2542 1125.96 33.1524 1129.18 Q30.0505 1132.37 24.4024 1138.13 Z" fill="#000000" fill-rule="evenodd" fill-opacity="1" /><path clip-path="url(#clip360)" d="M 0 0 M45.8375 1107.51 L64.1939 1107.51 L64.1939 1111.44 L50.1199 1111.44 L50.1199 1119.92 Q51.1384 1119.57 52.1569 1119.41 Q53.1754 1119.22 54.1939 1119.22 Q59.9809 1119.22 63.3605 1122.39 Q66.7402 1125.56 66.7402 1130.98 Q66.7402 1136.56 63.268 1139.66 Q59.7958 1142.74 53.4763 1142.74 Q51.3004 1142.74 49.0319 1142.37 Q46.7866 1142 44.3792 1141.26 L44.3792 1136.56 Q46.4625 1137.69 48.6847 1138.25 Q50.9069 1138.81 53.3837 1138.81 Q57.3884 1138.81 59.7263 1136.7 Q62.0643 1134.59 62.0643 1130.98 Q62.0643 1127.37 59.7263 1125.26 Q57.3884 1123.16 53.3837 1123.16 Q51.5088 1123.16 49.6338 1123.57 Q47.7819 1123.99 45.8375 1124.87 L45.8375 1107.51 Z" fill="#000000" fill-rule="evenodd" fill-opacity="1" /><path clip-path="url(#clip360)" d="M 0 0 M-8.19 762.051 Q-11.8011 762.051 -13.6298 765.615 Q-15.4353 769.157 -15.4353 776.287 Q-15.4353 783.393 -13.6298 786.958 Q-11.8011 790.5 -8.19 790.5 Q-4.55576 790.5 -2.75021 786.958 Q-0.921517 783.393 -0.921517 776.287 Q-0.921517 769.157 -2.75021 765.615 Q-4.55576 762.051 -8.19 762.051 M-8.19 758.347 Q-2.37984 758.347 0.675697 762.953 Q3.75438 767.537 3.75438 776.287 Q3.75438 785.013 0.675697 789.62 Q-2.37984 794.203 -8.19 794.203 Q-14.0002 794.203 -17.0788 789.62 Q-20.1344 785.013 -20.1344 776.287 Q-20.1344 767.537 -17.0788 762.953 Q-14.0002 758.347 -8.19 758.347 Z" fill="#000000" fill-rule="evenodd" fill-opacity="1" /><path clip-path="url(#clip360)" d="M 0 0 M8.8238 787.652 L13.708 787.652 L13.708 793.532 L8.8238 793.532 L8.8238 787.652 Z" fill="#000000" fill-rule="evenodd" fill-opacity="1" /><path clip-path="url(#clip360)" d="M 0 0 M18.8237 758.972 L37.1801 758.972 L37.1801 762.907 L23.1061 762.907 L23.1061 771.379 Q24.1246 771.032 25.1432 770.87 Q26.1617 770.685 27.1802 770.685 Q32.9672 770.685 36.3468 773.856 Q39.7264 777.027 39.7264 782.444 Q39.7264 788.023 36.2542 791.125 Q32.782 794.203 26.4626 794.203 Q24.2867 794.203 22.0182 793.833 Q19.7728 793.463 17.3654 792.722 L17.3654 788.023 Q19.4487 789.157 21.671 789.713 Q23.8932 790.268 26.37 790.268 Q30.3746 790.268 32.7126 788.162 Q35.0505 786.055 35.0505 782.444 Q35.0505 778.833 32.7126 776.727 Q30.3746 774.62 26.37 774.62 Q24.495 774.62 22.62 775.037 Q20.7682 775.453 18.8237 776.333 L18.8237 758.972 Z" fill="#000000" fill-rule="evenodd" fill-opacity="1" /><path clip-path="url(#clip360)" d="M 0 0 M54.7958 762.051 Q51.1847 762.051 49.356 765.615 Q47.5504 769.157 47.5504 776.287 Q47.5504 783.393 49.356 786.958 Q51.1847 790.5 54.7958 790.5 Q58.43 790.5 60.2356 786.958 Q62.0643 783.393 62.0643 776.287 Q62.0643 769.157 60.2356 765.615 Q58.43 762.051 54.7958 762.051 M54.7958 758.347 Q60.6059 758.347 63.6615 762.953 Q66.7402 767.537 66.7402 776.287 Q66.7402 785.013 63.6615 789.62 Q60.6059 794.203 54.7958 794.203 Q48.9856 794.203 45.9069 789.62 Q42.8514 785.013 42.8514 776.287 Q42.8514 767.537 45.9069 762.953 Q48.9856 758.347 54.7958 758.347 Z" fill="#000000" fill-rule="evenodd" fill-opacity="1" /><path clip-path="url(#clip360)" d="M 0 0 M-7.28722 413.514 Q-10.8983 413.514 -12.727 417.078 Q-14.5326 420.62 -14.5326 427.75 Q-14.5326 434.856 -12.727 438.421 Q-10.8983 441.963 -7.28722 441.963 Q-3.65298 441.963 -1.84744 438.421 Q-0.0187441 434.856 -0.0187441 427.75 Q-0.0187441 420.62 -1.84744 417.078 Q-3.65298 413.514 -7.28722 413.514 M-7.28722 409.81 Q-1.47707 409.81 1.57847 414.416 Q4.65716 419 4.65716 427.75 Q4.65716 436.476 1.57847 441.083 Q-1.47707 445.666 -7.28722 445.666 Q-13.0974 445.666 -16.1761 441.083 Q-19.2316 436.476 -19.2316 427.75 Q-19.2316 419 -16.1761 414.416 Q-13.0974 409.81 -7.28722 409.81 Z" fill="#000000" fill-rule="evenodd" fill-opacity="1" /><path clip-path="url(#clip360)" d="M 0 0 M9.72657 439.115 L14.6108 439.115 L14.6108 444.995 L9.72657 444.995 L9.72657 439.115 Z" fill="#000000" fill-rule="evenodd" fill-opacity="1" /><path clip-path="url(#clip360)" d="M 0 0 M18.4997 410.435 L40.7218 410.435 L40.7218 412.426 L28.1755 444.995 L23.2913 444.995 L35.0968 414.37 L18.4997 414.37 L18.4997 410.435 Z" fill="#000000" fill-rule="evenodd" fill-opacity="1" /><path clip-path="url(#clip360)" d="M 0 0 M45.8375 410.435 L64.1939 410.435 L64.1939 414.37 L50.1199 414.37 L50.1199 422.842 Q51.1384 422.495 52.1569 422.333 Q53.1754 422.148 54.1939 422.148 Q59.9809 422.148 63.3605 425.319 Q66.7402 428.49 66.7402 433.907 Q66.7402 439.486 63.268 442.588 Q59.7958 445.666 53.4763 445.666 Q51.3004 445.666 49.0319 445.296 Q46.7866 444.925 44.3792 444.185 L44.3792 439.486 Q46.4625 440.62 48.6847 441.175 Q50.9069 441.731 53.3837 441.731 Q57.3884 441.731 59.7263 439.625 Q62.0643 437.518 62.0643 433.907 Q62.0643 430.296 59.7263 428.189 Q57.3884 426.083 53.3837 426.083 Q51.5088 426.083 49.6338 426.5 Q47.7819 426.916 45.8375 427.796 L45.8375 410.435 Z" fill="#000000" fill-rule="evenodd" fill-opacity="1" /><path clip-path="url(#clip360)" d="M 0 0 M-17.1483 92.5227 L-9.50943 92.5227 L-9.50943 66.1571 L-17.8196 67.8238 L-17.8196 63.5645 L-9.55573 61.8979 L-4.87983 61.8979 L-4.87983 92.5227 L2.75902 92.5227 L2.75902 96.4579 L-17.1483 96.4579 L-17.1483 92.5227 Z" fill="#000000" fill-rule="evenodd" fill-opacity="1" /><path clip-path="url(#clip360)" d="M 0 0 M7.82844 90.5783 L12.7127 90.5783 L12.7127 96.4579 L7.82844 96.4579 L7.82844 90.5783 Z" fill="#000000" fill-rule="evenodd" fill-opacity="1" /><path clip-path="url(#clip360)" d="M 0 0 M27.782 64.9766 Q24.1709 64.9766 22.3422 68.5413 Q20.5367 72.083 20.5367 79.2126 Q20.5367 86.319 22.3422 89.8838 Q24.1709 93.4255 27.782 93.4255 Q31.4163 93.4255 33.2218 89.8838 Q35.0505 86.319 35.0505 79.2126 Q35.0505 72.083 33.2218 68.5413 Q31.4163 64.9766 27.782 64.9766 M27.782 61.2729 Q33.5922 61.2729 36.6477 65.8793 Q39.7264 70.4626 39.7264 79.2126 Q39.7264 87.9394 36.6477 92.5458 Q33.5922 97.1292 27.782 97.1292 Q21.9719 97.1292 18.8932 92.5458 Q15.8377 87.9394 15.8377 79.2126 Q15.8377 70.4626 18.8932 65.8793 Q21.9719 61.2729 27.782 61.2729 Z" fill="#000000" fill-rule="evenodd" fill-opacity="1" /><path clip-path="url(#clip360)" d="M 0 0 M54.7958 64.9766 Q51.1847 64.9766 49.356 68.5413 Q47.5504 72.083 47.5504 79.2126 Q47.5504 86.319 49.356 89.8838 Q51.1847 93.4255 54.7958 93.4255 Q58.43 93.4255 60.2356 89.8838 Q62.0643 86.319 62.0643 79.2126 Q62.0643 72.083 60.2356 68.5413 Q58.43 64.9766 54.7958 64.9766 M54.7958 61.2729 Q60.6059 61.2729 63.6615 65.8793 Q66.7402 70.4626 66.7402 79.2126 Q66.7402 87.9394 63.6615 92.5458 Q60.6059 97.1292 54.7958 97.1292 Q48.9856 97.1292 45.9069 92.5458 Q42.8514 87.9394 42.8514 79.2126 Q42.8514 70.4626 45.9069 65.8793 Q48.9856 61.2729 54.7958 61.2729 Z" fill="#000000" fill-rule="evenodd" fill-opacity="1" /><path clip-path="url(#clip360)" d="M 0 0 M-78.3867 816.038 Q-78.3867 820.876 -74.8856 823.486 Q-71.2253 826.223 -65.1779 826.223 Q-58.7804 826.223 -55.0882 823.517 Q-51.428 820.78 -51.428 816.038 Q-51.428 811.359 -55.1201 808.622 Q-58.8122 805.884 -65.1779 805.884 Q-71.0025 805.884 -74.8856 808.622 Q-78.3867 811.136 -78.3867 816.038 M-83.0337 816.038 L-83.0337 796.59 L-77.1772 796.59 L-77.1772 803.147 Q-72.212 799.678 -65.1779 799.678 Q-56.425 799.678 -51.4598 804.038 Q-46.4627 808.399 -46.4627 816.038 Q-46.4627 823.708 -51.4598 828.037 Q-56.425 832.398 -65.1779 832.398 Q-73.9944 832.398 -78.9278 828.037 Q-83.0337 824.44 -83.0337 816.038 Z" fill="#000000" fill-rule="evenodd" fill-opacity="1" /><path clip-path="url(#clip360)" d="M 0 0 M-96.8473 776.379 Q-89.5267 780.644 -82.3653 782.713 Q-75.2039 784.782 -67.8515 784.782 Q-60.4991 784.782 -53.274 782.713 Q-46.0808 780.612 -38.792 776.379 L-38.792 781.472 Q-46.2717 786.246 -53.4968 788.633 Q-60.7219 790.989 -67.8515 790.989 Q-74.9493 790.989 -82.1425 788.633 Q-89.3357 786.278 -96.8473 781.472 L-96.8473 776.379 Z" fill="#000000" fill-rule="evenodd" fill-opacity="1" /><path clip-path="url(#clip360)" d="M 0 0 M-83.0337 740.604 L-65.6871 753.495 L-47.3857 739.936 L-47.3857 746.842 L-61.3903 757.219 L-47.3857 767.595 L-47.3857 774.501 L-66.0373 760.656 L-83.0337 773.324 L-83.0337 766.417 L-70.3341 756.964 L-83.0337 747.511 L-83.0337 740.604 Z" fill="#000000" fill-rule="evenodd" fill-opacity="1" /><path clip-path="url(#clip360)" d="M 0 0 M-96.8473 734.716 L-96.8473 729.623 Q-89.3357 724.849 -82.1425 722.494 Q-74.9493 720.106 -67.8515 720.106 Q-60.7219 720.106 -53.4968 722.494 Q-46.2717 724.849 -38.792 729.623 L-38.792 734.716 Q-46.0808 730.483 -53.274 728.414 Q-60.4991 726.313 -67.8515 726.313 Q-75.2039 726.313 -82.3653 728.414 Q-89.5267 730.483 -96.8473 734.716 Z" fill="#000000" fill-rule="evenodd" fill-opacity="1" /><polyline clip-path="url(#clip362)" style="stroke:#009af9; stroke-width:4; stroke-opacity:1; fill:none" points="
  166.42,1464 168.543,1463.9 170.665,1463.81 172.788,1463.71 174.91,1463.62 177.033,1463.52 179.156,1463.42 181.278,1463.32 183.401,1463.22 185.524,1463.12 
  187.646,1463.02 189.769,1462.92 191.892,1462.81 194.014,1462.71 196.137,1462.6 198.26,1462.5 200.382,1462.39 202.505,1462.28 204.628,1462.17 206.75,1462.06 
  208.873,1461.95 210.996,1461.83 213.118,1461.72 215.241,1461.6 217.364,1461.49 219.486,1461.37 221.609,1461.25 223.732,1461.13 225.854,1461.01 227.977,1460.88 
  230.1,1460.76 232.222,1460.64 234.345,1460.51 236.468,1460.38 238.59,1460.25 240.713,1460.12 242.835,1459.99 244.958,1459.86 247.081,1459.72 249.203,1459.59 
  251.326,1459.45 253.449,1459.31 255.571,1459.17 257.694,1459.03 259.817,1458.89 261.939,1458.75 264.062,1458.6 266.185,1458.46 268.307,1458.31 270.43,1458.16 
  272.553,1458.01 274.675,1457.86 276.798,1457.7 278.921,1457.55 281.043,1457.39 283.166,1457.23 285.289,1457.07 287.411,1456.91 289.534,1456.75 291.657,1456.58 
  293.779,1456.42 295.902,1456.25 298.025,1456.08 300.147,1455.91 302.27,1455.74 304.393,1455.56 306.515,1455.39 308.638,1455.21 310.76,1455.03 312.883,1454.85 
  315.006,1454.66 317.128,1454.48 319.251,1454.29 321.374,1454.1 323.496,1453.91 325.619,1453.72 327.742,1453.53 329.864,1453.33 331.987,1453.13 334.11,1452.93 
  336.232,1452.73 338.355,1452.52 340.478,1452.32 342.6,1452.11 344.723,1451.9 346.846,1451.69 348.968,1451.48 351.091,1451.26 353.214,1451.04 355.336,1450.82 
  357.459,1450.6 359.582,1450.37 361.704,1450.15 363.827,1449.92 365.95,1449.69 368.072,1449.45 370.195,1449.22 372.318,1448.98 374.44,1448.74 376.563,1448.5 
  378.685,1448.25 380.808,1448 382.931,1447.75 385.053,1447.5 387.176,1447.25 389.299,1446.99 391.421,1446.73 393.544,1446.47 395.667,1446.2 397.789,1445.94 
  399.912,1445.67 402.035,1445.39 404.157,1445.12 406.28,1444.84 408.403,1444.56 410.525,1444.28 412.648,1443.99 414.771,1443.7 416.893,1443.41 419.016,1443.12 
  421.139,1442.82 423.261,1442.52 425.384,1442.22 427.507,1441.91 429.629,1441.6 431.752,1441.29 433.875,1440.98 435.997,1440.66 438.12,1440.34 440.243,1440.02 
  442.365,1439.69 444.488,1439.36 446.61,1439.03 448.733,1438.69 450.856,1438.35 452.978,1438.01 455.101,1437.66 457.224,1437.31 459.346,1436.96 461.469,1436.61 
  463.592,1436.25 465.714,1435.88 467.837,1435.52 469.96,1435.15 472.082,1434.77 474.205,1434.4 476.328,1434.02 478.45,1433.63 480.573,1433.25 482.696,1432.86 
  484.818,1432.46 486.941,1432.06 489.064,1431.66 491.186,1431.25 493.309,1430.84 495.432,1430.43 497.554,1430.01 499.677,1429.59 501.8,1429.16 503.922,1428.74 
  506.045,1428.3 508.168,1427.86 510.29,1427.42 512.413,1426.98 514.535,1426.53 516.658,1426.07 518.781,1425.61 520.903,1425.15 523.026,1424.68 525.149,1424.21 
  527.271,1423.73 529.394,1423.25 531.517,1422.77 533.639,1422.28 535.762,1421.79 537.885,1421.29 540.007,1420.78 542.13,1420.28 544.253,1419.76 546.375,1419.25 
  548.498,1418.72 550.621,1418.2 552.743,1417.66 554.866,1417.13 556.989,1416.59 559.111,1416.04 561.234,1415.49 563.357,1414.93 565.479,1414.37 567.602,1413.8 
  569.725,1413.23 571.847,1412.65 573.97,1412.07 576.093,1411.48 578.215,1410.89 580.338,1410.29 582.46,1409.68 584.583,1409.07 586.706,1408.46 588.828,1407.83 
  590.951,1407.21 593.074,1406.57 595.196,1405.94 597.319,1405.29 599.442,1404.64 601.564,1403.99 603.687,1403.32 605.81,1402.66 607.932,1401.98 610.055,1401.3 
  612.178,1400.62 614.3,1399.92 616.423,1399.23 618.546,1398.52 620.668,1397.81 622.791,1397.09 624.914,1396.37 627.036,1395.64 629.159,1394.9 631.282,1394.16 
  633.404,1393.41 635.527,1392.65 637.65,1391.89 639.772,1391.12 641.895,1390.34 644.018,1389.56 646.14,1388.77 648.263,1387.97 650.385,1387.16 652.508,1386.35 
  654.631,1385.53 656.753,1384.71 658.876,1383.87 660.999,1383.03 663.121,1382.18 665.244,1381.33 667.367,1380.46 669.489,1379.59 671.612,1378.72 673.735,1377.83 
  675.857,1376.94 677.98,1376.04 680.103,1375.13 682.225,1374.21 684.348,1373.29 686.471,1372.35 688.593,1371.41 690.716,1370.46 692.839,1369.51 694.961,1368.54 
  697.084,1367.57 699.207,1366.59 701.329,1365.6 703.452,1364.6 705.575,1363.59 707.697,1362.58 709.82,1361.55 711.943,1360.52 714.065,1359.48 716.188,1358.43 
  718.311,1357.37 720.433,1356.3 722.556,1355.23 724.678,1354.14 726.801,1353.05 728.924,1351.94 731.046,1350.83 733.169,1349.71 735.292,1348.58 737.414,1347.44 
  739.537,1346.29 741.66,1345.13 743.782,1343.96 745.905,1342.78 748.028,1341.59 750.15,1340.39 752.273,1339.19 754.396,1337.97 756.518,1336.74 758.641,1335.51 
  760.764,1334.26 762.886,1333 765.009,1331.74 767.132,1330.46 769.254,1329.17 771.377,1327.87 773.5,1326.56 775.622,1325.25 777.745,1323.92 779.868,1322.58 
  781.99,1321.23 784.113,1319.87 786.236,1318.5 788.358,1317.12 790.481,1315.72 792.603,1314.32 794.726,1312.91 796.849,1311.48 798.971,1310.04 801.094,1308.6 
  803.217,1307.14 805.339,1305.67 807.462,1304.19 809.585,1302.7 811.707,1301.19 813.83,1299.68 815.953,1298.15 818.075,1296.62 820.198,1295.07 822.321,1293.51 
  824.443,1291.94 826.566,1290.35 828.689,1288.76 830.811,1287.15 832.934,1285.53 835.057,1283.9 837.179,1282.26 839.302,1280.6 841.425,1278.93 843.547,1277.26 
  845.67,1275.56 847.793,1273.86 849.915,1272.15 852.038,1270.42 854.161,1268.68 856.283,1266.93 858.406,1265.16 860.528,1263.38 862.651,1261.6 864.774,1259.79 
  866.896,1257.98 869.019,1256.15 871.142,1254.31 873.264,1252.46 875.387,1250.59 877.51,1248.72 879.632,1246.83 881.755,1244.92 883.878,1243.01 886,1241.08 
  888.123,1239.13 890.246,1237.18 892.368,1235.21 894.491,1233.23 896.614,1231.24 898.736,1229.23 900.859,1227.21 902.982,1225.18 905.104,1223.13 907.227,1221.07 
  909.35,1219 911.472,1216.91 913.595,1214.81 915.718,1212.7 917.84,1210.57 919.963,1208.44 922.086,1206.28 924.208,1204.12 926.331,1201.94 928.453,1199.75 
  930.576,1197.54 932.699,1195.32 934.821,1193.09 936.944,1190.84 939.067,1188.58 941.189,1186.31 943.312,1184.03 945.435,1181.73 947.557,1179.41 949.68,1177.09 
  951.803,1174.75 953.925,1172.4 956.048,1170.03 958.171,1167.65 960.293,1165.26 962.416,1162.85 964.539,1160.43 966.661,1158 968.784,1155.55 970.907,1153.09 
  973.029,1150.62 975.152,1148.13 977.275,1145.63 979.397,1143.12 981.52,1140.59 983.643,1138.05 985.765,1135.5 987.888,1132.93 990.011,1130.35 992.133,1127.76 
  994.256,1125.15 996.378,1122.53 998.501,1119.9 1000.62,1117.26 1002.75,1114.6 1004.87,1111.93 1006.99,1109.24 1009.11,1106.55 1011.24,1103.84 1013.36,1101.12 
  1015.48,1098.38 1017.61,1095.63 1019.73,1092.87 1021.85,1090.1 1023.97,1087.32 1026.1,1084.52 1028.22,1081.71 1030.34,1078.89 1032.46,1076.05 1034.59,1073.21 
  1036.71,1070.35 1038.83,1067.48 1040.95,1064.59 1043.08,1061.7 1045.2,1058.79 1047.32,1055.87 1049.44,1052.94 1051.57,1050 1053.69,1047.05 1055.81,1044.08 
  1057.94,1041.1 1060.06,1038.12 1062.18,1035.12 1064.3,1032.11 1066.43,1029.09 1068.55,1026.05 1070.67,1023.01 1072.79,1019.96 1074.92,1016.89 1077.04,1013.82 
  1079.16,1010.73 1081.28,1007.63 1083.41,1004.53 1085.53,1001.41 1087.65,998.285 1089.78,995.148 1091.9,992.001 1094.02,988.845 1096.14,985.679 1098.27,982.503 
  1100.39,979.318 1102.51,976.124 1104.63,972.921 1106.76,969.708 1108.88,966.487 1111,963.257 1113.12,960.018 1115.25,956.771 1117.37,953.515 1119.49,950.251 
  1121.62,946.978 1123.74,943.698 1125.86,940.41 1127.98,937.114 1130.11,933.81 1132.23,930.499 1134.35,927.181 1136.47,923.856 1138.6,920.523 1140.72,917.183 
  1142.84,913.837 1144.96,910.484 1147.09,907.125 1149.21,903.759 1151.33,900.388 1153.46,897.01 1155.58,893.626 1157.7,890.237 1159.82,886.842 1161.95,883.441 
  1164.07,880.036 1166.19,876.625 1168.31,873.21 1170.44,869.789 1172.56,866.365 1174.68,862.935 1176.8,859.502 1178.93,856.064 1181.05,852.622 1183.17,849.177 
  1185.29,845.728 1187.42,842.276 1189.54,838.82 1191.66,835.361 1193.79,831.899 1195.91,828.435 1198.03,824.968 1200.15,821.498 1202.28,818.026 1204.4,814.552 
  1206.52,811.077 1208.64,807.599 1210.77,804.12 1212.89,800.64 1215.01,797.158 1217.13,793.675 1219.26,790.192 1221.38,786.707 1223.5,783.222 1225.63,779.737 
  1227.75,776.252 1229.87,772.767 1231.99,769.281 1234.12,765.797 1236.24,762.312 1238.36,758.829 1240.48,755.346 1242.61,751.864 1244.73,748.384 1246.85,744.905 
  1248.97,741.427 1251.1,737.952 1253.22,734.478 1255.34,731.006 1257.47,727.536 1259.59,724.069 1261.71,720.605 1263.83,717.143 1265.96,713.684 1268.08,710.228 
  1270.2,706.776 1272.32,703.327 1274.45,699.882 1276.57,696.44 1278.69,693.002 1280.81,689.569 1282.94,686.139 1285.06,682.715 1287.18,679.294 1289.31,675.879 
  1291.43,672.468 1293.55,669.063 1295.67,665.662 1297.8,662.267 1299.92,658.878 1302.04,655.494 1304.16,652.116 1306.29,648.745 1308.41,645.379 1310.53,642.02 
  1312.65,638.667 1314.78,635.32 1316.9,631.981 1319.02,628.648 1321.14,625.323 1323.27,622.004 1325.39,618.693 1327.51,615.39 1329.64,612.094 1331.76,608.806 
  1333.88,605.526 1336,602.253 1338.13,598.989 1340.25,595.733 1342.37,592.486 1344.49,589.247 1346.62,586.017 1348.74,582.796 1350.86,579.583 1352.98,576.38 
  1355.11,573.185 1357.23,570.001 1359.35,566.825 1361.48,563.659 1363.6,560.503 1365.72,557.356 1367.84,554.219 1369.97,551.093 1372.09,547.976 1374.21,544.869 
  1376.33,541.773 1378.46,538.687 1380.58,535.612 1382.7,532.548 1384.82,529.494 1386.95,526.45 1389.07,523.418 1391.19,520.397 1393.32,517.386 1395.44,514.387 
  1397.56,511.399 1399.68,508.423 1401.81,505.458 1403.93,502.504 1406.05,499.562 1408.17,496.632 1410.3,493.713 1412.42,490.806 1414.54,487.911 1416.66,485.028 
  1418.79,482.157 1420.91,479.298 1423.03,476.451 1425.16,473.617 1427.28,470.795 1429.4,467.985 1431.52,465.187 1433.65,462.402 1435.77,459.629 1437.89,456.869 
  1440.01,454.122 1442.14,451.387 1444.26,448.665 1446.38,445.956 1448.5,443.26 1450.63,440.576 1452.75,437.905 1454.87,435.248 1456.99,432.603 1459.12,429.971 
  1461.24,427.352 1463.36,424.747 1465.49,422.154 1467.61,419.575 1469.73,417.008 1471.85,414.455 1473.98,411.915 1476.1,409.389 1478.22,406.875 1480.34,404.375 
  1482.47,401.889 1484.59,399.415 1486.71,396.955 1488.83,394.508 1490.96,392.075 1493.08,389.655 1495.2,387.248 1497.33,384.855 1499.45,382.475 1501.57,380.109 
  1503.69,377.756 1505.82,375.416 1507.94,373.09 1510.06,370.777 1512.18,368.478 1514.31,366.192 1516.43,363.919 1518.55,361.66 1520.67,359.414 1522.8,357.182 
  1524.92,354.963 1527.04,352.757 1529.17,350.565 1531.29,348.386 1533.41,346.22 1535.53,344.068 1537.66,341.929 1539.78,339.804 1541.9,337.691 1544.02,335.592 
  1546.15,333.506 1548.27,331.433 1550.39,329.374 1552.51,327.327 1554.64,325.294 1556.76,323.274 1558.88,321.267 1561.01,319.273 1563.13,317.292 1565.25,315.324 
  1567.37,313.369 1569.5,311.427 1571.62,309.498 1573.74,307.582 1575.86,305.678 1577.99,303.788 1580.11,301.91 1582.23,300.045 1584.35,298.192 1586.48,296.352 
  1588.6,294.525 1590.72,292.711 1592.84,290.909 1594.97,289.119 1597.09,287.342 1599.21,285.578 1601.34,283.825 1603.46,282.085 1605.58,280.358 1607.7,278.642 
  1609.83,276.939 1611.95,275.248 1614.07,273.569 1616.19,271.903 1618.32,270.248 1620.44,268.605 1622.56,266.974 1624.68,265.355 1626.81,263.748 1628.93,262.152 
  1631.05,260.568 1633.18,258.996 1635.3,257.436 1637.42,255.887 1639.54,254.35 1641.67,252.824 1643.79,251.309 1645.91,249.806 1648.03,248.314 1650.16,246.834 
  1652.28,245.364 1654.4,243.906 1656.52,242.459 1658.65,241.023 1660.77,239.598 1662.89,238.184 1665.02,236.781 1667.14,235.388 1669.26,234.006 1671.38,232.635 
  1673.51,231.275 1675.63,229.925 1677.75,228.586 1679.87,227.257 1682,225.939 1684.12,224.631 1686.24,223.333 1688.36,222.046 1690.49,220.769 1692.61,219.502 
  1694.73,218.245 1696.86,216.998 1698.98,215.761 1701.1,214.534 1703.22,213.317 1705.35,212.109 1707.47,210.911 1709.59,209.723 1711.71,208.545 1713.84,207.376 
  1715.96,206.217 1718.08,205.067 1720.2,203.926 1722.33,202.795 1724.45,201.673 1726.57,200.56 1728.69,199.457 1730.82,198.362 1732.94,197.277 1735.06,196.2 
  1737.19,195.133 1739.31,194.074 1741.43,193.024 1743.55,191.983 1745.68,190.951 1747.8,189.927 1749.92,188.912 1752.04,187.905 1754.17,186.907 1756.29,185.917 
  1758.41,184.935 1760.53,183.962 1762.66,182.997 1764.78,182.04 1766.9,181.092 1769.03,180.151 1771.15,179.219 1773.27,178.294 1775.39,177.377 1777.52,176.468 
  1779.64,175.567 1781.76,174.674 1783.88,173.788 1786.01,172.91 1788.13,172.039 1790.25,171.176 1792.37,170.321 1794.5,169.473 1796.62,168.632 1798.74,167.798 
  1800.87,166.972 1802.99,166.153 1805.11,165.341 1807.23,164.536 1809.36,163.738 1811.48,162.948 1813.6,162.164 1815.72,161.387 1817.85,160.616 1819.97,159.853 
  1822.09,159.096 1824.21,158.346 1826.34,157.603 1828.46,156.866 1830.58,156.136 1832.71,155.412 1834.83,154.694 1836.95,153.983 1839.07,153.278 1841.2,152.58 
  1843.32,151.888 1845.44,151.202 1847.56,150.522 1849.69,149.848 1851.81,149.18 1853.93,148.518 1856.05,147.862 1858.18,147.212 1860.3,146.568 1862.42,145.929 
  1864.54,145.297 1866.67,144.67 1868.79,144.048 1870.91,143.433 1873.04,142.822 1875.16,142.218 1877.28,141.619 1879.4,141.025 1881.53,140.436 1883.65,139.853 
  1885.77,139.276 1887.89,138.703 1890.02,138.136 1892.14,137.574 1894.26,137.017 1896.38,136.465 1898.51,135.918 1900.63,135.377 1902.75,134.84 1904.88,134.308 
  1907,133.781 1909.12,133.258 1911.24,132.741 1913.37,132.228 1915.49,131.72 1917.61,131.217 1919.73,130.718 1921.86,130.224 1923.98,129.735 1926.1,129.25 
  1928.22,128.769 1930.35,128.293 1932.47,127.822 1934.59,127.354 1936.72,126.891 1938.84,126.433 1940.96,125.978 1943.08,125.528 1945.21,125.082 1947.33,124.64 
  1949.45,124.203 1951.57,123.769 1953.7,123.339 1955.82,122.914 1957.94,122.492 1960.06,122.074 1962.19,121.66 1964.31,121.25 1966.43,120.844 1968.56,120.442 
  1970.68,120.043 1972.8,119.649 1974.92,119.258 1977.05,118.87 1979.17,118.486 1981.29,118.106 1983.41,117.729 1985.54,117.356 1987.66,116.987 1989.78,116.621 
  1991.9,116.258 1994.03,115.899 1996.15,115.543 1998.27,115.19 2000.39,114.841 2002.52,114.495 2004.64,114.153 2006.76,113.813 2008.89,113.477 2011.01,113.144 
  2013.13,112.815 2015.25,112.488 2017.38,112.164 2019.5,111.844 2021.62,111.526 2023.74,111.212 2025.87,110.9 2027.99,110.592 2030.11,110.286 2032.23,109.983 
  2034.36,109.684 2036.48,109.387 2038.6,109.093 2040.73,108.801 2042.85,108.513 2044.97,108.227 2047.09,107.944 2049.22,107.663 2051.34,107.386 2053.46,107.111 
  2055.58,106.838 2057.71,106.568 2059.83,106.301 2061.95,106.036 2064.07,105.774 2066.2,105.515 2068.32,105.258 2070.44,105.003 2072.57,104.751 2074.69,104.501 
  2076.81,104.253 2078.93,104.008 2081.06,103.766 2083.18,103.525 2085.3,103.287 2087.42,103.051 2089.55,102.818 2091.67,102.587 2093.79,102.357 2095.91,102.131 
  2098.04,101.906 2100.16,101.683 2102.28,101.463 2104.41,101.245 2106.53,101.029 2108.65,100.815 2110.77,100.603 2112.9,100.393 2115.02,100.185 2117.14,99.979 
  2119.26,99.7751 2121.39,99.5731 2123.51,99.3731 2125.63,99.175 2127.75,98.9789 2129.88,98.7846 2132,98.5923 2134.12,98.4018 2136.24,98.2131 2138.37,98.0262 
  2140.49,97.8412 2142.61,97.658 2144.74,97.4765 2146.86,97.2968 2148.98,97.1188 2151.1,96.9426 2153.23,96.7681 2155.35,96.5952 2157.47,96.4241 2159.59,96.2546 
  2161.72,96.0867 2163.84,95.9205 2165.96,95.7559 2168.08,95.5929 2170.21,95.4314 2172.33,95.2716 2174.45,95.1133 2176.58,94.9565 2178.7,94.8013 2180.82,94.6475 
  2182.94,94.4953 2185.07,94.3445 2187.19,94.1953 2189.31,94.0474 2191.43,93.901 2193.56,93.7561 2195.68,93.6125 2197.8,93.4704 2199.92,93.3296 2202.05,93.1902 
  2204.17,93.0522 2206.29,92.9155 2208.42,92.7801 2210.54,92.6461 2212.66,92.5133 2214.78,92.3819 2216.91,92.2518 2219.03,92.1229 2221.15,91.9953 2223.27,91.8689 
  2225.4,91.7437 2227.52,91.6198 2229.64,91.4971 2231.76,91.3756 2233.89,91.2553 2236.01,91.1362 2238.13,91.0182 2240.26,90.9014 2242.38,90.7857 2244.5,90.6711 
  2246.62,90.5577 2248.75,90.4454 2250.87,90.3342 2252.99,90.224 2255.11,90.115 2257.24,90.007 2259.36,89.9001 2261.48,89.7942 2263.6,89.6894 2265.73,89.5856 
  2267.85,89.4828 2269.97,89.381 2272.09,89.2802 2274.22,89.1804 2276.34,89.0816 2278.46,88.9837 2280.59,88.8868 2282.71,88.7909 2284.83,88.6959 2286.95,88.6018 
  2289.08,88.5087 
  "/>
</svg>
