<?xml version="1.0" encoding="utf-8"?>
<svg xmlns="http://www.w3.org/2000/svg" xmlns:xlink="http://www.w3.org/1999/xlink" width="600" height="400" viewBox="0 0 2400 1600">
<defs>
  <clipPath id="clip960">
    <rect x="0" y="0" width="2400" height="1600"/>
  </clipPath>
</defs>
<path clip-path="url(#clip960)" d="
M0 1600 L2400 1600 L2400 0 L0 0  Z
  " fill="#ffffff" fill-rule="evenodd" fill-opacity="1"/>
<defs>
  <clipPath id="clip961">
    <rect x="480" y="0" width="1681" height="1600"/>
  </clipPath>
</defs>
<path clip-path="url(#clip960)" d="
M102.74 1505.26 L2352.76 1505.26 L2352.76 47.2441 L102.74 47.2441  Z
  " fill="#ffffff" fill-rule="evenodd" fill-opacity="1"/>
<defs>
  <clipPath id="clip962">
    <rect x="102" y="47" width="2251" height="1459"/>
  </clipPath>
</defs>
<polyline clip-path="url(#clip962)" style="stroke:#000000; stroke-width:2; stroke-opacity:0.1; fill:none" points="
  378.685,1505.26 378.685,47.2441 
  "/>
<polyline clip-path="url(#clip962)" style="stroke:#000000; stroke-width:2; stroke-opacity:0.1; fill:none" points="
  803.217,1505.26 803.217,47.2441 
  "/>
<polyline clip-path="url(#clip962)" style="stroke:#000000; stroke-width:2; stroke-opacity:0.1; fill:none" points="
  1227.75,1505.26 1227.75,47.2441 
  "/>
<polyline clip-path="url(#clip962)" style="stroke:#000000; stroke-width:2; stroke-opacity:0.1; fill:none" points="
  1652.28,1505.26 1652.28,47.2441 
  "/>
<polyline clip-path="url(#clip962)" style="stroke:#000000; stroke-width:2; stroke-opacity:0.1; fill:none" points="
  2076.81,1505.26 2076.81,47.2441 
  "/>
<polyline clip-path="url(#clip960)" style="stroke:#000000; stroke-width:4; stroke-opacity:1; fill:none" points="
  102.74,1505.26 2352.76,1505.26 
  "/>
<polyline clip-path="url(#clip960)" style="stroke:#000000; stroke-width:4; stroke-opacity:1; fill:none" points="
  378.685,1505.26 378.685,1487.76 
  "/>
<polyline clip-path="url(#clip960)" style="stroke:#000000; stroke-width:4; stroke-opacity:1; fill:none" points="
  803.217,1505.26 803.217,1487.76 
  "/>
<polyline clip-path="url(#clip960)" style="stroke:#000000; stroke-width:4; stroke-opacity:1; fill:none" points="
  1227.75,1505.26 1227.75,1487.76 
  "/>
<polyline clip-path="url(#clip960)" style="stroke:#000000; stroke-width:4; stroke-opacity:1; fill:none" points="
  1652.28,1505.26 1652.28,1487.76 
  "/>
<polyline clip-path="url(#clip960)" style="stroke:#000000; stroke-width:4; stroke-opacity:1; fill:none" points="
  2076.81,1505.26 2076.81,1487.76 
  "/>
<path clip-path="url(#clip960)" d="M 0 0 M347.586 1549.1 L377.262 1549.1 L377.262 1553.04 L347.586 1553.04 L347.586 1549.1 Z" fill="#000000" fill-rule="evenodd" fill-opacity="1" /><path clip-path="url(#clip960)" d="M 0 0 M400.202 1535.45 L388.396 1553.89 L400.202 1553.89 L400.202 1535.45 M398.975 1531.37 L404.854 1531.37 L404.854 1553.89 L409.785 1553.89 L409.785 1557.78 L404.854 1557.78 L404.854 1565.93 L400.202 1565.93 L400.202 1557.78 L384.6 1557.78 L384.6 1553.27 L398.975 1531.37 Z" fill="#000000" fill-rule="evenodd" fill-opacity="1" /><path clip-path="url(#clip960)" d="M 0 0 M773.159 1549.1 L802.835 1549.1 L802.835 1553.04 L773.159 1553.04 L773.159 1549.1 Z" fill="#000000" fill-rule="evenodd" fill-opacity="1" /><path clip-path="url(#clip960)" d="M 0 0 M816.955 1562 L833.274 1562 L833.274 1565.93 L811.33 1565.93 L811.33 1562 Q813.992 1559.24 818.575 1554.61 Q823.182 1549.96 824.362 1548.62 Q826.608 1546.09 827.487 1544.36 Q828.39 1542.6 828.39 1540.91 Q828.39 1538.15 826.446 1536.42 Q824.525 1534.68 821.423 1534.68 Q819.224 1534.68 816.77 1535.45 Q814.339 1536.21 811.562 1537.76 L811.562 1533.04 Q814.386 1531.9 816.839 1531.33 Q819.293 1530.75 821.33 1530.75 Q826.7 1530.75 829.895 1533.43 Q833.089 1536.12 833.089 1540.61 Q833.089 1542.74 832.279 1544.66 Q831.492 1546.56 829.386 1549.15 Q828.807 1549.82 825.705 1553.04 Q822.603 1556.23 816.955 1562 Z" fill="#000000" fill-rule="evenodd" fill-opacity="1" /><path clip-path="url(#clip960)" d="M 0 0 M1227.75 1534.45 Q1224.14 1534.45 1222.31 1538.02 Q1220.5 1541.56 1220.5 1548.69 Q1220.5 1555.79 1222.31 1559.36 Q1224.14 1562.9 1227.75 1562.9 Q1231.38 1562.9 1233.19 1559.36 Q1235.02 1555.79 1235.02 1548.69 Q1235.02 1541.56 1233.19 1538.02 Q1231.38 1534.45 1227.75 1534.45 M1227.75 1530.75 Q1233.56 1530.75 1236.61 1535.35 Q1239.69 1539.94 1239.69 1548.69 Q1239.69 1557.41 1236.61 1562.02 Q1233.56 1566.6 1227.75 1566.6 Q1221.94 1566.6 1218.86 1562.02 Q1215.8 1557.41 1215.8 1548.69 Q1215.8 1539.94 1218.86 1535.35 Q1221.94 1530.75 1227.75 1530.75 Z" fill="#000000" fill-rule="evenodd" fill-opacity="1" /><path clip-path="url(#clip960)" d="M 0 0 M1646.93 1562 L1663.25 1562 L1663.25 1565.93 L1641.31 1565.93 L1641.31 1562 Q1643.97 1559.24 1648.55 1554.61 Q1653.16 1549.96 1654.34 1548.62 Q1656.58 1546.09 1657.46 1544.36 Q1658.37 1542.6 1658.37 1540.91 Q1658.37 1538.15 1656.42 1536.42 Q1654.5 1534.68 1651.4 1534.68 Q1649.2 1534.68 1646.75 1535.45 Q1644.32 1536.21 1641.54 1537.76 L1641.54 1533.04 Q1644.36 1531.9 1646.82 1531.33 Q1649.27 1530.75 1651.31 1530.75 Q1656.68 1530.75 1659.87 1533.43 Q1663.07 1536.12 1663.07 1540.61 Q1663.07 1542.74 1662.26 1544.66 Q1661.47 1546.56 1659.36 1549.15 Q1658.78 1549.82 1655.68 1553.04 Q1652.58 1556.23 1646.93 1562 Z" fill="#000000" fill-rule="evenodd" fill-opacity="1" /><path clip-path="url(#clip960)" d="M 0 0 M2079.82 1535.45 L2068.01 1553.89 L2079.82 1553.89 L2079.82 1535.45 M2078.59 1531.37 L2084.47 1531.37 L2084.47 1553.89 L2089.4 1553.89 L2089.4 1557.78 L2084.47 1557.78 L2084.47 1565.93 L2079.82 1565.93 L2079.82 1557.78 L2064.22 1557.78 L2064.22 1553.27 L2078.59 1531.37 Z" fill="#000000" fill-rule="evenodd" fill-opacity="1" /><path clip-path="url(#clip960)" d="M 0 0 M1239.09 1600.6 L1239.09 1605.47 L1233.49 1605.47 Q1230.34 1605.47 1229.1 1606.74 Q1227.89 1608.01 1227.89 1611.32 L1227.89 1614.48 L1237.54 1614.48 L1237.54 1619.03 L1227.89 1619.03 L1227.89 1650.12 L1222 1650.12 L1222 1619.03 L1216.4 1619.03 L1216.4 1614.48 L1222 1614.48 L1222 1611.99 Q1222 1606.04 1224.77 1603.34 Q1227.54 1600.6 1233.56 1600.6 L1239.09 1600.6 Z" fill="#000000" fill-rule="evenodd" fill-opacity="1" /><polyline clip-path="url(#clip962)" style="stroke:#000000; stroke-width:2; stroke-opacity:0.1; fill:none" points="
  102.74,1473.33 2352.76,1473.33 
  "/>
<polyline clip-path="url(#clip962)" style="stroke:#000000; stroke-width:2; stroke-opacity:0.1; fill:none" points="
  102.74,1124.79 2352.76,1124.79 
  "/>
<polyline clip-path="url(#clip962)" style="stroke:#000000; stroke-width:2; stroke-opacity:0.1; fill:none" points="
  102.74,776.252 2352.76,776.252 
  "/>
<polyline clip-path="url(#clip962)" style="stroke:#000000; stroke-width:2; stroke-opacity:0.1; fill:none" points="
  102.74,427.715 2352.76,427.715 
  "/>
<polyline clip-path="url(#clip962)" style="stroke:#000000; stroke-width:2; stroke-opacity:0.1; fill:none" points="
  102.74,79.1779 2352.76,79.1779 
  "/>
<polyline clip-path="url(#clip960)" style="stroke:#000000; stroke-width:4; stroke-opacity:1; fill:none" points="
  102.74,1505.26 102.74,47.2441 
  "/>
<polyline clip-path="url(#clip960)" style="stroke:#000000; stroke-width:4; stroke-opacity:1; fill:none" points="
  102.74,1473.33 129.74,1473.33 
  "/>
<polyline clip-path="url(#clip960)" style="stroke:#000000; stroke-width:4; stroke-opacity:1; fill:none" points="
  102.74,1124.79 129.74,1124.79 
  "/>
<polyline clip-path="url(#clip960)" style="stroke:#000000; stroke-width:4; stroke-opacity:1; fill:none" points="
  102.74,776.252 129.74,776.252 
  "/>
<polyline clip-path="url(#clip960)" style="stroke:#000000; stroke-width:4; stroke-opacity:1; fill:none" points="
  102.74,427.715 129.74,427.715 
  "/>
<polyline clip-path="url(#clip960)" style="stroke:#000000; stroke-width:4; stroke-opacity:1; fill:none" points="
  102.74,79.1779 129.74,79.1779 
  "/>
<path clip-path="url(#clip960)" d="M 0 0 M-20.5973 1459.12 Q-24.2084 1459.12 -26.0371 1462.69 Q-27.8427 1466.23 -27.8427 1473.36 Q-27.8427 1480.47 -26.0371 1484.03 Q-24.2084 1487.57 -20.5973 1487.57 Q-16.9631 1487.57 -15.1576 1484.03 Q-13.3289 1480.47 -13.3289 1473.36 Q-13.3289 1466.23 -15.1576 1462.69 Q-16.9631 1459.12 -20.5973 1459.12 M-20.5973 1455.42 Q-14.7872 1455.42 -11.7316 1460.03 Q-8.65296 1464.61 -8.65296 1473.36 Q-8.65296 1482.09 -11.7316 1486.69 Q-14.7872 1491.28 -20.5973 1491.28 Q-26.4075 1491.28 -29.4862 1486.69 Q-32.5417 1482.09 -32.5417 1473.36 Q-32.5417 1464.61 -29.4862 1460.03 Q-26.4075 1455.42 -20.5973 1455.42 Z" fill="#000000" fill-rule="evenodd" fill-opacity="1" /><path clip-path="url(#clip960)" d="M 0 0 M-0.435408 1484.73 L4.44882 1484.73 L4.44882 1490.61 L-0.435408 1490.61 L-0.435408 1484.73 Z" fill="#000000" fill-rule="evenodd" fill-opacity="1" /><path clip-path="url(#clip960)" d="M 0 0 M24.6339 1459.12 Q21.0228 1459.12 19.1941 1462.69 Q17.3886 1466.23 17.3886 1473.36 Q17.3886 1480.47 19.1941 1484.03 Q21.0228 1487.57 24.6339 1487.57 Q28.2681 1487.57 30.0737 1484.03 Q31.9024 1480.47 31.9024 1473.36 Q31.9024 1466.23 30.0737 1462.69 Q28.2681 1459.12 24.6339 1459.12 M24.6339 1455.42 Q30.4441 1455.42 33.4996 1460.03 Q36.5783 1464.61 36.5783 1473.36 Q36.5783 1482.09 33.4996 1486.69 Q30.4441 1491.28 24.6339 1491.28 Q18.8237 1491.28 15.7451 1486.69 Q12.6895 1482.09 12.6895 1473.36 Q12.6895 1464.61 15.7451 1460.03 Q18.8237 1455.42 24.6339 1455.42 Z" fill="#000000" fill-rule="evenodd" fill-opacity="1" /><path clip-path="url(#clip960)" d="M 0 0 M54.7958 1459.12 Q51.1847 1459.12 49.356 1462.69 Q47.5504 1466.23 47.5504 1473.36 Q47.5504 1480.47 49.356 1484.03 Q51.1847 1487.57 54.7958 1487.57 Q58.43 1487.57 60.2356 1484.03 Q62.0643 1480.47 62.0643 1473.36 Q62.0643 1466.23 60.2356 1462.69 Q58.43 1459.12 54.7958 1459.12 M54.7958 1455.42 Q60.6059 1455.42 63.6615 1460.03 Q66.7402 1464.61 66.7402 1473.36 Q66.7402 1482.09 63.6615 1486.69 Q60.6059 1491.28 54.7958 1491.28 Q48.9856 1491.28 45.9069 1486.69 Q42.8514 1482.09 42.8514 1473.36 Q42.8514 1464.61 45.9069 1460.03 Q48.9856 1455.42 54.7958 1455.42 Z" fill="#000000" fill-rule="evenodd" fill-opacity="1" /><path clip-path="url(#clip960)" d="M 0 0 M-19.602 1110.59 Q-23.2131 1110.59 -25.0418 1114.15 Q-26.8473 1117.69 -26.8473 1124.82 Q-26.8473 1131.93 -25.0418 1135.49 Q-23.2131 1139.04 -19.602 1139.04 Q-15.9677 1139.04 -14.1622 1135.49 Q-12.3335 1131.93 -12.3335 1124.82 Q-12.3335 1117.69 -14.1622 1114.15 Q-15.9677 1110.59 -19.602 1110.59 M-19.602 1106.88 Q-13.7918 1106.88 -10.7363 1111.49 Q-7.65759 1116.07 -7.65759 1124.82 Q-7.65759 1133.55 -10.7363 1138.16 Q-13.7918 1142.74 -19.602 1142.74 Q-25.4121 1142.74 -28.4908 1138.16 Q-31.5464 1133.55 -31.5464 1124.82 Q-31.5464 1116.07 -28.4908 1111.49 Q-25.4121 1106.88 -19.602 1106.88 Z" fill="#000000" fill-rule="evenodd" fill-opacity="1" /><path clip-path="url(#clip960)" d="M 0 0 M0.559957 1136.19 L5.44419 1136.19 L5.44419 1142.07 L0.559957 1142.07 L0.559957 1136.19 Z" fill="#000000" fill-rule="evenodd" fill-opacity="1" /><path clip-path="url(#clip960)" d="M 0 0 M19.6571 1138.13 L35.9764 1138.13 L35.9764 1142.07 L14.0321 1142.07 L14.0321 1138.13 Q16.6941 1135.38 21.2774 1130.75 Q25.8839 1126.1 27.0644 1124.75 Q29.3098 1122.23 30.1894 1120.5 Q31.0922 1118.74 31.0922 1117.05 Q31.0922 1114.29 29.1478 1112.56 Q27.2265 1110.82 24.1246 1110.82 Q21.9256 1110.82 19.4719 1111.58 Q17.0413 1112.35 14.2636 1113.9 L14.2636 1109.18 Q17.0876 1108.04 19.5413 1107.46 Q21.995 1106.88 24.0321 1106.88 Q29.4024 1106.88 32.5968 1109.57 Q35.7912 1112.25 35.7912 1116.75 Q35.7912 1118.87 34.9811 1120.8 Q34.194 1122.69 32.0876 1125.29 Q31.5089 1125.96 28.407 1129.18 Q25.3052 1132.37 19.6571 1138.13 Z" fill="#000000" fill-rule="evenodd" fill-opacity="1" /><path clip-path="url(#clip960)" d="M 0 0 M45.8375 1107.51 L64.1939 1107.51 L64.1939 1111.44 L50.1199 1111.44 L50.1199 1119.92 Q51.1384 1119.57 52.1569 1119.41 Q53.1754 1119.22 54.1939 1119.22 Q59.9809 1119.22 63.3605 1122.39 Q66.7402 1125.56 66.7402 1130.98 Q66.7402 1136.56 63.268 1139.66 Q59.7958 1142.74 53.4763 1142.74 Q51.3004 1142.74 49.0319 1142.37 Q46.7866 1142 44.3792 1141.26 L44.3792 1136.56 Q46.4625 1137.69 48.6847 1138.25 Q50.9069 1138.81 53.3837 1138.81 Q57.3884 1138.81 59.7263 1136.7 Q62.0643 1134.59 62.0643 1130.98 Q62.0643 1127.37 59.7263 1125.26 Q57.3884 1123.16 53.3837 1123.16 Q51.5088 1123.16 49.6338 1123.57 Q47.7819 1123.99 45.8375 1124.87 L45.8375 1107.51 Z" fill="#000000" fill-rule="evenodd" fill-opacity="1" /><path clip-path="url(#clip960)" d="M 0 0 M-20.5973 762.051 Q-24.2084 762.051 -26.0371 765.615 Q-27.8427 769.157 -27.8427 776.287 Q-27.8427 783.393 -26.0371 786.958 Q-24.2084 790.5 -20.5973 790.5 Q-16.9631 790.5 -15.1576 786.958 Q-13.3289 783.393 -13.3289 776.287 Q-13.3289 769.157 -15.1576 765.615 Q-16.9631 762.051 -20.5973 762.051 M-20.5973 758.347 Q-14.7872 758.347 -11.7316 762.953 Q-8.65296 767.537 -8.65296 776.287 Q-8.65296 785.013 -11.7316 789.62 Q-14.7872 794.203 -20.5973 794.203 Q-26.4075 794.203 -29.4862 789.62 Q-32.5417 785.013 -32.5417 776.287 Q-32.5417 767.537 -29.4862 762.953 Q-26.4075 758.347 -20.5973 758.347 Z" fill="#000000" fill-rule="evenodd" fill-opacity="1" /><path clip-path="url(#clip960)" d="M 0 0 M-0.435408 787.652 L4.44882 787.652 L4.44882 793.532 L-0.435408 793.532 L-0.435408 787.652 Z" fill="#000000" fill-rule="evenodd" fill-opacity="1" /><path clip-path="url(#clip960)" d="M 0 0 M14.6803 758.972 L33.0366 758.972 L33.0366 762.907 L18.9626 762.907 L18.9626 771.379 Q19.9811 771.032 20.9997 770.87 Q22.0182 770.685 23.0367 770.685 Q28.8237 770.685 32.2033 773.856 Q35.5829 777.027 35.5829 782.444 Q35.5829 788.023 32.1107 791.125 Q28.6385 794.203 22.3191 794.203 Q20.1432 794.203 17.8747 793.833 Q15.6293 793.463 13.2219 792.722 L13.2219 788.023 Q15.3052 789.157 17.5275 789.713 Q19.7497 790.268 22.2265 790.268 Q26.2311 790.268 28.5691 788.162 Q30.907 786.055 30.907 782.444 Q30.907 778.833 28.5691 776.727 Q26.2311 774.62 22.2265 774.62 Q20.3515 774.62 18.4765 775.037 Q16.6247 775.453 14.6803 776.333 L14.6803 758.972 Z" fill="#000000" fill-rule="evenodd" fill-opacity="1" /><path clip-path="url(#clip960)" d="M 0 0 M54.7958 762.051 Q51.1847 762.051 49.356 765.615 Q47.5504 769.157 47.5504 776.287 Q47.5504 783.393 49.356 786.958 Q51.1847 790.5 54.7958 790.5 Q58.43 790.5 60.2356 786.958 Q62.0643 783.393 62.0643 776.287 Q62.0643 769.157 60.2356 765.615 Q58.43 762.051 54.7958 762.051 M54.7958 758.347 Q60.6059 758.347 63.6615 762.953 Q66.7402 767.537 66.7402 776.287 Q66.7402 785.013 63.6615 789.62 Q60.6059 794.203 54.7958 794.203 Q48.9856 794.203 45.9069 789.62 Q42.8514 785.013 42.8514 776.287 Q42.8514 767.537 45.9069 762.953 Q48.9856 758.347 54.7958 758.347 Z" fill="#000000" fill-rule="evenodd" fill-opacity="1" /><path clip-path="url(#clip960)" d="M 0 0 M-19.602 413.514 Q-23.2131 413.514 -25.0418 417.078 Q-26.8473 420.62 -26.8473 427.75 Q-26.8473 434.856 -25.0418 438.421 Q-23.2131 441.963 -19.602 441.963 Q-15.9677 441.963 -14.1622 438.421 Q-12.3335 434.856 -12.3335 427.75 Q-12.3335 420.62 -14.1622 417.078 Q-15.9677 413.514 -19.602 413.514 M-19.602 409.81 Q-13.7918 409.81 -10.7363 414.416 Q-7.65759 419 -7.65759 427.75 Q-7.65759 436.476 -10.7363 441.083 Q-13.7918 445.666 -19.602 445.666 Q-25.4121 445.666 -28.4908 441.083 Q-31.5464 436.476 -31.5464 427.75 Q-31.5464 419 -28.4908 414.416 Q-25.4121 409.81 -19.602 409.81 Z" fill="#000000" fill-rule="evenodd" fill-opacity="1" /><path clip-path="url(#clip960)" d="M 0 0 M0.559957 439.115 L5.44419 439.115 L5.44419 444.995 L0.559957 444.995 L0.559957 439.115 Z" fill="#000000" fill-rule="evenodd" fill-opacity="1" /><path clip-path="url(#clip960)" d="M 0 0 M14.4488 410.435 L36.6709 410.435 L36.6709 412.426 L24.1246 444.995 L19.2404 444.995 L31.0459 414.37 L14.4488 414.37 L14.4488 410.435 Z" fill="#000000" fill-rule="evenodd" fill-opacity="1" /><path clip-path="url(#clip960)" d="M 0 0 M45.8375 410.435 L64.1939 410.435 L64.1939 414.37 L50.1199 414.37 L50.1199 422.842 Q51.1384 422.495 52.1569 422.333 Q53.1754 422.148 54.1939 422.148 Q59.9809 422.148 63.3605 425.319 Q66.7402 428.49 66.7402 433.907 Q66.7402 439.486 63.268 442.588 Q59.7958 445.666 53.4763 445.666 Q51.3004 445.666 49.0319 445.296 Q46.7866 444.925 44.3792 444.185 L44.3792 439.486 Q46.4625 440.62 48.6847 441.175 Q50.9069 441.731 53.3837 441.731 Q57.3884 441.731 59.7263 439.625 Q62.0643 437.518 62.0643 433.907 Q62.0643 430.296 59.7263 428.189 Q57.3884 426.083 53.3837 426.083 Q51.5088 426.083 49.6338 426.5 Q47.7819 426.916 45.8375 427.796 L45.8375 410.435 Z" fill="#000000" fill-rule="evenodd" fill-opacity="1" /><path clip-path="url(#clip960)" d="M 0 0 M-29.7871 92.5227 L-22.1483 92.5227 L-22.1483 66.1571 L-30.4584 67.8238 L-30.4584 63.5645 L-22.1946 61.8979 L-17.5187 61.8979 L-17.5187 92.5227 L-9.8798 92.5227 L-9.8798 96.4579 L-29.7871 96.4579 L-29.7871 92.5227 Z" fill="#000000" fill-rule="evenodd" fill-opacity="1" /><path clip-path="url(#clip960)" d="M 0 0 M-0.435408 90.5783 L4.44882 90.5783 L4.44882 96.4579 L-0.435408 96.4579 L-0.435408 90.5783 Z" fill="#000000" fill-rule="evenodd" fill-opacity="1" /><path clip-path="url(#clip960)" d="M 0 0 M24.6339 64.9766 Q21.0228 64.9766 19.1941 68.5413 Q17.3886 72.083 17.3886 79.2126 Q17.3886 86.319 19.1941 89.8838 Q21.0228 93.4255 24.6339 93.4255 Q28.2681 93.4255 30.0737 89.8838 Q31.9024 86.319 31.9024 79.2126 Q31.9024 72.083 30.0737 68.5413 Q28.2681 64.9766 24.6339 64.9766 M24.6339 61.2729 Q30.4441 61.2729 33.4996 65.8793 Q36.5783 70.4626 36.5783 79.2126 Q36.5783 87.9394 33.4996 92.5458 Q30.4441 97.1292 24.6339 97.1292 Q18.8237 97.1292 15.7451 92.5458 Q12.6895 87.9394 12.6895 79.2126 Q12.6895 70.4626 15.7451 65.8793 Q18.8237 61.2729 24.6339 61.2729 Z" fill="#000000" fill-rule="evenodd" fill-opacity="1" /><path clip-path="url(#clip960)" d="M 0 0 M54.7958 64.9766 Q51.1847 64.9766 49.356 68.5413 Q47.5504 72.083 47.5504 79.2126 Q47.5504 86.319 49.356 89.8838 Q51.1847 93.4255 54.7958 93.4255 Q58.43 93.4255 60.2356 89.8838 Q62.0643 86.319 62.0643 79.2126 Q62.0643 72.083 60.2356 68.5413 Q58.43 64.9766 54.7958 64.9766 M54.7958 61.2729 Q60.6059 61.2729 63.6615 65.8793 Q66.7402 70.4626 66.7402 79.2126 Q66.7402 87.9394 63.6615 92.5458 Q60.6059 97.1292 54.7958 97.1292 Q48.9856 97.1292 45.9069 92.5458 Q42.8514 87.9394 42.8514 79.2126 Q42.8514 70.4626 45.9069 65.8793 Q48.9856 61.2729 54.7958 61.2729 Z" fill="#000000" fill-rule="evenodd" fill-opacity="1" /><path clip-path="url(#clip960)" d="M 0 0 M-113.799 820.669 Q-113.799 825.507 -110.298 828.117 Q-106.637 830.854 -100.59 830.854 Q-94.1923 830.854 -90.5002 828.148 Q-86.8399 825.411 -86.8399 820.669 Q-86.8399 815.99 -90.5321 813.253 Q-94.2242 810.515 -100.59 810.515 Q-106.414 810.515 -110.298 813.253 Q-113.799 815.767 -113.799 820.669 M-118.446 820.669 L-118.446 801.221 L-112.589 801.221 L-112.589 807.778 Q-107.624 804.309 -100.59 804.309 Q-91.837 804.309 -86.8718 808.669 Q-81.8747 813.03 -81.8747 820.669 Q-81.8747 828.339 -86.8718 832.668 Q-91.837 837.029 -100.59 837.029 Q-109.406 837.029 -114.34 832.668 Q-118.446 829.071 -118.446 820.669 Z" fill="#000000" fill-rule="evenodd" fill-opacity="1" /><path clip-path="url(#clip960)" d="M 0 0 M-132.259 779.101 Q-124.939 783.366 -117.777 785.435 Q-110.616 787.503 -103.263 787.503 Q-95.9111 787.503 -88.686 785.435 Q-81.4927 783.334 -74.204 779.101 L-74.204 784.193 Q-81.6837 788.967 -88.9088 791.355 Q-96.1339 793.71 -103.263 793.71 Q-110.361 793.71 -117.554 791.355 Q-124.748 788.999 -132.259 784.193 L-132.259 779.101 Z" fill="#000000" fill-rule="evenodd" fill-opacity="1" /><path clip-path="url(#clip960)" d="M 0 0 M-118.446 738.105 L-101.099 750.996 L-82.7977 737.437 L-82.7977 744.344 L-96.8023 754.72 L-82.7977 765.096 L-82.7977 772.003 L-101.449 758.157 L-118.446 770.825 L-118.446 763.918 L-105.746 754.465 L-118.446 745.012 L-118.446 738.105 Z" fill="#000000" fill-rule="evenodd" fill-opacity="1" /><path clip-path="url(#clip960)" d="M 0 0 M-132.259 730.085 L-132.259 724.992 Q-124.748 720.218 -117.554 717.863 Q-110.361 715.475 -103.263 715.475 Q-96.1339 715.475 -88.9088 717.863 Q-81.6837 720.218 -74.204 724.992 L-74.204 730.085 Q-81.4927 725.851 -88.686 723.783 Q-95.9111 721.682 -103.263 721.682 Q-110.616 721.682 -117.777 723.783 Q-124.939 725.851 -132.259 730.085 Z" fill="#000000" fill-rule="evenodd" fill-opacity="1" /><polyline clip-path="url(#clip962)" style="stroke:#009af9; stroke-width:4; stroke-opacity:1; fill:none" points="
  166.42,1464 168.543,1463.9 170.665,1463.81 172.788,1463.71 174.91,1463.62 177.033,1463.52 179.156,1463.42 181.278,1463.32 183.401,1463.22 185.524,1463.12 
  187.646,1463.02 189.769,1462.92 191.892,1462.81 194.014,1462.71 196.137,1462.6 198.26,1462.5 200.382,1462.39 202.505,1462.28 204.628,1462.17 206.75,1462.06 
  208.873,1461.95 210.996,1461.83 213.118,1461.72 215.241,1461.6 217.364,1461.49 219.486,1461.37 221.609,1461.25 223.732,1461.13 225.854,1461.01 227.977,1460.88 
  230.1,1460.76 232.222,1460.64 234.345,1460.51 236.468,1460.38 238.59,1460.25 240.713,1460.12 242.835,1459.99 244.958,1459.86 247.081,1459.72 249.203,1459.59 
  251.326,1459.45 253.449,1459.31 255.571,1459.17 257.694,1459.03 259.817,1458.89 261.939,1458.75 264.062,1458.6 266.185,1458.46 268.307,1458.31 270.43,1458.16 
  272.553,1458.01 274.675,1457.86 276.798,1457.7 278.921,1457.55 281.043,1457.39 283.166,1457.23 285.289,1457.07 287.411,1456.91 289.534,1456.75 291.657,1456.58 
  293.779,1456.42 295.902,1456.25 298.025,1456.08 300.147,1455.91 302.27,1455.74 304.393,1455.56 306.515,1455.39 308.638,1455.21 310.76,1455.03 312.883,1454.85 
  315.006,1454.66 317.128,1454.48 319.251,1454.29 321.374,1454.1 323.496,1453.91 325.619,1453.72 327.742,1453.53 329.864,1453.33 331.987,1453.13 334.11,1452.93 
  336.232,1452.73 338.355,1452.52 340.478,1452.32 342.6,1452.11 344.723,1451.9 346.846,1451.69 348.968,1451.48 351.091,1451.26 353.214,1451.04 355.336,1450.82 
  357.459,1450.6 359.582,1450.37 361.704,1450.15 363.827,1449.92 365.95,1449.69 368.072,1449.45 370.195,1449.22 372.318,1448.98 374.44,1448.74 376.563,1448.5 
  378.685,1448.25 380.808,1448 382.931,1447.75 385.053,1447.5 387.176,1447.25 389.299,1446.99 391.421,1446.73 393.544,1446.47 395.667,1446.2 397.789,1445.94 
  399.912,1445.67 402.035,1445.39 404.157,1445.12 406.28,1444.84 408.403,1444.56 410.525,1444.28 412.648,1443.99 414.771,1443.7 416.893,1443.41 419.016,1443.12 
  421.139,1442.82 423.261,1442.52 425.384,1442.22 427.507,1441.91 429.629,1441.6 431.752,1441.29 433.875,1440.98 435.997,1440.66 438.12,1440.34 440.243,1440.02 
  442.365,1439.69 444.488,1439.36 446.61,1439.03 448.733,1438.69 450.856,1438.35 452.978,1438.01 455.101,1437.66 457.224,1437.31 459.346,1436.96 461.469,1436.61 
  463.592,1436.25 465.714,1435.88 467.837,1435.52 469.96,1435.15 472.082,1434.77 474.205,1434.4 476.328,1434.02 478.45,1433.63 480.573,1433.25 482.696,1432.86 
  484.818,1432.46 486.941,1432.06 489.064,1431.66 491.186,1431.25 493.309,1430.84 495.432,1430.43 497.554,1430.01 499.677,1429.59 501.8,1429.16 503.922,1428.74 
  506.045,1428.3 508.168,1427.86 510.29,1427.42 512.413,1426.98 514.535,1426.53 516.658,1426.07 518.781,1425.61 520.903,1425.15 523.026,1424.68 525.149,1424.21 
  527.271,1423.73 529.394,1423.25 531.517,1422.77 533.639,1422.28 535.762,1421.79 537.885,1421.29 540.007,1420.78 542.13,1420.28 544.253,1419.76 546.375,1419.25 
  548.498,1418.72 550.621,1418.2 552.743,1417.66 554.866,1417.13 556.989,1416.59 559.111,1416.04 561.234,1415.49 563.357,1414.93 565.479,1414.37 567.602,1413.8 
  569.725,1413.23 571.847,1412.65 573.97,1412.07 576.093,1411.48 578.215,1410.89 580.338,1410.29 582.46,1409.68 584.583,1409.07 586.706,1408.46 588.828,1407.83 
  590.951,1407.21 593.074,1406.57 595.196,1405.94 597.319,1405.29 599.442,1404.64 601.564,1403.99 603.687,1403.32 605.81,1402.66 607.932,1401.98 610.055,1401.3 
  612.178,1400.62 614.3,1399.92 616.423,1399.23 618.546,1398.52 620.668,1397.81 622.791,1397.09 624.914,1396.37 627.036,1395.64 629.159,1394.9 631.282,1394.16 
  633.404,1393.41 635.527,1392.65 637.65,1391.89 639.772,1391.12 641.895,1390.34 644.018,1389.56 646.14,1388.77 648.263,1387.97 650.385,1387.16 652.508,1386.35 
  654.631,1385.53 656.753,1384.71 658.876,1383.87 660.999,1383.03 663.121,1382.18 665.244,1381.33 667.367,1380.46 669.489,1379.59 671.612,1378.72 673.735,1377.83 
  675.857,1376.94 677.98,1376.04 680.103,1375.13 682.225,1374.21 684.348,1373.29 686.471,1372.35 688.593,1371.41 690.716,1370.46 692.839,1369.51 694.961,1368.54 
  697.084,1367.57 699.207,1366.59 701.329,1365.6 703.452,1364.6 705.575,1363.59 707.697,1362.58 709.82,1361.55 711.943,1360.52 714.065,1359.48 716.188,1358.43 
  718.311,1357.37 720.433,1356.3 722.556,1355.23 724.678,1354.14 726.801,1353.05 728.924,1351.94 731.046,1350.83 733.169,1349.71 735.292,1348.58 737.414,1347.44 
  739.537,1346.29 741.66,1345.13 743.782,1343.96 745.905,1342.78 748.028,1341.59 750.15,1340.39 752.273,1339.19 754.396,1337.97 756.518,1336.74 758.641,1335.51 
  760.764,1334.26 762.886,1333 765.009,1331.74 767.132,1330.46 769.254,1329.17 771.377,1327.87 773.5,1326.56 775.622,1325.25 777.745,1323.92 779.868,1322.58 
  781.99,1321.23 784.113,1319.87 786.236,1318.5 788.358,1317.12 790.481,1315.72 792.603,1314.32 794.726,1312.91 796.849,1311.48 798.971,1310.04 801.094,1308.6 
  803.217,1307.14 805.339,1305.67 807.462,1304.19 809.585,1302.7 811.707,1301.19 813.83,1299.68 815.953,1298.15 818.075,1296.62 820.198,1295.07 822.321,1293.51 
  824.443,1291.94 826.566,1290.35 828.689,1288.76 830.811,1287.15 832.934,1285.53 835.057,1283.9 837.179,1282.26 839.302,1280.6 841.425,1278.93 843.547,1277.26 
  845.67,1275.56 847.793,1273.86 849.915,1272.15 852.038,1270.42 854.161,1268.68 856.283,1266.93 858.406,1265.16 860.528,1263.38 862.651,1261.6 864.774,1259.79 
  866.896,1257.98 869.019,1256.15 871.142,1254.31 873.264,1252.46 875.387,1250.59 877.51,1248.72 879.632,1246.83 881.755,1244.92 883.878,1243.01 886,1241.08 
  888.123,1239.13 890.246,1237.18 892.368,1235.21 894.491,1233.23 896.614,1231.24 898.736,1229.23 900.859,1227.21 902.982,1225.18 905.104,1223.13 907.227,1221.07 
  909.35,1219 911.472,1216.91 913.595,1214.81 915.718,1212.7 917.84,1210.57 919.963,1208.44 922.086,1206.28 924.208,1204.12 926.331,1201.94 928.453,1199.75 
  930.576,1197.54 932.699,1195.32 934.821,1193.09 936.944,1190.84 939.067,1188.58 941.189,1186.31 943.312,1184.03 945.435,1181.73 947.557,1179.41 949.68,1177.09 
  951.803,1174.75 953.925,1172.4 956.048,1170.03 958.171,1167.65 960.293,1165.26 962.416,1162.85 964.539,1160.43 966.661,1158 968.784,1155.55 970.907,1153.09 
  973.029,1150.62 975.152,1148.13 977.275,1145.63 979.397,1143.12 981.52,1140.59 983.643,1138.05 985.765,1135.5 987.888,1132.93 990.011,1130.35 992.133,1127.76 
  994.256,1125.15 996.378,1122.53 998.501,1119.9 1000.62,1117.26 1002.75,1114.6 1004.87,1111.93 1006.99,1109.24 1009.11,1106.55 1011.24,1103.84 1013.36,1101.12 
  1015.48,1098.38 1017.61,1095.63 1019.73,1092.87 1021.85,1090.1 1023.97,1087.32 1026.1,1084.52 1028.22,1081.71 1030.34,1078.89 1032.46,1076.05 1034.59,1073.21 
  1036.71,1070.35 1038.83,1067.48 1040.95,1064.59 1043.08,1061.7 1045.2,1058.79 1047.32,1055.87 1049.44,1052.94 1051.57,1050 1053.69,1047.05 1055.81,1044.08 
  1057.94,1041.1 1060.06,1038.12 1062.18,1035.12 1064.3,1032.11 1066.43,1029.09 1068.55,1026.05 1070.67,1023.01 1072.79,1019.96 1074.92,1016.89 1077.04,1013.82 
  1079.16,1010.73 1081.28,1007.63 1083.41,1004.53 1085.53,1001.41 1087.65,998.285 1089.78,995.148 1091.9,992.001 1094.02,988.845 1096.14,985.679 1098.27,982.503 
  1100.39,979.318 1102.51,976.124 1104.63,972.921 1106.76,969.708 1108.88,966.487 1111,963.257 1113.12,960.018 1115.25,956.771 1117.37,953.515 1119.49,950.251 
  1121.62,946.978 1123.74,943.698 1125.86,940.41 1127.98,937.114 1130.11,933.81 1132.23,930.499 1134.35,927.181 1136.47,923.856 1138.6,920.523 1140.72,917.183 
  1142.84,913.837 1144.96,910.484 1147.09,907.125 1149.21,903.759 1151.33,900.388 1153.46,897.01 1155.58,893.626 1157.7,890.237 1159.82,886.842 1161.95,883.441 
  1164.07,880.036 1166.19,876.625 1168.31,873.21 1170.44,869.789 1172.56,866.365 1174.68,862.935 1176.8,859.502 1178.93,856.064 1181.05,852.622 1183.17,849.177 
  1185.29,845.728 1187.42,842.276 1189.54,838.82 1191.66,835.361 1193.79,831.899 1195.91,828.435 1198.03,824.968 1200.15,821.498 1202.28,818.026 1204.4,814.552 
  1206.52,811.077 1208.64,807.599 1210.77,804.12 1212.89,800.64 1215.01,797.158 1217.13,793.675 1219.26,790.192 1221.38,786.707 1223.5,783.222 1225.63,779.737 
  1227.75,776.252 1229.87,772.767 1231.99,769.281 1234.12,765.797 1236.24,762.312 1238.36,758.829 1240.48,755.346 1242.61,751.864 1244.73,748.384 1246.85,744.905 
  1248.97,741.427 1251.1,737.952 1253.22,734.478 1255.34,731.006 1257.47,727.536 1259.59,724.069 1261.71,720.605 1263.83,717.143 1265.96,713.684 1268.08,710.228 
  1270.2,706.776 1272.32,703.327 1274.45,699.882 1276.57,696.44 1278.69,693.002 1280.81,689.569 1282.94,686.139 1285.06,682.715 1287.18,679.294 1289.31,675.879 
  1291.43,672.468 1293.55,669.063 1295.67,665.662 1297.8,662.267 1299.92,658.878 1302.04,655.494 1304.16,652.116 1306.29,648.745 1308.41,645.379 1310.53,642.02 
  1312.65,638.667 1314.78,635.32 1316.9,631.981 1319.02,628.648 1321.14,625.323 1323.27,622.004 1325.39,618.693 1327.51,615.39 1329.64,612.094 1331.76,608.806 
  1333.88,605.526 1336,602.253 1338.13,598.989 1340.25,595.733 1342.37,592.486 1344.49,589.247 1346.62,586.017 1348.74,582.796 1350.86,579.583 1352.98,576.38 
  1355.11,573.185 1357.23,570.001 1359.35,566.825 1361.48,563.659 1363.6,560.503 1365.72,557.356 1367.84,554.219 1369.97,551.093 1372.09,547.976 1374.21,544.869 
  1376.33,541.773 1378.46,538.687 1380.58,535.612 1382.7,532.548 1384.82,529.494 1386.95,526.45 1389.07,523.418 1391.19,520.397 1393.32,517.386 1395.44,514.387 
  1397.56,511.399 1399.68,508.423 1401.81,505.458 1403.93,502.504 1406.05,499.562 1408.17,496.632 1410.3,493.713 1412.42,490.806 1414.54,487.911 1416.66,485.028 
  1418.79,482.157 1420.91,479.298 1423.03,476.451 1425.16,473.617 1427.28,470.795 1429.4,467.985 1431.52,465.187 1433.65,462.402 1435.77,459.629 1437.89,456.869 
  1440.01,454.122 1442.14,451.387 1444.26,448.665 1446.38,445.956 1448.5,443.26 1450.63,440.576 1452.75,437.905 1454.87,435.248 1456.99,432.603 1459.12,429.971 
  1461.24,427.352 1463.36,424.747 1465.49,422.154 1467.61,419.575 1469.73,417.008 1471.85,414.455 1473.98,411.915 1476.1,409.389 1478.22,406.875 1480.34,404.375 
  1482.47,401.889 1484.59,399.415 1486.71,396.955 1488.83,394.508 1490.96,392.075 1493.08,389.655 1495.2,387.248 1497.33,384.855 1499.45,382.475 1501.57,380.109 
  1503.69,377.756 1505.82,375.416 1507.94,373.09 1510.06,370.777 1512.18,368.478 1514.31,366.192 1516.43,363.919 1518.55,361.66 1520.67,359.414 1522.8,357.182 
  1524.92,354.963 1527.04,352.757 1529.17,350.565 1531.29,348.386 1533.41,346.22 1535.53,344.068 1537.66,341.929 1539.78,339.804 1541.9,337.691 1544.02,335.592 
  1546.15,333.506 1548.27,331.433 1550.39,329.374 1552.51,327.327 1554.64,325.294 1556.76,323.274 1558.88,321.267 1561.01,319.273 1563.13,317.292 1565.25,315.324 
  1567.37,313.369 1569.5,311.427 1571.62,309.498 1573.74,307.582 1575.86,305.678 1577.99,303.788 1580.11,301.91 1582.23,300.045 1584.35,298.192 1586.48,296.352 
  1588.6,294.525 1590.72,292.711 1592.84,290.909 1594.97,289.119 1597.09,287.342 1599.21,285.578 1601.34,283.825 1603.46,282.085 1605.58,280.358 1607.7,278.642 
  1609.83,276.939 1611.95,275.248 1614.07,273.569 1616.19,271.903 1618.32,270.248 1620.44,268.605 1622.56,266.974 1624.68,265.355 1626.81,263.748 1628.93,262.152 
  1631.05,260.568 1633.18,258.996 1635.3,257.436 1637.42,255.887 1639.54,254.35 1641.67,252.824 1643.79,251.309 1645.91,249.806 1648.03,248.314 1650.16,246.834 
  1652.28,245.364 1654.4,243.906 1656.52,242.459 1658.65,241.023 1660.77,239.598 1662.89,238.184 1665.02,236.781 1667.14,235.388 1669.26,234.006 1671.38,232.635 
  1673.51,231.275 1675.63,229.925 1677.75,228.586 1679.87,227.257 1682,225.939 1684.12,224.631 1686.24,223.333 1688.36,222.046 1690.49,220.769 1692.61,219.502 
  1694.73,218.245 1696.86,216.998 1698.98,215.761 1701.1,214.534 1703.22,213.317 1705.35,212.109 1707.47,210.911 1709.59,209.723 1711.71,208.545 1713.84,207.376 
  1715.96,206.217 1718.08,205.067 1720.2,203.926 1722.33,202.795 1724.45,201.673 1726.57,200.56 1728.69,199.457 1730.82,198.362 1732.94,197.277 1735.06,196.2 
  1737.19,195.133 1739.31,194.074 1741.43,193.024 1743.55,191.983 1745.68,190.951 1747.8,189.927 1749.92,188.912 1752.04,187.905 1754.17,186.907 1756.29,185.917 
  1758.41,184.935 1760.53,183.962 1762.66,182.997 1764.78,182.04 1766.9,181.092 1769.03,180.151 1771.15,179.219 1773.27,178.294 1775.39,177.377 1777.52,176.468 
  1779.64,175.567 1781.76,174.674 1783.88,173.788 1786.01,172.91 1788.13,172.039 1790.25,171.176 1792.37,170.321 1794.5,169.473 1796.62,168.632 1798.74,167.798 
  1800.87,166.972 1802.99,166.153 1805.11,165.341 1807.23,164.536 1809.36,163.738 1811.48,162.948 1813.6,162.164 1815.72,161.387 1817.85,160.616 1819.97,159.853 
  1822.09,159.096 1824.21,158.346 1826.34,157.603 1828.46,156.866 1830.58,156.136 1832.71,155.412 1834.83,154.694 1836.95,153.983 1839.07,153.278 1841.2,152.58 
  1843.32,151.888 1845.44,151.202 1847.56,150.522 1849.69,149.848 1851.81,149.18 1853.93,148.518 1856.05,147.862 1858.18,147.212 1860.3,146.568 1862.42,145.929 
  1864.54,145.297 1866.67,144.67 1868.79,144.048 1870.91,143.433 1873.04,142.822 1875.16,142.218 1877.28,141.619 1879.4,141.025 1881.53,140.436 1883.65,139.853 
  1885.77,139.276 1887.89,138.703 1890.02,138.136 1892.14,137.574 1894.26,137.017 1896.38,136.465 1898.51,135.918 1900.63,135.377 1902.75,134.84 1904.88,134.308 
  1907,133.781 1909.12,133.258 1911.24,132.741 1913.37,132.228 1915.49,131.72 1917.61,131.217 1919.73,130.718 1921.86,130.224 1923.98,129.735 1926.1,129.25 
  1928.22,128.769 1930.35,128.293 1932.47,127.822 1934.59,127.354 1936.72,126.891 1938.84,126.433 1940.96,125.978 1943.08,125.528 1945.21,125.082 1947.33,124.64 
  1949.45,124.203 1951.57,123.769 1953.7,123.339 1955.82,122.914 1957.94,122.492 1960.06,122.074 1962.19,121.66 1964.31,121.25 1966.43,120.844 1968.56,120.442 
  1970.68,120.043 1972.8,119.649 1974.92,119.258 1977.05,118.87 1979.17,118.486 1981.29,118.106 1983.41,117.729 1985.54,117.356 1987.66,116.987 1989.78,116.621 
  1991.9,116.258 1994.03,115.899 1996.15,115.543 1998.27,115.19 2000.39,114.841 2002.52,114.495 2004.64,114.153 2006.76,113.813 2008.89,113.477 2011.01,113.144 
  2013.13,112.815 2015.25,112.488 2017.38,112.164 2019.5,111.844 2021.62,111.526 2023.74,111.212 2025.87,110.9 2027.99,110.592 2030.11,110.286 2032.23,109.983 
  2034.36,109.684 2036.48,109.387 2038.6,109.093 2040.73,108.801 2042.85,108.513 2044.97,108.227 2047.09,107.944 2049.22,107.663 2051.34,107.386 2053.46,107.111 
  2055.58,106.838 2057.71,106.568 2059.83,106.301 2061.95,106.036 2064.07,105.774 2066.2,105.515 2068.32,105.258 2070.44,105.003 2072.57,104.751 2074.69,104.501 
  2076.81,104.253 2078.93,104.008 2081.06,103.766 2083.18,103.525 2085.3,103.287 2087.42,103.051 2089.55,102.818 2091.67,102.587 2093.79,102.357 2095.91,102.131 
  2098.04,101.906 2100.16,101.683 2102.28,101.463 2104.41,101.245 2106.53,101.029 2108.65,100.815 2110.77,100.603 2112.9,100.393 2115.02,100.185 2117.14,99.979 
  2119.26,99.7751 2121.39,99.5731 2123.51,99.3731 2125.63,99.175 2127.75,98.9789 2129.88,98.7846 2132,98.5923 2134.12,98.4018 2136.24,98.2131 2138.37,98.0262 
  2140.49,97.8412 2142.61,97.658 2144.74,97.4765 2146.86,97.2968 2148.98,97.1188 2151.1,96.9426 2153.23,96.7681 2155.35,96.5952 2157.47,96.4241 2159.59,96.2546 
  2161.72,96.0867 2163.84,95.9205 2165.96,95.7559 2168.08,95.5929 2170.21,95.4314 2172.33,95.2716 2174.45,95.1133 2176.58,94.9565 2178.7,94.8013 2180.82,94.6475 
  2182.94,94.4953 2185.07,94.3445 2187.19,94.1953 2189.31,94.0474 2191.43,93.901 2193.56,93.7561 2195.68,93.6125 2197.8,93.4704 2199.92,93.3296 2202.05,93.1902 
  2204.17,93.0522 2206.29,92.9155 2208.42,92.7801 2210.54,92.6461 2212.66,92.5133 2214.78,92.3819 2216.91,92.2518 2219.03,92.1229 2221.15,91.9953 2223.27,91.8689 
  2225.4,91.7437 2227.52,91.6198 2229.64,91.4971 2231.76,91.3756 2233.89,91.2553 2236.01,91.1362 2238.13,91.0182 2240.26,90.9014 2242.38,90.7857 2244.5,90.6711 
  2246.62,90.5577 2248.75,90.4454 2250.87,90.3342 2252.99,90.224 2255.11,90.115 2257.24,90.007 2259.36,89.9001 2261.48,89.7942 2263.6,89.6894 2265.73,89.5856 
  2267.85,89.4828 2269.97,89.381 2272.09,89.2802 2274.22,89.1804 2276.34,89.0816 2278.46,88.9837 2280.59,88.8868 2282.71,88.7909 2284.83,88.6959 2286.95,88.6018 
  2289.08,88.5087 
  "/>
</svg>
