<?xml version="1.0" encoding="utf-8" standalone="no"?>
<!DOCTYPE svg PUBLIC "-//W3C//DTD SVG 1.1//EN"
  "http://www.w3.org/Graphics/SVG/1.1/DTD/svg11.dtd">
<!-- Created with matplotlib (https://matplotlib.org/) -->
<svg height="288pt" version="1.1" viewBox="0 0 432 288" width="432pt" xmlns="http://www.w3.org/2000/svg" xmlns:xlink="http://www.w3.org/1999/xlink">
 <defs>
  <style type="text/css">
*{stroke-linecap:butt;stroke-linejoin:round;}
  </style>
 </defs>
 <g id="figure_1">
  <g id="patch_1">
   <path d="M 0 288 
L 432 288 
L 432 0 
L 0 0 
z
" style="fill:#ffffff;"/>
  </g>
  <g id="axes_1">
   <g id="patch_2">
    <path d="M 52.844792 248.865354 
L 429.165354 248.865354 
L 429.165354 19.634646 
L 52.844792 19.634646 
z
" style="fill:#ffffff;"/>
   </g>
   <g id="matplotlib.axis_1">
    <g id="xtick_1">
     <g id="line2d_1">
      <path clip-path="url(#p7749c50d26)" d="M 63.495374 248.865354 
L 63.495374 19.634646 
" style="fill:none;stroke:#000000;stroke-linecap:square;stroke-opacity:0.1;stroke-width:0.5;"/>
     </g>
     <g id="line2d_2">
      <defs>
       <path d="M 0 0 
L 0 -2.5 
" id="m1336b2f11f" style="stroke:#000000;stroke-width:0.5;"/>
      </defs>
      <g>
       <use style="stroke:#000000;stroke-width:0.5;" x="63.495374" xlink:href="#m1336b2f11f" y="248.865354"/>
      </g>
     </g>
     <g id="text_1">
      <!-- $\mathregular{-10}$ -->
      <defs>
       <path d="M 10.59375 35.5 
L 73.1875 35.5 
L 73.1875 27.203125 
L 10.59375 27.203125 
z
" id="DejaVuSans-8722"/>
       <path d="M 12.40625 8.296875 
L 28.515625 8.296875 
L 28.515625 63.921875 
L 10.984375 60.40625 
L 10.984375 69.390625 
L 28.421875 72.90625 
L 38.28125 72.90625 
L 38.28125 8.296875 
L 54.390625 8.296875 
L 54.390625 0 
L 12.40625 0 
z
" id="DejaVuSans-49"/>
       <path d="M 31.78125 66.40625 
Q 24.171875 66.40625 20.328125 58.90625 
Q 16.5 51.421875 16.5 36.375 
Q 16.5 21.390625 20.328125 13.890625 
Q 24.171875 6.390625 31.78125 6.390625 
Q 39.453125 6.390625 43.28125 13.890625 
Q 47.125 21.390625 47.125 36.375 
Q 47.125 51.421875 43.28125 58.90625 
Q 39.453125 66.40625 31.78125 66.40625 
z
M 31.78125 74.21875 
Q 44.046875 74.21875 50.515625 64.515625 
Q 56.984375 54.828125 56.984375 36.375 
Q 56.984375 17.96875 50.515625 8.265625 
Q 44.046875 -1.421875 31.78125 -1.421875 
Q 19.53125 -1.421875 13.0625 8.265625 
Q 6.59375 17.96875 6.59375 36.375 
Q 6.59375 54.828125 13.0625 64.515625 
Q 19.53125 74.21875 31.78125 74.21875 
z
" id="DejaVuSans-48"/>
      </defs>
      <g transform="translate(47.595374 263.763011)scale(0.15 -0.15)">
       <use transform="translate(0 0.78125)" xlink:href="#DejaVuSans-8722"/>
       <use transform="translate(83.789062 0.78125)" xlink:href="#DejaVuSans-49"/>
       <use transform="translate(147.412109 0.78125)" xlink:href="#DejaVuSans-48"/>
      </g>
     </g>
    </g>
    <g id="xtick_2">
     <g id="line2d_3">
      <path clip-path="url(#p7749c50d26)" d="M 152.250224 248.865354 
L 152.250224 19.634646 
" style="fill:none;stroke:#000000;stroke-linecap:square;stroke-opacity:0.1;stroke-width:0.5;"/>
     </g>
     <g id="line2d_4">
      <g>
       <use style="stroke:#000000;stroke-width:0.5;" x="152.250224" xlink:href="#m1336b2f11f" y="248.865354"/>
      </g>
     </g>
     <g id="text_2">
      <!-- $\mathregular{-5}$ -->
      <defs>
       <path d="M 10.796875 72.90625 
L 49.515625 72.90625 
L 49.515625 64.59375 
L 19.828125 64.59375 
L 19.828125 46.734375 
Q 21.96875 47.46875 24.109375 47.828125 
Q 26.265625 48.1875 28.421875 48.1875 
Q 40.625 48.1875 47.75 41.5 
Q 54.890625 34.8125 54.890625 23.390625 
Q 54.890625 11.625 47.5625 5.09375 
Q 40.234375 -1.421875 26.90625 -1.421875 
Q 22.3125 -1.421875 17.546875 -0.640625 
Q 12.796875 0.140625 7.71875 1.703125 
L 7.71875 11.625 
Q 12.109375 9.234375 16.796875 8.0625 
Q 21.484375 6.890625 26.703125 6.890625 
Q 35.15625 6.890625 40.078125 11.328125 
Q 45.015625 15.765625 45.015625 23.390625 
Q 45.015625 31 40.078125 35.4375 
Q 35.15625 39.890625 26.703125 39.890625 
Q 22.75 39.890625 18.8125 39.015625 
Q 14.890625 38.140625 10.796875 36.28125 
z
" id="DejaVuSans-53"/>
      </defs>
      <g transform="translate(141.150224 263.763011)scale(0.15 -0.15)">
       <use transform="translate(0 0.09375)" xlink:href="#DejaVuSans-8722"/>
       <use transform="translate(83.789062 0.09375)" xlink:href="#DejaVuSans-53"/>
      </g>
     </g>
    </g>
    <g id="xtick_3">
     <g id="line2d_5">
      <path clip-path="url(#p7749c50d26)" d="M 241.005073 248.865354 
L 241.005073 19.634646 
" style="fill:none;stroke:#000000;stroke-linecap:square;stroke-opacity:0.1;stroke-width:0.5;"/>
     </g>
     <g id="line2d_6">
      <g>
       <use style="stroke:#000000;stroke-width:0.5;" x="241.005073" xlink:href="#m1336b2f11f" y="248.865354"/>
      </g>
     </g>
     <g id="text_3">
      <!-- $\mathregular{0}$ -->
      <g transform="translate(236.205073 263.763011)scale(0.15 -0.15)">
       <use transform="translate(0 0.78125)" xlink:href="#DejaVuSans-48"/>
      </g>
     </g>
    </g>
    <g id="xtick_4">
     <g id="line2d_7">
      <path clip-path="url(#p7749c50d26)" d="M 329.759923 248.865354 
L 329.759923 19.634646 
" style="fill:none;stroke:#000000;stroke-linecap:square;stroke-opacity:0.1;stroke-width:0.5;"/>
     </g>
     <g id="line2d_8">
      <g>
       <use style="stroke:#000000;stroke-width:0.5;" x="329.759923" xlink:href="#m1336b2f11f" y="248.865354"/>
      </g>
     </g>
     <g id="text_4">
      <!-- $\mathregular{5}$ -->
      <g transform="translate(324.959923 263.763011)scale(0.15 -0.15)">
       <use transform="translate(0 0.09375)" xlink:href="#DejaVuSans-53"/>
      </g>
     </g>
    </g>
    <g id="xtick_5">
     <g id="line2d_9">
      <path clip-path="url(#p7749c50d26)" d="M 418.514772 248.865354 
L 418.514772 19.634646 
" style="fill:none;stroke:#000000;stroke-linecap:square;stroke-opacity:0.1;stroke-width:0.5;"/>
     </g>
     <g id="line2d_10">
      <g>
       <use style="stroke:#000000;stroke-width:0.5;" x="418.514772" xlink:href="#m1336b2f11f" y="248.865354"/>
      </g>
     </g>
     <g id="text_5">
      <!-- $\mathregular{10}$ -->
      <g transform="translate(408.914772 263.763011)scale(0.15 -0.15)">
       <use transform="translate(0 0.78125)" xlink:href="#DejaVuSans-49"/>
       <use transform="translate(63.623047 0.78125)" xlink:href="#DejaVuSans-48"/>
      </g>
     </g>
    </g>
    <g id="text_6">
     <!-- x -->
     <defs>
      <path d="M 54.890625 54.6875 
L 35.109375 28.078125 
L 55.90625 0 
L 45.3125 0 
L 29.390625 21.484375 
L 13.484375 0 
L 2.875 0 
L 24.125 28.609375 
L 4.6875 54.6875 
L 15.28125 54.6875 
L 29.78125 35.203125 
L 44.28125 54.6875 
z
" id="DejaVuSans-120"/>
     </defs>
     <g transform="translate(236.566011 282.280198)scale(0.15 -0.15)">
      <use xlink:href="#DejaVuSans-120"/>
     </g>
    </g>
   </g>
   <g id="matplotlib.axis_2">
    <g id="ytick_1">
     <g id="line2d_11">
      <path clip-path="url(#p7749c50d26)" d="M 52.844792 242.377693 
L 429.165354 242.377693 
" style="fill:none;stroke:#000000;stroke-linecap:square;stroke-opacity:0.1;stroke-width:0.5;"/>
     </g>
     <g id="line2d_12">
      <defs>
       <path d="M 0 0 
L 2.5 0 
" id="m2499540954" style="stroke:#000000;stroke-width:0.5;"/>
      </defs>
      <g>
       <use style="stroke:#000000;stroke-width:0.5;" x="52.844792" xlink:href="#m2499540954" y="242.377693"/>
      </g>
     </g>
     <g id="text_7">
      <!-- $\mathregular{0.0}$ -->
      <defs>
       <path d="M 10.6875 12.40625 
L 21 12.40625 
L 21 0 
L 10.6875 0 
z
" id="DejaVuSans-46"/>
      </defs>
      <g transform="translate(25.344792 248.076521)scale(0.15 -0.15)">
       <use transform="translate(0 0.78125)" xlink:href="#DejaVuSans-48"/>
       <use transform="translate(63.623047 0.78125)" xlink:href="#DejaVuSans-46"/>
       <use transform="translate(95.410156 0.78125)" xlink:href="#DejaVuSans-48"/>
      </g>
     </g>
    </g>
    <g id="ytick_2">
     <g id="line2d_13">
      <path clip-path="url(#p7749c50d26)" d="M 52.844792 204.023339 
L 429.165354 204.023339 
" style="fill:none;stroke:#000000;stroke-linecap:square;stroke-opacity:0.1;stroke-width:0.5;"/>
     </g>
     <g id="line2d_14">
      <g>
       <use style="stroke:#000000;stroke-width:0.5;" x="52.844792" xlink:href="#m2499540954" y="204.023339"/>
      </g>
     </g>
     <g id="text_8">
      <!-- $\mathregular{0.1}$ -->
      <g transform="translate(25.344792 209.722168)scale(0.15 -0.15)">
       <use transform="translate(0 0.78125)" xlink:href="#DejaVuSans-48"/>
       <use transform="translate(63.623047 0.78125)" xlink:href="#DejaVuSans-46"/>
       <use transform="translate(95.410156 0.78125)" xlink:href="#DejaVuSans-49"/>
      </g>
     </g>
    </g>
    <g id="ytick_3">
     <g id="line2d_15">
      <path clip-path="url(#p7749c50d26)" d="M 52.844792 165.668986 
L 429.165354 165.668986 
" style="fill:none;stroke:#000000;stroke-linecap:square;stroke-opacity:0.1;stroke-width:0.5;"/>
     </g>
     <g id="line2d_16">
      <g>
       <use style="stroke:#000000;stroke-width:0.5;" x="52.844792" xlink:href="#m2499540954" y="165.668986"/>
      </g>
     </g>
     <g id="text_9">
      <!-- $\mathregular{0.2}$ -->
      <defs>
       <path d="M 19.1875 8.296875 
L 53.609375 8.296875 
L 53.609375 0 
L 7.328125 0 
L 7.328125 8.296875 
Q 12.9375 14.109375 22.625 23.890625 
Q 32.328125 33.6875 34.8125 36.53125 
Q 39.546875 41.84375 41.421875 45.53125 
Q 43.3125 49.21875 43.3125 52.78125 
Q 43.3125 58.59375 39.234375 62.25 
Q 35.15625 65.921875 28.609375 65.921875 
Q 23.96875 65.921875 18.8125 64.3125 
Q 13.671875 62.703125 7.8125 59.421875 
L 7.8125 69.390625 
Q 13.765625 71.78125 18.9375 73 
Q 24.125 74.21875 28.421875 74.21875 
Q 39.75 74.21875 46.484375 68.546875 
Q 53.21875 62.890625 53.21875 53.421875 
Q 53.21875 48.921875 51.53125 44.890625 
Q 49.859375 40.875 45.40625 35.40625 
Q 44.1875 33.984375 37.640625 27.21875 
Q 31.109375 20.453125 19.1875 8.296875 
z
" id="DejaVuSans-50"/>
      </defs>
      <g transform="translate(25.494792 171.367814)scale(0.15 -0.15)">
       <use transform="translate(0 0.78125)" xlink:href="#DejaVuSans-48"/>
       <use transform="translate(63.623047 0.78125)" xlink:href="#DejaVuSans-46"/>
       <use transform="translate(95.332031 0.78125)" xlink:href="#DejaVuSans-50"/>
      </g>
     </g>
    </g>
    <g id="ytick_4">
     <g id="line2d_17">
      <path clip-path="url(#p7749c50d26)" d="M 52.844792 127.314633 
L 429.165354 127.314633 
" style="fill:none;stroke:#000000;stroke-linecap:square;stroke-opacity:0.1;stroke-width:0.5;"/>
     </g>
     <g id="line2d_18">
      <g>
       <use style="stroke:#000000;stroke-width:0.5;" x="52.844792" xlink:href="#m2499540954" y="127.314633"/>
      </g>
     </g>
     <g id="text_10">
      <!-- $\mathregular{0.3}$ -->
      <defs>
       <path d="M 40.578125 39.3125 
Q 47.65625 37.796875 51.625 33 
Q 55.609375 28.21875 55.609375 21.1875 
Q 55.609375 10.40625 48.1875 4.484375 
Q 40.765625 -1.421875 27.09375 -1.421875 
Q 22.515625 -1.421875 17.65625 -0.515625 
Q 12.796875 0.390625 7.625 2.203125 
L 7.625 11.71875 
Q 11.71875 9.328125 16.59375 8.109375 
Q 21.484375 6.890625 26.8125 6.890625 
Q 36.078125 6.890625 40.9375 10.546875 
Q 45.796875 14.203125 45.796875 21.1875 
Q 45.796875 27.640625 41.28125 31.265625 
Q 36.765625 34.90625 28.71875 34.90625 
L 20.21875 34.90625 
L 20.21875 43.015625 
L 29.109375 43.015625 
Q 36.375 43.015625 40.234375 45.921875 
Q 44.09375 48.828125 44.09375 54.296875 
Q 44.09375 59.90625 40.109375 62.90625 
Q 36.140625 65.921875 28.71875 65.921875 
Q 24.65625 65.921875 20.015625 65.03125 
Q 15.375 64.15625 9.8125 62.3125 
L 9.8125 71.09375 
Q 15.4375 72.65625 20.34375 73.4375 
Q 25.25 74.21875 29.59375 74.21875 
Q 40.828125 74.21875 47.359375 69.109375 
Q 53.90625 64.015625 53.90625 55.328125 
Q 53.90625 49.265625 50.4375 45.09375 
Q 46.96875 40.921875 40.578125 39.3125 
z
" id="DejaVuSans-51"/>
      </defs>
      <g transform="translate(25.344792 133.013461)scale(0.15 -0.15)">
       <use transform="translate(0 0.78125)" xlink:href="#DejaVuSans-48"/>
       <use transform="translate(63.623047 0.78125)" xlink:href="#DejaVuSans-46"/>
       <use transform="translate(95.410156 0.78125)" xlink:href="#DejaVuSans-51"/>
      </g>
     </g>
    </g>
    <g id="ytick_5">
     <g id="line2d_19">
      <path clip-path="url(#p7749c50d26)" d="M 52.844792 88.96028 
L 429.165354 88.96028 
" style="fill:none;stroke:#000000;stroke-linecap:square;stroke-opacity:0.1;stroke-width:0.5;"/>
     </g>
     <g id="line2d_20">
      <g>
       <use style="stroke:#000000;stroke-width:0.5;" x="52.844792" xlink:href="#m2499540954" y="88.96028"/>
      </g>
     </g>
     <g id="text_11">
      <!-- $\mathregular{0.4}$ -->
      <defs>
       <path d="M 37.796875 64.3125 
L 12.890625 25.390625 
L 37.796875 25.390625 
z
M 35.203125 72.90625 
L 47.609375 72.90625 
L 47.609375 25.390625 
L 58.015625 25.390625 
L 58.015625 17.1875 
L 47.609375 17.1875 
L 47.609375 0 
L 37.796875 0 
L 37.796875 17.1875 
L 4.890625 17.1875 
L 4.890625 26.703125 
z
" id="DejaVuSans-52"/>
      </defs>
      <g transform="translate(25.344792 94.659108)scale(0.15 -0.15)">
       <use transform="translate(0 0.78125)" xlink:href="#DejaVuSans-48"/>
       <use transform="translate(63.623047 0.78125)" xlink:href="#DejaVuSans-46"/>
       <use transform="translate(95.410156 0.78125)" xlink:href="#DejaVuSans-52"/>
      </g>
     </g>
    </g>
    <g id="ytick_6">
     <g id="line2d_21">
      <path clip-path="url(#p7749c50d26)" d="M 52.844792 50.605926 
L 429.165354 50.605926 
" style="fill:none;stroke:#000000;stroke-linecap:square;stroke-opacity:0.1;stroke-width:0.5;"/>
     </g>
     <g id="line2d_22">
      <g>
       <use style="stroke:#000000;stroke-width:0.5;" x="52.844792" xlink:href="#m2499540954" y="50.605926"/>
      </g>
     </g>
     <g id="text_12">
      <!-- $\mathregular{0.5}$ -->
      <g transform="translate(25.344792 56.304754)scale(0.15 -0.15)">
       <use transform="translate(0 0.78125)" xlink:href="#DejaVuSans-48"/>
       <use transform="translate(63.623047 0.78125)" xlink:href="#DejaVuSans-46"/>
       <use transform="translate(95.410156 0.78125)" xlink:href="#DejaVuSans-53"/>
      </g>
     </g>
    </g>
    <g id="text_13">
     <!-- $p_\lambda(x|y)$ -->
     <defs>
      <path d="M 49.609375 33.6875 
Q 49.609375 40.875 46.484375 44.671875 
Q 43.359375 48.484375 37.5 48.484375 
Q 33.5 48.484375 29.859375 46.4375 
Q 26.21875 44.390625 23.390625 40.484375 
Q 20.609375 36.625 18.9375 31.15625 
Q 17.28125 25.6875 17.28125 20.3125 
Q 17.28125 13.484375 20.40625 9.796875 
Q 23.53125 6.109375 29.296875 6.109375 
Q 33.546875 6.109375 37.1875 8.109375 
Q 40.828125 10.109375 43.40625 13.921875 
Q 46.1875 17.921875 47.890625 23.34375 
Q 49.609375 28.765625 49.609375 33.6875 
z
M 21.78125 46.390625 
Q 25.390625 51.125 30.296875 53.5625 
Q 35.203125 56 41.21875 56 
Q 49.609375 56 54.25 50.5 
Q 58.890625 45.015625 58.890625 35.109375 
Q 58.890625 27 56 19.65625 
Q 53.125 12.3125 47.703125 6.5 
Q 44.09375 2.640625 39.546875 0.609375 
Q 35.015625 -1.421875 29.984375 -1.421875 
Q 24.171875 -1.421875 20.21875 1 
Q 16.265625 3.421875 14.3125 8.203125 
L 8.6875 -20.796875 
L -0.296875 -20.796875 
L 14.40625 54.6875 
L 23.390625 54.6875 
z
" id="DejaVuSans-Oblique-112"/>
      <path d="M 36.71875 67.4375 
L 48.828125 0 
L 39.3125 0 
L 31.84375 40.4375 
L 5.125 0 
L -4.390625 0 
L 29.734375 52.4375 
L 28.03125 62.109375 
Q 26.953125 68.265625 21.734375 68.265625 
L 17.046875 68.265625 
L 18.5 75.984375 
L 24.21875 75.875 
Q 35.203125 75.734375 36.71875 67.4375 
z
" id="DejaVuSans-Oblique-955"/>
      <path d="M 31 75.875 
Q 24.46875 64.65625 21.28125 53.65625 
Q 18.109375 42.671875 18.109375 31.390625 
Q 18.109375 20.125 21.3125 9.0625 
Q 24.515625 -2 31 -13.1875 
L 23.1875 -13.1875 
Q 15.875 -1.703125 12.234375 9.375 
Q 8.59375 20.453125 8.59375 31.390625 
Q 8.59375 42.28125 12.203125 53.3125 
Q 15.828125 64.359375 23.1875 75.875 
z
" id="DejaVuSans-40"/>
      <path d="M 60.015625 54.6875 
L 34.90625 27.875 
L 50.296875 0 
L 39.984375 0 
L 28.421875 21.6875 
L 8.296875 0 
L -2.59375 0 
L 24.3125 28.8125 
L 10.015625 54.6875 
L 20.3125 54.6875 
L 30.8125 34.90625 
L 49.125 54.6875 
z
" id="DejaVuSans-Oblique-120"/>
      <path d="M 21 76.421875 
L 21 -23.578125 
L 12.703125 -23.578125 
L 12.703125 76.421875 
z
" id="DejaVuSans-124"/>
      <path d="M 24.8125 -5.078125 
Q 18.5625 -15.578125 14.625 -18.1875 
Q 10.6875 -20.796875 4.59375 -20.796875 
L -2.484375 -20.796875 
L -0.984375 -13.28125 
L 4.203125 -13.28125 
Q 7.953125 -13.28125 10.59375 -11.234375 
Q 13.234375 -9.1875 16.5 -3.21875 
L 19.28125 2 
L 7.171875 54.6875 
L 16.703125 54.6875 
L 25.78125 12.796875 
L 50.875 54.6875 
L 60.296875 54.6875 
z
" id="DejaVuSans-Oblique-121"/>
      <path d="M 8.015625 75.875 
L 15.828125 75.875 
Q 23.140625 64.359375 26.78125 53.3125 
Q 30.421875 42.28125 30.421875 31.390625 
Q 30.421875 20.453125 26.78125 9.375 
Q 23.140625 -1.703125 15.828125 -13.1875 
L 8.015625 -13.1875 
Q 14.5 -2 17.703125 9.0625 
Q 20.90625 20.125 20.90625 31.390625 
Q 20.90625 42.671875 17.703125 53.65625 
Q 14.5 64.65625 8.015625 75.875 
z
" id="DejaVuSans-41"/>
     </defs>
     <g transform="translate(17.744792 159.6)rotate(-90)scale(0.15 -0.15)">
      <use transform="translate(0 0.578125)" xlink:href="#DejaVuSans-Oblique-112"/>
      <use transform="translate(63.476562 -15.828125)scale(0.7)" xlink:href="#DejaVuSans-Oblique-955"/>
      <use transform="translate(107.636719 0.578125)" xlink:href="#DejaVuSans-40"/>
      <use transform="translate(146.650391 0.578125)" xlink:href="#DejaVuSans-Oblique-120"/>
      <use transform="translate(205.830078 0.578125)" xlink:href="#DejaVuSans-124"/>
      <use transform="translate(239.521484 0.578125)" xlink:href="#DejaVuSans-Oblique-121"/>
      <use transform="translate(298.701172 0.578125)" xlink:href="#DejaVuSans-41"/>
     </g>
    </g>
   </g>
   <g id="line2d_23">
    <path clip-path="url(#p7749c50d26)" d="M 63.495374 242.377693 
L 350.89203 242.269703 
L 356.230667 242.053114 
L 359.789759 241.734823 
L 362.459078 241.332329 
L 365.128397 240.715845 
L 366.907943 240.142314 
L 368.687488 239.400917 
L 370.467034 238.453263 
L 372.24658 237.255662 
L 374.026126 235.759444 
L 375.805672 233.911674 
L 377.585218 231.656313 
L 379.364764 228.935895 
L 381.144309 225.693727 
L 382.923855 221.876625 
L 384.703401 217.438124 
L 386.482947 212.342069 
L 388.262493 206.566431 
L 390.042039 200.107147 
L 391.821585 192.981743 
L 394.490903 181.14439 
L 397.160222 168.167534 
L 402.49886 140.529645 
L 406.057951 122.761887 
L 407.837497 114.686957 
L 409.617043 107.43 
L 411.396589 101.186762 
L 413.176135 96.131895 
L 414.065908 94.096895 
L 414.955681 92.41085 
L 415.845454 91.086239 
L 416.735227 90.132931 
L 417.624999 89.558065 
L 418.514772 89.365961 
L 418.514772 89.365961 
" style="fill:none;stroke:#009afa;stroke-width:2;"/>
   </g>
   <g id="line2d_24">
    <path clip-path="url(#p7749c50d26)" d="M 63.495374 242.377693 
L 308.182929 242.278059 
L 313.521567 242.041708 
L 317.080659 241.66636 
L 319.749977 241.168099 
L 321.529523 240.680218 
L 323.309069 240.02411 
L 325.088615 239.153522 
L 326.868161 238.013852 
L 328.647707 236.54214 
L 330.427253 234.667638 
L 332.206798 232.313123 
L 333.986344 229.397078 
L 335.76589 225.83685 
L 337.545436 221.552822 
L 339.324982 216.473546 
L 341.104528 210.541685 
L 342.884074 203.720509 
L 344.663619 196.000534 
L 346.443165 187.40584 
L 349.112484 173.023287 
L 351.781803 157.220187 
L 359.789759 108.422125 
L 361.569305 99.067645 
L 363.348851 90.897858 
L 365.128397 84.181759 
L 366.01817 81.442349 
L 366.907943 79.148391 
L 367.797715 77.320144 
L 368.687488 75.973894 
L 369.577261 75.12171 
L 370.467034 74.771268 
L 371.356807 74.925731 
L 372.24658 75.583703 
L 373.136353 76.739253 
L 374.026126 78.381999 
L 374.915899 80.497269 
L 375.805672 83.066313 
L 376.695445 86.066584 
L 378.474991 93.253651 
L 380.254536 101.815734 
L 382.034082 111.474499 
L 384.703401 127.363022 
L 391.821585 171.046418 
L 394.490903 185.639952 
L 396.270449 194.398496 
L 398.049995 202.291371 
L 399.829541 209.287313 
L 401.609087 215.38976 
L 403.388633 220.630671 
L 405.168178 225.063898 
L 406.947724 228.758635 
L 408.72727 231.793344 
L 410.506816 234.250444 
L 412.286362 236.211952 
L 414.065908 237.756125 
L 415.845454 238.955097 
L 417.624999 239.873404 
L 418.514772 240.245215 
L 418.514772 240.245215 
" style="fill:none;stroke:#e36f47;stroke-width:2;"/>
   </g>
   <g id="patch_3">
    <path d="M 52.844792 248.865354 
L 52.844792 19.634646 
" style="fill:none;stroke:#000000;stroke-linecap:square;stroke-linejoin:miter;"/>
   </g>
   <g id="patch_4">
    <path d="M 52.844792 248.865354 
L 429.165354 248.865354 
" style="fill:none;stroke:#000000;stroke-linecap:square;stroke-linejoin:miter;"/>
   </g>
   <g id="line2d_25">
    <path clip-path="url(#p7749c50d26)" d="M 63.495374 242.377693 
L 272.592012 242.285597 
L 277.040877 242.097979 
L 280.599969 241.739144 
L 283.269287 241.234778 
L 285.048833 240.72222 
L 286.828379 240.013299 
L 288.607925 239.04798 
L 290.387471 237.754063 
L 292.167017 236.047036 
L 293.946562 233.830887 
L 295.726108 231.000155 
L 297.505654 227.443489 
L 299.2852 223.048878 
L 301.064746 217.710612 
L 302.844292 211.337841 
L 304.623838 203.86438 
L 306.403383 195.25919 
L 308.182929 185.536727 
L 309.962475 174.76616 
L 312.631794 156.949281 
L 317.080659 124.792746 
L 319.749977 105.834689 
L 321.529523 94.156727 
L 323.309069 83.728018 
L 325.088615 74.938124 
L 325.978388 71.267429 
L 326.868161 68.130268 
L 327.757934 65.558658 
L 328.647707 63.579138 
L 329.53748 62.212317 
L 330.427253 61.472514 
L 331.317025 61.367509 
L 332.206798 61.898409 
L 333.096571 63.059626 
L 333.986344 64.838975 
L 334.876117 67.217888 
L 335.76589 70.171738 
L 336.655663 73.67026 
L 338.435209 82.155252 
L 340.214755 92.339497 
L 341.994301 103.839447 
L 344.663619 122.658435 
L 350.002257 161.074823 
L 352.671576 178.484675 
L 354.451122 188.915498 
L 356.230667 198.268457 
L 358.010213 206.493627 
L 359.789759 213.592899 
L 361.569305 219.610265 
L 363.348851 224.621324 
L 365.128397 228.722944 
L 366.907943 232.023824 
L 368.687488 234.636446 
L 370.467034 236.670684 
L 372.24658 238.22915 
L 374.026126 239.404165 
L 375.805672 240.276153 
L 377.585218 240.913181 
L 380.254536 241.547903 
L 382.923855 241.922187 
L 386.482947 242.182794 
L 391.821585 242.328608 
L 405.168178 242.376795 
L 418.514772 242.377685 
L 418.514772 242.377685 
" style="fill:none;stroke:#3ea44e;stroke-width:2;"/>
   </g>
   <g id="text_14">
    <!-- Power Posteriors -->
    <defs>
     <path d="M 19.671875 64.796875 
L 19.671875 37.40625 
L 32.078125 37.40625 
Q 38.96875 37.40625 42.71875 40.96875 
Q 46.484375 44.53125 46.484375 51.125 
Q 46.484375 57.671875 42.71875 61.234375 
Q 38.96875 64.796875 32.078125 64.796875 
z
M 9.8125 72.90625 
L 32.078125 72.90625 
Q 44.34375 72.90625 50.609375 67.359375 
Q 56.890625 61.8125 56.890625 51.125 
Q 56.890625 40.328125 50.609375 34.8125 
Q 44.34375 29.296875 32.078125 29.296875 
L 19.671875 29.296875 
L 19.671875 0 
L 9.8125 0 
z
" id="DejaVuSans-80"/>
     <path d="M 30.609375 48.390625 
Q 23.390625 48.390625 19.1875 42.75 
Q 14.984375 37.109375 14.984375 27.296875 
Q 14.984375 17.484375 19.15625 11.84375 
Q 23.34375 6.203125 30.609375 6.203125 
Q 37.796875 6.203125 41.984375 11.859375 
Q 46.1875 17.53125 46.1875 27.296875 
Q 46.1875 37.015625 41.984375 42.703125 
Q 37.796875 48.390625 30.609375 48.390625 
z
M 30.609375 56 
Q 42.328125 56 49.015625 48.375 
Q 55.71875 40.765625 55.71875 27.296875 
Q 55.71875 13.875 49.015625 6.21875 
Q 42.328125 -1.421875 30.609375 -1.421875 
Q 18.84375 -1.421875 12.171875 6.21875 
Q 5.515625 13.875 5.515625 27.296875 
Q 5.515625 40.765625 12.171875 48.375 
Q 18.84375 56 30.609375 56 
z
" id="DejaVuSans-111"/>
     <path d="M 4.203125 54.6875 
L 13.1875 54.6875 
L 24.421875 12.015625 
L 35.59375 54.6875 
L 46.1875 54.6875 
L 57.421875 12.015625 
L 68.609375 54.6875 
L 77.59375 54.6875 
L 63.28125 0 
L 52.6875 0 
L 40.921875 44.828125 
L 29.109375 0 
L 18.5 0 
z
" id="DejaVuSans-119"/>
     <path d="M 56.203125 29.59375 
L 56.203125 25.203125 
L 14.890625 25.203125 
Q 15.484375 15.921875 20.484375 11.0625 
Q 25.484375 6.203125 34.421875 6.203125 
Q 39.59375 6.203125 44.453125 7.46875 
Q 49.3125 8.734375 54.109375 11.28125 
L 54.109375 2.78125 
Q 49.265625 0.734375 44.1875 -0.34375 
Q 39.109375 -1.421875 33.890625 -1.421875 
Q 20.796875 -1.421875 13.15625 6.1875 
Q 5.515625 13.8125 5.515625 26.8125 
Q 5.515625 40.234375 12.765625 48.109375 
Q 20.015625 56 32.328125 56 
Q 43.359375 56 49.78125 48.890625 
Q 56.203125 41.796875 56.203125 29.59375 
z
M 47.21875 32.234375 
Q 47.125 39.59375 43.09375 43.984375 
Q 39.0625 48.390625 32.421875 48.390625 
Q 24.90625 48.390625 20.390625 44.140625 
Q 15.875 39.890625 15.1875 32.171875 
z
" id="DejaVuSans-101"/>
     <path d="M 41.109375 46.296875 
Q 39.59375 47.171875 37.8125 47.578125 
Q 36.03125 48 33.890625 48 
Q 26.265625 48 22.1875 43.046875 
Q 18.109375 38.09375 18.109375 28.8125 
L 18.109375 0 
L 9.078125 0 
L 9.078125 54.6875 
L 18.109375 54.6875 
L 18.109375 46.1875 
Q 20.953125 51.171875 25.484375 53.578125 
Q 30.03125 56 36.53125 56 
Q 37.453125 56 38.578125 55.875 
Q 39.703125 55.765625 41.0625 55.515625 
z
" id="DejaVuSans-114"/>
     <path id="DejaVuSans-32"/>
     <path d="M 44.28125 53.078125 
L 44.28125 44.578125 
Q 40.484375 46.53125 36.375 47.5 
Q 32.28125 48.484375 27.875 48.484375 
Q 21.1875 48.484375 17.84375 46.4375 
Q 14.5 44.390625 14.5 40.28125 
Q 14.5 37.15625 16.890625 35.375 
Q 19.28125 33.59375 26.515625 31.984375 
L 29.59375 31.296875 
Q 39.15625 29.25 43.1875 25.515625 
Q 47.21875 21.78125 47.21875 15.09375 
Q 47.21875 7.46875 41.1875 3.015625 
Q 35.15625 -1.421875 24.609375 -1.421875 
Q 20.21875 -1.421875 15.453125 -0.5625 
Q 10.6875 0.296875 5.421875 2 
L 5.421875 11.28125 
Q 10.40625 8.6875 15.234375 7.390625 
Q 20.0625 6.109375 24.8125 6.109375 
Q 31.15625 6.109375 34.5625 8.28125 
Q 37.984375 10.453125 37.984375 14.40625 
Q 37.984375 18.0625 35.515625 20.015625 
Q 33.0625 21.96875 24.703125 23.78125 
L 21.578125 24.515625 
Q 13.234375 26.265625 9.515625 29.90625 
Q 5.8125 33.546875 5.8125 39.890625 
Q 5.8125 47.609375 11.28125 51.796875 
Q 16.75 56 26.8125 56 
Q 31.78125 56 36.171875 55.265625 
Q 40.578125 54.546875 44.28125 53.078125 
z
" id="DejaVuSans-115"/>
     <path d="M 18.3125 70.21875 
L 18.3125 54.6875 
L 36.8125 54.6875 
L 36.8125 47.703125 
L 18.3125 47.703125 
L 18.3125 18.015625 
Q 18.3125 11.328125 20.140625 9.421875 
Q 21.96875 7.515625 27.59375 7.515625 
L 36.8125 7.515625 
L 36.8125 0 
L 27.59375 0 
Q 17.1875 0 13.234375 3.875 
Q 9.28125 7.765625 9.28125 18.015625 
L 9.28125 47.703125 
L 2.6875 47.703125 
L 2.6875 54.6875 
L 9.28125 54.6875 
L 9.28125 70.21875 
z
" id="DejaVuSans-116"/>
     <path d="M 9.421875 54.6875 
L 18.40625 54.6875 
L 18.40625 0 
L 9.421875 0 
z
M 9.421875 75.984375 
L 18.40625 75.984375 
L 18.40625 64.59375 
L 9.421875 64.59375 
z
" id="DejaVuSans-105"/>
    </defs>
    <g transform="translate(182.541948 13.634646)scale(0.14 -0.14)">
     <use xlink:href="#DejaVuSans-80"/>
     <use x="60.255859" xlink:href="#DejaVuSans-111"/>
     <use x="121.4375" xlink:href="#DejaVuSans-119"/>
     <use x="203.224609" xlink:href="#DejaVuSans-101"/>
     <use x="264.748047" xlink:href="#DejaVuSans-114"/>
     <use x="305.861328" xlink:href="#DejaVuSans-32"/>
     <use x="337.648438" xlink:href="#DejaVuSans-80"/>
     <use x="397.904297" xlink:href="#DejaVuSans-111"/>
     <use x="459.085938" xlink:href="#DejaVuSans-115"/>
     <use x="511.185547" xlink:href="#DejaVuSans-116"/>
     <use x="550.394531" xlink:href="#DejaVuSans-101"/>
     <use x="611.917969" xlink:href="#DejaVuSans-114"/>
     <use x="653.03125" xlink:href="#DejaVuSans-105"/>
     <use x="680.814453" xlink:href="#DejaVuSans-111"/>
     <use x="741.996094" xlink:href="#DejaVuSans-114"/>
     <use x="783.109375" xlink:href="#DejaVuSans-115"/>
    </g>
   </g>
   <g id="line2d_26">
    <path clip-path="url(#p7749c50d26)" d="M 63.495374 242.377693 
L 242.339733 242.283139 
L 246.788597 242.067606 
L 249.457916 241.775113 
L 252.127235 241.248333 
L 253.906781 240.69509 
L 255.686327 239.910819 
L 257.465872 238.818685 
L 259.245418 237.32495 
L 261.024964 235.318713 
L 262.80451 232.673194 
L 264.584056 229.249025 
L 266.363602 224.899979 
L 268.143148 219.481408 
L 269.922693 212.8614 
L 271.702239 204.934315 
L 273.481785 195.635977 
L 275.261331 184.959345 
L 277.040877 172.969115 
L 279.710196 152.869538 
L 283.269287 123.613369 
L 286.828379 94.611511 
L 288.607925 81.482082 
L 290.387471 69.980671 
L 292.167017 60.603706 
L 293.05679 56.847808 
L 293.946562 53.774031 
L 294.836335 51.418544 
L 295.726108 49.809336 
L 296.615881 48.965664 
L 297.505654 48.897665 
L 298.395427 49.606159 
L 299.2852 51.082626 
L 300.174973 53.309383 
L 301.064746 56.259933 
L 301.954519 59.899491 
L 302.844292 64.185663 
L 304.623838 74.495302 
L 306.403383 86.731525 
L 309.072702 107.560854 
L 316.190886 165.368972 
L 317.970432 178.067489 
L 319.749977 189.528753 
L 321.529523 199.640196 
L 323.309069 208.368345 
L 325.088615 215.745683 
L 326.868161 221.855395 
L 328.647707 226.815727 
L 330.427253 230.765364 
L 332.206798 233.850804 
L 333.986344 236.216308 
L 335.76589 237.9966 
L 337.545436 239.312181 
L 339.324982 240.266928 
L 341.104528 240.947504 
L 342.884074 241.4241 
L 345.553392 241.873933 
L 349.112484 242.174335 
L 354.451122 242.331461 
L 366.907943 242.376862 
L 418.514772 242.377693 
L 418.514772 242.377693 
" style="fill:none;stroke:#c371d2;stroke-width:2;"/>
   </g>
   <g id="line2d_27">
    <path clip-path="url(#p7749c50d26)" d="M 63.495374 242.377693 
L 215.646545 242.281902 
L 220.095409 242.039841 
L 222.764728 241.695987 
L 224.544274 241.313491 
L 226.32382 240.746167 
L 228.103366 239.921245 
L 229.882912 238.745535 
L 231.662457 237.103387 
L 233.442003 234.856109 
L 234.331776 233.456249 
L 235.221549 231.843608 
L 236.111322 229.995591 
L 237.890868 225.500622 
L 239.670414 219.786288 
L 241.44996 212.679305 
L 243.229506 204.036468 
L 245.009051 193.765798 
L 246.788597 181.848821 
L 248.568143 168.361613 
L 251.237462 145.630066 
L 255.686327 104.270999 
L 258.355645 80.424405 
L 260.135191 66.307518 
L 261.914737 54.391788 
L 262.80451 49.448107 
L 263.694283 45.267881 
L 264.584056 41.905786 
L 265.473829 39.406377 
L 266.363602 37.803108 
L 267.253375 37.117584 
L 268.143148 37.359076 
L 269.03292 38.524316 
L 269.922693 40.597568 
L 270.812466 43.550981 
L 271.702239 47.345214 
L 272.592012 51.930307 
L 274.371558 63.226886 
L 276.151104 76.874649 
L 278.820423 100.322926 
L 285.048833 157.480357 
L 286.828379 172.015061 
L 288.607925 185.106853 
L 290.387471 196.598462 
L 292.167017 206.440272 
L 293.946562 214.672015 
L 295.726108 221.40114 
L 297.505654 226.780626 
L 299.2852 230.988441 
L 301.064746 234.210159 
L 302.844292 236.625544 
L 304.623838 238.399253 
L 306.403383 239.675359 
L 308.182929 240.575055 
L 309.962475 241.19677 
L 311.742021 241.61793 
L 314.41134 241.998699 
L 317.970432 242.236957 
L 324.198842 242.356805 
L 346.443165 242.377689 
L 418.514772 242.377693 
L 418.514772 242.377693 
" style="fill:none;stroke:#ac8e18;stroke-width:2;"/>
   </g>
   <g id="line2d_28">
    <path clip-path="url(#p7749c50d26)" d="M 63.495374 242.377693 
L 191.622676 242.283479 
L 195.181767 242.101544 
L 197.851086 241.790881 
L 199.630632 241.431838 
L 201.410178 240.883454 
L 203.189724 240.064104 
L 204.96927 238.866756 
L 206.748816 237.155772 
L 207.638588 236.057063 
L 208.528361 234.765529 
L 209.418134 233.256042 
L 210.307907 231.502013 
L 211.19768 229.475694 
L 212.087453 227.148558 
L 212.977226 224.49178 
L 214.756772 218.076046 
L 216.536318 210.016029 
L 218.315864 200.140361 
L 220.095409 188.347982 
L 221.874955 174.638609 
L 223.654501 159.140675 
L 226.32382 133.192303 
L 232.55223 69.88915 
L 234.331776 54.506344 
L 236.111322 41.823672 
L 237.001095 36.720821 
L 237.890868 32.545215 
L 238.780641 29.357968 
L 239.670414 27.206285 
L 240.560187 26.122307 
L 241.44996 26.122307 
L 242.339733 27.206285 
L 243.229506 29.357968 
L 244.119278 32.545215 
L 245.009051 36.720821 
L 245.898824 41.823672 
L 246.788597 47.780241 
L 248.568143 61.909118 
L 250.347689 78.342683 
L 253.017008 105.487856 
L 256.576099 142.132345 
L 259.245418 167.099514 
L 261.024964 181.728201 
L 262.80451 194.48649 
L 264.584056 205.313475 
L 266.363602 214.263575 
L 268.143148 221.476812 
L 269.922693 227.148558 
L 271.702239 231.502013 
L 273.481785 234.765529 
L 275.261331 237.155772 
L 277.040877 238.866756 
L 278.820423 240.064104 
L 280.599969 240.883454 
L 282.379514 241.431838 
L 285.048833 241.918957 
L 287.718152 242.165045 
L 292.167017 242.324297 
L 302.844292 242.376533 
L 418.514772 242.377693 
L 418.514772 242.377693 
" style="fill:none;stroke:#00aaae;stroke-width:2;"/>
   </g>
   <g id="legend_1">
    <g id="patch_5">
     <path d="M 60.344792 175.737771 
L 181.181511 175.737771 
L 181.181511 27.134646 
L 60.344792 27.134646 
z
" style="fill:#ffffff;stroke:#000000;stroke-linejoin:miter;"/>
    </g>
    <g id="line2d_29">
     <path d="M 72.344792 45.282302 
L 102.344792 45.282302 
" style="fill:none;stroke:#009afa;stroke-linejoin:miter;stroke-width:1.875;"/>
    </g>
    <g id="line2d_30"/>
    <g id="text_15">
     <!-- λ = 0.0 -->
     <defs>
      <path d="M 30.953125 67.4375 
L 56.203125 0 
L 46.6875 0 
L 31.34375 40.4375 
L 12.5 0 
L 2.984375 0 
L 26.953125 52.4375 
L 23.34375 62.109375 
Q 21.046875 68.265625 15.828125 68.265625 
L 11.140625 68.265625 
L 11.140625 75.984375 
L 16.84375 75.875 
Q 27.875 75.734375 30.953125 67.4375 
z
" id="DejaVuSans-955"/>
      <path d="M 10.59375 45.40625 
L 73.1875 45.40625 
L 73.1875 37.203125 
L 10.59375 37.203125 
z
M 10.59375 25.484375 
L 73.1875 25.484375 
L 73.1875 17.1875 
L 10.59375 17.1875 
z
" id="DejaVuSans-61"/>
     </defs>
     <g transform="translate(114.344792 50.532302)scale(0.15 -0.15)">
      <use xlink:href="#DejaVuSans-955"/>
      <use x="59.179688" xlink:href="#DejaVuSans-32"/>
      <use x="90.966797" xlink:href="#DejaVuSans-61"/>
      <use x="174.755859" xlink:href="#DejaVuSans-32"/>
      <use x="206.542969" xlink:href="#DejaVuSans-48"/>
      <use x="270.166016" xlink:href="#DejaVuSans-46"/>
      <use x="301.953125" xlink:href="#DejaVuSans-48"/>
     </g>
    </g>
    <g id="line2d_31">
     <path d="M 72.344792 67.299489 
L 102.344792 67.299489 
" style="fill:none;stroke:#e36f47;stroke-linejoin:miter;stroke-width:1.875;"/>
    </g>
    <g id="line2d_32"/>
    <g id="text_16">
     <!-- λ = 0.2 -->
     <g transform="translate(114.344792 72.549489)scale(0.15 -0.15)">
      <use xlink:href="#DejaVuSans-955"/>
      <use x="59.179688" xlink:href="#DejaVuSans-32"/>
      <use x="90.966797" xlink:href="#DejaVuSans-61"/>
      <use x="174.755859" xlink:href="#DejaVuSans-32"/>
      <use x="206.542969" xlink:href="#DejaVuSans-48"/>
      <use x="270.166016" xlink:href="#DejaVuSans-46"/>
      <use x="301.953125" xlink:href="#DejaVuSans-50"/>
     </g>
    </g>
    <g id="line2d_33">
     <path d="M 72.344792 89.316677 
L 102.344792 89.316677 
" style="fill:none;stroke:#3ea44e;stroke-linejoin:miter;stroke-width:1.875;"/>
    </g>
    <g id="line2d_34"/>
    <g id="text_17">
     <!-- λ = 0.4 -->
     <g transform="translate(114.344792 94.566677)scale(0.15 -0.15)">
      <use xlink:href="#DejaVuSans-955"/>
      <use x="59.179688" xlink:href="#DejaVuSans-32"/>
      <use x="90.966797" xlink:href="#DejaVuSans-61"/>
      <use x="174.755859" xlink:href="#DejaVuSans-32"/>
      <use x="206.542969" xlink:href="#DejaVuSans-48"/>
      <use x="270.166016" xlink:href="#DejaVuSans-46"/>
      <use x="301.953125" xlink:href="#DejaVuSans-52"/>
     </g>
    </g>
    <g id="line2d_35">
     <path d="M 72.344792 111.333864 
L 102.344792 111.333864 
" style="fill:none;stroke:#c371d2;stroke-linejoin:miter;stroke-width:1.875;"/>
    </g>
    <g id="line2d_36"/>
    <g id="text_18">
     <!-- λ = 0.6 -->
     <defs>
      <path d="M 33.015625 40.375 
Q 26.375 40.375 22.484375 35.828125 
Q 18.609375 31.296875 18.609375 23.390625 
Q 18.609375 15.53125 22.484375 10.953125 
Q 26.375 6.390625 33.015625 6.390625 
Q 39.65625 6.390625 43.53125 10.953125 
Q 47.40625 15.53125 47.40625 23.390625 
Q 47.40625 31.296875 43.53125 35.828125 
Q 39.65625 40.375 33.015625 40.375 
z
M 52.59375 71.296875 
L 52.59375 62.3125 
Q 48.875 64.0625 45.09375 64.984375 
Q 41.3125 65.921875 37.59375 65.921875 
Q 27.828125 65.921875 22.671875 59.328125 
Q 17.53125 52.734375 16.796875 39.40625 
Q 19.671875 43.65625 24.015625 45.921875 
Q 28.375 48.1875 33.59375 48.1875 
Q 44.578125 48.1875 50.953125 41.515625 
Q 57.328125 34.859375 57.328125 23.390625 
Q 57.328125 12.15625 50.6875 5.359375 
Q 44.046875 -1.421875 33.015625 -1.421875 
Q 20.359375 -1.421875 13.671875 8.265625 
Q 6.984375 17.96875 6.984375 36.375 
Q 6.984375 53.65625 15.1875 63.9375 
Q 23.390625 74.21875 37.203125 74.21875 
Q 40.921875 74.21875 44.703125 73.484375 
Q 48.484375 72.75 52.59375 71.296875 
z
" id="DejaVuSans-54"/>
     </defs>
     <g transform="translate(114.344792 116.583864)scale(0.15 -0.15)">
      <use xlink:href="#DejaVuSans-955"/>
      <use x="59.179688" xlink:href="#DejaVuSans-32"/>
      <use x="90.966797" xlink:href="#DejaVuSans-61"/>
      <use x="174.755859" xlink:href="#DejaVuSans-32"/>
      <use x="206.542969" xlink:href="#DejaVuSans-48"/>
      <use x="270.166016" xlink:href="#DejaVuSans-46"/>
      <use x="301.953125" xlink:href="#DejaVuSans-54"/>
     </g>
    </g>
    <g id="line2d_37">
     <path d="M 72.344792 133.351052 
L 102.344792 133.351052 
" style="fill:none;stroke:#ac8e18;stroke-linejoin:miter;stroke-width:1.875;"/>
    </g>
    <g id="line2d_38"/>
    <g id="text_19">
     <!-- λ = 0.8 -->
     <defs>
      <path d="M 31.78125 34.625 
Q 24.75 34.625 20.71875 30.859375 
Q 16.703125 27.09375 16.703125 20.515625 
Q 16.703125 13.921875 20.71875 10.15625 
Q 24.75 6.390625 31.78125 6.390625 
Q 38.8125 6.390625 42.859375 10.171875 
Q 46.921875 13.96875 46.921875 20.515625 
Q 46.921875 27.09375 42.890625 30.859375 
Q 38.875 34.625 31.78125 34.625 
z
M 21.921875 38.8125 
Q 15.578125 40.375 12.03125 44.71875 
Q 8.5 49.078125 8.5 55.328125 
Q 8.5 64.0625 14.71875 69.140625 
Q 20.953125 74.21875 31.78125 74.21875 
Q 42.671875 74.21875 48.875 69.140625 
Q 55.078125 64.0625 55.078125 55.328125 
Q 55.078125 49.078125 51.53125 44.71875 
Q 48 40.375 41.703125 38.8125 
Q 48.828125 37.15625 52.796875 32.3125 
Q 56.78125 27.484375 56.78125 20.515625 
Q 56.78125 9.90625 50.3125 4.234375 
Q 43.84375 -1.421875 31.78125 -1.421875 
Q 19.734375 -1.421875 13.25 4.234375 
Q 6.78125 9.90625 6.78125 20.515625 
Q 6.78125 27.484375 10.78125 32.3125 
Q 14.796875 37.15625 21.921875 38.8125 
z
M 18.3125 54.390625 
Q 18.3125 48.734375 21.84375 45.5625 
Q 25.390625 42.390625 31.78125 42.390625 
Q 38.140625 42.390625 41.71875 45.5625 
Q 45.3125 48.734375 45.3125 54.390625 
Q 45.3125 60.0625 41.71875 63.234375 
Q 38.140625 66.40625 31.78125 66.40625 
Q 25.390625 66.40625 21.84375 63.234375 
Q 18.3125 60.0625 18.3125 54.390625 
z
" id="DejaVuSans-56"/>
     </defs>
     <g transform="translate(114.344792 138.601052)scale(0.15 -0.15)">
      <use xlink:href="#DejaVuSans-955"/>
      <use x="59.179688" xlink:href="#DejaVuSans-32"/>
      <use x="90.966797" xlink:href="#DejaVuSans-61"/>
      <use x="174.755859" xlink:href="#DejaVuSans-32"/>
      <use x="206.542969" xlink:href="#DejaVuSans-48"/>
      <use x="270.166016" xlink:href="#DejaVuSans-46"/>
      <use x="301.953125" xlink:href="#DejaVuSans-56"/>
     </g>
    </g>
    <g id="line2d_39">
     <path d="M 72.344792 155.368239 
L 102.344792 155.368239 
" style="fill:none;stroke:#00aaae;stroke-linejoin:miter;stroke-width:1.875;"/>
    </g>
    <g id="line2d_40"/>
    <g id="text_20">
     <!-- λ = 1.0 -->
     <g transform="translate(114.344792 160.618239)scale(0.15 -0.15)">
      <use xlink:href="#DejaVuSans-955"/>
      <use x="59.179688" xlink:href="#DejaVuSans-32"/>
      <use x="90.966797" xlink:href="#DejaVuSans-61"/>
      <use x="174.755859" xlink:href="#DejaVuSans-32"/>
      <use x="206.542969" xlink:href="#DejaVuSans-49"/>
      <use x="270.166016" xlink:href="#DejaVuSans-46"/>
      <use x="301.953125" xlink:href="#DejaVuSans-48"/>
     </g>
    </g>
   </g>
  </g>
 </g>
 <defs>
  <clipPath id="p7749c50d26">
   <rect height="229.230709" width="376.320562" x="52.844792" y="19.634646"/>
  </clipPath>
 </defs>
</svg>
