<?xml version="1.0" encoding="utf-8" standalone="no"?>
<!DOCTYPE svg PUBLIC "-//W3C//DTD SVG 1.1//EN"
  "http://www.w3.org/Graphics/SVG/1.1/DTD/svg11.dtd">
<svg height="288pt" version="1.1" viewBox="0 0 432 288" width="432pt" xmlns="http://www.w3.org/2000/svg" xmlns:xlink="http://www.w3.org/1999/xlink">
 <metadata>
  <rdf:RDF xmlns:cc="http://creativecommons.org/ns#" xmlns:dc="http://purl.org/dc/elements/1.1/" xmlns:rdf="http://www.w3.org/1999/02/22-rdf-syntax-ns#">
   <cc:Work>
    <dc:type rdf:resource="http://purl.org/dc/dcmitype/StillImage"/>
    <dc:date>2021-08-27T13:20:34.108350</dc:date>
    <dc:format>image/svg+xml</dc:format>
    <dc:creator>
     <cc:Agent>
      <dc:title>Matplotlib v3.4.3, https://matplotlib.org/</dc:title>
     </cc:Agent>
    </dc:creator>
   </cc:Work>
  </rdf:RDF>
 </metadata>
 <defs>
  <style type="text/css">*{stroke-linecap:butt;stroke-linejoin:round;}</style>
 </defs>
 <g id="figure_1">
  <g id="patch_1">
   <path d="M 0 288 
L 432 288 
L 432 0 
L 0 0 
z
" style="fill:#ffffff;"/>
  </g>
  <g id="axes_1">
   <g id="patch_2">
    <path d="M 56.009734 248.865354 
L 429.165354 248.865354 
L 429.165354 19.634646 
L 56.009734 19.634646 
z
" style="fill:#ffffff;"/>
   </g>
   <g id="matplotlib.axis_1">
    <g id="xtick_1">
     <g id="line2d_1">
      <path clip-path="url(#pd37d67dcca)" d="M 66.570742 248.865354 
L 66.570742 19.634646 
" style="fill:none;stroke:#000000;stroke-linecap:square;stroke-opacity:0.1;stroke-width:0.5;"/>
     </g>
     <g id="line2d_2">
      <defs>
       <path d="M 0 0 
L 0 -2.5 
" id="mabc6796ac2" style="stroke:#000000;stroke-width:0.5;"/>
      </defs>
      <g>
       <use style="stroke:#000000;stroke-width:0.5;" x="66.570742" xlink:href="#mabc6796ac2" y="248.865354"/>
      </g>
     </g>
     <g id="text_1">
      <!-- $\mathregular{-15}$ -->
      <g transform="translate(50.670742 263.763011)scale(0.15 -0.15)">
       <defs>
        <path d="M 678 2272 
L 4684 2272 
L 4684 1741 
L 678 1741 
L 678 2272 
z
" id="DejaVuSans-2212" transform="scale(0.015625)"/>
        <path d="M 794 531 
L 1825 531 
L 1825 4091 
L 703 3866 
L 703 4441 
L 1819 4666 
L 2450 4666 
L 2450 531 
L 3481 531 
L 3481 0 
L 794 0 
L 794 531 
z
" id="DejaVuSans-31" transform="scale(0.015625)"/>
        <path d="M 691 4666 
L 3169 4666 
L 3169 4134 
L 1269 4134 
L 1269 2991 
Q 1406 3038 1543 3061 
Q 1681 3084 1819 3084 
Q 2600 3084 3056 2656 
Q 3513 2228 3513 1497 
Q 3513 744 3044 326 
Q 2575 -91 1722 -91 
Q 1428 -91 1123 -41 
Q 819 9 494 109 
L 494 744 
Q 775 591 1075 516 
Q 1375 441 1709 441 
Q 2250 441 2565 725 
Q 2881 1009 2881 1497 
Q 2881 1984 2565 2268 
Q 2250 2553 1709 2553 
Q 1456 2553 1204 2497 
Q 953 2441 691 2322 
L 691 4666 
z
" id="DejaVuSans-35" transform="scale(0.015625)"/>
       </defs>
       <use transform="translate(0 0.09375)" xlink:href="#DejaVuSans-2212"/>
       <use transform="translate(83.789062 0.09375)" xlink:href="#DejaVuSans-31"/>
       <use transform="translate(147.412109 0.09375)" xlink:href="#DejaVuSans-35"/>
      </g>
     </g>
    </g>
    <g id="xtick_2">
     <g id="line2d_3">
      <path clip-path="url(#pd37d67dcca)" d="M 125.243009 248.865354 
L 125.243009 19.634646 
" style="fill:none;stroke:#000000;stroke-linecap:square;stroke-opacity:0.1;stroke-width:0.5;"/>
     </g>
     <g id="line2d_4">
      <g>
       <use style="stroke:#000000;stroke-width:0.5;" x="125.243009" xlink:href="#mabc6796ac2" y="248.865354"/>
      </g>
     </g>
     <g id="text_2">
      <!-- $\mathregular{-10}$ -->
      <g transform="translate(109.343009 263.763011)scale(0.15 -0.15)">
       <defs>
        <path d="M 2034 4250 
Q 1547 4250 1301 3770 
Q 1056 3291 1056 2328 
Q 1056 1369 1301 889 
Q 1547 409 2034 409 
Q 2525 409 2770 889 
Q 3016 1369 3016 2328 
Q 3016 3291 2770 3770 
Q 2525 4250 2034 4250 
z
M 2034 4750 
Q 2819 4750 3233 4129 
Q 3647 3509 3647 2328 
Q 3647 1150 3233 529 
Q 2819 -91 2034 -91 
Q 1250 -91 836 529 
Q 422 1150 422 2328 
Q 422 3509 836 4129 
Q 1250 4750 2034 4750 
z
" id="DejaVuSans-30" transform="scale(0.015625)"/>
       </defs>
       <use transform="translate(0 0.78125)" xlink:href="#DejaVuSans-2212"/>
       <use transform="translate(83.789062 0.78125)" xlink:href="#DejaVuSans-31"/>
       <use transform="translate(147.412109 0.78125)" xlink:href="#DejaVuSans-30"/>
      </g>
     </g>
    </g>
    <g id="xtick_3">
     <g id="line2d_5">
      <path clip-path="url(#pd37d67dcca)" d="M 183.915277 248.865354 
L 183.915277 19.634646 
" style="fill:none;stroke:#000000;stroke-linecap:square;stroke-opacity:0.1;stroke-width:0.5;"/>
     </g>
     <g id="line2d_6">
      <g>
       <use style="stroke:#000000;stroke-width:0.5;" x="183.915277" xlink:href="#mabc6796ac2" y="248.865354"/>
      </g>
     </g>
     <g id="text_3">
      <!-- $\mathregular{-5}$ -->
      <g transform="translate(172.815277 263.763011)scale(0.15 -0.15)">
       <use transform="translate(0 0.09375)" xlink:href="#DejaVuSans-2212"/>
       <use transform="translate(83.789062 0.09375)" xlink:href="#DejaVuSans-35"/>
      </g>
     </g>
    </g>
    <g id="xtick_4">
     <g id="line2d_7">
      <path clip-path="url(#pd37d67dcca)" d="M 242.587544 248.865354 
L 242.587544 19.634646 
" style="fill:none;stroke:#000000;stroke-linecap:square;stroke-opacity:0.1;stroke-width:0.5;"/>
     </g>
     <g id="line2d_8">
      <g>
       <use style="stroke:#000000;stroke-width:0.5;" x="242.587544" xlink:href="#mabc6796ac2" y="248.865354"/>
      </g>
     </g>
     <g id="text_4">
      <!-- $\mathregular{0}$ -->
      <g transform="translate(237.787544 263.763011)scale(0.15 -0.15)">
       <use transform="translate(0 0.78125)" xlink:href="#DejaVuSans-30"/>
      </g>
     </g>
    </g>
    <g id="xtick_5">
     <g id="line2d_9">
      <path clip-path="url(#pd37d67dcca)" d="M 301.259811 248.865354 
L 301.259811 19.634646 
" style="fill:none;stroke:#000000;stroke-linecap:square;stroke-opacity:0.1;stroke-width:0.5;"/>
     </g>
     <g id="line2d_10">
      <g>
       <use style="stroke:#000000;stroke-width:0.5;" x="301.259811" xlink:href="#mabc6796ac2" y="248.865354"/>
      </g>
     </g>
     <g id="text_5">
      <!-- $\mathregular{5}$ -->
      <g transform="translate(296.459811 263.763011)scale(0.15 -0.15)">
       <use transform="translate(0 0.09375)" xlink:href="#DejaVuSans-35"/>
      </g>
     </g>
    </g>
    <g id="xtick_6">
     <g id="line2d_11">
      <path clip-path="url(#pd37d67dcca)" d="M 359.932079 248.865354 
L 359.932079 19.634646 
" style="fill:none;stroke:#000000;stroke-linecap:square;stroke-opacity:0.1;stroke-width:0.5;"/>
     </g>
     <g id="line2d_12">
      <g>
       <use style="stroke:#000000;stroke-width:0.5;" x="359.932079" xlink:href="#mabc6796ac2" y="248.865354"/>
      </g>
     </g>
     <g id="text_6">
      <!-- $\mathregular{10}$ -->
      <g transform="translate(350.332079 263.763011)scale(0.15 -0.15)">
       <use transform="translate(0 0.78125)" xlink:href="#DejaVuSans-31"/>
       <use transform="translate(63.623047 0.78125)" xlink:href="#DejaVuSans-30"/>
      </g>
     </g>
    </g>
    <g id="xtick_7">
     <g id="line2d_13">
      <path clip-path="url(#pd37d67dcca)" d="M 418.604346 248.865354 
L 418.604346 19.634646 
" style="fill:none;stroke:#000000;stroke-linecap:square;stroke-opacity:0.1;stroke-width:0.5;"/>
     </g>
     <g id="line2d_14">
      <g>
       <use style="stroke:#000000;stroke-width:0.5;" x="418.604346" xlink:href="#mabc6796ac2" y="248.865354"/>
      </g>
     </g>
     <g id="text_7">
      <!-- $\mathregular{15}$ -->
      <g transform="translate(409.004346 263.763011)scale(0.15 -0.15)">
       <use transform="translate(0 0.09375)" xlink:href="#DejaVuSans-31"/>
       <use transform="translate(63.623047 0.09375)" xlink:href="#DejaVuSans-35"/>
      </g>
     </g>
    </g>
    <g id="text_8">
     <!-- x -->
     <g transform="translate(238.148481 282.280198)scale(0.15 -0.15)">
      <defs>
       <path d="M 3513 3500 
L 2247 1797 
L 3578 0 
L 2900 0 
L 1881 1375 
L 863 0 
L 184 0 
L 1544 1831 
L 300 3500 
L 978 3500 
L 1906 2253 
L 2834 3500 
L 3513 3500 
z
" id="DejaVuSans-78" transform="scale(0.015625)"/>
      </defs>
      <use xlink:href="#DejaVuSans-78"/>
     </g>
    </g>
   </g>
   <g id="matplotlib.axis_2">
    <g id="ytick_1">
     <g id="line2d_15">
      <path clip-path="url(#pd37d67dcca)" d="M 56.009734 242.987902 
L 429.165354 242.987902 
" style="fill:none;stroke:#000000;stroke-linecap:square;stroke-opacity:0.1;stroke-width:0.5;"/>
     </g>
     <g id="line2d_16">
      <defs>
       <path d="M 0 0 
L 2.5 0 
" id="mb6aebc5227" style="stroke:#000000;stroke-width:0.5;"/>
      </defs>
      <g>
       <use style="stroke:#000000;stroke-width:0.5;" x="56.009734" xlink:href="#mb6aebc5227" y="242.987902"/>
      </g>
     </g>
     <g id="text_9">
      <!-- $\mathregular{0}$ -->
      <g transform="translate(42.909734 248.68673)scale(0.15 -0.15)">
       <use transform="translate(0 0.78125)" xlink:href="#DejaVuSans-30"/>
      </g>
     </g>
    </g>
    <g id="ytick_2">
     <g id="line2d_17">
      <path clip-path="url(#pd37d67dcca)" d="M 56.009734 176.635251 
L 429.165354 176.635251 
" style="fill:none;stroke:#000000;stroke-linecap:square;stroke-opacity:0.1;stroke-width:0.5;"/>
     </g>
     <g id="line2d_18">
      <g>
       <use style="stroke:#000000;stroke-width:0.5;" x="56.009734" xlink:href="#mb6aebc5227" y="176.635251"/>
      </g>
     </g>
     <g id="text_10">
      <!-- $\mathregular{100}$ -->
      <g transform="translate(23.859734 182.334079)scale(0.15 -0.15)">
       <use transform="translate(0 0.78125)" xlink:href="#DejaVuSans-31"/>
       <use transform="translate(63.623047 0.78125)" xlink:href="#DejaVuSans-30"/>
       <use transform="translate(127.246094 0.78125)" xlink:href="#DejaVuSans-30"/>
      </g>
     </g>
    </g>
    <g id="ytick_3">
     <g id="line2d_19">
      <path clip-path="url(#pd37d67dcca)" d="M 56.009734 110.282601 
L 429.165354 110.282601 
" style="fill:none;stroke:#000000;stroke-linecap:square;stroke-opacity:0.1;stroke-width:0.5;"/>
     </g>
     <g id="line2d_20">
      <g>
       <use style="stroke:#000000;stroke-width:0.5;" x="56.009734" xlink:href="#mb6aebc5227" y="110.282601"/>
      </g>
     </g>
     <g id="text_11">
      <!-- $\mathregular{200}$ -->
      <g transform="translate(23.859734 115.981429)scale(0.15 -0.15)">
       <defs>
        <path d="M 1228 531 
L 3431 531 
L 3431 0 
L 469 0 
L 469 531 
Q 828 903 1448 1529 
Q 2069 2156 2228 2338 
Q 2531 2678 2651 2914 
Q 2772 3150 2772 3378 
Q 2772 3750 2511 3984 
Q 2250 4219 1831 4219 
Q 1534 4219 1204 4116 
Q 875 4013 500 3803 
L 500 4441 
Q 881 4594 1212 4672 
Q 1544 4750 1819 4750 
Q 2544 4750 2975 4387 
Q 3406 4025 3406 3419 
Q 3406 3131 3298 2873 
Q 3191 2616 2906 2266 
Q 2828 2175 2409 1742 
Q 1991 1309 1228 531 
z
" id="DejaVuSans-32" transform="scale(0.015625)"/>
       </defs>
       <use transform="translate(0 0.78125)" xlink:href="#DejaVuSans-32"/>
       <use transform="translate(63.623047 0.78125)" xlink:href="#DejaVuSans-30"/>
       <use transform="translate(127.246094 0.78125)" xlink:href="#DejaVuSans-30"/>
      </g>
     </g>
    </g>
    <g id="ytick_4">
     <g id="line2d_21">
      <path clip-path="url(#pd37d67dcca)" d="M 56.009734 43.92995 
L 429.165354 43.92995 
" style="fill:none;stroke:#000000;stroke-linecap:square;stroke-opacity:0.1;stroke-width:0.5;"/>
     </g>
     <g id="line2d_22">
      <g>
       <use style="stroke:#000000;stroke-width:0.5;" x="56.009734" xlink:href="#mb6aebc5227" y="43.92995"/>
      </g>
     </g>
     <g id="text_12">
      <!-- $\mathregular{300}$ -->
      <g transform="translate(23.859734 49.628778)scale(0.15 -0.15)">
       <defs>
        <path d="M 2597 2516 
Q 3050 2419 3304 2112 
Q 3559 1806 3559 1356 
Q 3559 666 3084 287 
Q 2609 -91 1734 -91 
Q 1441 -91 1130 -33 
Q 819 25 488 141 
L 488 750 
Q 750 597 1062 519 
Q 1375 441 1716 441 
Q 2309 441 2620 675 
Q 2931 909 2931 1356 
Q 2931 1769 2642 2001 
Q 2353 2234 1838 2234 
L 1294 2234 
L 1294 2753 
L 1863 2753 
Q 2328 2753 2575 2939 
Q 2822 3125 2822 3475 
Q 2822 3834 2567 4026 
Q 2313 4219 1838 4219 
Q 1578 4219 1281 4162 
Q 984 4106 628 3988 
L 628 4550 
Q 988 4650 1302 4700 
Q 1616 4750 1894 4750 
Q 2613 4750 3031 4423 
Q 3450 4097 3450 3541 
Q 3450 3153 3228 2886 
Q 3006 2619 2597 2516 
z
" id="DejaVuSans-33" transform="scale(0.015625)"/>
       </defs>
       <use transform="translate(0 0.78125)" xlink:href="#DejaVuSans-33"/>
       <use transform="translate(63.623047 0.78125)" xlink:href="#DejaVuSans-30"/>
       <use transform="translate(127.246094 0.78125)" xlink:href="#DejaVuSans-30"/>
      </g>
     </g>
    </g>
    <g id="text_13">
     <!-- $U(x)$ -->
     <g transform="translate(16.740202 150.075)rotate(-90)scale(0.15 -0.15)">
      <defs>
       <path d="M 991 4666 
L 1625 4666 
L 1075 1831 
Q 1041 1641 1027 1517 
Q 1013 1394 1013 1300 
Q 1013 869 1253 645 
Q 1494 422 1959 422 
Q 2563 422 2898 753 
Q 3234 1084 3378 1831 
L 3928 4666 
L 4563 4666 
L 4000 1753 
Q 3816 809 3300 359 
Q 2784 -91 1888 -91 
Q 1188 -91 780 261 
Q 372 613 372 1216 
Q 372 1325 387 1461 
Q 403 1597 434 1753 
L 991 4666 
z
" id="DejaVuSans-Oblique-55" transform="scale(0.015625)"/>
       <path d="M 1984 4856 
Q 1566 4138 1362 3434 
Q 1159 2731 1159 2009 
Q 1159 1288 1364 580 
Q 1569 -128 1984 -844 
L 1484 -844 
Q 1016 -109 783 600 
Q 550 1309 550 2009 
Q 550 2706 781 3412 
Q 1013 4119 1484 4856 
L 1984 4856 
z
" id="DejaVuSans-28" transform="scale(0.015625)"/>
       <path d="M 3841 3500 
L 2234 1784 
L 3219 0 
L 2559 0 
L 1819 1388 
L 531 0 
L -166 0 
L 1556 1844 
L 641 3500 
L 1300 3500 
L 1972 2234 
L 3144 3500 
L 3841 3500 
z
" id="DejaVuSans-Oblique-78" transform="scale(0.015625)"/>
       <path d="M 513 4856 
L 1013 4856 
Q 1481 4119 1714 3412 
Q 1947 2706 1947 2009 
Q 1947 1309 1714 600 
Q 1481 -109 1013 -844 
L 513 -844 
Q 928 -128 1133 580 
Q 1338 1288 1338 2009 
Q 1338 2731 1133 3434 
Q 928 4138 513 4856 
z
" id="DejaVuSans-29" transform="scale(0.015625)"/>
      </defs>
      <use transform="translate(0 0.125)" xlink:href="#DejaVuSans-Oblique-55"/>
      <use transform="translate(73.193359 0.125)" xlink:href="#DejaVuSans-28"/>
      <use transform="translate(112.207031 0.125)" xlink:href="#DejaVuSans-Oblique-78"/>
      <use transform="translate(171.386719 0.125)" xlink:href="#DejaVuSans-29"/>
     </g>
    </g>
   </g>
   <g id="line2d_23">
    <path clip-path="url(#pd37d67dcca)" d="M 66.570742 35.026129 
L 75.393639 47.310878 
L 84.216536 59.22052 
L 93.039434 70.755056 
L 101.862331 81.914485 
L 110.685228 92.698807 
L 119.508126 103.108022 
L 128.331023 113.14213 
L 136.271631 121.852111 
L 144.212238 130.258256 
L 152.152846 138.360563 
L 160.093454 146.159035 
L 168.034061 153.65367 
L 175.974669 160.844468 
L 183.915277 167.73143 
L 191.855884 174.314555 
L 199.796492 180.593844 
L 207.737099 186.569296 
L 215.677707 192.240911 
L 223.618315 197.60869 
L 230.676633 202.124977 
L 237.73495 206.401195 
L 244.793268 210.437345 
L 251.851586 214.233426 
L 258.909904 217.789439 
L 265.968222 221.105383 
L 273.02654 224.18126 
L 280.084858 227.017067 
L 287.143176 229.612807 
L 294.201493 231.968478 
L 301.259811 234.08408 
L 308.318129 235.959615 
L 315.376447 237.59508 
L 322.434765 238.990478 
L 329.493083 240.145807 
L 336.551401 241.061068 
L 343.609719 241.73626 
L 350.668037 242.171384 
L 357.726354 242.36644 
L 364.784672 242.321427 
L 371.84299 242.036346 
L 378.901308 241.511196 
L 385.959626 240.745978 
L 393.017944 239.740692 
L 400.076262 238.495337 
L 407.13458 237.009914 
L 414.192898 235.284422 
L 418.604346 234.08408 
L 418.604346 234.08408 
" style="fill:none;stroke:#009afa;stroke-width:2;"/>
   </g>
   <g id="line2d_24">
    <path clip-path="url(#pd37d67dcca)" d="M 66.570742 33.245364 
L 74.511349 44.737138 
L 82.451957 55.864307 
L 90.392565 66.626873 
L 98.333172 77.024835 
L 106.27378 87.058193 
L 114.214387 96.726947 
L 122.154995 106.031097 
L 130.095603 114.970644 
L 138.03621 123.545586 
L 145.094528 130.86167 
L 152.152846 137.889672 
L 159.211164 144.629592 
L 166.269482 151.08143 
L 173.3278 157.245186 
L 180.386118 163.120859 
L 187.444435 168.708451 
L 194.502753 174.007961 
L 201.561071 179.019388 
L 208.619389 183.742734 
L 215.677707 188.177997 
L 222.736025 192.325178 
L 229.794343 196.184278 
L 235.970371 199.324672 
L 242.146399 202.244504 
L 248.322427 204.943773 
L 254.498455 207.422479 
L 260.674484 209.680622 
L 266.850512 211.718202 
L 273.02654 213.53522 
L 279.202568 215.131675 
L 285.378596 216.507567 
L 291.554624 217.662896 
L 297.730652 218.597662 
L 303.906681 219.311865 
L 310.082709 219.805506 
L 316.258737 220.078584 
L 322.434765 220.131099 
L 328.610793 219.963051 
L 334.786821 219.57444 
L 340.962849 218.965267 
L 347.138878 218.13553 
L 353.314906 217.085231 
L 359.490934 215.814369 
L 365.666962 214.322944 
L 371.84299 212.610957 
L 378.019018 210.678406 
L 384.195047 208.525293 
L 390.371075 206.151617 
L 396.547103 203.557378 
L 402.723131 200.742576 
L 408.899159 197.707211 
L 415.075187 194.451284 
L 418.604346 192.491726 
L 418.604346 192.491726 
" style="fill:none;stroke:#e36f47;stroke-width:2;"/>
   </g>
   <g id="patch_3">
    <path d="M 56.009734 248.865354 
L 56.009734 19.634646 
" style="fill:none;stroke:#000000;stroke-linecap:square;stroke-linejoin:miter;"/>
   </g>
   <g id="patch_4">
    <path d="M 56.009734 248.865354 
L 429.165354 248.865354 
" style="fill:none;stroke:#000000;stroke-linecap:square;stroke-linejoin:miter;"/>
   </g>
   <g id="line2d_25">
    <path clip-path="url(#pd37d67dcca)" d="M 66.570742 31.4646 
L 74.511349 43.374993 
L 82.451957 54.860014 
L 90.392565 65.919665 
L 97.450882 75.393363 
L 104.5092 84.530966 
L 111.567518 93.332473 
L 118.625836 101.797885 
L 125.684154 109.9272 
L 132.742472 117.72042 
L 139.80079 125.177544 
L 146.859108 132.298573 
L 153.917426 139.083505 
L 160.975743 145.532342 
L 168.034061 151.645084 
L 174.210089 156.718029 
L 180.386118 161.53365 
L 186.562146 166.091949 
L 192.738174 170.392924 
L 198.914202 174.436576 
L 205.09023 178.222904 
L 211.266258 181.751909 
L 217.442286 185.023591 
L 223.618315 188.03795 
L 229.794343 190.794985 
L 235.970371 193.294697 
L 242.146399 195.537086 
L 248.322427 197.522152 
L 254.498455 199.249894 
L 260.674484 200.720313 
L 266.850512 201.933408 
L 273.02654 202.88918 
L 279.202568 203.587629 
L 285.378596 204.028755 
L 291.554624 204.212557 
L 297.730652 204.139036 
L 303.906681 203.808192 
L 310.082709 203.220025 
L 316.258737 202.374534 
L 322.434765 201.27172 
L 328.610793 199.911582 
L 334.786821 198.294121 
L 340.962849 196.419337 
L 347.138878 194.28723 
L 353.314906 191.8978 
L 359.490934 189.251046 
L 365.666962 186.346968 
L 371.84299 183.185568 
L 378.019018 179.766844 
L 384.195047 176.090797 
L 390.371075 172.157426 
L 396.547103 167.966733 
L 402.723131 163.518716 
L 408.899159 158.813375 
L 415.075187 153.850712 
L 418.604346 150.899371 
L 418.604346 150.899371 
" style="fill:none;stroke:#3ea44e;stroke-width:2;"/>
   </g>
   <g id="text_14">
    <!-- Potential Energy -->
    <g transform="translate(185.193013 13.634646)scale(0.14 -0.14)">
     <defs>
      <path d="M 1259 4147 
L 1259 2394 
L 2053 2394 
Q 2494 2394 2734 2622 
Q 2975 2850 2975 3272 
Q 2975 3691 2734 3919 
Q 2494 4147 2053 4147 
L 1259 4147 
z
M 628 4666 
L 2053 4666 
Q 2838 4666 3239 4311 
Q 3641 3956 3641 3272 
Q 3641 2581 3239 2228 
Q 2838 1875 2053 1875 
L 1259 1875 
L 1259 0 
L 628 0 
L 628 4666 
z
" id="DejaVuSans-50" transform="scale(0.015625)"/>
      <path d="M 1959 3097 
Q 1497 3097 1228 2736 
Q 959 2375 959 1747 
Q 959 1119 1226 758 
Q 1494 397 1959 397 
Q 2419 397 2687 759 
Q 2956 1122 2956 1747 
Q 2956 2369 2687 2733 
Q 2419 3097 1959 3097 
z
M 1959 3584 
Q 2709 3584 3137 3096 
Q 3566 2609 3566 1747 
Q 3566 888 3137 398 
Q 2709 -91 1959 -91 
Q 1206 -91 779 398 
Q 353 888 353 1747 
Q 353 2609 779 3096 
Q 1206 3584 1959 3584 
z
" id="DejaVuSans-6f" transform="scale(0.015625)"/>
      <path d="M 1172 4494 
L 1172 3500 
L 2356 3500 
L 2356 3053 
L 1172 3053 
L 1172 1153 
Q 1172 725 1289 603 
Q 1406 481 1766 481 
L 2356 481 
L 2356 0 
L 1766 0 
Q 1100 0 847 248 
Q 594 497 594 1153 
L 594 3053 
L 172 3053 
L 172 3500 
L 594 3500 
L 594 4494 
L 1172 4494 
z
" id="DejaVuSans-74" transform="scale(0.015625)"/>
      <path d="M 3597 1894 
L 3597 1613 
L 953 1613 
Q 991 1019 1311 708 
Q 1631 397 2203 397 
Q 2534 397 2845 478 
Q 3156 559 3463 722 
L 3463 178 
Q 3153 47 2828 -22 
Q 2503 -91 2169 -91 
Q 1331 -91 842 396 
Q 353 884 353 1716 
Q 353 2575 817 3079 
Q 1281 3584 2069 3584 
Q 2775 3584 3186 3129 
Q 3597 2675 3597 1894 
z
M 3022 2063 
Q 3016 2534 2758 2815 
Q 2500 3097 2075 3097 
Q 1594 3097 1305 2825 
Q 1016 2553 972 2059 
L 3022 2063 
z
" id="DejaVuSans-65" transform="scale(0.015625)"/>
      <path d="M 3513 2113 
L 3513 0 
L 2938 0 
L 2938 2094 
Q 2938 2591 2744 2837 
Q 2550 3084 2163 3084 
Q 1697 3084 1428 2787 
Q 1159 2491 1159 1978 
L 1159 0 
L 581 0 
L 581 3500 
L 1159 3500 
L 1159 2956 
Q 1366 3272 1645 3428 
Q 1925 3584 2291 3584 
Q 2894 3584 3203 3211 
Q 3513 2838 3513 2113 
z
" id="DejaVuSans-6e" transform="scale(0.015625)"/>
      <path d="M 603 3500 
L 1178 3500 
L 1178 0 
L 603 0 
L 603 3500 
z
M 603 4863 
L 1178 4863 
L 1178 4134 
L 603 4134 
L 603 4863 
z
" id="DejaVuSans-69" transform="scale(0.015625)"/>
      <path d="M 2194 1759 
Q 1497 1759 1228 1600 
Q 959 1441 959 1056 
Q 959 750 1161 570 
Q 1363 391 1709 391 
Q 2188 391 2477 730 
Q 2766 1069 2766 1631 
L 2766 1759 
L 2194 1759 
z
M 3341 1997 
L 3341 0 
L 2766 0 
L 2766 531 
Q 2569 213 2275 61 
Q 1981 -91 1556 -91 
Q 1019 -91 701 211 
Q 384 513 384 1019 
Q 384 1609 779 1909 
Q 1175 2209 1959 2209 
L 2766 2209 
L 2766 2266 
Q 2766 2663 2505 2880 
Q 2244 3097 1772 3097 
Q 1472 3097 1187 3025 
Q 903 2953 641 2809 
L 641 3341 
Q 956 3463 1253 3523 
Q 1550 3584 1831 3584 
Q 2591 3584 2966 3190 
Q 3341 2797 3341 1997 
z
" id="DejaVuSans-61" transform="scale(0.015625)"/>
      <path d="M 603 4863 
L 1178 4863 
L 1178 0 
L 603 0 
L 603 4863 
z
" id="DejaVuSans-6c" transform="scale(0.015625)"/>
      <path id="DejaVuSans-20" transform="scale(0.015625)"/>
      <path d="M 628 4666 
L 3578 4666 
L 3578 4134 
L 1259 4134 
L 1259 2753 
L 3481 2753 
L 3481 2222 
L 1259 2222 
L 1259 531 
L 3634 531 
L 3634 0 
L 628 0 
L 628 4666 
z
" id="DejaVuSans-45" transform="scale(0.015625)"/>
      <path d="M 2631 2963 
Q 2534 3019 2420 3045 
Q 2306 3072 2169 3072 
Q 1681 3072 1420 2755 
Q 1159 2438 1159 1844 
L 1159 0 
L 581 0 
L 581 3500 
L 1159 3500 
L 1159 2956 
Q 1341 3275 1631 3429 
Q 1922 3584 2338 3584 
Q 2397 3584 2469 3576 
Q 2541 3569 2628 3553 
L 2631 2963 
z
" id="DejaVuSans-72" transform="scale(0.015625)"/>
      <path d="M 2906 1791 
Q 2906 2416 2648 2759 
Q 2391 3103 1925 3103 
Q 1463 3103 1205 2759 
Q 947 2416 947 1791 
Q 947 1169 1205 825 
Q 1463 481 1925 481 
Q 2391 481 2648 825 
Q 2906 1169 2906 1791 
z
M 3481 434 
Q 3481 -459 3084 -895 
Q 2688 -1331 1869 -1331 
Q 1566 -1331 1297 -1286 
Q 1028 -1241 775 -1147 
L 775 -588 
Q 1028 -725 1275 -790 
Q 1522 -856 1778 -856 
Q 2344 -856 2625 -561 
Q 2906 -266 2906 331 
L 2906 616 
Q 2728 306 2450 153 
Q 2172 0 1784 0 
Q 1141 0 747 490 
Q 353 981 353 1791 
Q 353 2603 747 3093 
Q 1141 3584 1784 3584 
Q 2172 3584 2450 3431 
Q 2728 3278 2906 2969 
L 2906 3500 
L 3481 3500 
L 3481 434 
z
" id="DejaVuSans-67" transform="scale(0.015625)"/>
      <path d="M 2059 -325 
Q 1816 -950 1584 -1140 
Q 1353 -1331 966 -1331 
L 506 -1331 
L 506 -850 
L 844 -850 
Q 1081 -850 1212 -737 
Q 1344 -625 1503 -206 
L 1606 56 
L 191 3500 
L 800 3500 
L 1894 763 
L 2988 3500 
L 3597 3500 
L 2059 -325 
z
" id="DejaVuSans-79" transform="scale(0.015625)"/>
     </defs>
     <use xlink:href="#DejaVuSans-50"/>
     <use x="56.677734" xlink:href="#DejaVuSans-6f"/>
     <use x="117.859375" xlink:href="#DejaVuSans-74"/>
     <use x="157.068359" xlink:href="#DejaVuSans-65"/>
     <use x="218.591797" xlink:href="#DejaVuSans-6e"/>
     <use x="281.970703" xlink:href="#DejaVuSans-74"/>
     <use x="321.179688" xlink:href="#DejaVuSans-69"/>
     <use x="348.962891" xlink:href="#DejaVuSans-61"/>
     <use x="410.242188" xlink:href="#DejaVuSans-6c"/>
     <use x="438.025391" xlink:href="#DejaVuSans-20"/>
     <use x="469.8125" xlink:href="#DejaVuSans-45"/>
     <use x="532.996094" xlink:href="#DejaVuSans-6e"/>
     <use x="596.375" xlink:href="#DejaVuSans-65"/>
     <use x="657.898438" xlink:href="#DejaVuSans-72"/>
     <use x="697.261719" xlink:href="#DejaVuSans-67"/>
     <use x="760.738281" xlink:href="#DejaVuSans-79"/>
    </g>
   </g>
   <g id="line2d_26">
    <path clip-path="url(#pd37d67dcca)" d="M 66.570742 29.683836 
L 73.62906 40.666964 
L 80.687377 51.265983 
L 87.745695 61.480893 
L 94.804013 71.311693 
L 101.862331 80.758384 
L 108.920649 89.820966 
L 115.978967 98.499438 
L 123.037285 106.793801 
L 130.095603 114.704054 
L 136.271631 121.310436 
L 142.447659 127.622734 
L 148.623687 133.640948 
L 154.799715 139.365079 
L 160.975743 144.795125 
L 167.151772 149.931088 
L 173.3278 154.772967 
L 179.503828 159.320763 
L 185.679856 163.574475 
L 191.855884 167.534102 
L 198.031912 171.199647 
L 204.20794 174.571107 
L 209.501679 177.226863 
L 214.795417 179.666558 
L 220.089156 181.890192 
L 225.382894 183.897764 
L 230.676633 185.689274 
L 235.970371 187.264723 
L 241.264109 188.62411 
L 246.557848 189.767436 
L 251.851586 190.6947 
L 257.145325 191.405902 
L 262.439063 191.901043 
L 267.732801 192.180123 
L 273.02654 192.243141 
L 278.320278 192.090097 
L 283.614017 191.720992 
L 288.907755 191.135825 
L 294.201493 190.334597 
L 299.495232 189.317307 
L 304.78897 188.083956 
L 310.082709 186.634543 
L 315.376447 184.969069 
L 320.670186 183.087533 
L 325.963924 180.989935 
L 331.257662 178.676276 
L 336.551401 176.146556 
L 341.845139 173.400774 
L 348.021167 169.924283 
L 354.197195 166.153709 
L 360.373224 162.089051 
L 366.549252 157.73031 
L 372.72528 153.077484 
L 378.901308 148.130575 
L 385.077336 142.889582 
L 391.253364 137.354506 
L 397.429393 131.525345 
L 403.605421 125.402101 
L 409.781449 118.984773 
L 415.957477 112.273361 
L 418.604346 109.307016 
L 418.604346 109.307016 
" style="fill:none;stroke:#c371d2;stroke-width:2;"/>
   </g>
   <g id="line2d_27">
    <path clip-path="url(#pd37d67dcca)" d="M 66.570742 27.903072 
L 73.62906 39.261307 
L 80.687377 50.187419 
L 87.745695 60.681408 
L 94.804013 70.743275 
L 101.862331 80.373018 
L 108.038359 88.444567 
L 114.214387 96.185272 
L 120.390416 103.595132 
L 126.566444 110.674149 
L 132.742472 117.422321 
L 138.9185 123.839649 
L 145.094528 129.926133 
L 151.270556 135.681772 
L 157.446584 141.106568 
L 163.622613 146.200519 
L 169.798641 150.963625 
L 175.092379 154.782963 
L 180.386118 158.359232 
L 185.679856 161.692431 
L 190.973594 164.782562 
L 196.267333 167.629623 
L 201.561071 170.233614 
L 206.85481 172.594537 
L 212.148548 174.71239 
L 217.442286 176.587174 
L 222.736025 178.218889 
L 228.029763 179.607535 
L 233.323502 180.753111 
L 238.61724 181.655618 
L 243.910979 182.315056 
L 249.204717 182.731424 
L 254.498455 182.904724 
L 259.792194 182.834954 
L 265.085932 182.522115 
L 270.379671 181.966206 
L 275.673409 181.167229 
L 280.967147 180.125182 
L 286.260886 178.840066 
L 291.554624 177.311881 
L 296.848363 175.540626 
L 302.142101 173.526302 
L 307.43584 171.268909 
L 312.729578 168.768447 
L 318.023316 166.024916 
L 323.317055 163.038315 
L 328.610793 159.808645 
L 333.904532 156.335906 
L 339.19827 152.620097 
L 344.492008 148.661219 
L 349.785747 144.459273 
L 355.961775 139.249789 
L 362.137803 133.70946 
L 368.313831 127.838288 
L 374.489859 121.636271 
L 380.665888 115.103411 
L 386.841916 108.239705 
L 393.017944 101.045156 
L 399.193972 93.519762 
L 405.37 85.663525 
L 411.546028 77.476442 
L 417.722056 68.958516 
L 418.604346 67.714662 
L 418.604346 67.714662 
" style="fill:none;stroke:#ac8e18;stroke-width:2;"/>
   </g>
   <g id="line2d_28">
    <path clip-path="url(#pd37d67dcca)" d="M 66.570742 26.122307 
L 73.62906 37.855649 
L 80.687377 49.108855 
L 86.863406 58.561548 
L 93.039434 67.646635 
L 99.215462 76.364119 
L 105.39149 84.713997 
L 111.567518 92.696271 
L 117.743546 100.31094 
L 123.919575 107.558004 
L 130.095603 114.437464 
L 136.271631 120.949319 
L 142.447659 127.093569 
L 147.741397 132.067486 
L 153.035136 136.771326 
L 158.328874 141.205089 
L 163.622613 145.368775 
L 168.916351 149.262384 
L 174.210089 152.885916 
L 179.503828 156.239371 
L 184.797566 159.322749 
L 190.091305 162.136051 
L 195.385043 164.679275 
L 200.678782 166.952423 
L 205.97252 168.955493 
L 211.266258 170.688487 
L 216.559997 172.151404 
L 221.853735 173.344243 
L 227.147474 174.267006 
L 231.558922 174.829667 
L 235.970371 175.204773 
L 240.38182 175.392327 
L 244.793268 175.392327 
L 249.204717 175.204773 
L 253.616166 174.829667 
L 258.027614 174.267006 
L 262.439063 173.516793 
L 267.732801 172.368966 
L 273.02654 170.951062 
L 278.320278 169.263081 
L 283.614017 167.305023 
L 288.907755 165.076888 
L 294.201493 162.578677 
L 299.495232 159.810388 
L 304.78897 156.772023 
L 310.082709 153.46358 
L 315.376447 149.885061 
L 320.670186 146.036465 
L 325.963924 141.917792 
L 331.257662 137.529041 
L 336.551401 132.870214 
L 341.845139 127.94131 
L 347.138878 122.742329 
L 353.314906 116.335504 
L 359.490934 109.561075 
L 365.666962 102.41904 
L 371.84299 94.909401 
L 378.019018 87.032157 
L 384.195047 78.787309 
L 390.371075 70.174856 
L 396.547103 61.194798 
L 402.723131 51.847135 
L 408.899159 42.131868 
L 415.957477 30.578577 
L 418.604346 26.122307 
L 418.604346 26.122307 
" style="fill:none;stroke:#00aaae;stroke-width:2;"/>
   </g>
   <g id="line2d_29">
    <path clip-path="url(#pd37d67dcca)" d="M 66.570742 35.026129 
L 75.393639 47.310878 
L 84.216536 59.22052 
L 93.039434 70.755056 
L 101.862331 81.914485 
L 110.685228 92.698807 
L 119.508126 103.108022 
L 128.331023 113.14213 
L 136.271631 121.852111 
L 144.212238 130.258256 
L 152.152846 138.360563 
L 160.093454 146.159035 
L 168.034061 153.65367 
L 175.974669 160.844468 
L 183.915277 167.73143 
L 191.855884 174.314555 
L 199.796492 180.593844 
L 207.737099 186.569296 
L 215.677707 192.240911 
L 223.618315 197.60869 
L 230.676633 202.124977 
L 237.73495 206.401195 
L 244.793268 210.437345 
L 251.851586 214.233426 
L 258.909904 217.789439 
L 265.968222 221.105383 
L 273.02654 224.18126 
L 280.084858 227.017067 
L 287.143176 229.612807 
L 294.201493 231.968478 
L 301.259811 234.08408 
L 308.318129 235.959615 
L 315.376447 237.59508 
L 322.434765 238.990478 
L 329.493083 240.145807 
L 336.551401 241.061068 
L 343.609719 241.73626 
L 350.668037 242.171384 
L 357.726354 242.36644 
L 364.784672 242.321427 
L 371.84299 242.036346 
L 378.901308 241.511196 
L 385.959626 240.745978 
L 393.017944 239.740692 
L 400.076262 238.495337 
L 407.13458 237.009914 
L 414.192898 235.284422 
L 418.604346 234.08408 
L 418.604346 234.08408 
" style="fill:none;stroke:#ed5e93;stroke-dasharray:7.4,3.2;stroke-dashoffset:0;stroke-width:2;"/>
   </g>
   <g id="line2d_30">
    <path clip-path="url(#pd37d67dcca)" d="M 66.570742 26.122307 
L 73.62906 37.855649 
L 80.687377 49.108855 
L 86.863406 58.561548 
L 93.039434 67.646635 
L 99.215462 76.364119 
L 105.39149 84.713997 
L 111.567518 92.696271 
L 117.743546 100.31094 
L 123.919575 107.558004 
L 130.095603 114.437464 
L 136.271631 120.949319 
L 142.447659 127.093569 
L 147.741397 132.067486 
L 153.035136 136.771326 
L 158.328874 141.205089 
L 163.622613 145.368775 
L 168.916351 149.262384 
L 174.210089 152.885916 
L 179.503828 156.239371 
L 184.797566 159.322749 
L 190.091305 162.136051 
L 195.385043 164.679275 
L 200.678782 166.952423 
L 205.97252 168.955493 
L 211.266258 170.688487 
L 216.559997 172.151404 
L 221.853735 173.344243 
L 227.147474 174.267006 
L 231.558922 174.829667 
L 235.970371 175.204773 
L 240.38182 175.392327 
L 244.793268 175.392327 
L 249.204717 175.204773 
L 253.616166 174.829667 
L 258.027614 174.267006 
L 262.439063 173.516793 
L 267.732801 172.368966 
L 273.02654 170.951062 
L 278.320278 169.263081 
L 283.614017 167.305023 
L 288.907755 165.076888 
L 294.201493 162.578677 
L 299.495232 159.810388 
L 304.78897 156.772023 
L 310.082709 153.46358 
L 315.376447 149.885061 
L 320.670186 146.036465 
L 325.963924 141.917792 
L 331.257662 137.529041 
L 336.551401 132.870214 
L 341.845139 127.94131 
L 347.138878 122.742329 
L 353.314906 116.335504 
L 359.490934 109.561075 
L 365.666962 102.41904 
L 371.84299 94.909401 
L 378.019018 87.032157 
L 384.195047 78.787309 
L 390.371075 70.174856 
L 396.547103 61.194798 
L 402.723131 51.847135 
L 408.899159 42.131868 
L 415.957477 30.578577 
L 418.604346 26.122307 
L 418.604346 26.122307 
" style="fill:none;stroke:#c68225;stroke-dasharray:7.4,3.2;stroke-dashoffset:0;stroke-width:2;"/>
   </g>
   <g id="legend_1">
    <g id="patch_5">
     <path d="M 300.828636 219.772146 
L 421.665354 219.772146 
L 421.665354 27.134646 
L 300.828636 27.134646 
z
" style="fill:#ffffff;stroke:#000000;stroke-linejoin:miter;"/>
    </g>
    <g id="line2d_31">
     <path d="M 312.828636 45.282302 
L 342.828636 45.282302 
" style="fill:none;stroke:#009afa;stroke-linejoin:miter;stroke-width:1.875;"/>
    </g>
    <g id="line2d_32"/>
    <g id="text_15">
     <!-- λ = 0.0 -->
     <g transform="translate(354.828636 50.532302)scale(0.15 -0.15)">
      <defs>
       <path d="M 1981 4316 
L 3597 0 
L 2988 0 
L 2006 2588 
L 800 0 
L 191 0 
L 1725 3356 
L 1494 3975 
Q 1347 4369 1013 4369 
L 713 4369 
L 713 4863 
L 1078 4856 
Q 1784 4847 1981 4316 
z
" id="DejaVuSans-3bb" transform="scale(0.015625)"/>
       <path d="M 678 2906 
L 4684 2906 
L 4684 2381 
L 678 2381 
L 678 2906 
z
M 678 1631 
L 4684 1631 
L 4684 1100 
L 678 1100 
L 678 1631 
z
" id="DejaVuSans-3d" transform="scale(0.015625)"/>
       <path d="M 684 794 
L 1344 794 
L 1344 0 
L 684 0 
L 684 794 
z
" id="DejaVuSans-2e" transform="scale(0.015625)"/>
      </defs>
      <use xlink:href="#DejaVuSans-3bb"/>
      <use x="59.179688" xlink:href="#DejaVuSans-20"/>
      <use x="90.966797" xlink:href="#DejaVuSans-3d"/>
      <use x="174.755859" xlink:href="#DejaVuSans-20"/>
      <use x="206.542969" xlink:href="#DejaVuSans-30"/>
      <use x="270.166016" xlink:href="#DejaVuSans-2e"/>
      <use x="301.953125" xlink:href="#DejaVuSans-30"/>
     </g>
    </g>
    <g id="line2d_33">
     <path d="M 312.828636 67.299489 
L 342.828636 67.299489 
" style="fill:none;stroke:#e36f47;stroke-linejoin:miter;stroke-width:1.875;"/>
    </g>
    <g id="line2d_34"/>
    <g id="text_16">
     <!-- λ = 0.2 -->
     <g transform="translate(354.828636 72.549489)scale(0.15 -0.15)">
      <use xlink:href="#DejaVuSans-3bb"/>
      <use x="59.179688" xlink:href="#DejaVuSans-20"/>
      <use x="90.966797" xlink:href="#DejaVuSans-3d"/>
      <use x="174.755859" xlink:href="#DejaVuSans-20"/>
      <use x="206.542969" xlink:href="#DejaVuSans-30"/>
      <use x="270.166016" xlink:href="#DejaVuSans-2e"/>
      <use x="301.953125" xlink:href="#DejaVuSans-32"/>
     </g>
    </g>
    <g id="line2d_35">
     <path d="M 312.828636 89.316677 
L 342.828636 89.316677 
" style="fill:none;stroke:#3ea44e;stroke-linejoin:miter;stroke-width:1.875;"/>
    </g>
    <g id="line2d_36"/>
    <g id="text_17">
     <!-- λ = 0.4 -->
     <g transform="translate(354.828636 94.566677)scale(0.15 -0.15)">
      <defs>
       <path d="M 2419 4116 
L 825 1625 
L 2419 1625 
L 2419 4116 
z
M 2253 4666 
L 3047 4666 
L 3047 1625 
L 3713 1625 
L 3713 1100 
L 3047 1100 
L 3047 0 
L 2419 0 
L 2419 1100 
L 313 1100 
L 313 1709 
L 2253 4666 
z
" id="DejaVuSans-34" transform="scale(0.015625)"/>
      </defs>
      <use xlink:href="#DejaVuSans-3bb"/>
      <use x="59.179688" xlink:href="#DejaVuSans-20"/>
      <use x="90.966797" xlink:href="#DejaVuSans-3d"/>
      <use x="174.755859" xlink:href="#DejaVuSans-20"/>
      <use x="206.542969" xlink:href="#DejaVuSans-30"/>
      <use x="270.166016" xlink:href="#DejaVuSans-2e"/>
      <use x="301.953125" xlink:href="#DejaVuSans-34"/>
     </g>
    </g>
    <g id="line2d_37">
     <path d="M 312.828636 111.333864 
L 342.828636 111.333864 
" style="fill:none;stroke:#c371d2;stroke-linejoin:miter;stroke-width:1.875;"/>
    </g>
    <g id="line2d_38"/>
    <g id="text_18">
     <!-- λ = 0.6 -->
     <g transform="translate(354.828636 116.583864)scale(0.15 -0.15)">
      <defs>
       <path d="M 2113 2584 
Q 1688 2584 1439 2293 
Q 1191 2003 1191 1497 
Q 1191 994 1439 701 
Q 1688 409 2113 409 
Q 2538 409 2786 701 
Q 3034 994 3034 1497 
Q 3034 2003 2786 2293 
Q 2538 2584 2113 2584 
z
M 3366 4563 
L 3366 3988 
Q 3128 4100 2886 4159 
Q 2644 4219 2406 4219 
Q 1781 4219 1451 3797 
Q 1122 3375 1075 2522 
Q 1259 2794 1537 2939 
Q 1816 3084 2150 3084 
Q 2853 3084 3261 2657 
Q 3669 2231 3669 1497 
Q 3669 778 3244 343 
Q 2819 -91 2113 -91 
Q 1303 -91 875 529 
Q 447 1150 447 2328 
Q 447 3434 972 4092 
Q 1497 4750 2381 4750 
Q 2619 4750 2861 4703 
Q 3103 4656 3366 4563 
z
" id="DejaVuSans-36" transform="scale(0.015625)"/>
      </defs>
      <use xlink:href="#DejaVuSans-3bb"/>
      <use x="59.179688" xlink:href="#DejaVuSans-20"/>
      <use x="90.966797" xlink:href="#DejaVuSans-3d"/>
      <use x="174.755859" xlink:href="#DejaVuSans-20"/>
      <use x="206.542969" xlink:href="#DejaVuSans-30"/>
      <use x="270.166016" xlink:href="#DejaVuSans-2e"/>
      <use x="301.953125" xlink:href="#DejaVuSans-36"/>
     </g>
    </g>
    <g id="line2d_39">
     <path d="M 312.828636 133.351052 
L 342.828636 133.351052 
" style="fill:none;stroke:#ac8e18;stroke-linejoin:miter;stroke-width:1.875;"/>
    </g>
    <g id="line2d_40"/>
    <g id="text_19">
     <!-- λ = 0.8 -->
     <g transform="translate(354.828636 138.601052)scale(0.15 -0.15)">
      <defs>
       <path d="M 2034 2216 
Q 1584 2216 1326 1975 
Q 1069 1734 1069 1313 
Q 1069 891 1326 650 
Q 1584 409 2034 409 
Q 2484 409 2743 651 
Q 3003 894 3003 1313 
Q 3003 1734 2745 1975 
Q 2488 2216 2034 2216 
z
M 1403 2484 
Q 997 2584 770 2862 
Q 544 3141 544 3541 
Q 544 4100 942 4425 
Q 1341 4750 2034 4750 
Q 2731 4750 3128 4425 
Q 3525 4100 3525 3541 
Q 3525 3141 3298 2862 
Q 3072 2584 2669 2484 
Q 3125 2378 3379 2068 
Q 3634 1759 3634 1313 
Q 3634 634 3220 271 
Q 2806 -91 2034 -91 
Q 1263 -91 848 271 
Q 434 634 434 1313 
Q 434 1759 690 2068 
Q 947 2378 1403 2484 
z
M 1172 3481 
Q 1172 3119 1398 2916 
Q 1625 2713 2034 2713 
Q 2441 2713 2670 2916 
Q 2900 3119 2900 3481 
Q 2900 3844 2670 4047 
Q 2441 4250 2034 4250 
Q 1625 4250 1398 4047 
Q 1172 3844 1172 3481 
z
" id="DejaVuSans-38" transform="scale(0.015625)"/>
      </defs>
      <use xlink:href="#DejaVuSans-3bb"/>
      <use x="59.179688" xlink:href="#DejaVuSans-20"/>
      <use x="90.966797" xlink:href="#DejaVuSans-3d"/>
      <use x="174.755859" xlink:href="#DejaVuSans-20"/>
      <use x="206.542969" xlink:href="#DejaVuSans-30"/>
      <use x="270.166016" xlink:href="#DejaVuSans-2e"/>
      <use x="301.953125" xlink:href="#DejaVuSans-38"/>
     </g>
    </g>
    <g id="line2d_41">
     <path d="M 312.828636 155.368239 
L 342.828636 155.368239 
" style="fill:none;stroke:#00aaae;stroke-linejoin:miter;stroke-width:1.875;"/>
    </g>
    <g id="line2d_42"/>
    <g id="text_20">
     <!-- λ = 1.0 -->
     <g transform="translate(354.828636 160.618239)scale(0.15 -0.15)">
      <use xlink:href="#DejaVuSans-3bb"/>
      <use x="59.179688" xlink:href="#DejaVuSans-20"/>
      <use x="90.966797" xlink:href="#DejaVuSans-3d"/>
      <use x="174.755859" xlink:href="#DejaVuSans-20"/>
      <use x="206.542969" xlink:href="#DejaVuSans-31"/>
      <use x="270.166016" xlink:href="#DejaVuSans-2e"/>
      <use x="301.953125" xlink:href="#DejaVuSans-30"/>
     </g>
    </g>
    <g id="line2d_43">
     <path d="M 312.828636 177.385427 
L 342.828636 177.385427 
" style="fill:none;stroke:#ed5e93;stroke-dasharray:6.9375,3;stroke-dashoffset:0;stroke-linejoin:miter;stroke-width:1.875;"/>
    </g>
    <g id="line2d_44"/>
    <g id="text_21">
     <!-- $U_A$ -->
     <g transform="translate(354.828636 182.635427)scale(0.15 -0.15)">
      <defs>
       <path d="M 2356 4666 
L 3072 4666 
L 3938 0 
L 3278 0 
L 3084 1197 
L 984 1197 
L 325 0 
L -341 0 
L 2356 4666 
z
M 2584 4044 
L 1275 1722 
L 2988 1722 
L 2584 4044 
z
" id="DejaVuSans-Oblique-41" transform="scale(0.015625)"/>
      </defs>
      <use transform="translate(0 0.09375)" xlink:href="#DejaVuSans-Oblique-55"/>
      <use transform="translate(73.193359 -16.3125)scale(0.7)" xlink:href="#DejaVuSans-Oblique-41"/>
     </g>
    </g>
    <g id="line2d_45">
     <path d="M 312.828636 199.402614 
L 342.828636 199.402614 
" style="fill:none;stroke:#c68225;stroke-dasharray:6.9375,3;stroke-dashoffset:0;stroke-linejoin:miter;stroke-width:1.875;"/>
    </g>
    <g id="line2d_46"/>
    <g id="text_22">
     <!-- $U_B$ -->
     <g transform="translate(354.828636 204.652614)scale(0.15 -0.15)">
      <defs>
       <path d="M 1081 4666 
L 2694 4666 
Q 3350 4666 3675 4422 
Q 4000 4178 4000 3688 
Q 4000 3238 3720 2911 
Q 3441 2584 2988 2516 
Q 3375 2428 3569 2181 
Q 3763 1934 3763 1522 
Q 3763 819 3242 409 
Q 2722 0 1819 0 
L 172 0 
L 1081 4666 
z
M 1234 2228 
L 903 519 
L 1919 519 
Q 2491 519 2800 781 
Q 3109 1044 3109 1522 
Q 3109 1891 2904 2059 
Q 2700 2228 2247 2228 
L 1234 2228 
z
M 1606 4147 
L 1331 2741 
L 2272 2741 
Q 2775 2741 3058 2959 
Q 3341 3178 3341 3566 
Q 3341 3869 3150 4008 
Q 2959 4147 2541 4147 
L 1606 4147 
z
" id="DejaVuSans-Oblique-42" transform="scale(0.015625)"/>
      </defs>
      <use transform="translate(0 0.09375)" xlink:href="#DejaVuSans-Oblique-55"/>
      <use transform="translate(73.193359 -16.3125)scale(0.7)" xlink:href="#DejaVuSans-Oblique-42"/>
     </g>
    </g>
   </g>
  </g>
 </g>
 <defs>
  <clipPath id="pd37d67dcca">
   <rect height="229.230709" width="373.155621" x="56.009734" y="19.634646"/>
  </clipPath>
 </defs>
</svg>
