<?xml version="1.0" encoding="utf-8" standalone="no"?>
<!DOCTYPE svg PUBLIC "-//W3C//DTD SVG 1.1//EN"
  "http://www.w3.org/Graphics/SVG/1.1/DTD/svg11.dtd">
<!-- Created with matplotlib (https://matplotlib.org/) -->
<svg height="288pt" version="1.1" viewBox="0 0 432 288" width="432pt" xmlns="http://www.w3.org/2000/svg" xmlns:xlink="http://www.w3.org/1999/xlink">
 <defs>
  <style type="text/css">
*{stroke-linecap:butt;stroke-linejoin:round;}
  </style>
 </defs>
 <g id="figure_1">
  <g id="patch_1">
   <path d="M 0 288 
L 432 288 
L 432 0 
L 0 0 
z
" style="fill:#ffffff;"/>
  </g>
  <g id="axes_1">
   <g id="patch_2">
    <path d="M 43.072058 254.625354 
L 429.165354 254.625354 
L 429.165354 19.634646 
L 43.072058 19.634646 
z
" style="fill:#ffffff;"/>
   </g>
   <g id="matplotlib.axis_1">
    <g id="xtick_1">
     <g id="line2d_1">
      <path clip-path="url(#p4fd6624af2)" d="M 53.999227 254.625354 
L 53.999227 19.634646 
" style="fill:none;stroke:#000000;stroke-linecap:square;stroke-opacity:0.1;stroke-width:0.5;"/>
     </g>
     <g id="line2d_2">
      <defs>
       <path d="M 0 0 
L 0 -2.5 
" id="mb4437f504e" style="stroke:#000000;stroke-width:0.5;"/>
      </defs>
      <g>
       <use style="stroke:#000000;stroke-width:0.5;" x="53.999227" xlink:href="#mb4437f504e" y="254.625354"/>
      </g>
     </g>
     <g id="text_1">
      <!-- $\mathregular{-10}$ -->
      <defs>
       <path d="M 10.59375 35.5 
L 73.1875 35.5 
L 73.1875 27.203125 
L 10.59375 27.203125 
z
" id="DejaVuSans-8722"/>
       <path d="M 12.40625 8.296875 
L 28.515625 8.296875 
L 28.515625 63.921875 
L 10.984375 60.40625 
L 10.984375 69.390625 
L 28.421875 72.90625 
L 38.28125 72.90625 
L 38.28125 8.296875 
L 54.390625 8.296875 
L 54.390625 0 
L 12.40625 0 
z
" id="DejaVuSans-49"/>
       <path d="M 31.78125 66.40625 
Q 24.171875 66.40625 20.328125 58.90625 
Q 16.5 51.421875 16.5 36.375 
Q 16.5 21.390625 20.328125 13.890625 
Q 24.171875 6.390625 31.78125 6.390625 
Q 39.453125 6.390625 43.28125 13.890625 
Q 47.125 21.390625 47.125 36.375 
Q 47.125 51.421875 43.28125 58.90625 
Q 39.453125 66.40625 31.78125 66.40625 
z
M 31.78125 74.21875 
Q 44.046875 74.21875 50.515625 64.515625 
Q 56.984375 54.828125 56.984375 36.375 
Q 56.984375 17.96875 50.515625 8.265625 
Q 44.046875 -1.421875 31.78125 -1.421875 
Q 19.53125 -1.421875 13.0625 8.265625 
Q 6.59375 17.96875 6.59375 36.375 
Q 6.59375 54.828125 13.0625 64.515625 
Q 19.53125 74.21875 31.78125 74.21875 
z
" id="DejaVuSans-48"/>
      </defs>
      <g transform="translate(45.519227 264.204104)scale(0.08 -0.08)">
       <use transform="translate(0 0.78125)" xlink:href="#DejaVuSans-8722"/>
       <use transform="translate(83.789062 0.78125)" xlink:href="#DejaVuSans-49"/>
       <use transform="translate(147.412109 0.78125)" xlink:href="#DejaVuSans-48"/>
      </g>
     </g>
    </g>
    <g id="xtick_2">
     <g id="line2d_3">
      <path clip-path="url(#p4fd6624af2)" d="M 145.058966 254.625354 
L 145.058966 19.634646 
" style="fill:none;stroke:#000000;stroke-linecap:square;stroke-opacity:0.1;stroke-width:0.5;"/>
     </g>
     <g id="line2d_4">
      <g>
       <use style="stroke:#000000;stroke-width:0.5;" x="145.058966" xlink:href="#mb4437f504e" y="254.625354"/>
      </g>
     </g>
     <g id="text_2">
      <!-- $\mathregular{-5}$ -->
      <defs>
       <path d="M 10.796875 72.90625 
L 49.515625 72.90625 
L 49.515625 64.59375 
L 19.828125 64.59375 
L 19.828125 46.734375 
Q 21.96875 47.46875 24.109375 47.828125 
Q 26.265625 48.1875 28.421875 48.1875 
Q 40.625 48.1875 47.75 41.5 
Q 54.890625 34.8125 54.890625 23.390625 
Q 54.890625 11.625 47.5625 5.09375 
Q 40.234375 -1.421875 26.90625 -1.421875 
Q 22.3125 -1.421875 17.546875 -0.640625 
Q 12.796875 0.140625 7.71875 1.703125 
L 7.71875 11.625 
Q 12.109375 9.234375 16.796875 8.0625 
Q 21.484375 6.890625 26.703125 6.890625 
Q 35.15625 6.890625 40.078125 11.328125 
Q 45.015625 15.765625 45.015625 23.390625 
Q 45.015625 31 40.078125 35.4375 
Q 35.15625 39.890625 26.703125 39.890625 
Q 22.75 39.890625 18.8125 39.015625 
Q 14.890625 38.140625 10.796875 36.28125 
z
" id="DejaVuSans-53"/>
      </defs>
      <g transform="translate(139.138966 264.204104)scale(0.08 -0.08)">
       <use transform="translate(0 0.09375)" xlink:href="#DejaVuSans-8722"/>
       <use transform="translate(83.789062 0.09375)" xlink:href="#DejaVuSans-53"/>
      </g>
     </g>
    </g>
    <g id="xtick_3">
     <g id="line2d_5">
      <path clip-path="url(#p4fd6624af2)" d="M 236.118706 254.625354 
L 236.118706 19.634646 
" style="fill:none;stroke:#000000;stroke-linecap:square;stroke-opacity:0.1;stroke-width:0.5;"/>
     </g>
     <g id="line2d_6">
      <g>
       <use style="stroke:#000000;stroke-width:0.5;" x="236.118706" xlink:href="#mb4437f504e" y="254.625354"/>
      </g>
     </g>
     <g id="text_3">
      <!-- $\mathregular{0}$ -->
      <g transform="translate(233.558706 264.204104)scale(0.08 -0.08)">
       <use transform="translate(0 0.78125)" xlink:href="#DejaVuSans-48"/>
      </g>
     </g>
    </g>
    <g id="xtick_4">
     <g id="line2d_7">
      <path clip-path="url(#p4fd6624af2)" d="M 327.178446 254.625354 
L 327.178446 19.634646 
" style="fill:none;stroke:#000000;stroke-linecap:square;stroke-opacity:0.1;stroke-width:0.5;"/>
     </g>
     <g id="line2d_8">
      <g>
       <use style="stroke:#000000;stroke-width:0.5;" x="327.178446" xlink:href="#mb4437f504e" y="254.625354"/>
      </g>
     </g>
     <g id="text_4">
      <!-- $\mathregular{5}$ -->
      <g transform="translate(324.618446 264.204104)scale(0.08 -0.08)">
       <use transform="translate(0 0.09375)" xlink:href="#DejaVuSans-53"/>
      </g>
     </g>
    </g>
    <g id="xtick_5">
     <g id="line2d_9">
      <path clip-path="url(#p4fd6624af2)" d="M 418.238186 254.625354 
L 418.238186 19.634646 
" style="fill:none;stroke:#000000;stroke-linecap:square;stroke-opacity:0.1;stroke-width:0.5;"/>
     </g>
     <g id="line2d_10">
      <g>
       <use style="stroke:#000000;stroke-width:0.5;" x="418.238186" xlink:href="#mb4437f504e" y="254.625354"/>
      </g>
     </g>
     <g id="text_5">
      <!-- $\mathregular{10}$ -->
      <g transform="translate(413.118186 264.204104)scale(0.08 -0.08)">
       <use transform="translate(0 0.78125)" xlink:href="#DejaVuSans-49"/>
       <use transform="translate(63.623047 0.78125)" xlink:href="#DejaVuSans-48"/>
      </g>
     </g>
    </g>
    <g id="text_6">
     <!-- x -->
     <defs>
      <path d="M 54.890625 54.6875 
L 35.109375 28.078125 
L 55.90625 0 
L 45.3125 0 
L 29.390625 21.484375 
L 13.484375 0 
L 2.875 0 
L 24.125 28.609375 
L 4.6875 54.6875 
L 15.28125 54.6875 
L 29.78125 35.203125 
L 44.28125 54.6875 
z
" id="DejaVuSans-120"/>
     </defs>
     <g transform="translate(231.679644 281.265511)scale(0.15 -0.15)">
      <use xlink:href="#DejaVuSans-120"/>
     </g>
    </g>
   </g>
   <g id="matplotlib.axis_2">
    <g id="ytick_1">
     <g id="line2d_11">
      <path clip-path="url(#p4fd6624af2)" d="M 43.072058 248.98861 
L 429.165354 248.98861 
" style="fill:none;stroke:#000000;stroke-linecap:square;stroke-opacity:0.1;stroke-width:0.5;"/>
     </g>
     <g id="line2d_12">
      <defs>
       <path d="M 0 0 
L 2.5 0 
" id="m79ba07e22a" style="stroke:#000000;stroke-width:0.5;"/>
      </defs>
      <g>
       <use style="stroke:#000000;stroke-width:0.5;" x="43.072058" xlink:href="#m79ba07e22a" y="248.98861"/>
      </g>
     </g>
     <g id="text_7">
      <!-- $\mathregular{0}$ -->
      <g transform="translate(34.452058 252.027985)scale(0.08 -0.08)">
       <use transform="translate(0 0.78125)" xlink:href="#DejaVuSans-48"/>
      </g>
     </g>
    </g>
    <g id="ytick_2">
     <g id="line2d_13">
      <path clip-path="url(#p4fd6624af2)" d="M 43.072058 193.819757 
L 429.165354 193.819757 
" style="fill:none;stroke:#000000;stroke-linecap:square;stroke-opacity:0.1;stroke-width:0.5;"/>
     </g>
     <g id="line2d_14">
      <g>
       <use style="stroke:#000000;stroke-width:0.5;" x="43.072058" xlink:href="#m79ba07e22a" y="193.819757"/>
      </g>
     </g>
     <g id="text_8">
      <!-- $\mathregular{50}$ -->
      <g transform="translate(29.332058 196.859132)scale(0.08 -0.08)">
       <use transform="translate(0 0.78125)" xlink:href="#DejaVuSans-53"/>
       <use transform="translate(63.623047 0.78125)" xlink:href="#DejaVuSans-48"/>
      </g>
     </g>
    </g>
    <g id="ytick_3">
     <g id="line2d_15">
      <path clip-path="url(#p4fd6624af2)" d="M 43.072058 138.650904 
L 429.165354 138.650904 
" style="fill:none;stroke:#000000;stroke-linecap:square;stroke-opacity:0.1;stroke-width:0.5;"/>
     </g>
     <g id="line2d_16">
      <g>
       <use style="stroke:#000000;stroke-width:0.5;" x="43.072058" xlink:href="#m79ba07e22a" y="138.650904"/>
      </g>
     </g>
     <g id="text_9">
      <!-- $\mathregular{100}$ -->
      <g transform="translate(24.292058 141.690279)scale(0.08 -0.08)">
       <use transform="translate(0 0.78125)" xlink:href="#DejaVuSans-49"/>
       <use transform="translate(63.623047 0.78125)" xlink:href="#DejaVuSans-48"/>
       <use transform="translate(127.246094 0.78125)" xlink:href="#DejaVuSans-48"/>
      </g>
     </g>
    </g>
    <g id="ytick_4">
     <g id="line2d_17">
      <path clip-path="url(#p4fd6624af2)" d="M 43.072058 83.482051 
L 429.165354 83.482051 
" style="fill:none;stroke:#000000;stroke-linecap:square;stroke-opacity:0.1;stroke-width:0.5;"/>
     </g>
     <g id="line2d_18">
      <g>
       <use style="stroke:#000000;stroke-width:0.5;" x="43.072058" xlink:href="#m79ba07e22a" y="83.482051"/>
      </g>
     </g>
     <g id="text_10">
      <!-- $\mathregular{150}$ -->
      <g transform="translate(24.292058 86.521426)scale(0.08 -0.08)">
       <use transform="translate(0 0.78125)" xlink:href="#DejaVuSans-49"/>
       <use transform="translate(63.623047 0.78125)" xlink:href="#DejaVuSans-53"/>
       <use transform="translate(127.246094 0.78125)" xlink:href="#DejaVuSans-48"/>
      </g>
     </g>
    </g>
    <g id="ytick_5">
     <g id="line2d_19">
      <path clip-path="url(#p4fd6624af2)" d="M 43.072058 28.313197 
L 429.165354 28.313197 
" style="fill:none;stroke:#000000;stroke-linecap:square;stroke-opacity:0.1;stroke-width:0.5;"/>
     </g>
     <g id="line2d_20">
      <g>
       <use style="stroke:#000000;stroke-width:0.5;" x="43.072058" xlink:href="#m79ba07e22a" y="28.313197"/>
      </g>
     </g>
     <g id="text_11">
      <!-- $\mathregular{200}$ -->
      <defs>
       <path d="M 19.1875 8.296875 
L 53.609375 8.296875 
L 53.609375 0 
L 7.328125 0 
L 7.328125 8.296875 
Q 12.9375 14.109375 22.625 23.890625 
Q 32.328125 33.6875 34.8125 36.53125 
Q 39.546875 41.84375 41.421875 45.53125 
Q 43.3125 49.21875 43.3125 52.78125 
Q 43.3125 58.59375 39.234375 62.25 
Q 35.15625 65.921875 28.609375 65.921875 
Q 23.96875 65.921875 18.8125 64.3125 
Q 13.671875 62.703125 7.8125 59.421875 
L 7.8125 69.390625 
Q 13.765625 71.78125 18.9375 73 
Q 24.125 74.21875 28.421875 74.21875 
Q 39.75 74.21875 46.484375 68.546875 
Q 53.21875 62.890625 53.21875 53.421875 
Q 53.21875 48.921875 51.53125 44.890625 
Q 49.859375 40.875 45.40625 35.40625 
Q 44.1875 33.984375 37.640625 27.21875 
Q 31.109375 20.453125 19.1875 8.296875 
z
" id="DejaVuSans-50"/>
      </defs>
      <g transform="translate(24.292058 31.352572)scale(0.08 -0.08)">
       <use transform="translate(0 0.78125)" xlink:href="#DejaVuSans-50"/>
       <use transform="translate(63.623047 0.78125)" xlink:href="#DejaVuSans-48"/>
       <use transform="translate(127.246094 0.78125)" xlink:href="#DejaVuSans-48"/>
      </g>
     </g>
    </g>
    <g id="text_12">
     <!-- $U(x)$ -->
     <defs>
      <path d="M 15.484375 72.90625 
L 25.390625 72.90625 
L 16.796875 28.609375 
Q 16.265625 25.640625 16.046875 23.703125 
Q 15.828125 21.78125 15.828125 20.3125 
Q 15.828125 13.578125 19.578125 10.078125 
Q 23.34375 6.59375 30.609375 6.59375 
Q 40.046875 6.59375 45.28125 11.765625 
Q 50.53125 16.9375 52.78125 28.609375 
L 61.375 72.90625 
L 71.296875 72.90625 
L 62.5 27.390625 
Q 59.625 12.640625 51.5625 5.609375 
Q 43.5 -1.421875 29.5 -1.421875 
Q 18.5625 -1.421875 12.1875 4.078125 
Q 5.8125 9.578125 5.8125 19 
Q 5.8125 20.703125 6.046875 22.828125 
Q 6.296875 24.953125 6.78125 27.390625 
z
" id="DejaVuSans-Oblique-85"/>
      <path d="M 31 75.875 
Q 24.46875 64.65625 21.28125 53.65625 
Q 18.109375 42.671875 18.109375 31.390625 
Q 18.109375 20.125 21.3125 9.0625 
Q 24.515625 -2 31 -13.1875 
L 23.1875 -13.1875 
Q 15.875 -1.703125 12.234375 9.375 
Q 8.59375 20.453125 8.59375 31.390625 
Q 8.59375 42.28125 12.203125 53.3125 
Q 15.828125 64.359375 23.1875 75.875 
z
" id="DejaVuSans-40"/>
      <path d="M 60.015625 54.6875 
L 34.90625 27.875 
L 50.296875 0 
L 39.984375 0 
L 28.421875 21.6875 
L 8.296875 0 
L -2.59375 0 
L 24.3125 28.8125 
L 10.015625 54.6875 
L 20.3125 54.6875 
L 30.8125 34.90625 
L 49.125 54.6875 
z
" id="DejaVuSans-Oblique-120"/>
      <path d="M 8.015625 75.875 
L 15.828125 75.875 
Q 23.140625 64.359375 26.78125 53.3125 
Q 30.421875 42.28125 30.421875 31.390625 
Q 30.421875 20.453125 26.78125 9.375 
Q 23.140625 -1.703125 15.828125 -13.1875 
L 8.015625 -13.1875 
Q 14.5 -2 17.703125 9.0625 
Q 20.90625 20.125 20.90625 31.390625 
Q 20.90625 42.671875 17.703125 53.65625 
Q 14.5 64.65625 8.015625 75.875 
z
" id="DejaVuSans-41"/>
     </defs>
     <g transform="translate(17.172527 152.955)rotate(-90)scale(0.15 -0.15)">
      <use transform="translate(0 0.125)" xlink:href="#DejaVuSans-Oblique-85"/>
      <use transform="translate(73.193359 0.125)" xlink:href="#DejaVuSans-40"/>
      <use transform="translate(112.207031 0.125)" xlink:href="#DejaVuSans-Oblique-120"/>
      <use transform="translate(171.386719 0.125)" xlink:href="#DejaVuSans-41"/>
     </g>
    </g>
   </g>
   <g id="line2d_21">
    <path clip-path="url(#p4fd6624af2)" d="M 53.999227 27.299262 
L 64.040902 39.299105 
L 74.082578 50.963502 
L 84.124253 62.292451 
L 94.165929 73.285955 
L 104.207604 83.944011 
L 114.24928 94.266621 
L 124.290955 104.253784 
L 134.332631 113.9055 
L 144.374307 123.22177 
L 153.503103 131.400016 
L 162.631899 139.301033 
L 171.760695 146.924822 
L 180.88949 154.271381 
L 190.018286 161.340713 
L 199.147082 168.132815 
L 208.275878 174.647689 
L 217.404674 180.885334 
L 226.53347 186.845751 
L 235.662266 192.528939 
L 244.791062 197.934898 
L 253.919858 203.063628 
L 263.048654 207.91513 
L 272.17745 212.489403 
L 280.393366 216.369219 
L 288.609283 220.024479 
L 296.825199 223.455184 
L 305.041116 226.661333 
L 313.257032 229.642928 
L 321.472948 232.399967 
L 329.688865 234.932451 
L 337.904781 237.24038 
L 346.120697 239.323753 
L 354.336614 241.182571 
L 362.55253 242.816834 
L 370.768447 244.226542 
L 378.984363 245.411695 
L 387.200279 246.372292 
L 395.416196 247.108334 
L 403.632112 247.619821 
L 411.848028 247.906753 
L 418.238186 247.974674 
L 418.238186 247.974674 
" style="fill:none;stroke:#009afa;stroke-width:2;"/>
   </g>
   <g id="line2d_22">
    <path clip-path="url(#p4fd6624af2)" d="M 53.999227 27.096475 
L 63.128023 37.991562 
L 72.256818 48.553974 
L 81.385614 58.783712 
L 90.51441 68.680776 
L 99.643206 78.245165 
L 108.772002 87.47688 
L 117.900798 96.375921 
L 127.029594 104.942287 
L 136.15839 113.175979 
L 144.374307 120.301864 
L 152.590223 127.158284 
L 160.806139 133.745237 
L 169.022056 140.062724 
L 177.237972 146.110745 
L 185.453888 151.8893 
L 193.669805 157.398388 
L 201.885721 162.63801 
L 210.101638 167.608166 
L 218.317554 172.308855 
L 226.53347 176.740078 
L 234.749387 180.901835 
L 242.965303 184.794126 
L 251.181219 188.41695 
L 259.397136 191.770308 
L 266.700173 194.524852 
L 274.003209 197.066485 
L 281.306246 199.395206 
L 288.609283 201.511015 
L 295.91232 203.413912 
L 303.215356 205.103898 
L 310.518393 206.580973 
L 317.82143 207.845136 
L 325.124467 208.896387 
L 332.427503 209.734726 
L 339.73054 210.360154 
L 347.033577 210.77267 
L 354.336614 210.972275 
L 361.639651 210.958968 
L 368.942687 210.73275 
L 376.245724 210.293619 
L 383.548761 209.641577 
L 390.851798 208.776624 
L 398.154834 207.698759 
L 405.457871 206.407982 
L 412.760908 204.904294 
L 418.238186 203.636804 
L 418.238186 203.636804 
" style="fill:none;stroke:#e36f47;stroke-width:2;"/>
   </g>
   <g id="patch_3">
    <path d="M 43.072058 254.625354 
L 43.072058 19.634646 
" style="fill:none;stroke:#000000;stroke-linecap:square;stroke-linejoin:miter;"/>
   </g>
   <g id="patch_4">
    <path d="M 43.072058 254.625354 
L 429.165354 254.625354 
" style="fill:none;stroke:#000000;stroke-linecap:square;stroke-linejoin:miter;"/>
   </g>
   <g id="line2d_23">
    <path clip-path="url(#p4fd6624af2)" d="M 53.999227 26.893688 
L 62.215143 36.691781 
L 70.431059 46.175496 
L 78.646976 55.344835 
L 86.862892 64.199796 
L 95.078808 72.74038 
L 103.294725 80.966586 
L 111.510641 88.878415 
L 119.726557 96.475867 
L 127.942474 103.758942 
L 136.15839 110.727639 
L 144.374307 117.381959 
L 152.590223 123.721902 
L 159.89326 129.093484 
L 167.196297 134.21667 
L 174.499333 139.091459 
L 181.80237 143.717852 
L 189.105407 148.095847 
L 196.408444 152.225445 
L 203.71148 156.106647 
L 211.014517 159.739451 
L 218.317554 163.123859 
L 225.620591 166.25987 
L 232.923627 169.147483 
L 240.226664 171.7867 
L 247.529701 174.177521 
L 254.832738 176.319944 
L 262.135775 178.21397 
L 269.438811 179.8596 
L 276.741848 181.256832 
L 284.044885 182.405668 
L 291.347922 183.306106 
L 298.650958 183.958148 
L 305.953995 184.361793 
L 313.257032 184.517041 
L 320.560069 184.423892 
L 327.863106 184.082347 
L 335.166142 183.492404 
L 342.469179 182.654065 
L 349.772216 181.567328 
L 357.075253 180.232195 
L 364.378289 178.648665 
L 371.681326 176.816738 
L 378.984363 174.736414 
L 386.2874 172.407693 
L 393.590436 169.830575 
L 400.893473 167.00506 
L 408.19651 163.931149 
L 415.499547 160.60884 
L 418.238186 159.298935 
L 418.238186 159.298935 
" style="fill:none;stroke:#3ea44e;stroke-width:2;"/>
   </g>
   <g id="text_13">
    <!-- Potential Energy -->
    <defs>
     <path d="M 19.671875 64.796875 
L 19.671875 37.40625 
L 32.078125 37.40625 
Q 38.96875 37.40625 42.71875 40.96875 
Q 46.484375 44.53125 46.484375 51.125 
Q 46.484375 57.671875 42.71875 61.234375 
Q 38.96875 64.796875 32.078125 64.796875 
z
M 9.8125 72.90625 
L 32.078125 72.90625 
Q 44.34375 72.90625 50.609375 67.359375 
Q 56.890625 61.8125 56.890625 51.125 
Q 56.890625 40.328125 50.609375 34.8125 
Q 44.34375 29.296875 32.078125 29.296875 
L 19.671875 29.296875 
L 19.671875 0 
L 9.8125 0 
z
" id="DejaVuSans-80"/>
     <path d="M 30.609375 48.390625 
Q 23.390625 48.390625 19.1875 42.75 
Q 14.984375 37.109375 14.984375 27.296875 
Q 14.984375 17.484375 19.15625 11.84375 
Q 23.34375 6.203125 30.609375 6.203125 
Q 37.796875 6.203125 41.984375 11.859375 
Q 46.1875 17.53125 46.1875 27.296875 
Q 46.1875 37.015625 41.984375 42.703125 
Q 37.796875 48.390625 30.609375 48.390625 
z
M 30.609375 56 
Q 42.328125 56 49.015625 48.375 
Q 55.71875 40.765625 55.71875 27.296875 
Q 55.71875 13.875 49.015625 6.21875 
Q 42.328125 -1.421875 30.609375 -1.421875 
Q 18.84375 -1.421875 12.171875 6.21875 
Q 5.515625 13.875 5.515625 27.296875 
Q 5.515625 40.765625 12.171875 48.375 
Q 18.84375 56 30.609375 56 
z
" id="DejaVuSans-111"/>
     <path d="M 18.3125 70.21875 
L 18.3125 54.6875 
L 36.8125 54.6875 
L 36.8125 47.703125 
L 18.3125 47.703125 
L 18.3125 18.015625 
Q 18.3125 11.328125 20.140625 9.421875 
Q 21.96875 7.515625 27.59375 7.515625 
L 36.8125 7.515625 
L 36.8125 0 
L 27.59375 0 
Q 17.1875 0 13.234375 3.875 
Q 9.28125 7.765625 9.28125 18.015625 
L 9.28125 47.703125 
L 2.6875 47.703125 
L 2.6875 54.6875 
L 9.28125 54.6875 
L 9.28125 70.21875 
z
" id="DejaVuSans-116"/>
     <path d="M 56.203125 29.59375 
L 56.203125 25.203125 
L 14.890625 25.203125 
Q 15.484375 15.921875 20.484375 11.0625 
Q 25.484375 6.203125 34.421875 6.203125 
Q 39.59375 6.203125 44.453125 7.46875 
Q 49.3125 8.734375 54.109375 11.28125 
L 54.109375 2.78125 
Q 49.265625 0.734375 44.1875 -0.34375 
Q 39.109375 -1.421875 33.890625 -1.421875 
Q 20.796875 -1.421875 13.15625 6.1875 
Q 5.515625 13.8125 5.515625 26.8125 
Q 5.515625 40.234375 12.765625 48.109375 
Q 20.015625 56 32.328125 56 
Q 43.359375 56 49.78125 48.890625 
Q 56.203125 41.796875 56.203125 29.59375 
z
M 47.21875 32.234375 
Q 47.125 39.59375 43.09375 43.984375 
Q 39.0625 48.390625 32.421875 48.390625 
Q 24.90625 48.390625 20.390625 44.140625 
Q 15.875 39.890625 15.1875 32.171875 
z
" id="DejaVuSans-101"/>
     <path d="M 54.890625 33.015625 
L 54.890625 0 
L 45.90625 0 
L 45.90625 32.71875 
Q 45.90625 40.484375 42.875 44.328125 
Q 39.84375 48.1875 33.796875 48.1875 
Q 26.515625 48.1875 22.3125 43.546875 
Q 18.109375 38.921875 18.109375 30.90625 
L 18.109375 0 
L 9.078125 0 
L 9.078125 54.6875 
L 18.109375 54.6875 
L 18.109375 46.1875 
Q 21.34375 51.125 25.703125 53.5625 
Q 30.078125 56 35.796875 56 
Q 45.21875 56 50.046875 50.171875 
Q 54.890625 44.34375 54.890625 33.015625 
z
" id="DejaVuSans-110"/>
     <path d="M 9.421875 54.6875 
L 18.40625 54.6875 
L 18.40625 0 
L 9.421875 0 
z
M 9.421875 75.984375 
L 18.40625 75.984375 
L 18.40625 64.59375 
L 9.421875 64.59375 
z
" id="DejaVuSans-105"/>
     <path d="M 34.28125 27.484375 
Q 23.390625 27.484375 19.1875 25 
Q 14.984375 22.515625 14.984375 16.5 
Q 14.984375 11.71875 18.140625 8.90625 
Q 21.296875 6.109375 26.703125 6.109375 
Q 34.1875 6.109375 38.703125 11.40625 
Q 43.21875 16.703125 43.21875 25.484375 
L 43.21875 27.484375 
z
M 52.203125 31.203125 
L 52.203125 0 
L 43.21875 0 
L 43.21875 8.296875 
Q 40.140625 3.328125 35.546875 0.953125 
Q 30.953125 -1.421875 24.3125 -1.421875 
Q 15.921875 -1.421875 10.953125 3.296875 
Q 6 8.015625 6 15.921875 
Q 6 25.140625 12.171875 29.828125 
Q 18.359375 34.515625 30.609375 34.515625 
L 43.21875 34.515625 
L 43.21875 35.40625 
Q 43.21875 41.609375 39.140625 45 
Q 35.0625 48.390625 27.6875 48.390625 
Q 23 48.390625 18.546875 47.265625 
Q 14.109375 46.140625 10.015625 43.890625 
L 10.015625 52.203125 
Q 14.9375 54.109375 19.578125 55.046875 
Q 24.21875 56 28.609375 56 
Q 40.484375 56 46.34375 49.84375 
Q 52.203125 43.703125 52.203125 31.203125 
z
" id="DejaVuSans-97"/>
     <path d="M 9.421875 75.984375 
L 18.40625 75.984375 
L 18.40625 0 
L 9.421875 0 
z
" id="DejaVuSans-108"/>
     <path id="DejaVuSans-32"/>
     <path d="M 9.8125 72.90625 
L 55.90625 72.90625 
L 55.90625 64.59375 
L 19.671875 64.59375 
L 19.671875 43.015625 
L 54.390625 43.015625 
L 54.390625 34.71875 
L 19.671875 34.71875 
L 19.671875 8.296875 
L 56.78125 8.296875 
L 56.78125 0 
L 9.8125 0 
z
" id="DejaVuSans-69"/>
     <path d="M 41.109375 46.296875 
Q 39.59375 47.171875 37.8125 47.578125 
Q 36.03125 48 33.890625 48 
Q 26.265625 48 22.1875 43.046875 
Q 18.109375 38.09375 18.109375 28.8125 
L 18.109375 0 
L 9.078125 0 
L 9.078125 54.6875 
L 18.109375 54.6875 
L 18.109375 46.1875 
Q 20.953125 51.171875 25.484375 53.578125 
Q 30.03125 56 36.53125 56 
Q 37.453125 56 38.578125 55.875 
Q 39.703125 55.765625 41.0625 55.515625 
z
" id="DejaVuSans-114"/>
     <path d="M 45.40625 27.984375 
Q 45.40625 37.75 41.375 43.109375 
Q 37.359375 48.484375 30.078125 48.484375 
Q 22.859375 48.484375 18.828125 43.109375 
Q 14.796875 37.75 14.796875 27.984375 
Q 14.796875 18.265625 18.828125 12.890625 
Q 22.859375 7.515625 30.078125 7.515625 
Q 37.359375 7.515625 41.375 12.890625 
Q 45.40625 18.265625 45.40625 27.984375 
z
M 54.390625 6.78125 
Q 54.390625 -7.171875 48.1875 -13.984375 
Q 42 -20.796875 29.203125 -20.796875 
Q 24.46875 -20.796875 20.265625 -20.09375 
Q 16.0625 -19.390625 12.109375 -17.921875 
L 12.109375 -9.1875 
Q 16.0625 -11.328125 19.921875 -12.34375 
Q 23.78125 -13.375 27.78125 -13.375 
Q 36.625 -13.375 41.015625 -8.765625 
Q 45.40625 -4.15625 45.40625 5.171875 
L 45.40625 9.625 
Q 42.625 4.78125 38.28125 2.390625 
Q 33.9375 0 27.875 0 
Q 17.828125 0 11.671875 7.65625 
Q 5.515625 15.328125 5.515625 27.984375 
Q 5.515625 40.671875 11.671875 48.328125 
Q 17.828125 56 27.875 56 
Q 33.9375 56 38.28125 53.609375 
Q 42.625 51.21875 45.40625 46.390625 
L 45.40625 54.6875 
L 54.390625 54.6875 
z
" id="DejaVuSans-103"/>
     <path d="M 32.171875 -5.078125 
Q 28.375 -14.84375 24.75 -17.8125 
Q 21.140625 -20.796875 15.09375 -20.796875 
L 7.90625 -20.796875 
L 7.90625 -13.28125 
L 13.1875 -13.28125 
Q 16.890625 -13.28125 18.9375 -11.515625 
Q 21 -9.765625 23.484375 -3.21875 
L 25.09375 0.875 
L 2.984375 54.6875 
L 12.5 54.6875 
L 29.59375 11.921875 
L 46.6875 54.6875 
L 56.203125 54.6875 
z
" id="DejaVuSans-121"/>
    </defs>
    <g transform="translate(178.3523 13.634646)scale(0.14 -0.14)">
     <use xlink:href="#DejaVuSans-80"/>
     <use x="60.255859" xlink:href="#DejaVuSans-111"/>
     <use x="121.4375" xlink:href="#DejaVuSans-116"/>
     <use x="160.646484" xlink:href="#DejaVuSans-101"/>
     <use x="222.169922" xlink:href="#DejaVuSans-110"/>
     <use x="285.548828" xlink:href="#DejaVuSans-116"/>
     <use x="324.757812" xlink:href="#DejaVuSans-105"/>
     <use x="352.541016" xlink:href="#DejaVuSans-97"/>
     <use x="413.820312" xlink:href="#DejaVuSans-108"/>
     <use x="441.603516" xlink:href="#DejaVuSans-32"/>
     <use x="473.390625" xlink:href="#DejaVuSans-69"/>
     <use x="536.574219" xlink:href="#DejaVuSans-110"/>
     <use x="599.953125" xlink:href="#DejaVuSans-101"/>
     <use x="661.476562" xlink:href="#DejaVuSans-114"/>
     <use x="702.574219" xlink:href="#DejaVuSans-103"/>
     <use x="766.050781" xlink:href="#DejaVuSans-121"/>
    </g>
   </g>
   <g id="line2d_24">
    <path clip-path="url(#p4fd6624af2)" d="M 53.999227 26.6909 
L 62.215143 36.466538 
L 70.431059 45.882887 
L 78.646976 54.939948 
L 86.862892 63.63772 
L 95.078808 71.976205 
L 102.381845 79.086566 
L 109.684882 85.913045 
L 116.987919 92.455641 
L 124.290955 98.714356 
L 131.593992 104.689188 
L 138.897029 110.380139 
L 146.200066 115.787207 
L 153.503103 120.910393 
L 160.806139 125.749696 
L 168.109176 130.305118 
L 175.412213 134.576657 
L 182.71525 138.564315 
L 190.018286 142.26809 
L 196.408444 145.276021 
L 202.798601 148.066605 
L 209.188758 150.639841 
L 215.578915 152.995731 
L 221.969072 155.134273 
L 228.359229 157.055467 
L 234.749387 158.759315 
L 241.139544 160.245815 
L 247.529701 161.514968 
L 253.919858 162.566773 
L 260.310015 163.401232 
L 266.700173 164.018343 
L 273.09033 164.418107 
L 279.480487 164.600523 
L 285.870644 164.565592 
L 292.260801 164.313314 
L 298.650958 163.843689 
L 305.041116 163.156716 
L 311.431273 162.252396 
L 317.82143 161.130729 
L 324.211587 159.791714 
L 330.601744 158.235353 
L 336.991901 156.461644 
L 343.382059 154.470587 
L 349.772216 152.262184 
L 356.162373 149.836433 
L 362.55253 147.193334 
L 368.942687 144.332889 
L 375.332845 141.255096 
L 382.635881 137.471479 
L 389.938918 133.40398 
L 397.241955 129.052599 
L 404.544992 124.417335 
L 411.848028 119.49819 
L 418.238186 114.961065 
L 418.238186 114.961065 
" style="fill:none;stroke:#c371d2;stroke-width:2;"/>
   </g>
   <g id="line2d_25">
    <path clip-path="url(#p4fd6624af2)" d="M 53.999227 26.488113 
L 61.302263 35.177569 
L 68.6053 43.547657 
L 75.908337 51.598378 
L 83.211374 59.329731 
L 90.51441 66.741717 
L 97.817447 73.834335 
L 105.120484 80.607586 
L 112.423521 87.06147 
L 119.726557 93.195986 
L 127.029594 99.011135 
L 134.332631 104.506916 
L 140.722788 109.053744 
L 147.112945 113.356055 
L 153.503103 117.413852 
L 159.89326 121.227132 
L 166.283417 124.795897 
L 172.673574 128.120146 
L 179.063731 131.199879 
L 185.453888 134.035097 
L 191.844046 136.625799 
L 198.234203 138.971985 
L 204.62436 141.073656 
L 211.014517 142.930811 
L 217.404674 144.54345 
L 223.794832 145.911573 
L 230.184989 147.035181 
L 236.575146 147.914273 
L 242.965303 148.54885 
L 249.35546 148.93891 
L 255.745617 149.084455 
L 262.135775 148.985485 
L 268.525932 148.641999 
L 274.916089 148.053997 
L 281.306246 147.221479 
L 287.696403 146.144445 
L 294.08656 144.822896 
L 300.476718 143.256831 
L 306.866875 141.446251 
L 313.257032 139.391155 
L 319.647189 137.091543 
L 326.037346 134.547415 
L 332.427503 131.758772 
L 338.817661 128.725613 
L 345.207818 125.447939 
L 351.597975 121.925748 
L 357.988132 118.159042 
L 364.378289 114.147821 
L 370.768447 109.892083 
L 377.158604 105.39183 
L 383.548761 100.647061 
L 390.851798 94.925061 
L 398.154834 88.883694 
L 405.457871 82.522959 
L 412.760908 75.842857 
L 418.238186 70.623196 
L 418.238186 70.623196 
" style="fill:none;stroke:#ac8e18;stroke-width:2;"/>
   </g>
   <g id="line2d_26">
    <path clip-path="url(#p4fd6624af2)" d="M 53.999227 26.285326 
L 61.302263 34.957039 
L 68.6053 43.273899 
L 75.908337 51.235907 
L 83.211374 58.843062 
L 90.51441 66.095364 
L 96.904568 72.150038 
L 103.294725 77.933028 
L 109.684882 83.444334 
L 116.075039 88.683956 
L 122.465196 93.651894 
L 128.855353 98.348148 
L 135.245511 102.772718 
L 141.635668 106.925603 
L 148.025825 110.806805 
L 154.415982 114.416322 
L 160.806139 117.754155 
L 167.196297 120.820305 
L 173.586454 123.61477 
L 179.976611 126.137551 
L 186.366768 128.388647 
L 192.756925 130.36806 
L 198.234203 131.848461 
L 203.71148 133.129258 
L 209.188758 134.21045 
L 214.666036 135.092037 
L 220.143313 135.774019 
L 225.620591 136.256397 
L 231.097868 136.53917 
L 236.575146 136.622339 
L 242.052423 136.505903 
L 247.529701 136.189862 
L 253.006979 135.674217 
L 258.484256 134.958967 
L 263.961534 134.044112 
L 269.438811 132.929653 
L 274.916089 131.615589 
L 280.393366 130.101921 
L 285.870644 128.388647 
L 292.260801 126.137551 
L 298.650958 123.61477 
L 305.041116 120.820305 
L 311.431273 117.754155 
L 317.82143 114.416322 
L 324.211587 110.806805 
L 330.601744 106.925603 
L 336.991901 102.772718 
L 343.382059 98.348148 
L 349.772216 93.651894 
L 356.162373 88.683956 
L 362.55253 83.444334 
L 368.942687 77.933028 
L 375.332845 72.150038 
L 381.723002 66.095364 
L 388.113159 59.769006 
L 395.416196 52.206207 
L 402.719232 44.288556 
L 410.022269 36.016053 
L 417.325306 27.388696 
L 418.238186 26.285326 
L 418.238186 26.285326 
" style="fill:none;stroke:#00aaae;stroke-width:2;"/>
   </g>
   <g id="line2d_27">
    <path clip-path="url(#p4fd6624af2)" d="M 53.999227 27.299262 
L 64.040902 39.299105 
L 74.082578 50.963502 
L 84.124253 62.292451 
L 94.165929 73.285955 
L 104.207604 83.944011 
L 114.24928 94.266621 
L 124.290955 104.253784 
L 134.332631 113.9055 
L 144.374307 123.22177 
L 153.503103 131.400016 
L 162.631899 139.301033 
L 171.760695 146.924822 
L 180.88949 154.271381 
L 190.018286 161.340713 
L 199.147082 168.132815 
L 208.275878 174.647689 
L 217.404674 180.885334 
L 226.53347 186.845751 
L 235.662266 192.528939 
L 244.791062 197.934898 
L 253.919858 203.063628 
L 263.048654 207.91513 
L 272.17745 212.489403 
L 280.393366 216.369219 
L 288.609283 220.024479 
L 296.825199 223.455184 
L 305.041116 226.661333 
L 313.257032 229.642928 
L 321.472948 232.399967 
L 329.688865 234.932451 
L 337.904781 237.24038 
L 346.120697 239.323753 
L 354.336614 241.182571 
L 362.55253 242.816834 
L 370.768447 244.226542 
L 378.984363 245.411695 
L 387.200279 246.372292 
L 395.416196 247.108334 
L 403.632112 247.619821 
L 411.848028 247.906753 
L 418.238186 247.974674 
L 418.238186 247.974674 
" style="fill:none;stroke:#ed5e93;stroke-dasharray:7.4,3.2;stroke-dashoffset:0;stroke-width:2;"/>
   </g>
   <g id="line2d_28">
    <path clip-path="url(#p4fd6624af2)" d="M 53.999227 26.285326 
L 61.302263 34.957039 
L 68.6053 43.273899 
L 75.908337 51.235907 
L 83.211374 58.843062 
L 90.51441 66.095364 
L 96.904568 72.150038 
L 103.294725 77.933028 
L 109.684882 83.444334 
L 116.075039 88.683956 
L 122.465196 93.651894 
L 128.855353 98.348148 
L 135.245511 102.772718 
L 141.635668 106.925603 
L 148.025825 110.806805 
L 154.415982 114.416322 
L 160.806139 117.754155 
L 167.196297 120.820305 
L 173.586454 123.61477 
L 179.976611 126.137551 
L 186.366768 128.388647 
L 192.756925 130.36806 
L 198.234203 131.848461 
L 203.71148 133.129258 
L 209.188758 134.21045 
L 214.666036 135.092037 
L 220.143313 135.774019 
L 225.620591 136.256397 
L 231.097868 136.53917 
L 236.575146 136.622339 
L 242.052423 136.505903 
L 247.529701 136.189862 
L 253.006979 135.674217 
L 258.484256 134.958967 
L 263.961534 134.044112 
L 269.438811 132.929653 
L 274.916089 131.615589 
L 280.393366 130.101921 
L 285.870644 128.388647 
L 292.260801 126.137551 
L 298.650958 123.61477 
L 305.041116 120.820305 
L 311.431273 117.754155 
L 317.82143 114.416322 
L 324.211587 110.806805 
L 330.601744 106.925603 
L 336.991901 102.772718 
L 343.382059 98.348148 
L 349.772216 93.651894 
L 356.162373 88.683956 
L 362.55253 83.444334 
L 368.942687 77.933028 
L 375.332845 72.150038 
L 381.723002 66.095364 
L 388.113159 59.769006 
L 395.416196 52.206207 
L 402.719232 44.288556 
L 410.022269 36.016053 
L 417.325306 27.388696 
L 418.238186 26.285326 
L 418.238186 26.285326 
" style="fill:none;stroke:#c68225;stroke-dasharray:7.4,3.2;stroke-dashoffset:0;stroke-width:2;"/>
   </g>
   <g id="legend_1">
    <g id="patch_5">
     <path d="M 300.828636 219.772146 
L 421.665354 219.772146 
L 421.665354 27.134646 
L 300.828636 27.134646 
z
" style="fill:#ffffff;stroke:#000000;stroke-linejoin:miter;"/>
    </g>
    <g id="line2d_29">
     <path d="M 312.828636 45.282302 
L 342.828636 45.282302 
" style="fill:none;stroke:#009afa;stroke-linejoin:miter;stroke-width:1.875;"/>
    </g>
    <g id="line2d_30"/>
    <g id="text_14">
     <!-- λ = 0.0 -->
     <defs>
      <path d="M 30.953125 67.4375 
L 56.203125 0 
L 46.6875 0 
L 31.34375 40.4375 
L 12.5 0 
L 2.984375 0 
L 26.953125 52.4375 
L 23.34375 62.109375 
Q 21.046875 68.265625 15.828125 68.265625 
L 11.140625 68.265625 
L 11.140625 75.984375 
L 16.84375 75.875 
Q 27.875 75.734375 30.953125 67.4375 
z
" id="DejaVuSans-955"/>
      <path d="M 10.59375 45.40625 
L 73.1875 45.40625 
L 73.1875 37.203125 
L 10.59375 37.203125 
z
M 10.59375 25.484375 
L 73.1875 25.484375 
L 73.1875 17.1875 
L 10.59375 17.1875 
z
" id="DejaVuSans-61"/>
      <path d="M 10.6875 12.40625 
L 21 12.40625 
L 21 0 
L 10.6875 0 
z
" id="DejaVuSans-46"/>
     </defs>
     <g transform="translate(354.828636 50.532302)scale(0.15 -0.15)">
      <use xlink:href="#DejaVuSans-955"/>
      <use x="59.179688" xlink:href="#DejaVuSans-32"/>
      <use x="90.966797" xlink:href="#DejaVuSans-61"/>
      <use x="174.755859" xlink:href="#DejaVuSans-32"/>
      <use x="206.542969" xlink:href="#DejaVuSans-48"/>
      <use x="270.166016" xlink:href="#DejaVuSans-46"/>
      <use x="301.953125" xlink:href="#DejaVuSans-48"/>
     </g>
    </g>
    <g id="line2d_31">
     <path d="M 312.828636 67.299489 
L 342.828636 67.299489 
" style="fill:none;stroke:#e36f47;stroke-linejoin:miter;stroke-width:1.875;"/>
    </g>
    <g id="line2d_32"/>
    <g id="text_15">
     <!-- λ = 0.2 -->
     <g transform="translate(354.828636 72.549489)scale(0.15 -0.15)">
      <use xlink:href="#DejaVuSans-955"/>
      <use x="59.179688" xlink:href="#DejaVuSans-32"/>
      <use x="90.966797" xlink:href="#DejaVuSans-61"/>
      <use x="174.755859" xlink:href="#DejaVuSans-32"/>
      <use x="206.542969" xlink:href="#DejaVuSans-48"/>
      <use x="270.166016" xlink:href="#DejaVuSans-46"/>
      <use x="301.953125" xlink:href="#DejaVuSans-50"/>
     </g>
    </g>
    <g id="line2d_33">
     <path d="M 312.828636 89.316677 
L 342.828636 89.316677 
" style="fill:none;stroke:#3ea44e;stroke-linejoin:miter;stroke-width:1.875;"/>
    </g>
    <g id="line2d_34"/>
    <g id="text_16">
     <!-- λ = 0.4 -->
     <defs>
      <path d="M 37.796875 64.3125 
L 12.890625 25.390625 
L 37.796875 25.390625 
z
M 35.203125 72.90625 
L 47.609375 72.90625 
L 47.609375 25.390625 
L 58.015625 25.390625 
L 58.015625 17.1875 
L 47.609375 17.1875 
L 47.609375 0 
L 37.796875 0 
L 37.796875 17.1875 
L 4.890625 17.1875 
L 4.890625 26.703125 
z
" id="DejaVuSans-52"/>
     </defs>
     <g transform="translate(354.828636 94.566677)scale(0.15 -0.15)">
      <use xlink:href="#DejaVuSans-955"/>
      <use x="59.179688" xlink:href="#DejaVuSans-32"/>
      <use x="90.966797" xlink:href="#DejaVuSans-61"/>
      <use x="174.755859" xlink:href="#DejaVuSans-32"/>
      <use x="206.542969" xlink:href="#DejaVuSans-48"/>
      <use x="270.166016" xlink:href="#DejaVuSans-46"/>
      <use x="301.953125" xlink:href="#DejaVuSans-52"/>
     </g>
    </g>
    <g id="line2d_35">
     <path d="M 312.828636 111.333864 
L 342.828636 111.333864 
" style="fill:none;stroke:#c371d2;stroke-linejoin:miter;stroke-width:1.875;"/>
    </g>
    <g id="line2d_36"/>
    <g id="text_17">
     <!-- λ = 0.6 -->
     <defs>
      <path d="M 33.015625 40.375 
Q 26.375 40.375 22.484375 35.828125 
Q 18.609375 31.296875 18.609375 23.390625 
Q 18.609375 15.53125 22.484375 10.953125 
Q 26.375 6.390625 33.015625 6.390625 
Q 39.65625 6.390625 43.53125 10.953125 
Q 47.40625 15.53125 47.40625 23.390625 
Q 47.40625 31.296875 43.53125 35.828125 
Q 39.65625 40.375 33.015625 40.375 
z
M 52.59375 71.296875 
L 52.59375 62.3125 
Q 48.875 64.0625 45.09375 64.984375 
Q 41.3125 65.921875 37.59375 65.921875 
Q 27.828125 65.921875 22.671875 59.328125 
Q 17.53125 52.734375 16.796875 39.40625 
Q 19.671875 43.65625 24.015625 45.921875 
Q 28.375 48.1875 33.59375 48.1875 
Q 44.578125 48.1875 50.953125 41.515625 
Q 57.328125 34.859375 57.328125 23.390625 
Q 57.328125 12.15625 50.6875 5.359375 
Q 44.046875 -1.421875 33.015625 -1.421875 
Q 20.359375 -1.421875 13.671875 8.265625 
Q 6.984375 17.96875 6.984375 36.375 
Q 6.984375 53.65625 15.1875 63.9375 
Q 23.390625 74.21875 37.203125 74.21875 
Q 40.921875 74.21875 44.703125 73.484375 
Q 48.484375 72.75 52.59375 71.296875 
z
" id="DejaVuSans-54"/>
     </defs>
     <g transform="translate(354.828636 116.583864)scale(0.15 -0.15)">
      <use xlink:href="#DejaVuSans-955"/>
      <use x="59.179688" xlink:href="#DejaVuSans-32"/>
      <use x="90.966797" xlink:href="#DejaVuSans-61"/>
      <use x="174.755859" xlink:href="#DejaVuSans-32"/>
      <use x="206.542969" xlink:href="#DejaVuSans-48"/>
      <use x="270.166016" xlink:href="#DejaVuSans-46"/>
      <use x="301.953125" xlink:href="#DejaVuSans-54"/>
     </g>
    </g>
    <g id="line2d_37">
     <path d="M 312.828636 133.351052 
L 342.828636 133.351052 
" style="fill:none;stroke:#ac8e18;stroke-linejoin:miter;stroke-width:1.875;"/>
    </g>
    <g id="line2d_38"/>
    <g id="text_18">
     <!-- λ = 0.8 -->
     <defs>
      <path d="M 31.78125 34.625 
Q 24.75 34.625 20.71875 30.859375 
Q 16.703125 27.09375 16.703125 20.515625 
Q 16.703125 13.921875 20.71875 10.15625 
Q 24.75 6.390625 31.78125 6.390625 
Q 38.8125 6.390625 42.859375 10.171875 
Q 46.921875 13.96875 46.921875 20.515625 
Q 46.921875 27.09375 42.890625 30.859375 
Q 38.875 34.625 31.78125 34.625 
z
M 21.921875 38.8125 
Q 15.578125 40.375 12.03125 44.71875 
Q 8.5 49.078125 8.5 55.328125 
Q 8.5 64.0625 14.71875 69.140625 
Q 20.953125 74.21875 31.78125 74.21875 
Q 42.671875 74.21875 48.875 69.140625 
Q 55.078125 64.0625 55.078125 55.328125 
Q 55.078125 49.078125 51.53125 44.71875 
Q 48 40.375 41.703125 38.8125 
Q 48.828125 37.15625 52.796875 32.3125 
Q 56.78125 27.484375 56.78125 20.515625 
Q 56.78125 9.90625 50.3125 4.234375 
Q 43.84375 -1.421875 31.78125 -1.421875 
Q 19.734375 -1.421875 13.25 4.234375 
Q 6.78125 9.90625 6.78125 20.515625 
Q 6.78125 27.484375 10.78125 32.3125 
Q 14.796875 37.15625 21.921875 38.8125 
z
M 18.3125 54.390625 
Q 18.3125 48.734375 21.84375 45.5625 
Q 25.390625 42.390625 31.78125 42.390625 
Q 38.140625 42.390625 41.71875 45.5625 
Q 45.3125 48.734375 45.3125 54.390625 
Q 45.3125 60.0625 41.71875 63.234375 
Q 38.140625 66.40625 31.78125 66.40625 
Q 25.390625 66.40625 21.84375 63.234375 
Q 18.3125 60.0625 18.3125 54.390625 
z
" id="DejaVuSans-56"/>
     </defs>
     <g transform="translate(354.828636 138.601052)scale(0.15 -0.15)">
      <use xlink:href="#DejaVuSans-955"/>
      <use x="59.179688" xlink:href="#DejaVuSans-32"/>
      <use x="90.966797" xlink:href="#DejaVuSans-61"/>
      <use x="174.755859" xlink:href="#DejaVuSans-32"/>
      <use x="206.542969" xlink:href="#DejaVuSans-48"/>
      <use x="270.166016" xlink:href="#DejaVuSans-46"/>
      <use x="301.953125" xlink:href="#DejaVuSans-56"/>
     </g>
    </g>
    <g id="line2d_39">
     <path d="M 312.828636 155.368239 
L 342.828636 155.368239 
" style="fill:none;stroke:#00aaae;stroke-linejoin:miter;stroke-width:1.875;"/>
    </g>
    <g id="line2d_40"/>
    <g id="text_19">
     <!-- λ = 1.0 -->
     <g transform="translate(354.828636 160.618239)scale(0.15 -0.15)">
      <use xlink:href="#DejaVuSans-955"/>
      <use x="59.179688" xlink:href="#DejaVuSans-32"/>
      <use x="90.966797" xlink:href="#DejaVuSans-61"/>
      <use x="174.755859" xlink:href="#DejaVuSans-32"/>
      <use x="206.542969" xlink:href="#DejaVuSans-49"/>
      <use x="270.166016" xlink:href="#DejaVuSans-46"/>
      <use x="301.953125" xlink:href="#DejaVuSans-48"/>
     </g>
    </g>
    <g id="line2d_41">
     <path d="M 312.828636 177.385427 
L 342.828636 177.385427 
" style="fill:none;stroke:#ed5e93;stroke-dasharray:6.9375,3;stroke-dashoffset:0;stroke-linejoin:miter;stroke-width:1.875;"/>
    </g>
    <g id="line2d_42"/>
    <g id="text_20">
     <!-- $U_A$ -->
     <defs>
      <path d="M 36.8125 72.90625 
L 48 72.90625 
L 61.53125 0 
L 51.21875 0 
L 48.1875 18.703125 
L 15.375 18.703125 
L 5.078125 0 
L -5.328125 0 
z
M 40.375 63.1875 
L 19.921875 26.90625 
L 46.6875 26.90625 
z
" id="DejaVuSans-Oblique-65"/>
     </defs>
     <g transform="translate(354.828636 182.635427)scale(0.15 -0.15)">
      <use transform="translate(0 0.09375)" xlink:href="#DejaVuSans-Oblique-85"/>
      <use transform="translate(73.193359 -16.3125)scale(0.7)" xlink:href="#DejaVuSans-Oblique-65"/>
     </g>
    </g>
    <g id="line2d_43">
     <path d="M 312.828636 199.402614 
L 342.828636 199.402614 
" style="fill:none;stroke:#c68225;stroke-dasharray:6.9375,3;stroke-dashoffset:0;stroke-linejoin:miter;stroke-width:1.875;"/>
    </g>
    <g id="line2d_44"/>
    <g id="text_21">
     <!-- $U_B$ -->
     <defs>
      <path d="M 16.890625 72.90625 
L 42.09375 72.90625 
Q 52.34375 72.90625 57.421875 69.09375 
Q 62.5 65.28125 62.5 57.625 
Q 62.5 50.59375 58.125 45.484375 
Q 53.765625 40.375 46.6875 39.3125 
Q 52.734375 37.9375 55.765625 34.078125 
Q 58.796875 30.21875 58.796875 23.78125 
Q 58.796875 12.796875 50.65625 6.390625 
Q 42.53125 0 28.421875 0 
L 2.6875 0 
z
M 19.28125 34.8125 
L 14.109375 8.109375 
L 29.984375 8.109375 
Q 38.921875 8.109375 43.75 12.203125 
Q 48.578125 16.3125 48.578125 23.78125 
Q 48.578125 29.546875 45.375 32.171875 
Q 42.1875 34.8125 35.109375 34.8125 
z
M 25.09375 64.796875 
L 20.796875 42.828125 
L 35.5 42.828125 
Q 43.359375 42.828125 47.78125 46.234375 
Q 52.203125 49.65625 52.203125 55.71875 
Q 52.203125 60.453125 49.21875 62.625 
Q 46.234375 64.796875 39.703125 64.796875 
z
" id="DejaVuSans-Oblique-66"/>
     </defs>
     <g transform="translate(354.828636 204.652614)scale(0.15 -0.15)">
      <use transform="translate(0 0.09375)" xlink:href="#DejaVuSans-Oblique-85"/>
      <use transform="translate(73.193359 -16.3125)scale(0.7)" xlink:href="#DejaVuSans-Oblique-66"/>
     </g>
    </g>
   </g>
  </g>
 </g>
 <defs>
  <clipPath id="p4fd6624af2">
   <rect height="234.990709" width="386.093297" x="43.072058" y="19.634646"/>
  </clipPath>
 </defs>
</svg>
