<?xml version="1.0" encoding="utf-8" standalone="no"?>
<!DOCTYPE svg PUBLIC "-//W3C//DTD SVG 1.1//EN"
  "http://www.w3.org/Graphics/SVG/1.1/DTD/svg11.dtd">
<!-- Created with matplotlib (https://matplotlib.org/) -->
<svg height="288pt" version="1.1" viewBox="0 0 432 288" width="432pt" xmlns="http://www.w3.org/2000/svg" xmlns:xlink="http://www.w3.org/1999/xlink">
 <metadata>
  <rdf:RDF xmlns:cc="http://creativecommons.org/ns#" xmlns:dc="http://purl.org/dc/elements/1.1/" xmlns:rdf="http://www.w3.org/1999/02/22-rdf-syntax-ns#">
   <cc:Work>
    <dc:type rdf:resource="http://purl.org/dc/dcmitype/StillImage"/>
    <dc:date>2020-11-12T12:46:13.259713</dc:date>
    <dc:format>image/svg+xml</dc:format>
    <dc:creator>
     <cc:Agent>
      <dc:title>Matplotlib v3.3.3, https://matplotlib.org/</dc:title>
     </cc:Agent>
    </dc:creator>
   </cc:Work>
  </rdf:RDF>
 </metadata>
 <defs>
  <style type="text/css">*{stroke-linecap:butt;stroke-linejoin:round;}</style>
 </defs>
 <g id="figure_1">
  <g id="patch_1">
   <path d="M 0 288 
L 432 288 
L 432 0 
L 0 0 
z
" style="fill:#ffffff;"/>
  </g>
  <g id="axes_1">
   <g id="patch_2">
    <path d="M 56.009734 248.865354 
L 429.165354 248.865354 
L 429.165354 19.634646 
L 56.009734 19.634646 
z
" style="fill:#ffffff;"/>
   </g>
   <g id="matplotlib.axis_1">
    <g id="xtick_1">
     <g id="line2d_1">
      <path clip-path="url(#p6714c5e5e2)" d="M 66.570742 248.865354 
L 66.570742 19.634646 
" style="fill:none;stroke:#000000;stroke-linecap:square;stroke-opacity:0.1;stroke-width:0.5;"/>
     </g>
     <g id="line2d_2">
      <defs>
       <path d="M 0 0 
L 0 -2.5 
" id="m89bcbe69f0" style="stroke:#000000;stroke-width:0.5;"/>
      </defs>
      <g>
       <use style="stroke:#000000;stroke-width:0.5;" x="66.570742" xlink:href="#m89bcbe69f0" y="248.865354"/>
      </g>
     </g>
     <g id="text_1">
      <!-- $\mathregular{-15}$ -->
      <g transform="translate(50.670742 263.763011)scale(0.15 -0.15)">
       <defs>
        <path d="M 10.59375 35.5 
L 73.1875 35.5 
L 73.1875 27.203125 
L 10.59375 27.203125 
z
" id="DejaVuSans-8722"/>
        <path d="M 12.40625 8.296875 
L 28.515625 8.296875 
L 28.515625 63.921875 
L 10.984375 60.40625 
L 10.984375 69.390625 
L 28.421875 72.90625 
L 38.28125 72.90625 
L 38.28125 8.296875 
L 54.390625 8.296875 
L 54.390625 0 
L 12.40625 0 
z
" id="DejaVuSans-49"/>
        <path d="M 10.796875 72.90625 
L 49.515625 72.90625 
L 49.515625 64.59375 
L 19.828125 64.59375 
L 19.828125 46.734375 
Q 21.96875 47.46875 24.109375 47.828125 
Q 26.265625 48.1875 28.421875 48.1875 
Q 40.625 48.1875 47.75 41.5 
Q 54.890625 34.8125 54.890625 23.390625 
Q 54.890625 11.625 47.5625 5.09375 
Q 40.234375 -1.421875 26.90625 -1.421875 
Q 22.3125 -1.421875 17.546875 -0.640625 
Q 12.796875 0.140625 7.71875 1.703125 
L 7.71875 11.625 
Q 12.109375 9.234375 16.796875 8.0625 
Q 21.484375 6.890625 26.703125 6.890625 
Q 35.15625 6.890625 40.078125 11.328125 
Q 45.015625 15.765625 45.015625 23.390625 
Q 45.015625 31 40.078125 35.4375 
Q 35.15625 39.890625 26.703125 39.890625 
Q 22.75 39.890625 18.8125 39.015625 
Q 14.890625 38.140625 10.796875 36.28125 
z
" id="DejaVuSans-53"/>
       </defs>
       <use transform="translate(0 0.09375)" xlink:href="#DejaVuSans-8722"/>
       <use transform="translate(83.789062 0.09375)" xlink:href="#DejaVuSans-49"/>
       <use transform="translate(147.412109 0.09375)" xlink:href="#DejaVuSans-53"/>
      </g>
     </g>
    </g>
    <g id="xtick_2">
     <g id="line2d_3">
      <path clip-path="url(#p6714c5e5e2)" d="M 125.243009 248.865354 
L 125.243009 19.634646 
" style="fill:none;stroke:#000000;stroke-linecap:square;stroke-opacity:0.1;stroke-width:0.5;"/>
     </g>
     <g id="line2d_4">
      <g>
       <use style="stroke:#000000;stroke-width:0.5;" x="125.243009" xlink:href="#m89bcbe69f0" y="248.865354"/>
      </g>
     </g>
     <g id="text_2">
      <!-- $\mathregular{-10}$ -->
      <g transform="translate(109.343009 263.763011)scale(0.15 -0.15)">
       <defs>
        <path d="M 31.78125 66.40625 
Q 24.171875 66.40625 20.328125 58.90625 
Q 16.5 51.421875 16.5 36.375 
Q 16.5 21.390625 20.328125 13.890625 
Q 24.171875 6.390625 31.78125 6.390625 
Q 39.453125 6.390625 43.28125 13.890625 
Q 47.125 21.390625 47.125 36.375 
Q 47.125 51.421875 43.28125 58.90625 
Q 39.453125 66.40625 31.78125 66.40625 
z
M 31.78125 74.21875 
Q 44.046875 74.21875 50.515625 64.515625 
Q 56.984375 54.828125 56.984375 36.375 
Q 56.984375 17.96875 50.515625 8.265625 
Q 44.046875 -1.421875 31.78125 -1.421875 
Q 19.53125 -1.421875 13.0625 8.265625 
Q 6.59375 17.96875 6.59375 36.375 
Q 6.59375 54.828125 13.0625 64.515625 
Q 19.53125 74.21875 31.78125 74.21875 
z
" id="DejaVuSans-48"/>
       </defs>
       <use transform="translate(0 0.78125)" xlink:href="#DejaVuSans-8722"/>
       <use transform="translate(83.789062 0.78125)" xlink:href="#DejaVuSans-49"/>
       <use transform="translate(147.412109 0.78125)" xlink:href="#DejaVuSans-48"/>
      </g>
     </g>
    </g>
    <g id="xtick_3">
     <g id="line2d_5">
      <path clip-path="url(#p6714c5e5e2)" d="M 183.915277 248.865354 
L 183.915277 19.634646 
" style="fill:none;stroke:#000000;stroke-linecap:square;stroke-opacity:0.1;stroke-width:0.5;"/>
     </g>
     <g id="line2d_6">
      <g>
       <use style="stroke:#000000;stroke-width:0.5;" x="183.915277" xlink:href="#m89bcbe69f0" y="248.865354"/>
      </g>
     </g>
     <g id="text_3">
      <!-- $\mathregular{-5}$ -->
      <g transform="translate(172.815277 263.763011)scale(0.15 -0.15)">
       <use transform="translate(0 0.09375)" xlink:href="#DejaVuSans-8722"/>
       <use transform="translate(83.789062 0.09375)" xlink:href="#DejaVuSans-53"/>
      </g>
     </g>
    </g>
    <g id="xtick_4">
     <g id="line2d_7">
      <path clip-path="url(#p6714c5e5e2)" d="M 242.587544 248.865354 
L 242.587544 19.634646 
" style="fill:none;stroke:#000000;stroke-linecap:square;stroke-opacity:0.1;stroke-width:0.5;"/>
     </g>
     <g id="line2d_8">
      <g>
       <use style="stroke:#000000;stroke-width:0.5;" x="242.587544" xlink:href="#m89bcbe69f0" y="248.865354"/>
      </g>
     </g>
     <g id="text_4">
      <!-- $\mathregular{0}$ -->
      <g transform="translate(237.787544 263.763011)scale(0.15 -0.15)">
       <use transform="translate(0 0.78125)" xlink:href="#DejaVuSans-48"/>
      </g>
     </g>
    </g>
    <g id="xtick_5">
     <g id="line2d_9">
      <path clip-path="url(#p6714c5e5e2)" d="M 301.259811 248.865354 
L 301.259811 19.634646 
" style="fill:none;stroke:#000000;stroke-linecap:square;stroke-opacity:0.1;stroke-width:0.5;"/>
     </g>
     <g id="line2d_10">
      <g>
       <use style="stroke:#000000;stroke-width:0.5;" x="301.259811" xlink:href="#m89bcbe69f0" y="248.865354"/>
      </g>
     </g>
     <g id="text_5">
      <!-- $\mathregular{5}$ -->
      <g transform="translate(296.459811 263.763011)scale(0.15 -0.15)">
       <use transform="translate(0 0.09375)" xlink:href="#DejaVuSans-53"/>
      </g>
     </g>
    </g>
    <g id="xtick_6">
     <g id="line2d_11">
      <path clip-path="url(#p6714c5e5e2)" d="M 359.932079 248.865354 
L 359.932079 19.634646 
" style="fill:none;stroke:#000000;stroke-linecap:square;stroke-opacity:0.1;stroke-width:0.5;"/>
     </g>
     <g id="line2d_12">
      <g>
       <use style="stroke:#000000;stroke-width:0.5;" x="359.932079" xlink:href="#m89bcbe69f0" y="248.865354"/>
      </g>
     </g>
     <g id="text_6">
      <!-- $\mathregular{10}$ -->
      <g transform="translate(350.332079 263.763011)scale(0.15 -0.15)">
       <use transform="translate(0 0.78125)" xlink:href="#DejaVuSans-49"/>
       <use transform="translate(63.623047 0.78125)" xlink:href="#DejaVuSans-48"/>
      </g>
     </g>
    </g>
    <g id="xtick_7">
     <g id="line2d_13">
      <path clip-path="url(#p6714c5e5e2)" d="M 418.604346 248.865354 
L 418.604346 19.634646 
" style="fill:none;stroke:#000000;stroke-linecap:square;stroke-opacity:0.1;stroke-width:0.5;"/>
     </g>
     <g id="line2d_14">
      <g>
       <use style="stroke:#000000;stroke-width:0.5;" x="418.604346" xlink:href="#m89bcbe69f0" y="248.865354"/>
      </g>
     </g>
     <g id="text_7">
      <!-- $\mathregular{15}$ -->
      <g transform="translate(409.004346 263.763011)scale(0.15 -0.15)">
       <use transform="translate(0 0.09375)" xlink:href="#DejaVuSans-49"/>
       <use transform="translate(63.623047 0.09375)" xlink:href="#DejaVuSans-53"/>
      </g>
     </g>
    </g>
    <g id="text_8">
     <!-- x -->
     <g transform="translate(238.148481 282.280198)scale(0.15 -0.15)">
      <defs>
       <path d="M 54.890625 54.6875 
L 35.109375 28.078125 
L 55.90625 0 
L 45.3125 0 
L 29.390625 21.484375 
L 13.484375 0 
L 2.875 0 
L 24.125 28.609375 
L 4.6875 54.6875 
L 15.28125 54.6875 
L 29.78125 35.203125 
L 44.28125 54.6875 
z
" id="DejaVuSans-120"/>
      </defs>
      <use xlink:href="#DejaVuSans-120"/>
     </g>
    </g>
   </g>
   <g id="matplotlib.axis_2">
    <g id="ytick_1">
     <g id="line2d_15">
      <path clip-path="url(#p6714c5e5e2)" d="M 56.009734 242.987902 
L 429.165354 242.987902 
" style="fill:none;stroke:#000000;stroke-linecap:square;stroke-opacity:0.1;stroke-width:0.5;"/>
     </g>
     <g id="line2d_16">
      <defs>
       <path d="M 0 0 
L 2.5 0 
" id="m01626f13a6" style="stroke:#000000;stroke-width:0.5;"/>
      </defs>
      <g>
       <use style="stroke:#000000;stroke-width:0.5;" x="56.009734" xlink:href="#m01626f13a6" y="242.987902"/>
      </g>
     </g>
     <g id="text_9">
      <!-- $\mathregular{0}$ -->
      <g transform="translate(42.909734 248.68673)scale(0.15 -0.15)">
       <use transform="translate(0 0.78125)" xlink:href="#DejaVuSans-48"/>
      </g>
     </g>
    </g>
    <g id="ytick_2">
     <g id="line2d_17">
      <path clip-path="url(#p6714c5e5e2)" d="M 56.009734 176.635251 
L 429.165354 176.635251 
" style="fill:none;stroke:#000000;stroke-linecap:square;stroke-opacity:0.1;stroke-width:0.5;"/>
     </g>
     <g id="line2d_18">
      <g>
       <use style="stroke:#000000;stroke-width:0.5;" x="56.009734" xlink:href="#m01626f13a6" y="176.635251"/>
      </g>
     </g>
     <g id="text_10">
      <!-- $\mathregular{100}$ -->
      <g transform="translate(23.859734 182.334079)scale(0.15 -0.15)">
       <use transform="translate(0 0.78125)" xlink:href="#DejaVuSans-49"/>
       <use transform="translate(63.623047 0.78125)" xlink:href="#DejaVuSans-48"/>
       <use transform="translate(127.246094 0.78125)" xlink:href="#DejaVuSans-48"/>
      </g>
     </g>
    </g>
    <g id="ytick_3">
     <g id="line2d_19">
      <path clip-path="url(#p6714c5e5e2)" d="M 56.009734 110.282601 
L 429.165354 110.282601 
" style="fill:none;stroke:#000000;stroke-linecap:square;stroke-opacity:0.1;stroke-width:0.5;"/>
     </g>
     <g id="line2d_20">
      <g>
       <use style="stroke:#000000;stroke-width:0.5;" x="56.009734" xlink:href="#m01626f13a6" y="110.282601"/>
      </g>
     </g>
     <g id="text_11">
      <!-- $\mathregular{200}$ -->
      <g transform="translate(23.859734 115.981429)scale(0.15 -0.15)">
       <defs>
        <path d="M 19.1875 8.296875 
L 53.609375 8.296875 
L 53.609375 0 
L 7.328125 0 
L 7.328125 8.296875 
Q 12.9375 14.109375 22.625 23.890625 
Q 32.328125 33.6875 34.8125 36.53125 
Q 39.546875 41.84375 41.421875 45.53125 
Q 43.3125 49.21875 43.3125 52.78125 
Q 43.3125 58.59375 39.234375 62.25 
Q 35.15625 65.921875 28.609375 65.921875 
Q 23.96875 65.921875 18.8125 64.3125 
Q 13.671875 62.703125 7.8125 59.421875 
L 7.8125 69.390625 
Q 13.765625 71.78125 18.9375 73 
Q 24.125 74.21875 28.421875 74.21875 
Q 39.75 74.21875 46.484375 68.546875 
Q 53.21875 62.890625 53.21875 53.421875 
Q 53.21875 48.921875 51.53125 44.890625 
Q 49.859375 40.875 45.40625 35.40625 
Q 44.1875 33.984375 37.640625 27.21875 
Q 31.109375 20.453125 19.1875 8.296875 
z
" id="DejaVuSans-50"/>
       </defs>
       <use transform="translate(0 0.78125)" xlink:href="#DejaVuSans-50"/>
       <use transform="translate(63.623047 0.78125)" xlink:href="#DejaVuSans-48"/>
       <use transform="translate(127.246094 0.78125)" xlink:href="#DejaVuSans-48"/>
      </g>
     </g>
    </g>
    <g id="ytick_4">
     <g id="line2d_21">
      <path clip-path="url(#p6714c5e5e2)" d="M 56.009734 43.92995 
L 429.165354 43.92995 
" style="fill:none;stroke:#000000;stroke-linecap:square;stroke-opacity:0.1;stroke-width:0.5;"/>
     </g>
     <g id="line2d_22">
      <g>
       <use style="stroke:#000000;stroke-width:0.5;" x="56.009734" xlink:href="#m01626f13a6" y="43.92995"/>
      </g>
     </g>
     <g id="text_12">
      <!-- $\mathregular{300}$ -->
      <g transform="translate(23.859734 49.628778)scale(0.15 -0.15)">
       <defs>
        <path d="M 40.578125 39.3125 
Q 47.65625 37.796875 51.625 33 
Q 55.609375 28.21875 55.609375 21.1875 
Q 55.609375 10.40625 48.1875 4.484375 
Q 40.765625 -1.421875 27.09375 -1.421875 
Q 22.515625 -1.421875 17.65625 -0.515625 
Q 12.796875 0.390625 7.625 2.203125 
L 7.625 11.71875 
Q 11.71875 9.328125 16.59375 8.109375 
Q 21.484375 6.890625 26.8125 6.890625 
Q 36.078125 6.890625 40.9375 10.546875 
Q 45.796875 14.203125 45.796875 21.1875 
Q 45.796875 27.640625 41.28125 31.265625 
Q 36.765625 34.90625 28.71875 34.90625 
L 20.21875 34.90625 
L 20.21875 43.015625 
L 29.109375 43.015625 
Q 36.375 43.015625 40.234375 45.921875 
Q 44.09375 48.828125 44.09375 54.296875 
Q 44.09375 59.90625 40.109375 62.90625 
Q 36.140625 65.921875 28.71875 65.921875 
Q 24.65625 65.921875 20.015625 65.03125 
Q 15.375 64.15625 9.8125 62.3125 
L 9.8125 71.09375 
Q 15.4375 72.65625 20.34375 73.4375 
Q 25.25 74.21875 29.59375 74.21875 
Q 40.828125 74.21875 47.359375 69.109375 
Q 53.90625 64.015625 53.90625 55.328125 
Q 53.90625 49.265625 50.4375 45.09375 
Q 46.96875 40.921875 40.578125 39.3125 
z
" id="DejaVuSans-51"/>
       </defs>
       <use transform="translate(0 0.78125)" xlink:href="#DejaVuSans-51"/>
       <use transform="translate(63.623047 0.78125)" xlink:href="#DejaVuSans-48"/>
       <use transform="translate(127.246094 0.78125)" xlink:href="#DejaVuSans-48"/>
      </g>
     </g>
    </g>
    <g id="text_13">
     <!-- $U(x)$ -->
     <g transform="translate(16.740202 150.075)rotate(-90)scale(0.15 -0.15)">
      <defs>
       <path d="M 15.484375 72.90625 
L 25.390625 72.90625 
L 16.796875 28.609375 
Q 16.265625 25.640625 16.046875 23.703125 
Q 15.828125 21.78125 15.828125 20.3125 
Q 15.828125 13.578125 19.578125 10.078125 
Q 23.34375 6.59375 30.609375 6.59375 
Q 40.046875 6.59375 45.28125 11.765625 
Q 50.53125 16.9375 52.78125 28.609375 
L 61.375 72.90625 
L 71.296875 72.90625 
L 62.5 27.390625 
Q 59.625 12.640625 51.5625 5.609375 
Q 43.5 -1.421875 29.5 -1.421875 
Q 18.5625 -1.421875 12.1875 4.078125 
Q 5.8125 9.578125 5.8125 19 
Q 5.8125 20.703125 6.046875 22.828125 
Q 6.296875 24.953125 6.78125 27.390625 
z
" id="DejaVuSans-Oblique-85"/>
       <path d="M 31 75.875 
Q 24.46875 64.65625 21.28125 53.65625 
Q 18.109375 42.671875 18.109375 31.390625 
Q 18.109375 20.125 21.3125 9.0625 
Q 24.515625 -2 31 -13.1875 
L 23.1875 -13.1875 
Q 15.875 -1.703125 12.234375 9.375 
Q 8.59375 20.453125 8.59375 31.390625 
Q 8.59375 42.28125 12.203125 53.3125 
Q 15.828125 64.359375 23.1875 75.875 
z
" id="DejaVuSans-40"/>
       <path d="M 60.015625 54.6875 
L 34.90625 27.875 
L 50.296875 0 
L 39.984375 0 
L 28.421875 21.6875 
L 8.296875 0 
L -2.59375 0 
L 24.3125 28.8125 
L 10.015625 54.6875 
L 20.3125 54.6875 
L 30.8125 34.90625 
L 49.125 54.6875 
z
" id="DejaVuSans-Oblique-120"/>
       <path d="M 8.015625 75.875 
L 15.828125 75.875 
Q 23.140625 64.359375 26.78125 53.3125 
Q 30.421875 42.28125 30.421875 31.390625 
Q 30.421875 20.453125 26.78125 9.375 
Q 23.140625 -1.703125 15.828125 -13.1875 
L 8.015625 -13.1875 
Q 14.5 -2 17.703125 9.0625 
Q 20.90625 20.125 20.90625 31.390625 
Q 20.90625 42.671875 17.703125 53.65625 
Q 14.5 64.65625 8.015625 75.875 
z
" id="DejaVuSans-41"/>
      </defs>
      <use transform="translate(0 0.125)" xlink:href="#DejaVuSans-Oblique-85"/>
      <use transform="translate(73.193359 0.125)" xlink:href="#DejaVuSans-40"/>
      <use transform="translate(112.207031 0.125)" xlink:href="#DejaVuSans-Oblique-120"/>
      <use transform="translate(171.386719 0.125)" xlink:href="#DejaVuSans-41"/>
     </g>
    </g>
   </g>
   <g id="line2d_23">
    <path clip-path="url(#p6714c5e5e2)" d="M 66.570742 35.026129 
L 75.393639 47.310878 
L 84.216536 59.22052 
L 93.039434 70.755056 
L 101.862331 81.914485 
L 110.685228 92.698807 
L 119.508126 103.108022 
L 128.331023 113.14213 
L 136.271631 121.852111 
L 144.212238 130.258256 
L 152.152846 138.360563 
L 160.093454 146.159035 
L 168.034061 153.65367 
L 175.974669 160.844468 
L 183.915277 167.73143 
L 191.855884 174.314555 
L 199.796492 180.593844 
L 207.737099 186.569296 
L 215.677707 192.240911 
L 223.618315 197.60869 
L 230.676633 202.124977 
L 237.73495 206.401195 
L 244.793268 210.437345 
L 251.851586 214.233426 
L 258.909904 217.789439 
L 265.968222 221.105383 
L 273.02654 224.18126 
L 280.084858 227.017067 
L 287.143176 229.612807 
L 294.201493 231.968478 
L 301.259811 234.08408 
L 308.318129 235.959615 
L 315.376447 237.59508 
L 322.434765 238.990478 
L 329.493083 240.145807 
L 336.551401 241.061068 
L 343.609719 241.73626 
L 350.668037 242.171384 
L 357.726354 242.36644 
L 364.784672 242.321427 
L 371.84299 242.036346 
L 378.901308 241.511196 
L 385.959626 240.745978 
L 393.017944 239.740692 
L 400.076262 238.495337 
L 407.13458 237.009914 
L 414.192898 235.284422 
L 418.604346 234.08408 
L 418.604346 234.08408 
" style="fill:none;stroke:#009afa;stroke-width:2;"/>
   </g>
   <g id="line2d_24">
    <path clip-path="url(#p6714c5e5e2)" d="M 66.570742 33.245364 
L 74.511349 44.737138 
L 82.451957 55.864307 
L 90.392565 66.626873 
L 98.333172 77.024835 
L 106.27378 87.058193 
L 114.214387 96.726947 
L 122.154995 106.031097 
L 130.095603 114.970644 
L 138.03621 123.545586 
L 145.094528 130.86167 
L 152.152846 137.889672 
L 159.211164 144.629592 
L 166.269482 151.08143 
L 173.3278 157.245186 
L 180.386118 163.120859 
L 187.444435 168.708451 
L 194.502753 174.007961 
L 201.561071 179.019388 
L 208.619389 183.742734 
L 215.677707 188.177997 
L 222.736025 192.325178 
L 229.794343 196.184278 
L 235.970371 199.324672 
L 242.146399 202.244504 
L 248.322427 204.943773 
L 254.498455 207.422479 
L 260.674484 209.680622 
L 266.850512 211.718202 
L 273.02654 213.53522 
L 279.202568 215.131675 
L 285.378596 216.507567 
L 291.554624 217.662896 
L 297.730652 218.597662 
L 303.906681 219.311865 
L 310.082709 219.805506 
L 316.258737 220.078584 
L 322.434765 220.131099 
L 328.610793 219.963051 
L 334.786821 219.57444 
L 340.962849 218.965267 
L 347.138878 218.13553 
L 353.314906 217.085231 
L 359.490934 215.814369 
L 365.666962 214.322944 
L 371.84299 212.610957 
L 378.019018 210.678406 
L 384.195047 208.525293 
L 390.371075 206.151617 
L 396.547103 203.557378 
L 402.723131 200.742576 
L 408.899159 197.707211 
L 415.075187 194.451284 
L 418.604346 192.491726 
L 418.604346 192.491726 
" style="fill:none;stroke:#e36f47;stroke-width:2;"/>
   </g>
   <g id="patch_3">
    <path d="M 56.009734 248.865354 
L 56.009734 19.634646 
" style="fill:none;stroke:#000000;stroke-linecap:square;stroke-linejoin:miter;"/>
   </g>
   <g id="patch_4">
    <path d="M 56.009734 248.865354 
L 429.165354 248.865354 
" style="fill:none;stroke:#000000;stroke-linecap:square;stroke-linejoin:miter;"/>
   </g>
   <g id="line2d_25">
    <path clip-path="url(#p6714c5e5e2)" d="M 66.570742 31.4646 
L 74.511349 43.374993 
L 82.451957 54.860014 
L 90.392565 65.919665 
L 97.450882 75.393363 
L 104.5092 84.530966 
L 111.567518 93.332473 
L 118.625836 101.797885 
L 125.684154 109.9272 
L 132.742472 117.72042 
L 139.80079 125.177544 
L 146.859108 132.298573 
L 153.917426 139.083505 
L 160.975743 145.532342 
L 168.034061 151.645084 
L 174.210089 156.718029 
L 180.386118 161.53365 
L 186.562146 166.091949 
L 192.738174 170.392924 
L 198.914202 174.436576 
L 205.09023 178.222904 
L 211.266258 181.751909 
L 217.442286 185.023591 
L 223.618315 188.03795 
L 229.794343 190.794985 
L 235.970371 193.294697 
L 242.146399 195.537086 
L 248.322427 197.522152 
L 254.498455 199.249894 
L 260.674484 200.720313 
L 266.850512 201.933408 
L 273.02654 202.88918 
L 279.202568 203.587629 
L 285.378596 204.028755 
L 291.554624 204.212557 
L 297.730652 204.139036 
L 303.906681 203.808192 
L 310.082709 203.220025 
L 316.258737 202.374534 
L 322.434765 201.27172 
L 328.610793 199.911582 
L 334.786821 198.294121 
L 340.962849 196.419337 
L 347.138878 194.28723 
L 353.314906 191.8978 
L 359.490934 189.251046 
L 365.666962 186.346968 
L 371.84299 183.185568 
L 378.019018 179.766844 
L 384.195047 176.090797 
L 390.371075 172.157426 
L 396.547103 167.966733 
L 402.723131 163.518716 
L 408.899159 158.813375 
L 415.075187 153.850712 
L 418.604346 150.899371 
L 418.604346 150.899371 
" style="fill:none;stroke:#3ea44e;stroke-width:2;"/>
   </g>
   <g id="text_14">
    <!-- Potential Energy -->
    <g transform="translate(185.193013 13.634646)scale(0.14 -0.14)">
     <defs>
      <path d="M 19.671875 64.796875 
L 19.671875 37.40625 
L 32.078125 37.40625 
Q 38.96875 37.40625 42.71875 40.96875 
Q 46.484375 44.53125 46.484375 51.125 
Q 46.484375 57.671875 42.71875 61.234375 
Q 38.96875 64.796875 32.078125 64.796875 
z
M 9.8125 72.90625 
L 32.078125 72.90625 
Q 44.34375 72.90625 50.609375 67.359375 
Q 56.890625 61.8125 56.890625 51.125 
Q 56.890625 40.328125 50.609375 34.8125 
Q 44.34375 29.296875 32.078125 29.296875 
L 19.671875 29.296875 
L 19.671875 0 
L 9.8125 0 
z
" id="DejaVuSans-80"/>
      <path d="M 30.609375 48.390625 
Q 23.390625 48.390625 19.1875 42.75 
Q 14.984375 37.109375 14.984375 27.296875 
Q 14.984375 17.484375 19.15625 11.84375 
Q 23.34375 6.203125 30.609375 6.203125 
Q 37.796875 6.203125 41.984375 11.859375 
Q 46.1875 17.53125 46.1875 27.296875 
Q 46.1875 37.015625 41.984375 42.703125 
Q 37.796875 48.390625 30.609375 48.390625 
z
M 30.609375 56 
Q 42.328125 56 49.015625 48.375 
Q 55.71875 40.765625 55.71875 27.296875 
Q 55.71875 13.875 49.015625 6.21875 
Q 42.328125 -1.421875 30.609375 -1.421875 
Q 18.84375 -1.421875 12.171875 6.21875 
Q 5.515625 13.875 5.515625 27.296875 
Q 5.515625 40.765625 12.171875 48.375 
Q 18.84375 56 30.609375 56 
z
" id="DejaVuSans-111"/>
      <path d="M 18.3125 70.21875 
L 18.3125 54.6875 
L 36.8125 54.6875 
L 36.8125 47.703125 
L 18.3125 47.703125 
L 18.3125 18.015625 
Q 18.3125 11.328125 20.140625 9.421875 
Q 21.96875 7.515625 27.59375 7.515625 
L 36.8125 7.515625 
L 36.8125 0 
L 27.59375 0 
Q 17.1875 0 13.234375 3.875 
Q 9.28125 7.765625 9.28125 18.015625 
L 9.28125 47.703125 
L 2.6875 47.703125 
L 2.6875 54.6875 
L 9.28125 54.6875 
L 9.28125 70.21875 
z
" id="DejaVuSans-116"/>
      <path d="M 56.203125 29.59375 
L 56.203125 25.203125 
L 14.890625 25.203125 
Q 15.484375 15.921875 20.484375 11.0625 
Q 25.484375 6.203125 34.421875 6.203125 
Q 39.59375 6.203125 44.453125 7.46875 
Q 49.3125 8.734375 54.109375 11.28125 
L 54.109375 2.78125 
Q 49.265625 0.734375 44.1875 -0.34375 
Q 39.109375 -1.421875 33.890625 -1.421875 
Q 20.796875 -1.421875 13.15625 6.1875 
Q 5.515625 13.8125 5.515625 26.8125 
Q 5.515625 40.234375 12.765625 48.109375 
Q 20.015625 56 32.328125 56 
Q 43.359375 56 49.78125 48.890625 
Q 56.203125 41.796875 56.203125 29.59375 
z
M 47.21875 32.234375 
Q 47.125 39.59375 43.09375 43.984375 
Q 39.0625 48.390625 32.421875 48.390625 
Q 24.90625 48.390625 20.390625 44.140625 
Q 15.875 39.890625 15.1875 32.171875 
z
" id="DejaVuSans-101"/>
      <path d="M 54.890625 33.015625 
L 54.890625 0 
L 45.90625 0 
L 45.90625 32.71875 
Q 45.90625 40.484375 42.875 44.328125 
Q 39.84375 48.1875 33.796875 48.1875 
Q 26.515625 48.1875 22.3125 43.546875 
Q 18.109375 38.921875 18.109375 30.90625 
L 18.109375 0 
L 9.078125 0 
L 9.078125 54.6875 
L 18.109375 54.6875 
L 18.109375 46.1875 
Q 21.34375 51.125 25.703125 53.5625 
Q 30.078125 56 35.796875 56 
Q 45.21875 56 50.046875 50.171875 
Q 54.890625 44.34375 54.890625 33.015625 
z
" id="DejaVuSans-110"/>
      <path d="M 9.421875 54.6875 
L 18.40625 54.6875 
L 18.40625 0 
L 9.421875 0 
z
M 9.421875 75.984375 
L 18.40625 75.984375 
L 18.40625 64.59375 
L 9.421875 64.59375 
z
" id="DejaVuSans-105"/>
      <path d="M 34.28125 27.484375 
Q 23.390625 27.484375 19.1875 25 
Q 14.984375 22.515625 14.984375 16.5 
Q 14.984375 11.71875 18.140625 8.90625 
Q 21.296875 6.109375 26.703125 6.109375 
Q 34.1875 6.109375 38.703125 11.40625 
Q 43.21875 16.703125 43.21875 25.484375 
L 43.21875 27.484375 
z
M 52.203125 31.203125 
L 52.203125 0 
L 43.21875 0 
L 43.21875 8.296875 
Q 40.140625 3.328125 35.546875 0.953125 
Q 30.953125 -1.421875 24.3125 -1.421875 
Q 15.921875 -1.421875 10.953125 3.296875 
Q 6 8.015625 6 15.921875 
Q 6 25.140625 12.171875 29.828125 
Q 18.359375 34.515625 30.609375 34.515625 
L 43.21875 34.515625 
L 43.21875 35.40625 
Q 43.21875 41.609375 39.140625 45 
Q 35.0625 48.390625 27.6875 48.390625 
Q 23 48.390625 18.546875 47.265625 
Q 14.109375 46.140625 10.015625 43.890625 
L 10.015625 52.203125 
Q 14.9375 54.109375 19.578125 55.046875 
Q 24.21875 56 28.609375 56 
Q 40.484375 56 46.34375 49.84375 
Q 52.203125 43.703125 52.203125 31.203125 
z
" id="DejaVuSans-97"/>
      <path d="M 9.421875 75.984375 
L 18.40625 75.984375 
L 18.40625 0 
L 9.421875 0 
z
" id="DejaVuSans-108"/>
      <path id="DejaVuSans-32"/>
      <path d="M 9.8125 72.90625 
L 55.90625 72.90625 
L 55.90625 64.59375 
L 19.671875 64.59375 
L 19.671875 43.015625 
L 54.390625 43.015625 
L 54.390625 34.71875 
L 19.671875 34.71875 
L 19.671875 8.296875 
L 56.78125 8.296875 
L 56.78125 0 
L 9.8125 0 
z
" id="DejaVuSans-69"/>
      <path d="M 41.109375 46.296875 
Q 39.59375 47.171875 37.8125 47.578125 
Q 36.03125 48 33.890625 48 
Q 26.265625 48 22.1875 43.046875 
Q 18.109375 38.09375 18.109375 28.8125 
L 18.109375 0 
L 9.078125 0 
L 9.078125 54.6875 
L 18.109375 54.6875 
L 18.109375 46.1875 
Q 20.953125 51.171875 25.484375 53.578125 
Q 30.03125 56 36.53125 56 
Q 37.453125 56 38.578125 55.875 
Q 39.703125 55.765625 41.0625 55.515625 
z
" id="DejaVuSans-114"/>
      <path d="M 45.40625 27.984375 
Q 45.40625 37.75 41.375 43.109375 
Q 37.359375 48.484375 30.078125 48.484375 
Q 22.859375 48.484375 18.828125 43.109375 
Q 14.796875 37.75 14.796875 27.984375 
Q 14.796875 18.265625 18.828125 12.890625 
Q 22.859375 7.515625 30.078125 7.515625 
Q 37.359375 7.515625 41.375 12.890625 
Q 45.40625 18.265625 45.40625 27.984375 
z
M 54.390625 6.78125 
Q 54.390625 -7.171875 48.1875 -13.984375 
Q 42 -20.796875 29.203125 -20.796875 
Q 24.46875 -20.796875 20.265625 -20.09375 
Q 16.0625 -19.390625 12.109375 -17.921875 
L 12.109375 -9.1875 
Q 16.0625 -11.328125 19.921875 -12.34375 
Q 23.78125 -13.375 27.78125 -13.375 
Q 36.625 -13.375 41.015625 -8.765625 
Q 45.40625 -4.15625 45.40625 5.171875 
L 45.40625 9.625 
Q 42.625 4.78125 38.28125 2.390625 
Q 33.9375 0 27.875 0 
Q 17.828125 0 11.671875 7.65625 
Q 5.515625 15.328125 5.515625 27.984375 
Q 5.515625 40.671875 11.671875 48.328125 
Q 17.828125 56 27.875 56 
Q 33.9375 56 38.28125 53.609375 
Q 42.625 51.21875 45.40625 46.390625 
L 45.40625 54.6875 
L 54.390625 54.6875 
z
" id="DejaVuSans-103"/>
      <path d="M 32.171875 -5.078125 
Q 28.375 -14.84375 24.75 -17.8125 
Q 21.140625 -20.796875 15.09375 -20.796875 
L 7.90625 -20.796875 
L 7.90625 -13.28125 
L 13.1875 -13.28125 
Q 16.890625 -13.28125 18.9375 -11.515625 
Q 21 -9.765625 23.484375 -3.21875 
L 25.09375 0.875 
L 2.984375 54.6875 
L 12.5 54.6875 
L 29.59375 11.921875 
L 46.6875 54.6875 
L 56.203125 54.6875 
z
" id="DejaVuSans-121"/>
     </defs>
     <use xlink:href="#DejaVuSans-80"/>
     <use x="56.677734" xlink:href="#DejaVuSans-111"/>
     <use x="117.859375" xlink:href="#DejaVuSans-116"/>
     <use x="157.068359" xlink:href="#DejaVuSans-101"/>
     <use x="218.591797" xlink:href="#DejaVuSans-110"/>
     <use x="281.970703" xlink:href="#DejaVuSans-116"/>
     <use x="321.179688" xlink:href="#DejaVuSans-105"/>
     <use x="348.962891" xlink:href="#DejaVuSans-97"/>
     <use x="410.242188" xlink:href="#DejaVuSans-108"/>
     <use x="438.025391" xlink:href="#DejaVuSans-32"/>
     <use x="469.8125" xlink:href="#DejaVuSans-69"/>
     <use x="532.996094" xlink:href="#DejaVuSans-110"/>
     <use x="596.375" xlink:href="#DejaVuSans-101"/>
     <use x="657.898438" xlink:href="#DejaVuSans-114"/>
     <use x="697.261719" xlink:href="#DejaVuSans-103"/>
     <use x="760.738281" xlink:href="#DejaVuSans-121"/>
    </g>
   </g>
   <g id="line2d_26">
    <path clip-path="url(#p6714c5e5e2)" d="M 66.570742 29.683836 
L 73.62906 40.666964 
L 80.687377 51.265983 
L 87.745695 61.480893 
L 94.804013 71.311693 
L 101.862331 80.758384 
L 108.920649 89.820966 
L 115.978967 98.499438 
L 123.037285 106.793801 
L 130.095603 114.704054 
L 136.271631 121.310436 
L 142.447659 127.622734 
L 148.623687 133.640948 
L 154.799715 139.365079 
L 160.975743 144.795125 
L 167.151772 149.931088 
L 173.3278 154.772967 
L 179.503828 159.320763 
L 185.679856 163.574475 
L 191.855884 167.534102 
L 198.031912 171.199647 
L 204.20794 174.571107 
L 209.501679 177.226863 
L 214.795417 179.666558 
L 220.089156 181.890192 
L 225.382894 183.897764 
L 230.676633 185.689274 
L 235.970371 187.264723 
L 241.264109 188.62411 
L 246.557848 189.767436 
L 251.851586 190.6947 
L 257.145325 191.405902 
L 262.439063 191.901043 
L 267.732801 192.180123 
L 273.02654 192.243141 
L 278.320278 192.090097 
L 283.614017 191.720992 
L 288.907755 191.135825 
L 294.201493 190.334597 
L 299.495232 189.317307 
L 304.78897 188.083956 
L 310.082709 186.634543 
L 315.376447 184.969069 
L 320.670186 183.087533 
L 325.963924 180.989935 
L 331.257662 178.676276 
L 336.551401 176.146556 
L 341.845139 173.400774 
L 348.021167 169.924283 
L 354.197195 166.153709 
L 360.373224 162.089051 
L 366.549252 157.73031 
L 372.72528 153.077484 
L 378.901308 148.130575 
L 385.077336 142.889582 
L 391.253364 137.354506 
L 397.429393 131.525345 
L 403.605421 125.402101 
L 409.781449 118.984773 
L 415.957477 112.273361 
L 418.604346 109.307016 
L 418.604346 109.307016 
" style="fill:none;stroke:#c371d2;stroke-width:2;"/>
   </g>
   <g id="line2d_27">
    <path clip-path="url(#p6714c5e5e2)" d="M 66.570742 27.903072 
L 73.62906 39.261307 
L 80.687377 50.187419 
L 87.745695 60.681408 
L 94.804013 70.743275 
L 101.862331 80.373018 
L 108.038359 88.444567 
L 114.214387 96.185272 
L 120.390416 103.595132 
L 126.566444 110.674149 
L 132.742472 117.422321 
L 138.9185 123.839649 
L 145.094528 129.926133 
L 151.270556 135.681772 
L 157.446584 141.106568 
L 163.622613 146.200519 
L 169.798641 150.963625 
L 175.092379 154.782963 
L 180.386118 158.359232 
L 185.679856 161.692431 
L 190.973594 164.782562 
L 196.267333 167.629623 
L 201.561071 170.233614 
L 206.85481 172.594537 
L 212.148548 174.71239 
L 217.442286 176.587174 
L 222.736025 178.218889 
L 228.029763 179.607535 
L 233.323502 180.753111 
L 238.61724 181.655618 
L 243.910979 182.315056 
L 249.204717 182.731424 
L 254.498455 182.904724 
L 259.792194 182.834954 
L 265.085932 182.522115 
L 270.379671 181.966206 
L 275.673409 181.167229 
L 280.967147 180.125182 
L 286.260886 178.840066 
L 291.554624 177.311881 
L 296.848363 175.540626 
L 302.142101 173.526302 
L 307.43584 171.268909 
L 312.729578 168.768447 
L 318.023316 166.024916 
L 323.317055 163.038315 
L 328.610793 159.808645 
L 333.904532 156.335906 
L 339.19827 152.620097 
L 344.492008 148.661219 
L 349.785747 144.459273 
L 355.961775 139.249789 
L 362.137803 133.70946 
L 368.313831 127.838288 
L 374.489859 121.636271 
L 380.665888 115.103411 
L 386.841916 108.239705 
L 393.017944 101.045156 
L 399.193972 93.519762 
L 405.37 85.663525 
L 411.546028 77.476442 
L 417.722056 68.958516 
L 418.604346 67.714662 
L 418.604346 67.714662 
" style="fill:none;stroke:#ac8e18;stroke-width:2;"/>
   </g>
   <g id="line2d_28">
    <path clip-path="url(#p6714c5e5e2)" d="M 66.570742 26.122307 
L 73.62906 37.855649 
L 80.687377 49.108855 
L 86.863406 58.561548 
L 93.039434 67.646635 
L 99.215462 76.364119 
L 105.39149 84.713997 
L 111.567518 92.696271 
L 117.743546 100.31094 
L 123.919575 107.558004 
L 130.095603 114.437464 
L 136.271631 120.949319 
L 142.447659 127.093569 
L 147.741397 132.067486 
L 153.035136 136.771326 
L 158.328874 141.205089 
L 163.622613 145.368775 
L 168.916351 149.262384 
L 174.210089 152.885916 
L 179.503828 156.239371 
L 184.797566 159.322749 
L 190.091305 162.136051 
L 195.385043 164.679275 
L 200.678782 166.952423 
L 205.97252 168.955493 
L 211.266258 170.688487 
L 216.559997 172.151404 
L 221.853735 173.344243 
L 227.147474 174.267006 
L 231.558922 174.829667 
L 235.970371 175.204773 
L 240.38182 175.392327 
L 244.793268 175.392327 
L 249.204717 175.204773 
L 253.616166 174.829667 
L 258.027614 174.267006 
L 262.439063 173.516793 
L 267.732801 172.368966 
L 273.02654 170.951062 
L 278.320278 169.263081 
L 283.614017 167.305023 
L 288.907755 165.076888 
L 294.201493 162.578677 
L 299.495232 159.810388 
L 304.78897 156.772023 
L 310.082709 153.46358 
L 315.376447 149.885061 
L 320.670186 146.036465 
L 325.963924 141.917792 
L 331.257662 137.529041 
L 336.551401 132.870214 
L 341.845139 127.94131 
L 347.138878 122.742329 
L 353.314906 116.335504 
L 359.490934 109.561075 
L 365.666962 102.41904 
L 371.84299 94.909401 
L 378.019018 87.032157 
L 384.195047 78.787309 
L 390.371075 70.174856 
L 396.547103 61.194798 
L 402.723131 51.847135 
L 408.899159 42.131868 
L 415.957477 30.578577 
L 418.604346 26.122307 
L 418.604346 26.122307 
" style="fill:none;stroke:#00aaae;stroke-width:2;"/>
   </g>
   <g id="line2d_29">
    <path clip-path="url(#p6714c5e5e2)" d="M 66.570742 35.026129 
L 75.393639 47.310878 
L 84.216536 59.22052 
L 93.039434 70.755056 
L 101.862331 81.914485 
L 110.685228 92.698807 
L 119.508126 103.108022 
L 128.331023 113.14213 
L 136.271631 121.852111 
L 144.212238 130.258256 
L 152.152846 138.360563 
L 160.093454 146.159035 
L 168.034061 153.65367 
L 175.974669 160.844468 
L 183.915277 167.73143 
L 191.855884 174.314555 
L 199.796492 180.593844 
L 207.737099 186.569296 
L 215.677707 192.240911 
L 223.618315 197.60869 
L 230.676633 202.124977 
L 237.73495 206.401195 
L 244.793268 210.437345 
L 251.851586 214.233426 
L 258.909904 217.789439 
L 265.968222 221.105383 
L 273.02654 224.18126 
L 280.084858 227.017067 
L 287.143176 229.612807 
L 294.201493 231.968478 
L 301.259811 234.08408 
L 308.318129 235.959615 
L 315.376447 237.59508 
L 322.434765 238.990478 
L 329.493083 240.145807 
L 336.551401 241.061068 
L 343.609719 241.73626 
L 350.668037 242.171384 
L 357.726354 242.36644 
L 364.784672 242.321427 
L 371.84299 242.036346 
L 378.901308 241.511196 
L 385.959626 240.745978 
L 393.017944 239.740692 
L 400.076262 238.495337 
L 407.13458 237.009914 
L 414.192898 235.284422 
L 418.604346 234.08408 
L 418.604346 234.08408 
" style="fill:none;stroke:#ed5e93;stroke-dasharray:7.4,3.2;stroke-dashoffset:0;stroke-width:2;"/>
   </g>
   <g id="line2d_30">
    <path clip-path="url(#p6714c5e5e2)" d="M 66.570742 26.122307 
L 73.62906 37.855649 
L 80.687377 49.108855 
L 86.863406 58.561548 
L 93.039434 67.646635 
L 99.215462 76.364119 
L 105.39149 84.713997 
L 111.567518 92.696271 
L 117.743546 100.31094 
L 123.919575 107.558004 
L 130.095603 114.437464 
L 136.271631 120.949319 
L 142.447659 127.093569 
L 147.741397 132.067486 
L 153.035136 136.771326 
L 158.328874 141.205089 
L 163.622613 145.368775 
L 168.916351 149.262384 
L 174.210089 152.885916 
L 179.503828 156.239371 
L 184.797566 159.322749 
L 190.091305 162.136051 
L 195.385043 164.679275 
L 200.678782 166.952423 
L 205.97252 168.955493 
L 211.266258 170.688487 
L 216.559997 172.151404 
L 221.853735 173.344243 
L 227.147474 174.267006 
L 231.558922 174.829667 
L 235.970371 175.204773 
L 240.38182 175.392327 
L 244.793268 175.392327 
L 249.204717 175.204773 
L 253.616166 174.829667 
L 258.027614 174.267006 
L 262.439063 173.516793 
L 267.732801 172.368966 
L 273.02654 170.951062 
L 278.320278 169.263081 
L 283.614017 167.305023 
L 288.907755 165.076888 
L 294.201493 162.578677 
L 299.495232 159.810388 
L 304.78897 156.772023 
L 310.082709 153.46358 
L 315.376447 149.885061 
L 320.670186 146.036465 
L 325.963924 141.917792 
L 331.257662 137.529041 
L 336.551401 132.870214 
L 341.845139 127.94131 
L 347.138878 122.742329 
L 353.314906 116.335504 
L 359.490934 109.561075 
L 365.666962 102.41904 
L 371.84299 94.909401 
L 378.019018 87.032157 
L 384.195047 78.787309 
L 390.371075 70.174856 
L 396.547103 61.194798 
L 402.723131 51.847135 
L 408.899159 42.131868 
L 415.957477 30.578577 
L 418.604346 26.122307 
L 418.604346 26.122307 
" style="fill:none;stroke:#c68225;stroke-dasharray:7.4,3.2;stroke-dashoffset:0;stroke-width:2;"/>
   </g>
   <g id="legend_1">
    <g id="patch_5">
     <path d="M 300.828636 219.772146 
L 421.665354 219.772146 
L 421.665354 27.134646 
L 300.828636 27.134646 
z
" style="fill:#ffffff;stroke:#000000;stroke-linejoin:miter;"/>
    </g>
    <g id="line2d_31">
     <path d="M 312.828636 45.282302 
L 342.828636 45.282302 
" style="fill:none;stroke:#009afa;stroke-linejoin:miter;stroke-width:1.875;"/>
    </g>
    <g id="line2d_32"/>
    <g id="text_15">
     <!-- λ = 0.0 -->
     <g transform="translate(354.828636 50.532302)scale(0.15 -0.15)">
      <defs>
       <path d="M 30.953125 67.4375 
L 56.203125 0 
L 46.6875 0 
L 31.34375 40.4375 
L 12.5 0 
L 2.984375 0 
L 26.953125 52.4375 
L 23.34375 62.109375 
Q 21.046875 68.265625 15.828125 68.265625 
L 11.140625 68.265625 
L 11.140625 75.984375 
L 16.84375 75.875 
Q 27.875 75.734375 30.953125 67.4375 
z
" id="DejaVuSans-955"/>
       <path d="M 10.59375 45.40625 
L 73.1875 45.40625 
L 73.1875 37.203125 
L 10.59375 37.203125 
z
M 10.59375 25.484375 
L 73.1875 25.484375 
L 73.1875 17.1875 
L 10.59375 17.1875 
z
" id="DejaVuSans-61"/>
       <path d="M 10.6875 12.40625 
L 21 12.40625 
L 21 0 
L 10.6875 0 
z
" id="DejaVuSans-46"/>
      </defs>
      <use xlink:href="#DejaVuSans-955"/>
      <use x="59.179688" xlink:href="#DejaVuSans-32"/>
      <use x="90.966797" xlink:href="#DejaVuSans-61"/>
      <use x="174.755859" xlink:href="#DejaVuSans-32"/>
      <use x="206.542969" xlink:href="#DejaVuSans-48"/>
      <use x="270.166016" xlink:href="#DejaVuSans-46"/>
      <use x="301.953125" xlink:href="#DejaVuSans-48"/>
     </g>
    </g>
    <g id="line2d_33">
     <path d="M 312.828636 67.299489 
L 342.828636 67.299489 
" style="fill:none;stroke:#e36f47;stroke-linejoin:miter;stroke-width:1.875;"/>
    </g>
    <g id="line2d_34"/>
    <g id="text_16">
     <!-- λ = 0.2 -->
     <g transform="translate(354.828636 72.549489)scale(0.15 -0.15)">
      <use xlink:href="#DejaVuSans-955"/>
      <use x="59.179688" xlink:href="#DejaVuSans-32"/>
      <use x="90.966797" xlink:href="#DejaVuSans-61"/>
      <use x="174.755859" xlink:href="#DejaVuSans-32"/>
      <use x="206.542969" xlink:href="#DejaVuSans-48"/>
      <use x="270.166016" xlink:href="#DejaVuSans-46"/>
      <use x="301.953125" xlink:href="#DejaVuSans-50"/>
     </g>
    </g>
    <g id="line2d_35">
     <path d="M 312.828636 89.316677 
L 342.828636 89.316677 
" style="fill:none;stroke:#3ea44e;stroke-linejoin:miter;stroke-width:1.875;"/>
    </g>
    <g id="line2d_36"/>
    <g id="text_17">
     <!-- λ = 0.4 -->
     <g transform="translate(354.828636 94.566677)scale(0.15 -0.15)">
      <defs>
       <path d="M 37.796875 64.3125 
L 12.890625 25.390625 
L 37.796875 25.390625 
z
M 35.203125 72.90625 
L 47.609375 72.90625 
L 47.609375 25.390625 
L 58.015625 25.390625 
L 58.015625 17.1875 
L 47.609375 17.1875 
L 47.609375 0 
L 37.796875 0 
L 37.796875 17.1875 
L 4.890625 17.1875 
L 4.890625 26.703125 
z
" id="DejaVuSans-52"/>
      </defs>
      <use xlink:href="#DejaVuSans-955"/>
      <use x="59.179688" xlink:href="#DejaVuSans-32"/>
      <use x="90.966797" xlink:href="#DejaVuSans-61"/>
      <use x="174.755859" xlink:href="#DejaVuSans-32"/>
      <use x="206.542969" xlink:href="#DejaVuSans-48"/>
      <use x="270.166016" xlink:href="#DejaVuSans-46"/>
      <use x="301.953125" xlink:href="#DejaVuSans-52"/>
     </g>
    </g>
    <g id="line2d_37">
     <path d="M 312.828636 111.333864 
L 342.828636 111.333864 
" style="fill:none;stroke:#c371d2;stroke-linejoin:miter;stroke-width:1.875;"/>
    </g>
    <g id="line2d_38"/>
    <g id="text_18">
     <!-- λ = 0.6 -->
     <g transform="translate(354.828636 116.583864)scale(0.15 -0.15)">
      <defs>
       <path d="M 33.015625 40.375 
Q 26.375 40.375 22.484375 35.828125 
Q 18.609375 31.296875 18.609375 23.390625 
Q 18.609375 15.53125 22.484375 10.953125 
Q 26.375 6.390625 33.015625 6.390625 
Q 39.65625 6.390625 43.53125 10.953125 
Q 47.40625 15.53125 47.40625 23.390625 
Q 47.40625 31.296875 43.53125 35.828125 
Q 39.65625 40.375 33.015625 40.375 
z
M 52.59375 71.296875 
L 52.59375 62.3125 
Q 48.875 64.0625 45.09375 64.984375 
Q 41.3125 65.921875 37.59375 65.921875 
Q 27.828125 65.921875 22.671875 59.328125 
Q 17.53125 52.734375 16.796875 39.40625 
Q 19.671875 43.65625 24.015625 45.921875 
Q 28.375 48.1875 33.59375 48.1875 
Q 44.578125 48.1875 50.953125 41.515625 
Q 57.328125 34.859375 57.328125 23.390625 
Q 57.328125 12.15625 50.6875 5.359375 
Q 44.046875 -1.421875 33.015625 -1.421875 
Q 20.359375 -1.421875 13.671875 8.265625 
Q 6.984375 17.96875 6.984375 36.375 
Q 6.984375 53.65625 15.1875 63.9375 
Q 23.390625 74.21875 37.203125 74.21875 
Q 40.921875 74.21875 44.703125 73.484375 
Q 48.484375 72.75 52.59375 71.296875 
z
" id="DejaVuSans-54"/>
      </defs>
      <use xlink:href="#DejaVuSans-955"/>
      <use x="59.179688" xlink:href="#DejaVuSans-32"/>
      <use x="90.966797" xlink:href="#DejaVuSans-61"/>
      <use x="174.755859" xlink:href="#DejaVuSans-32"/>
      <use x="206.542969" xlink:href="#DejaVuSans-48"/>
      <use x="270.166016" xlink:href="#DejaVuSans-46"/>
      <use x="301.953125" xlink:href="#DejaVuSans-54"/>
     </g>
    </g>
    <g id="line2d_39">
     <path d="M 312.828636 133.351052 
L 342.828636 133.351052 
" style="fill:none;stroke:#ac8e18;stroke-linejoin:miter;stroke-width:1.875;"/>
    </g>
    <g id="line2d_40"/>
    <g id="text_19">
     <!-- λ = 0.8 -->
     <g transform="translate(354.828636 138.601052)scale(0.15 -0.15)">
      <defs>
       <path d="M 31.78125 34.625 
Q 24.75 34.625 20.71875 30.859375 
Q 16.703125 27.09375 16.703125 20.515625 
Q 16.703125 13.921875 20.71875 10.15625 
Q 24.75 6.390625 31.78125 6.390625 
Q 38.8125 6.390625 42.859375 10.171875 
Q 46.921875 13.96875 46.921875 20.515625 
Q 46.921875 27.09375 42.890625 30.859375 
Q 38.875 34.625 31.78125 34.625 
z
M 21.921875 38.8125 
Q 15.578125 40.375 12.03125 44.71875 
Q 8.5 49.078125 8.5 55.328125 
Q 8.5 64.0625 14.71875 69.140625 
Q 20.953125 74.21875 31.78125 74.21875 
Q 42.671875 74.21875 48.875 69.140625 
Q 55.078125 64.0625 55.078125 55.328125 
Q 55.078125 49.078125 51.53125 44.71875 
Q 48 40.375 41.703125 38.8125 
Q 48.828125 37.15625 52.796875 32.3125 
Q 56.78125 27.484375 56.78125 20.515625 
Q 56.78125 9.90625 50.3125 4.234375 
Q 43.84375 -1.421875 31.78125 -1.421875 
Q 19.734375 -1.421875 13.25 4.234375 
Q 6.78125 9.90625 6.78125 20.515625 
Q 6.78125 27.484375 10.78125 32.3125 
Q 14.796875 37.15625 21.921875 38.8125 
z
M 18.3125 54.390625 
Q 18.3125 48.734375 21.84375 45.5625 
Q 25.390625 42.390625 31.78125 42.390625 
Q 38.140625 42.390625 41.71875 45.5625 
Q 45.3125 48.734375 45.3125 54.390625 
Q 45.3125 60.0625 41.71875 63.234375 
Q 38.140625 66.40625 31.78125 66.40625 
Q 25.390625 66.40625 21.84375 63.234375 
Q 18.3125 60.0625 18.3125 54.390625 
z
" id="DejaVuSans-56"/>
      </defs>
      <use xlink:href="#DejaVuSans-955"/>
      <use x="59.179688" xlink:href="#DejaVuSans-32"/>
      <use x="90.966797" xlink:href="#DejaVuSans-61"/>
      <use x="174.755859" xlink:href="#DejaVuSans-32"/>
      <use x="206.542969" xlink:href="#DejaVuSans-48"/>
      <use x="270.166016" xlink:href="#DejaVuSans-46"/>
      <use x="301.953125" xlink:href="#DejaVuSans-56"/>
     </g>
    </g>
    <g id="line2d_41">
     <path d="M 312.828636 155.368239 
L 342.828636 155.368239 
" style="fill:none;stroke:#00aaae;stroke-linejoin:miter;stroke-width:1.875;"/>
    </g>
    <g id="line2d_42"/>
    <g id="text_20">
     <!-- λ = 1.0 -->
     <g transform="translate(354.828636 160.618239)scale(0.15 -0.15)">
      <use xlink:href="#DejaVuSans-955"/>
      <use x="59.179688" xlink:href="#DejaVuSans-32"/>
      <use x="90.966797" xlink:href="#DejaVuSans-61"/>
      <use x="174.755859" xlink:href="#DejaVuSans-32"/>
      <use x="206.542969" xlink:href="#DejaVuSans-49"/>
      <use x="270.166016" xlink:href="#DejaVuSans-46"/>
      <use x="301.953125" xlink:href="#DejaVuSans-48"/>
     </g>
    </g>
    <g id="line2d_43">
     <path d="M 312.828636 177.385427 
L 342.828636 177.385427 
" style="fill:none;stroke:#ed5e93;stroke-dasharray:6.9375,3;stroke-dashoffset:0;stroke-linejoin:miter;stroke-width:1.875;"/>
    </g>
    <g id="line2d_44"/>
    <g id="text_21">
     <!-- $U_A$ -->
     <g transform="translate(354.828636 182.635427)scale(0.15 -0.15)">
      <defs>
       <path d="M 36.8125 72.90625 
L 48 72.90625 
L 61.53125 0 
L 51.21875 0 
L 48.1875 18.703125 
L 15.375 18.703125 
L 5.078125 0 
L -5.328125 0 
z
M 40.375 63.1875 
L 19.921875 26.90625 
L 46.6875 26.90625 
z
" id="DejaVuSans-Oblique-65"/>
      </defs>
      <use transform="translate(0 0.09375)" xlink:href="#DejaVuSans-Oblique-85"/>
      <use transform="translate(73.193359 -16.3125)scale(0.7)" xlink:href="#DejaVuSans-Oblique-65"/>
     </g>
    </g>
    <g id="line2d_45">
     <path d="M 312.828636 199.402614 
L 342.828636 199.402614 
" style="fill:none;stroke:#c68225;stroke-dasharray:6.9375,3;stroke-dashoffset:0;stroke-linejoin:miter;stroke-width:1.875;"/>
    </g>
    <g id="line2d_46"/>
    <g id="text_22">
     <!-- $U_B$ -->
     <g transform="translate(354.828636 204.652614)scale(0.15 -0.15)">
      <defs>
       <path d="M 16.890625 72.90625 
L 42.09375 72.90625 
Q 52.34375 72.90625 57.421875 69.09375 
Q 62.5 65.28125 62.5 57.625 
Q 62.5 50.59375 58.125 45.484375 
Q 53.765625 40.375 46.6875 39.3125 
Q 52.734375 37.9375 55.765625 34.078125 
Q 58.796875 30.21875 58.796875 23.78125 
Q 58.796875 12.796875 50.65625 6.390625 
Q 42.53125 0 28.421875 0 
L 2.6875 0 
z
M 19.28125 34.8125 
L 14.109375 8.109375 
L 29.984375 8.109375 
Q 38.921875 8.109375 43.75 12.203125 
Q 48.578125 16.3125 48.578125 23.78125 
Q 48.578125 29.546875 45.375 32.171875 
Q 42.1875 34.8125 35.109375 34.8125 
z
M 25.09375 64.796875 
L 20.796875 42.828125 
L 35.5 42.828125 
Q 43.359375 42.828125 47.78125 46.234375 
Q 52.203125 49.65625 52.203125 55.71875 
Q 52.203125 60.453125 49.21875 62.625 
Q 46.234375 64.796875 39.703125 64.796875 
z
" id="DejaVuSans-Oblique-66"/>
      </defs>
      <use transform="translate(0 0.09375)" xlink:href="#DejaVuSans-Oblique-85"/>
      <use transform="translate(73.193359 -16.3125)scale(0.7)" xlink:href="#DejaVuSans-Oblique-66"/>
     </g>
    </g>
   </g>
  </g>
 </g>
 <defs>
  <clipPath id="p6714c5e5e2">
   <rect height="229.230709" width="373.155621" x="56.009734" y="19.634646"/>
  </clipPath>
 </defs>
</svg>
