<?xml version="1.0" encoding="utf-8" standalone="no"?>
<!DOCTYPE svg PUBLIC "-//W3C//DTD SVG 1.1//EN"
  "http://www.w3.org/Graphics/SVG/1.1/DTD/svg11.dtd">
<!-- Created with matplotlib (https://matplotlib.org/) -->
<svg height="288pt" version="1.1" viewBox="0 0 432 288" width="432pt" xmlns="http://www.w3.org/2000/svg" xmlns:xlink="http://www.w3.org/1999/xlink">
 <defs>
  <style type="text/css">
*{stroke-linecap:butt;stroke-linejoin:round;}
  </style>
 </defs>
 <g id="figure_1">
  <g id="patch_1">
   <path d="M 0 288 
L 432 288 
L 432 0 
L 0 0 
z
" style="fill:#ffffff;"/>
  </g>
  <g id="axes_1">
   <g id="patch_2">
    <path d="M 29.191537 254.625354 
L 429.165354 254.625354 
L 429.165354 2.834646 
L 29.191537 2.834646 
z
" style="fill:#ffffff;"/>
   </g>
   <g id="matplotlib.axis_1">
    <g id="xtick_1">
     <g id="line2d_1">
      <path clip-path="url(#p610fb42fe4)" d="M 40.51155 254.625354 
L 40.51155 2.834646 
" style="fill:none;stroke:#000000;stroke-linecap:square;stroke-opacity:0.1;stroke-width:0.5;"/>
     </g>
     <g id="line2d_2">
      <defs>
       <path d="M 0 0 
L 0 -2.5 
" id="mfafab50495" style="stroke:#000000;stroke-width:0.5;"/>
      </defs>
      <g>
       <use style="stroke:#000000;stroke-width:0.5;" x="40.51155" xlink:href="#mfafab50495" y="254.625354"/>
      </g>
     </g>
     <g id="text_1">
      <!-- $\mathregular{0.00}$ -->
      <defs>
       <path d="M 31.78125 66.40625 
Q 24.171875 66.40625 20.328125 58.90625 
Q 16.5 51.421875 16.5 36.375 
Q 16.5 21.390625 20.328125 13.890625 
Q 24.171875 6.390625 31.78125 6.390625 
Q 39.453125 6.390625 43.28125 13.890625 
Q 47.125 21.390625 47.125 36.375 
Q 47.125 51.421875 43.28125 58.90625 
Q 39.453125 66.40625 31.78125 66.40625 
z
M 31.78125 74.21875 
Q 44.046875 74.21875 50.515625 64.515625 
Q 56.984375 54.828125 56.984375 36.375 
Q 56.984375 17.96875 50.515625 8.265625 
Q 44.046875 -1.421875 31.78125 -1.421875 
Q 19.53125 -1.421875 13.0625 8.265625 
Q 6.59375 17.96875 6.59375 36.375 
Q 6.59375 54.828125 13.0625 64.515625 
Q 19.53125 74.21875 31.78125 74.21875 
z
" id="DejaVuSans-48"/>
       <path d="M 10.6875 12.40625 
L 21 12.40625 
L 21 0 
L 10.6875 0 
z
" id="DejaVuSans-46"/>
      </defs>
      <g transform="translate(31.59155 264.204104)scale(0.08 -0.08)">
       <use transform="translate(0 0.78125)" xlink:href="#DejaVuSans-48"/>
       <use transform="translate(63.623047 0.78125)" xlink:href="#DejaVuSans-46"/>
       <use transform="translate(95.410156 0.78125)" xlink:href="#DejaVuSans-48"/>
       <use transform="translate(159.033203 0.78125)" xlink:href="#DejaVuSans-48"/>
      </g>
     </g>
    </g>
    <g id="xtick_2">
     <g id="line2d_3">
      <path clip-path="url(#p610fb42fe4)" d="M 134.844998 254.625354 
L 134.844998 2.834646 
" style="fill:none;stroke:#000000;stroke-linecap:square;stroke-opacity:0.1;stroke-width:0.5;"/>
     </g>
     <g id="line2d_4">
      <g>
       <use style="stroke:#000000;stroke-width:0.5;" x="134.844998" xlink:href="#mfafab50495" y="254.625354"/>
      </g>
     </g>
     <g id="text_2">
      <!-- $\mathregular{0.25}$ -->
      <defs>
       <path d="M 19.1875 8.296875 
L 53.609375 8.296875 
L 53.609375 0 
L 7.328125 0 
L 7.328125 8.296875 
Q 12.9375 14.109375 22.625 23.890625 
Q 32.328125 33.6875 34.8125 36.53125 
Q 39.546875 41.84375 41.421875 45.53125 
Q 43.3125 49.21875 43.3125 52.78125 
Q 43.3125 58.59375 39.234375 62.25 
Q 35.15625 65.921875 28.609375 65.921875 
Q 23.96875 65.921875 18.8125 64.3125 
Q 13.671875 62.703125 7.8125 59.421875 
L 7.8125 69.390625 
Q 13.765625 71.78125 18.9375 73 
Q 24.125 74.21875 28.421875 74.21875 
Q 39.75 74.21875 46.484375 68.546875 
Q 53.21875 62.890625 53.21875 53.421875 
Q 53.21875 48.921875 51.53125 44.890625 
Q 49.859375 40.875 45.40625 35.40625 
Q 44.1875 33.984375 37.640625 27.21875 
Q 31.109375 20.453125 19.1875 8.296875 
z
" id="DejaVuSans-50"/>
       <path d="M 10.796875 72.90625 
L 49.515625 72.90625 
L 49.515625 64.59375 
L 19.828125 64.59375 
L 19.828125 46.734375 
Q 21.96875 47.46875 24.109375 47.828125 
Q 26.265625 48.1875 28.421875 48.1875 
Q 40.625 48.1875 47.75 41.5 
Q 54.890625 34.8125 54.890625 23.390625 
Q 54.890625 11.625 47.5625 5.09375 
Q 40.234375 -1.421875 26.90625 -1.421875 
Q 22.3125 -1.421875 17.546875 -0.640625 
Q 12.796875 0.140625 7.71875 1.703125 
L 7.71875 11.625 
Q 12.109375 9.234375 16.796875 8.0625 
Q 21.484375 6.890625 26.703125 6.890625 
Q 35.15625 6.890625 40.078125 11.328125 
Q 45.015625 15.765625 45.015625 23.390625 
Q 45.015625 31 40.078125 35.4375 
Q 35.15625 39.890625 26.703125 39.890625 
Q 22.75 39.890625 18.8125 39.015625 
Q 14.890625 38.140625 10.796875 36.28125 
z
" id="DejaVuSans-53"/>
      </defs>
      <g transform="translate(125.924998 264.204104)scale(0.08 -0.08)">
       <use transform="translate(0 0.78125)" xlink:href="#DejaVuSans-48"/>
       <use transform="translate(63.623047 0.78125)" xlink:href="#DejaVuSans-46"/>
       <use transform="translate(95.332031 0.78125)" xlink:href="#DejaVuSans-50"/>
       <use transform="translate(158.955078 0.78125)" xlink:href="#DejaVuSans-53"/>
      </g>
     </g>
    </g>
    <g id="xtick_3">
     <g id="line2d_5">
      <path clip-path="url(#p610fb42fe4)" d="M 229.178445 254.625354 
L 229.178445 2.834646 
" style="fill:none;stroke:#000000;stroke-linecap:square;stroke-opacity:0.1;stroke-width:0.5;"/>
     </g>
     <g id="line2d_6">
      <g>
       <use style="stroke:#000000;stroke-width:0.5;" x="229.178445" xlink:href="#mfafab50495" y="254.625354"/>
      </g>
     </g>
     <g id="text_3">
      <!-- $\mathregular{0.50}$ -->
      <g transform="translate(220.258445 264.204104)scale(0.08 -0.08)">
       <use transform="translate(0 0.78125)" xlink:href="#DejaVuSans-48"/>
       <use transform="translate(63.623047 0.78125)" xlink:href="#DejaVuSans-46"/>
       <use transform="translate(95.410156 0.78125)" xlink:href="#DejaVuSans-53"/>
       <use transform="translate(159.033203 0.78125)" xlink:href="#DejaVuSans-48"/>
      </g>
     </g>
    </g>
    <g id="xtick_4">
     <g id="line2d_7">
      <path clip-path="url(#p610fb42fe4)" d="M 323.511893 254.625354 
L 323.511893 2.834646 
" style="fill:none;stroke:#000000;stroke-linecap:square;stroke-opacity:0.1;stroke-width:0.5;"/>
     </g>
     <g id="line2d_8">
      <g>
       <use style="stroke:#000000;stroke-width:0.5;" x="323.511893" xlink:href="#mfafab50495" y="254.625354"/>
      </g>
     </g>
     <g id="text_4">
      <!-- $\mathregular{0.75}$ -->
      <defs>
       <path d="M 8.203125 72.90625 
L 55.078125 72.90625 
L 55.078125 68.703125 
L 28.609375 0 
L 18.3125 0 
L 43.21875 64.59375 
L 8.203125 64.59375 
z
" id="DejaVuSans-55"/>
      </defs>
      <g transform="translate(314.591893 264.204104)scale(0.08 -0.08)">
       <use transform="translate(0 0.78125)" xlink:href="#DejaVuSans-48"/>
       <use transform="translate(63.623047 0.78125)" xlink:href="#DejaVuSans-46"/>
       <use transform="translate(95.300781 0.78125)" xlink:href="#DejaVuSans-55"/>
       <use transform="translate(158.923828 0.78125)" xlink:href="#DejaVuSans-53"/>
      </g>
     </g>
    </g>
    <g id="xtick_5">
     <g id="line2d_9">
      <path clip-path="url(#p610fb42fe4)" d="M 417.845341 254.625354 
L 417.845341 2.834646 
" style="fill:none;stroke:#000000;stroke-linecap:square;stroke-opacity:0.1;stroke-width:0.5;"/>
     </g>
     <g id="line2d_10">
      <g>
       <use style="stroke:#000000;stroke-width:0.5;" x="417.845341" xlink:href="#mfafab50495" y="254.625354"/>
      </g>
     </g>
     <g id="text_5">
      <!-- $\mathregular{1.00}$ -->
      <defs>
       <path d="M 12.40625 8.296875 
L 28.515625 8.296875 
L 28.515625 63.921875 
L 10.984375 60.40625 
L 10.984375 69.390625 
L 28.421875 72.90625 
L 38.28125 72.90625 
L 38.28125 8.296875 
L 54.390625 8.296875 
L 54.390625 0 
L 12.40625 0 
z
" id="DejaVuSans-49"/>
      </defs>
      <g transform="translate(408.925341 264.204104)scale(0.08 -0.08)">
       <use transform="translate(0 0.78125)" xlink:href="#DejaVuSans-49"/>
       <use transform="translate(63.623047 0.78125)" xlink:href="#DejaVuSans-46"/>
       <use transform="translate(95.410156 0.78125)" xlink:href="#DejaVuSans-48"/>
       <use transform="translate(159.033203 0.78125)" xlink:href="#DejaVuSans-48"/>
      </g>
     </g>
    </g>
    <g id="text_6">
     <!-- $\lambda$ -->
     <defs>
      <path d="M 36.71875 67.4375 
L 48.828125 0 
L 39.3125 0 
L 31.84375 40.4375 
L 5.125 0 
L -4.390625 0 
L 29.734375 52.4375 
L 28.03125 62.109375 
Q 26.953125 68.265625 21.734375 68.265625 
L 17.046875 68.265625 
L 18.5 75.984375 
L 24.21875 75.875 
Q 35.203125 75.734375 36.71875 67.4375 
z
" id="DejaVuSans-Oblique-955"/>
     </defs>
     <g transform="translate(224.678445 281.265511)scale(0.15 -0.15)">
      <use transform="translate(0 0.015625)" xlink:href="#DejaVuSans-Oblique-955"/>
     </g>
    </g>
   </g>
   <g id="matplotlib.axis_2">
    <g id="ytick_1">
     <g id="line2d_11">
      <path clip-path="url(#p610fb42fe4)" d="M 29.191537 214.063129 
L 429.165354 214.063129 
" style="fill:none;stroke:#000000;stroke-linecap:square;stroke-opacity:0.1;stroke-width:0.5;"/>
     </g>
     <g id="line2d_12">
      <defs>
       <path d="M 0 0 
L 2.5 0 
" id="mcda857d87a" style="stroke:#000000;stroke-width:0.5;"/>
      </defs>
      <g>
       <use style="stroke:#000000;stroke-width:0.5;" x="29.191537" xlink:href="#mcda857d87a" y="214.063129"/>
      </g>
     </g>
     <g id="text_7">
      <!-- $\mathregular{-180}$ -->
      <defs>
       <path d="M 10.59375 35.5 
L 73.1875 35.5 
L 73.1875 27.203125 
L 10.59375 27.203125 
z
" id="DejaVuSans-8722"/>
       <path d="M 31.78125 34.625 
Q 24.75 34.625 20.71875 30.859375 
Q 16.703125 27.09375 16.703125 20.515625 
Q 16.703125 13.921875 20.71875 10.15625 
Q 24.75 6.390625 31.78125 6.390625 
Q 38.8125 6.390625 42.859375 10.171875 
Q 46.921875 13.96875 46.921875 20.515625 
Q 46.921875 27.09375 42.890625 30.859375 
Q 38.875 34.625 31.78125 34.625 
z
M 21.921875 38.8125 
Q 15.578125 40.375 12.03125 44.71875 
Q 8.5 49.078125 8.5 55.328125 
Q 8.5 64.0625 14.71875 69.140625 
Q 20.953125 74.21875 31.78125 74.21875 
Q 42.671875 74.21875 48.875 69.140625 
Q 55.078125 64.0625 55.078125 55.328125 
Q 55.078125 49.078125 51.53125 44.71875 
Q 48 40.375 41.703125 38.8125 
Q 48.828125 37.15625 52.796875 32.3125 
Q 56.78125 27.484375 56.78125 20.515625 
Q 56.78125 9.90625 50.3125 4.234375 
Q 43.84375 -1.421875 31.78125 -1.421875 
Q 19.734375 -1.421875 13.25 4.234375 
Q 6.78125 9.90625 6.78125 20.515625 
Q 6.78125 27.484375 10.78125 32.3125 
Q 14.796875 37.15625 21.921875 38.8125 
z
M 18.3125 54.390625 
Q 18.3125 48.734375 21.84375 45.5625 
Q 25.390625 42.390625 31.78125 42.390625 
Q 38.140625 42.390625 41.71875 45.5625 
Q 45.3125 48.734375 45.3125 54.390625 
Q 45.3125 60.0625 41.71875 63.234375 
Q 38.140625 66.40625 31.78125 66.40625 
Q 25.390625 66.40625 21.84375 63.234375 
Q 18.3125 60.0625 18.3125 54.390625 
z
" id="DejaVuSans-56"/>
      </defs>
      <g transform="translate(3.691537 217.102504)scale(0.08 -0.08)">
       <use transform="translate(0 0.78125)" xlink:href="#DejaVuSans-8722"/>
       <use transform="translate(83.789062 0.78125)" xlink:href="#DejaVuSans-49"/>
       <use transform="translate(147.412109 0.78125)" xlink:href="#DejaVuSans-56"/>
       <use transform="translate(211.035156 0.78125)" xlink:href="#DejaVuSans-48"/>
      </g>
     </g>
    </g>
    <g id="ytick_2">
     <g id="line2d_13">
      <path clip-path="url(#p610fb42fe4)" d="M 29.191537 166.611014 
L 429.165354 166.611014 
" style="fill:none;stroke:#000000;stroke-linecap:square;stroke-opacity:0.1;stroke-width:0.5;"/>
     </g>
     <g id="line2d_14">
      <g>
       <use style="stroke:#000000;stroke-width:0.5;" x="29.191537" xlink:href="#mcda857d87a" y="166.611014"/>
      </g>
     </g>
     <g id="text_8">
      <!-- $\mathregular{-150}$ -->
      <g transform="translate(3.691537 169.650389)scale(0.08 -0.08)">
       <use transform="translate(0 0.78125)" xlink:href="#DejaVuSans-8722"/>
       <use transform="translate(83.789062 0.78125)" xlink:href="#DejaVuSans-49"/>
       <use transform="translate(147.412109 0.78125)" xlink:href="#DejaVuSans-53"/>
       <use transform="translate(211.035156 0.78125)" xlink:href="#DejaVuSans-48"/>
      </g>
     </g>
    </g>
    <g id="ytick_3">
     <g id="line2d_15">
      <path clip-path="url(#p610fb42fe4)" d="M 29.191537 119.1589 
L 429.165354 119.1589 
" style="fill:none;stroke:#000000;stroke-linecap:square;stroke-opacity:0.1;stroke-width:0.5;"/>
     </g>
     <g id="line2d_16">
      <g>
       <use style="stroke:#000000;stroke-width:0.5;" x="29.191537" xlink:href="#mcda857d87a" y="119.1589"/>
      </g>
     </g>
     <g id="text_9">
      <!-- $\mathregular{-120}$ -->
      <g transform="translate(3.691537 122.198275)scale(0.08 -0.08)">
       <use transform="translate(0 0.78125)" xlink:href="#DejaVuSans-8722"/>
       <use transform="translate(83.789062 0.78125)" xlink:href="#DejaVuSans-49"/>
       <use transform="translate(147.412109 0.78125)" xlink:href="#DejaVuSans-50"/>
       <use transform="translate(211.035156 0.78125)" xlink:href="#DejaVuSans-48"/>
      </g>
     </g>
    </g>
    <g id="ytick_4">
     <g id="line2d_17">
      <path clip-path="url(#p610fb42fe4)" d="M 29.191537 71.706786 
L 429.165354 71.706786 
" style="fill:none;stroke:#000000;stroke-linecap:square;stroke-opacity:0.1;stroke-width:0.5;"/>
     </g>
     <g id="line2d_18">
      <g>
       <use style="stroke:#000000;stroke-width:0.5;" x="29.191537" xlink:href="#mcda857d87a" y="71.706786"/>
      </g>
     </g>
     <g id="text_10">
      <!-- $\mathregular{-90}$ -->
      <defs>
       <path d="M 10.984375 1.515625 
L 10.984375 10.5 
Q 14.703125 8.734375 18.5 7.8125 
Q 22.3125 6.890625 25.984375 6.890625 
Q 35.75 6.890625 40.890625 13.453125 
Q 46.046875 20.015625 46.78125 33.40625 
Q 43.953125 29.203125 39.59375 26.953125 
Q 35.25 24.703125 29.984375 24.703125 
Q 19.046875 24.703125 12.671875 31.3125 
Q 6.296875 37.9375 6.296875 49.421875 
Q 6.296875 60.640625 12.9375 67.421875 
Q 19.578125 74.21875 30.609375 74.21875 
Q 43.265625 74.21875 49.921875 64.515625 
Q 56.59375 54.828125 56.59375 36.375 
Q 56.59375 19.140625 48.40625 8.859375 
Q 40.234375 -1.421875 26.421875 -1.421875 
Q 22.703125 -1.421875 18.890625 -0.6875 
Q 15.09375 0.046875 10.984375 1.515625 
z
M 30.609375 32.421875 
Q 37.25 32.421875 41.125 36.953125 
Q 45.015625 41.5 45.015625 49.421875 
Q 45.015625 57.28125 41.125 61.84375 
Q 37.25 66.40625 30.609375 66.40625 
Q 23.96875 66.40625 20.09375 61.84375 
Q 16.21875 57.28125 16.21875 49.421875 
Q 16.21875 41.5 20.09375 36.953125 
Q 23.96875 32.421875 30.609375 32.421875 
z
" id="DejaVuSans-57"/>
      </defs>
      <g transform="translate(8.731537 74.746161)scale(0.08 -0.08)">
       <use transform="translate(0 0.78125)" xlink:href="#DejaVuSans-8722"/>
       <use transform="translate(83.789062 0.78125)" xlink:href="#DejaVuSans-57"/>
       <use transform="translate(147.412109 0.78125)" xlink:href="#DejaVuSans-48"/>
      </g>
     </g>
    </g>
    <g id="ytick_5">
     <g id="line2d_19">
      <path clip-path="url(#p610fb42fe4)" d="M 29.191537 24.254672 
L 429.165354 24.254672 
" style="fill:none;stroke:#000000;stroke-linecap:square;stroke-opacity:0.1;stroke-width:0.5;"/>
     </g>
     <g id="line2d_20">
      <g>
       <use style="stroke:#000000;stroke-width:0.5;" x="29.191537" xlink:href="#mcda857d87a" y="24.254672"/>
      </g>
     </g>
     <g id="text_11">
      <!-- $\mathregular{-60}$ -->
      <defs>
       <path d="M 33.015625 40.375 
Q 26.375 40.375 22.484375 35.828125 
Q 18.609375 31.296875 18.609375 23.390625 
Q 18.609375 15.53125 22.484375 10.953125 
Q 26.375 6.390625 33.015625 6.390625 
Q 39.65625 6.390625 43.53125 10.953125 
Q 47.40625 15.53125 47.40625 23.390625 
Q 47.40625 31.296875 43.53125 35.828125 
Q 39.65625 40.375 33.015625 40.375 
z
M 52.59375 71.296875 
L 52.59375 62.3125 
Q 48.875 64.0625 45.09375 64.984375 
Q 41.3125 65.921875 37.59375 65.921875 
Q 27.828125 65.921875 22.671875 59.328125 
Q 17.53125 52.734375 16.796875 39.40625 
Q 19.671875 43.65625 24.015625 45.921875 
Q 28.375 48.1875 33.59375 48.1875 
Q 44.578125 48.1875 50.953125 41.515625 
Q 57.328125 34.859375 57.328125 23.390625 
Q 57.328125 12.15625 50.6875 5.359375 
Q 44.046875 -1.421875 33.015625 -1.421875 
Q 20.359375 -1.421875 13.671875 8.265625 
Q 6.984375 17.96875 6.984375 36.375 
Q 6.984375 53.65625 15.1875 63.9375 
Q 23.390625 74.21875 37.203125 74.21875 
Q 40.921875 74.21875 44.703125 73.484375 
Q 48.484375 72.75 52.59375 71.296875 
z
" id="DejaVuSans-54"/>
      </defs>
      <g transform="translate(8.731537 27.294047)scale(0.08 -0.08)">
       <use transform="translate(0 0.78125)" xlink:href="#DejaVuSans-8722"/>
       <use transform="translate(83.789062 0.78125)" xlink:href="#DejaVuSans-54"/>
       <use transform="translate(147.412109 0.78125)" xlink:href="#DejaVuSans-48"/>
      </g>
     </g>
    </g>
   </g>
   <g id="line2d_21">
    <path clip-path="url(#p610fb42fe4)" d="M 40.51155 247.477553 
L 40.889262 247.499202 
L 41.266973 246.93568 
L 41.644685 246.663257 
L 42.022396 247.208213 
L 42.777819 243.611662 
L 43.155531 246.374576 
L 43.533242 243.900877 
L 43.910954 242.493397 
L 44.288665 244.279103 
L 44.666377 244.14076 
L 45.044088 241.191595 
L 45.4218 242.603032 
L 45.799511 242.139245 
L 46.177223 242.423777 
L 46.554934 241.368478 
L 46.932646 241.054065 
L 48.06578 238.199227 
L 48.443492 239.897036 
L 48.821203 237.239336 
L 49.198915 236.895945 
L 49.576626 236.040234 
L 49.954338 238.151554 
L 50.332049 236.405073 
L 50.709761 236.160044 
L 51.465184 233.928355 
L 51.842895 233.553131 
L 52.220607 235.141062 
L 52.598318 233.047656 
L 52.97603 232.176069 
L 53.353741 232.720772 
L 53.731453 232.858028 
L 54.486876 231.144518 
L 54.864587 231.325317 
L 55.242299 229.355554 
L 55.62001 230.500082 
L 55.997722 230.045058 
L 56.375433 228.582848 
L 56.753145 229.46401 
L 57.130856 228.110795 
L 57.508568 226.148964 
L 57.886279 227.037684 
L 58.263991 227.277704 
L 58.641702 227.372047 
L 59.397125 225.799091 
L 59.774837 224.897924 
L 60.152548 222.817069 
L 60.907971 223.170743 
L 61.285683 222.466454 
L 61.663394 224.031701 
L 62.041106 222.40737 
L 62.418817 222.586303 
L 62.796529 222.635129 
L 63.17424 221.186739 
L 63.551952 221.002413 
L 63.929663 220.104404 
L 64.307375 220.911614 
L 64.685086 220.540827 
L 65.062798 218.730376 
L 65.440509 220.203809 
L 65.818221 217.439493 
L 66.195932 218.620125 
L 66.573644 217.413372 
L 66.951355 217.436176 
L 67.329067 215.672588 
L 67.706778 215.745483 
L 68.08449 215.455739 
L 68.462201 214.041023 
L 68.839913 215.711926 
L 69.217624 215.707696 
L 69.595336 214.443521 
L 69.973047 212.680326 
L 70.350759 214.262073 
L 70.72847 213.487166 
L 71.106182 211.743198 
L 71.483893 210.889654 
L 71.861605 211.136987 
L 72.239316 211.664946 
L 72.617028 209.020599 
L 72.994739 210.042986 
L 73.372451 207.332532 
L 73.750162 208.854321 
L 74.127874 208.199467 
L 74.505585 209.049947 
L 75.261008 206.992624 
L 75.63872 208.625396 
L 76.016431 207.414381 
L 76.394143 207.856962 
L 76.771854 206.441002 
L 77.149566 206.156629 
L 77.527277 204.773991 
L 77.904989 204.12585 
L 78.2827 205.133589 
L 78.660412 202.655471 
L 79.038123 204.209943 
L 79.415835 203.659362 
L 79.793546 202.564257 
L 80.548969 201.662199 
L 80.926681 201.748981 
L 81.304392 201.587843 
L 81.682104 201.770705 
L 82.059815 200.384076 
L 82.437527 201.065932 
L 82.815238 199.761865 
L 83.19295 200.44812 
L 83.570661 199.12306 
L 83.948373 199.518257 
L 84.326084 198.519928 
L 84.703796 197.953569 
L 85.081507 198.239968 
L 85.459219 196.128437 
L 85.83693 198.509771 
L 86.214642 197.806983 
L 86.592353 195.185555 
L 86.970065 196.056781 
L 87.347776 195.696179 
L 87.725488 193.864216 
L 88.103199 193.959695 
L 88.480911 193.137859 
L 88.858622 192.850175 
L 89.236334 193.272028 
L 89.614045 193.356339 
L 89.991757 193.732798 
L 90.369468 192.904868 
L 90.74718 191.803699 
L 91.124892 191.157641 
L 91.502603 191.061888 
L 91.880315 190.372397 
L 92.258026 190.115834 
L 92.635738 188.985972 
L 93.013449 189.213297 
L 93.391161 190.844108 
L 93.768872 189.244966 
L 94.146584 189.279695 
L 94.524295 188.391442 
L 94.902007 188.457368 
L 95.279718 185.627701 
L 95.65743 187.550901 
L 96.035141 185.562937 
L 96.412853 185.198882 
L 96.790564 187.200767 
L 97.545987 186.478742 
L 97.923699 185.054536 
L 98.30141 182.919144 
L 98.679122 183.809138 
L 99.056833 185.305364 
L 99.434545 183.931851 
L 100.189968 182.532037 
L 100.567679 182.198063 
L 100.945391 182.822239 
L 101.323102 180.726195 
L 101.700814 181.125074 
L 102.078525 179.161332 
L 102.456237 180.321748 
L 102.833948 179.825406 
L 103.21166 178.957831 
L 103.589371 179.209831 
L 104.344794 177.954887 
L 104.722506 177.045399 
L 105.100217 179.348668 
L 105.477929 175.095833 
L 105.85564 178.297575 
L 106.233352 176.706084 
L 106.611063 177.238154 
L 106.988775 176.682947 
L 107.366486 175.790319 
L 108.121909 174.739754 
L 108.499621 173.322261 
L 108.877332 176.009916 
L 109.632755 173.660463 
L 110.010467 172.428714 
L 110.388178 172.533968 
L 110.76589 172.966881 
L 111.143601 172.198929 
L 111.899024 171.32508 
L 112.276736 172.410434 
L 112.654447 170.663877 
L 113.032159 170.651005 
L 113.40987 169.533812 
L 113.787582 171.104865 
L 114.165293 171.26732 
L 114.543005 167.757471 
L 114.920716 169.408531 
L 115.298428 169.144423 
L 115.676139 168.16315 
L 116.053851 168.407814 
L 116.431562 166.466262 
L 116.809274 168.706006 
L 117.186985 167.581046 
L 117.564697 167.291898 
L 117.942408 166.327827 
L 118.32012 166.142238 
L 118.697831 166.899885 
L 119.075543 164.385853 
L 119.453254 165.782484 
L 120.208677 162.987944 
L 120.586389 163.005033 
L 120.9641 163.617732 
L 121.341812 163.267806 
L 121.719523 162.670243 
L 122.097235 162.957642 
L 122.474946 161.813805 
L 122.852658 162.692923 
L 123.230369 161.025881 
L 123.608081 160.289124 
L 123.985792 160.956169 
L 124.363504 159.977714 
L 124.741215 159.789951 
L 125.118927 160.552535 
L 125.496638 158.226751 
L 125.87435 159.576405 
L 126.252061 158.813511 
L 126.629773 158.934995 
L 127.007484 158.668898 
L 127.385196 157.221225 
L 127.762907 159.153074 
L 128.140619 156.864363 
L 128.51833 157.713344 
L 128.896042 157.886517 
L 129.273753 156.627815 
L 129.651465 157.042174 
L 130.029176 156.64538 
L 130.406888 155.526546 
L 130.784599 155.695822 
L 131.162311 155.008531 
L 131.540022 154.796061 
L 131.917734 155.137838 
L 132.295445 154.631386 
L 132.673157 154.727393 
L 133.050868 153.242716 
L 133.42858 152.922225 
L 133.806291 152.102775 
L 134.184003 153.688215 
L 134.561714 151.890167 
L 134.939426 151.419843 
L 135.317137 151.726751 
L 135.694849 152.201833 
L 136.07256 152.133212 
L 136.450272 150.282414 
L 136.827983 152.327407 
L 137.205695 150.02709 
L 137.583406 149.826489 
L 138.338829 150.467029 
L 138.716541 148.911015 
L 139.094252 148.809926 
L 139.471964 147.689066 
L 139.849675 149.203265 
L 140.227387 145.737196 
L 140.98281 147.730109 
L 141.360521 146.388691 
L 142.115944 145.241773 
L 142.493656 145.917766 
L 142.871367 144.251908 
L 143.249079 146.710411 
L 143.62679 145.189627 
L 144.004502 144.684925 
L 144.382213 143.575335 
L 144.759925 144.403364 
L 145.137636 144.737859 
L 145.515348 144.611677 
L 145.893059 142.841041 
L 146.270771 142.044008 
L 146.648482 142.520368 
L 147.026194 141.994772 
L 147.403905 142.061325 
L 147.781617 141.813863 
L 148.159328 140.185389 
L 148.53704 141.668821 
L 149.292463 140.839262 
L 149.670174 139.623564 
L 150.047886 140.003913 
L 150.425597 141.113026 
L 150.803309 140.67492 
L 151.558732 138.791013 
L 151.936443 138.61508 
L 152.314155 137.705915 
L 152.691866 139.220646 
L 153.069578 138.006571 
L 153.447289 137.425273 
L 154.202712 137.059795 
L 154.580424 137.789717 
L 154.958135 136.236218 
L 155.335847 136.359221 
L 155.713558 136.290548 
L 156.468981 135.423504 
L 156.846693 135.648662 
L 157.224404 135.591058 
L 157.602116 133.722154 
L 157.979827 133.004507 
L 158.357539 134.086218 
L 158.73525 134.396773 
L 159.112962 134.258798 
L 159.490673 132.641006 
L 159.868385 132.355725 
L 160.246096 132.620049 
L 161.001519 132.134454 
L 161.379231 132.628293 
L 161.756942 130.987557 
L 162.512365 130.910398 
L 162.890077 129.142579 
L 163.267788 130.754415 
L 163.6455 130.614606 
L 164.400923 128.399105 
L 164.778634 129.178569 
L 165.156346 128.970849 
L 165.534057 129.314118 
L 165.911769 128.056818 
L 166.28948 127.665486 
L 166.667192 127.858475 
L 167.044903 130.28204 
L 167.422615 126.683709 
L 167.800326 127.61328 
L 168.178038 127.658697 
L 168.555749 126.70842 
L 168.933461 126.594503 
L 169.311172 125.732522 
L 169.688884 127.610355 
L 170.066595 125.750728 
L 170.444307 125.96596 
L 170.822018 125.091475 
L 171.19973 124.719484 
L 171.577441 125.031661 
L 172.332864 123.079084 
L 172.710576 124.3365 
L 173.088287 123.853034 
L 173.465999 122.580276 
L 173.84371 123.498859 
L 174.599133 122.529043 
L 174.976845 121.607054 
L 175.354556 121.94603 
L 175.732268 120.674672 
L 176.109979 121.42396 
L 176.487691 120.059506 
L 176.865402 121.069122 
L 177.243114 120.660195 
L 177.620825 119.73177 
L 177.998537 119.905356 
L 178.376248 118.820394 
L 178.75396 118.871497 
L 179.131671 120.100501 
L 179.509383 119.563818 
L 179.887094 117.372909 
L 180.264806 118.352448 
L 180.642517 118.422408 
L 181.020229 117.630612 
L 181.39794 117.838457 
L 181.775652 119.151132 
L 182.531075 116.743868 
L 182.908786 117.314621 
L 183.286498 115.481435 
L 183.664209 116.935215 
L 184.041921 115.909167 
L 184.419632 115.396223 
L 184.797344 114.226204 
L 185.175055 115.028386 
L 185.552767 115.010735 
L 185.930478 114.143265 
L 186.685901 114.892535 
L 187.063613 114.881625 
L 187.441324 112.935639 
L 187.819036 112.984136 
L 188.196747 112.580814 
L 188.95217 112.897375 
L 189.329882 112.066858 
L 189.707593 113.038623 
L 190.085305 112.173608 
L 190.463016 112.378539 
L 190.840728 110.009969 
L 191.218439 110.817831 
L 191.596151 110.705509 
L 191.973863 109.620707 
L 192.351574 110.112555 
L 192.729286 109.647038 
L 193.106997 110.782104 
L 193.484709 109.100438 
L 193.86242 109.857531 
L 194.240132 109.643566 
L 194.617843 110.08815 
L 194.995555 108.737226 
L 195.373266 109.265704 
L 195.750978 108.412031 
L 196.128689 107.96779 
L 196.506401 109.119507 
L 196.884112 107.190811 
L 197.261824 107.050302 
L 198.017247 107.28138 
L 198.394958 106.53224 
L 198.77267 104.94153 
L 199.150381 106.310763 
L 199.905804 104.684218 
L 200.661227 104.788039 
L 201.41665 104.377496 
L 202.172073 102.720439 
L 202.549785 104.067496 
L 202.927496 103.834905 
L 203.305208 102.416946 
L 203.682919 103.47198 
L 204.060631 102.864162 
L 204.438342 102.929011 
L 204.816054 101.975186 
L 205.193765 102.406528 
L 205.571477 100.950572 
L 205.949188 102.202961 
L 206.3269 101.909869 
L 207.082323 102.131959 
L 207.460034 100.491526 
L 207.837746 100.806551 
L 208.215457 101.31354 
L 208.593169 99.53827 
L 208.97088 99.246447 
L 209.348592 100.365204 
L 209.726303 99.362865 
L 210.104015 98.911001 
L 210.481726 99.149934 
L 210.859438 97.815751 
L 211.237149 97.889364 
L 211.614861 98.590831 
L 211.992572 99.613699 
L 212.370284 97.471334 
L 212.747995 98.598485 
L 213.125707 96.729848 
L 213.503418 98.01807 
L 213.88113 96.194392 
L 214.258841 95.99231 
L 214.636553 96.767687 
L 215.014264 94.838961 
L 215.391976 95.876219 
L 215.769687 96.036028 
L 216.147399 95.174372 
L 216.52511 95.686304 
L 216.902822 95.25803 
L 217.280533 96.076025 
L 218.035956 93.864716 
L 218.413668 94.469918 
L 218.791379 93.762964 
L 219.169091 93.447913 
L 219.546802 93.806402 
L 219.924514 94.368475 
L 220.302225 93.550388 
L 220.679937 93.193427 
L 221.057648 92.527849 
L 221.43536 92.387849 
L 221.813071 91.872258 
L 222.190783 92.228782 
L 222.568494 91.311893 
L 223.323917 91.618429 
L 223.701629 91.689849 
L 224.07934 91.011258 
L 224.457052 91.968876 
L 224.834763 91.89209 
L 225.212475 90.40681 
L 225.590186 89.432903 
L 225.967898 89.950467 
L 226.723321 88.509553 
L 227.101032 89.690131 
L 227.856455 89.255415 
L 228.234167 89.388537 
L 228.611878 88.248444 
L 228.98959 88.174129 
L 229.745013 86.985848 
L 230.122724 88.521549 
L 230.500436 87.246825 
L 231.255859 87.733442 
L 231.63357 86.628425 
L 232.011282 87.233535 
L 232.388993 85.372898 
L 232.766705 85.7496 
L 233.144416 85.422802 
L 233.522128 84.88557 
L 233.899839 85.707277 
L 234.277551 85.132115 
L 234.655262 83.980109 
L 235.032974 85.82214 
L 235.410685 85.20693 
L 235.788397 83.947312 
L 236.166108 84.159725 
L 236.54382 83.462392 
L 236.921531 83.060767 
L 237.299243 83.759814 
L 237.676954 83.078532 
L 238.054666 82.726027 
L 238.432377 83.798668 
L 238.810089 82.823264 
L 239.565512 82.472806 
L 239.943223 81.163759 
L 240.320935 82.239531 
L 240.698646 81.509759 
L 241.076358 81.534401 
L 241.454069 82.299266 
L 241.831781 80.520846 
L 242.209492 81.217531 
L 242.587204 81.269566 
L 242.964915 79.928656 
L 243.342627 79.701818 
L 243.720338 81.772029 
L 244.09805 79.711697 
L 244.475761 80.085556 
L 244.853473 79.58458 
L 245.231184 78.762236 
L 245.608896 79.075089 
L 245.986607 79.182465 
L 246.364319 78.953912 
L 246.74203 78.916261 
L 247.119742 78.256615 
L 247.497453 78.511375 
L 247.875165 78.428545 
L 248.252876 77.563631 
L 248.630588 77.449481 
L 249.008299 77.737425 
L 249.386011 77.347954 
L 249.763722 77.357714 
L 250.141434 77.155621 
L 250.519145 75.648192 
L 250.896857 76.682134 
L 251.274568 76.158458 
L 251.65228 76.356108 
L 252.029991 75.25721 
L 252.785414 75.767038 
L 253.163126 74.357041 
L 253.540837 75.545326 
L 253.918549 76.170285 
L 254.29626 75.247439 
L 254.673972 74.755365 
L 255.051683 75.241744 
L 255.807106 72.488473 
L 256.184818 73.774881 
L 256.940241 73.004018 
L 257.317952 73.426016 
L 257.695664 73.310567 
L 258.073375 72.991613 
L 258.451087 73.105869 
L 258.828798 72.62744 
L 259.20651 71.924983 
L 259.584221 72.295622 
L 259.961933 72.346546 
L 260.339644 70.499709 
L 260.717356 71.245121 
L 261.472779 71.406409 
L 261.85049 69.906007 
L 262.228202 70.258667 
L 262.605913 70.960081 
L 262.983625 70.371918 
L 263.361336 70.145413 
L 263.739048 69.688647 
L 264.116759 69.514685 
L 264.494471 69.90125 
L 264.872182 69.426456 
L 265.249894 69.898437 
L 265.627605 68.147353 
L 266.005317 68.564944 
L 266.383028 68.056317 
L 266.76074 68.258964 
L 267.138451 68.318778 
L 267.516163 67.659783 
L 267.893874 67.846546 
L 268.271586 66.952729 
L 268.649297 66.887425 
L 269.027009 68.079946 
L 269.40472 66.769945 
L 269.782432 67.3877 
L 270.160143 66.781893 
L 270.537855 65.665531 
L 270.915566 66.430546 
L 271.293278 66.781307 
L 271.670989 66.358017 
L 272.048701 64.809259 
L 272.426412 65.133106 
L 272.804124 66.164453 
L 273.181835 64.255936 
L 273.559547 64.980771 
L 273.937258 65.081557 
L 274.31497 65.065976 
L 274.692681 64.804103 
L 275.070393 63.998785 
L 275.448104 64.489823 
L 275.825816 64.329788 
L 276.203527 62.913111 
L 276.581239 63.607515 
L 276.95895 63.686504 
L 277.336662 63.01632 
L 277.714373 63.530527 
L 278.469796 63.970371 
L 278.847508 63.22836 
L 279.225219 62.90792 
L 279.602931 63.394054 
L 279.980642 61.640691 
L 280.358354 61.437307 
L 280.736065 62.636629 
L 281.113777 61.890892 
L 281.491488 61.620779 
L 281.8692 61.620071 
L 282.246911 60.791007 
L 282.624623 60.878291 
L 283.380046 60.247278 
L 283.757757 60.906341 
L 284.135469 60.6415 
L 284.51318 59.73657 
L 285.268603 60.361622 
L 285.646315 58.6981 
L 286.024026 60.096372 
L 286.401738 58.572734 
L 286.779449 59.210106 
L 287.157161 59.373859 
L 287.534872 58.069419 
L 287.912584 57.70264 
L 288.290295 57.888294 
L 288.668007 57.563891 
L 289.045718 58.001007 
L 289.42343 57.599375 
L 289.801141 58.164573 
L 290.178853 56.367276 
L 290.556564 57.019104 
L 290.934276 57.331699 
L 291.311987 57.152155 
L 291.689699 57.269491 
L 292.06741 55.911408 
L 292.445122 55.775707 
L 292.822833 54.898229 
L 293.200545 55.376625 
L 293.578257 56.21973 
L 293.955968 55.972749 
L 294.33368 55.210101 
L 294.711391 55.409494 
L 295.466814 55.449945 
L 295.844526 54.205999 
L 296.599949 54.764221 
L 296.97766 53.910399 
L 297.355372 54.038339 
L 298.110795 52.988651 
L 298.488506 54.031099 
L 298.866218 53.259036 
L 299.243929 53.313876 
L 299.621641 53.221969 
L 300.377064 52.579391 
L 300.754775 52.519884 
L 301.132487 52.661609 
L 301.510198 52.49824 
L 301.88791 52.457872 
L 302.265621 51.79707 
L 303.021044 51.942577 
L 303.398756 51.709494 
L 304.154179 50.857358 
L 304.909602 51.223957 
L 305.287313 50.298572 
L 305.665025 50.75297 
L 306.042736 50.170568 
L 306.420448 51.021259 
L 306.798159 50.087989 
L 307.175871 49.71821 
L 308.309005 49.534076 
L 308.686717 49.529329 
L 309.064428 49.229602 
L 309.44214 49.616274 
L 309.819851 48.520882 
L 310.575274 48.506302 
L 310.952986 48.072537 
L 311.330697 47.891971 
L 311.708409 47.965508 
L 312.08612 48.544528 
L 313.219255 47.061455 
L 313.596966 48.155369 
L 313.974678 47.367004 
L 314.352389 46.028963 
L 314.730101 46.360558 
L 315.107812 46.01667 
L 315.485524 46.302047 
L 315.863235 45.425187 
L 316.240947 46.285554 
L 316.618658 45.094592 
L 317.374081 45.208347 
L 317.751793 45.846937 
L 318.129504 45.703247 
L 318.507216 46.041747 
L 319.262639 45.298841 
L 319.64035 45.409344 
L 320.018062 44.419215 
L 320.395773 44.206762 
L 320.773485 43.593026 
L 321.151196 44.198024 
L 321.528908 44.287972 
L 321.906619 44.015205 
L 322.284331 43.997539 
L 322.662042 43.759569 
L 323.417465 42.617158 
L 323.795177 43.157411 
L 324.172888 43.374826 
L 324.5506 42.593623 
L 325.306023 41.975765 
L 325.683734 42.554038 
L 326.061446 42.251527 
L 326.439157 41.435579 
L 326.816869 42.121607 
L 327.19458 42.527873 
L 327.572292 41.046251 
L 327.950003 40.929363 
L 328.327715 41.752732 
L 328.705426 40.559202 
L 329.083138 40.256691 
L 329.460849 40.807241 
L 329.838561 40.181704 
L 330.216272 40.006415 
L 330.593984 40.236847 
L 330.971695 39.298362 
L 331.349407 39.995607 
L 331.727118 39.646863 
L 332.10483 39.509377 
L 332.482541 39.858847 
L 332.860253 39.854466 
L 333.237964 39.686734 
L 333.615676 38.623054 
L 333.993387 39.0024 
L 334.371099 38.364549 
L 334.74881 38.103922 
L 335.126522 38.677652 
L 335.504233 37.774011 
L 335.881945 38.540267 
L 336.259656 37.327359 
L 336.637368 37.169134 
L 337.015079 37.821515 
L 337.770502 36.993243 
L 338.148214 37.647179 
L 338.525925 36.857281 
L 338.903637 37.197718 
L 339.281348 37.195302 
L 340.036771 36.328411 
L 340.414483 36.61301 
L 340.792194 36.690485 
L 341.169906 36.058074 
L 341.547617 35.725719 
L 341.925329 36.213012 
L 342.30304 35.279596 
L 343.436175 35.851905 
L 343.813886 34.255474 
L 344.191598 35.067914 
L 344.569309 34.834808 
L 344.947021 35.298394 
L 345.324732 33.945668 
L 345.702444 33.834316 
L 346.080155 34.04052 
L 346.835578 33.446674 
L 347.21329 33.856748 
L 347.591001 33.274467 
L 347.968713 33.516344 
L 348.346424 34.360315 
L 348.724136 32.157828 
L 349.101847 32.583704 
L 349.479559 32.839749 
L 349.85727 33.48063 
L 350.234982 33.32333 
L 350.612693 32.827595 
L 350.990405 32.132504 
L 351.368116 32.559515 
L 351.745828 32.216803 
L 352.123539 32.310601 
L 352.501251 31.277015 
L 352.878962 31.617943 
L 353.256674 31.701943 
L 353.634385 31.466817 
L 354.012097 31.906338 
L 354.76752 31.296809 
L 355.145231 31.241127 
L 355.522943 30.663811 
L 356.278366 30.771142 
L 356.656077 30.521987 
L 357.033789 30.0126 
L 357.4115 30.052552 
L 357.789212 29.7058 
L 358.166923 29.82696 
L 358.922346 29.648846 
L 359.300058 29.943932 
L 359.677769 29.41113 
L 360.055481 29.240944 
L 360.433192 28.739171 
L 360.810904 28.764743 
L 361.188615 28.461103 
L 361.566327 28.604348 
L 361.944038 27.871197 
L 362.32175 28.709025 
L 362.699461 27.417168 
L 363.077173 28.21293 
L 363.832596 27.563399 
L 364.210307 27.577348 
L 364.588019 27.441922 
L 364.96573 27.124504 
L 365.343442 27.796878 
L 366.098865 26.60601 
L 366.476576 27.187849 
L 366.854288 27.042915 
L 367.231999 27.21534 
L 367.609711 26.13584 
L 367.987422 26.737928 
L 368.742845 25.143049 
L 369.120557 26.472488 
L 369.498268 25.858468 
L 370.253691 25.962931 
L 370.631403 24.93589 
L 371.386826 24.980986 
L 371.764537 24.791113 
L 372.142249 25.305471 
L 372.51996 25.296819 
L 372.897672 24.594652 
L 373.275383 24.388142 
L 373.653095 25.040481 
L 374.030806 24.72358 
L 374.408518 23.666367 
L 374.786229 24.645292 
L 375.163941 23.970655 
L 375.541652 23.869098 
L 375.919364 23.973415 
L 376.297075 23.698769 
L 376.674787 23.157242 
L 377.052498 23.481818 
L 377.807921 23.01874 
L 378.185633 23.03877 
L 378.563344 22.774902 
L 378.941056 22.33235 
L 379.318767 22.689016 
L 379.696479 21.749436 
L 380.451902 23.045845 
L 380.829613 21.98394 
L 381.207325 22.077023 
L 381.585036 21.357089 
L 381.962748 21.924807 
L 382.340459 21.420629 
L 382.718171 21.414262 
L 383.473594 21.837554 
L 383.851305 21.015001 
L 384.229017 21.374289 
L 384.606728 20.610539 
L 385.362151 20.535332 
L 385.739863 20.593574 
L 386.117574 19.78885 
L 386.495286 20.223442 
L 386.872997 20.296973 
L 387.250709 20.241691 
L 388.383843 19.18392 
L 388.761555 18.403808 
L 389.139266 19.312231 
L 389.516978 18.769282 
L 389.894689 19.416912 
L 390.272401 18.279013 
L 390.650112 18.577463 
L 391.027824 18.031768 
L 391.405535 18.658832 
L 391.783247 18.15825 
L 392.160958 18.682627 
L 392.53867 18.871554 
L 392.916381 18.4854 
L 393.294093 17.423282 
L 393.671804 17.8482 
L 394.049516 17.599533 
L 395.182651 17.508943 
L 395.560362 16.630114 
L 395.938074 16.975041 
L 396.315785 16.728114 
L 396.693497 16.728545 
L 397.071208 16.96003 
L 397.44892 16.098239 
L 398.204343 16.89031 
L 398.582054 16.730427 
L 398.959766 15.993137 
L 399.337477 15.876386 
L 399.715189 15.95211 
L 400.0929 15.561187 
L 400.470612 15.933166 
L 400.848323 15.872654 
L 401.226035 15.481318 
L 401.981458 15.057367 
L 402.359169 14.628608 
L 402.736881 15.208718 
L 403.492304 14.050009 
L 403.870015 14.157883 
L 404.247727 14.595863 
L 404.625438 14.016956 
L 405.00315 13.168211 
L 405.380861 14.329024 
L 405.758573 14.041523 
L 406.136284 13.168079 
L 406.513996 13.907339 
L 407.269419 13.014952 
L 407.64713 13.380787 
L 408.024842 13.559754 
L 408.402553 12.675789 
L 408.780265 13.421019 
L 409.157976 13.366869 
L 409.535688 13.448635 
L 409.913399 12.693335 
L 410.291111 12.587056 
L 410.668822 12.09653 
L 411.046534 12.545481 
L 411.424245 12.548696 
L 411.801957 12.286502 
L 412.179668 12.504299 
L 413.312803 11.052572 
L 413.690514 10.954522 
L 414.068226 11.479142 
L 414.445937 11.021168 
L 414.823649 10.896535 
L 415.20136 11.497413 
L 415.579072 11.620859 
L 415.956783 10.932386 
L 416.334495 10.934387 
L 416.712206 9.960798 
L 417.089918 10.7518 
L 417.467629 10.84783 
L 417.845341 10.28382 
L 417.845341 10.28382 
" style="fill:none;stroke:#009afa;stroke-width:2;"/>
   </g>
   <g id="patch_3">
    <path d="M 29.191537 254.625354 
L 29.191537 2.834646 
" style="fill:none;stroke:#000000;stroke-linecap:square;stroke-linejoin:miter;"/>
   </g>
   <g id="patch_4">
    <path d="M 29.191537 254.625354 
L 429.165354 254.625354 
" style="fill:none;stroke:#000000;stroke-linecap:square;stroke-linejoin:miter;"/>
   </g>
   <g id="legend_1">
    <g id="patch_5">
     <path d="M 36.691537 50.534646 
L 202.591537 50.534646 
L 202.591537 10.334646 
L 36.691537 10.334646 
z
" style="fill:#ffffff;stroke:#000000;stroke-linejoin:miter;"/>
    </g>
    <g id="line2d_22">
     <path d="M 48.691537 28.634646 
L 78.691537 28.634646 
" style="fill:none;stroke:#009afa;stroke-linejoin:miter;stroke-width:1.875;"/>
    </g>
    <g id="line2d_23"/>
    <g id="text_12">
     <!-- $E_{p_\lambda}[\log p(y|x)]$ -->
     <defs>
      <path d="M 16.890625 72.90625 
L 62.984375 72.90625 
L 61.375 64.59375 
L 25.09375 64.59375 
L 20.90625 43.015625 
L 55.71875 43.015625 
L 54.109375 34.71875 
L 19.28125 34.71875 
L 14.203125 8.296875 
L 51.3125 8.296875 
L 49.703125 0 
L 2.6875 0 
z
" id="DejaVuSans-Oblique-69"/>
      <path d="M 49.609375 33.6875 
Q 49.609375 40.875 46.484375 44.671875 
Q 43.359375 48.484375 37.5 48.484375 
Q 33.5 48.484375 29.859375 46.4375 
Q 26.21875 44.390625 23.390625 40.484375 
Q 20.609375 36.625 18.9375 31.15625 
Q 17.28125 25.6875 17.28125 20.3125 
Q 17.28125 13.484375 20.40625 9.796875 
Q 23.53125 6.109375 29.296875 6.109375 
Q 33.546875 6.109375 37.1875 8.109375 
Q 40.828125 10.109375 43.40625 13.921875 
Q 46.1875 17.921875 47.890625 23.34375 
Q 49.609375 28.765625 49.609375 33.6875 
z
M 21.78125 46.390625 
Q 25.390625 51.125 30.296875 53.5625 
Q 35.203125 56 41.21875 56 
Q 49.609375 56 54.25 50.5 
Q 58.890625 45.015625 58.890625 35.109375 
Q 58.890625 27 56 19.65625 
Q 53.125 12.3125 47.703125 6.5 
Q 44.09375 2.640625 39.546875 0.609375 
Q 35.015625 -1.421875 29.984375 -1.421875 
Q 24.171875 -1.421875 20.21875 1 
Q 16.265625 3.421875 14.3125 8.203125 
L 8.6875 -20.796875 
L -0.296875 -20.796875 
L 14.40625 54.6875 
L 23.390625 54.6875 
z
" id="DejaVuSans-Oblique-112"/>
      <path d="M 8.59375 75.984375 
L 29.296875 75.984375 
L 29.296875 69 
L 17.578125 69 
L 17.578125 -6.203125 
L 29.296875 -6.203125 
L 29.296875 -13.1875 
L 8.59375 -13.1875 
z
" id="DejaVuSans-91"/>
      <path d="M 9.421875 75.984375 
L 18.40625 75.984375 
L 18.40625 0 
L 9.421875 0 
z
" id="DejaVuSans-108"/>
      <path d="M 30.609375 48.390625 
Q 23.390625 48.390625 19.1875 42.75 
Q 14.984375 37.109375 14.984375 27.296875 
Q 14.984375 17.484375 19.15625 11.84375 
Q 23.34375 6.203125 30.609375 6.203125 
Q 37.796875 6.203125 41.984375 11.859375 
Q 46.1875 17.53125 46.1875 27.296875 
Q 46.1875 37.015625 41.984375 42.703125 
Q 37.796875 48.390625 30.609375 48.390625 
z
M 30.609375 56 
Q 42.328125 56 49.015625 48.375 
Q 55.71875 40.765625 55.71875 27.296875 
Q 55.71875 13.875 49.015625 6.21875 
Q 42.328125 -1.421875 30.609375 -1.421875 
Q 18.84375 -1.421875 12.171875 6.21875 
Q 5.515625 13.875 5.515625 27.296875 
Q 5.515625 40.765625 12.171875 48.375 
Q 18.84375 56 30.609375 56 
z
" id="DejaVuSans-111"/>
      <path d="M 45.40625 27.984375 
Q 45.40625 37.75 41.375 43.109375 
Q 37.359375 48.484375 30.078125 48.484375 
Q 22.859375 48.484375 18.828125 43.109375 
Q 14.796875 37.75 14.796875 27.984375 
Q 14.796875 18.265625 18.828125 12.890625 
Q 22.859375 7.515625 30.078125 7.515625 
Q 37.359375 7.515625 41.375 12.890625 
Q 45.40625 18.265625 45.40625 27.984375 
z
M 54.390625 6.78125 
Q 54.390625 -7.171875 48.1875 -13.984375 
Q 42 -20.796875 29.203125 -20.796875 
Q 24.46875 -20.796875 20.265625 -20.09375 
Q 16.0625 -19.390625 12.109375 -17.921875 
L 12.109375 -9.1875 
Q 16.0625 -11.328125 19.921875 -12.34375 
Q 23.78125 -13.375 27.78125 -13.375 
Q 36.625 -13.375 41.015625 -8.765625 
Q 45.40625 -4.15625 45.40625 5.171875 
L 45.40625 9.625 
Q 42.625 4.78125 38.28125 2.390625 
Q 33.9375 0 27.875 0 
Q 17.828125 0 11.671875 7.65625 
Q 5.515625 15.328125 5.515625 27.984375 
Q 5.515625 40.671875 11.671875 48.328125 
Q 17.828125 56 27.875 56 
Q 33.9375 56 38.28125 53.609375 
Q 42.625 51.21875 45.40625 46.390625 
L 45.40625 54.6875 
L 54.390625 54.6875 
z
" id="DejaVuSans-103"/>
      <path d="M 31 75.875 
Q 24.46875 64.65625 21.28125 53.65625 
Q 18.109375 42.671875 18.109375 31.390625 
Q 18.109375 20.125 21.3125 9.0625 
Q 24.515625 -2 31 -13.1875 
L 23.1875 -13.1875 
Q 15.875 -1.703125 12.234375 9.375 
Q 8.59375 20.453125 8.59375 31.390625 
Q 8.59375 42.28125 12.203125 53.3125 
Q 15.828125 64.359375 23.1875 75.875 
z
" id="DejaVuSans-40"/>
      <path d="M 24.8125 -5.078125 
Q 18.5625 -15.578125 14.625 -18.1875 
Q 10.6875 -20.796875 4.59375 -20.796875 
L -2.484375 -20.796875 
L -0.984375 -13.28125 
L 4.203125 -13.28125 
Q 7.953125 -13.28125 10.59375 -11.234375 
Q 13.234375 -9.1875 16.5 -3.21875 
L 19.28125 2 
L 7.171875 54.6875 
L 16.703125 54.6875 
L 25.78125 12.796875 
L 50.875 54.6875 
L 60.296875 54.6875 
z
" id="DejaVuSans-Oblique-121"/>
      <path d="M 21 76.421875 
L 21 -23.578125 
L 12.703125 -23.578125 
L 12.703125 76.421875 
z
" id="DejaVuSans-124"/>
      <path d="M 60.015625 54.6875 
L 34.90625 27.875 
L 50.296875 0 
L 39.984375 0 
L 28.421875 21.6875 
L 8.296875 0 
L -2.59375 0 
L 24.3125 28.8125 
L 10.015625 54.6875 
L 20.3125 54.6875 
L 30.8125 34.90625 
L 49.125 54.6875 
z
" id="DejaVuSans-Oblique-120"/>
      <path d="M 8.015625 75.875 
L 15.828125 75.875 
Q 23.140625 64.359375 26.78125 53.3125 
Q 30.421875 42.28125 30.421875 31.390625 
Q 30.421875 20.453125 26.78125 9.375 
Q 23.140625 -1.703125 15.828125 -13.1875 
L 8.015625 -13.1875 
Q 14.5 -2 17.703125 9.0625 
Q 20.90625 20.125 20.90625 31.390625 
Q 20.90625 42.671875 17.703125 53.65625 
Q 14.5 64.65625 8.015625 75.875 
z
" id="DejaVuSans-41"/>
      <path d="M 30.421875 75.984375 
L 30.421875 -13.1875 
L 9.71875 -13.1875 
L 9.71875 -6.203125 
L 21.390625 -6.203125 
L 21.390625 69 
L 9.71875 69 
L 9.71875 75.984375 
z
" id="DejaVuSans-93"/>
     </defs>
     <g transform="translate(90.691537 33.884646)scale(0.15 -0.15)">
      <use transform="translate(0 0.578125)" xlink:href="#DejaVuSans-Oblique-69"/>
      <use transform="translate(63.183594 -15.828125)scale(0.7)" xlink:href="#DejaVuSans-Oblique-112"/>
      <use transform="translate(107.617188 -27.3125)scale(0.49)" xlink:href="#DejaVuSans-Oblique-955"/>
      <use transform="translate(141.263672 0.578125)" xlink:href="#DejaVuSans-91"/>
      <use transform="translate(180.277344 0.578125)" xlink:href="#DejaVuSans-108"/>
      <use transform="translate(208.060547 0.578125)" xlink:href="#DejaVuSans-111"/>
      <use transform="translate(269.242188 0.578125)" xlink:href="#DejaVuSans-103"/>
      <use transform="translate(332.71875 0.578125)" xlink:href="#DejaVuSans-Oblique-112"/>
      <use transform="translate(396.195312 0.578125)" xlink:href="#DejaVuSans-40"/>
      <use transform="translate(435.208984 0.578125)" xlink:href="#DejaVuSans-Oblique-121"/>
      <use transform="translate(494.388672 0.578125)" xlink:href="#DejaVuSans-124"/>
      <use transform="translate(528.080078 0.578125)" xlink:href="#DejaVuSans-Oblique-120"/>
      <use transform="translate(587.259766 0.578125)" xlink:href="#DejaVuSans-41"/>
      <use transform="translate(626.273438 0.578125)" xlink:href="#DejaVuSans-93"/>
     </g>
    </g>
   </g>
  </g>
 </g>
 <defs>
  <clipPath id="p610fb42fe4">
   <rect height="251.790709" width="399.973818" x="29.191537" y="2.834646"/>
  </clipPath>
 </defs>
</svg>
