<?xml version="1.0" encoding="utf-8" standalone="no"?>
<!DOCTYPE svg PUBLIC "-//W3C//DTD SVG 1.1//EN"
  "http://www.w3.org/Graphics/SVG/1.1/DTD/svg11.dtd">
<svg height="288pt" version="1.1" viewBox="0 0 432 288" width="432pt" xmlns="http://www.w3.org/2000/svg" xmlns:xlink="http://www.w3.org/1999/xlink">
 <metadata>
  <rdf:RDF xmlns:cc="http://creativecommons.org/ns#" xmlns:dc="http://purl.org/dc/elements/1.1/" xmlns:rdf="http://www.w3.org/1999/02/22-rdf-syntax-ns#">
   <cc:Work>
    <dc:type rdf:resource="http://purl.org/dc/dcmitype/StillImage"/>
    <dc:date>2021-08-27T13:20:32.124479</dc:date>
    <dc:format>image/svg+xml</dc:format>
    <dc:creator>
     <cc:Agent>
      <dc:title>Matplotlib v3.4.3, https://matplotlib.org/</dc:title>
     </cc:Agent>
    </dc:creator>
   </cc:Work>
  </rdf:RDF>
 </metadata>
 <defs>
  <style type="text/css">*{stroke-linecap:butt;stroke-linejoin:round;}</style>
 </defs>
 <g id="figure_1">
  <g id="patch_1">
   <path d="M 0 288 
L 432 288 
L 432 0 
L 0 0 
z
" style="fill:#ffffff;"/>
  </g>
  <g id="axes_1">
   <g id="patch_2">
    <path d="M 52.844792 248.865354 
L 429.165354 248.865354 
L 429.165354 19.634646 
L 52.844792 19.634646 
z
" style="fill:#ffffff;"/>
   </g>
   <g id="matplotlib.axis_1">
    <g id="xtick_1">
     <g id="line2d_1">
      <path clip-path="url(#p2c92afc2ff)" d="M 63.495374 248.865354 
L 63.495374 19.634646 
" style="fill:none;stroke:#000000;stroke-linecap:square;stroke-opacity:0.1;stroke-width:0.5;"/>
     </g>
     <g id="line2d_2">
      <defs>
       <path d="M 0 0 
L 0 -2.5 
" id="m901a9af3c9" style="stroke:#000000;stroke-width:0.5;"/>
      </defs>
      <g>
       <use style="stroke:#000000;stroke-width:0.5;" x="63.495374" xlink:href="#m901a9af3c9" y="248.865354"/>
      </g>
     </g>
     <g id="text_1">
      <!-- $\mathregular{-15}$ -->
      <g transform="translate(47.595374 263.763011)scale(0.15 -0.15)">
       <defs>
        <path d="M 678 2272 
L 4684 2272 
L 4684 1741 
L 678 1741 
L 678 2272 
z
" id="DejaVuSans-2212" transform="scale(0.015625)"/>
        <path d="M 794 531 
L 1825 531 
L 1825 4091 
L 703 3866 
L 703 4441 
L 1819 4666 
L 2450 4666 
L 2450 531 
L 3481 531 
L 3481 0 
L 794 0 
L 794 531 
z
" id="DejaVuSans-31" transform="scale(0.015625)"/>
        <path d="M 691 4666 
L 3169 4666 
L 3169 4134 
L 1269 4134 
L 1269 2991 
Q 1406 3038 1543 3061 
Q 1681 3084 1819 3084 
Q 2600 3084 3056 2656 
Q 3513 2228 3513 1497 
Q 3513 744 3044 326 
Q 2575 -91 1722 -91 
Q 1428 -91 1123 -41 
Q 819 9 494 109 
L 494 744 
Q 775 591 1075 516 
Q 1375 441 1709 441 
Q 2250 441 2565 725 
Q 2881 1009 2881 1497 
Q 2881 1984 2565 2268 
Q 2250 2553 1709 2553 
Q 1456 2553 1204 2497 
Q 953 2441 691 2322 
L 691 4666 
z
" id="DejaVuSans-35" transform="scale(0.015625)"/>
       </defs>
       <use transform="translate(0 0.09375)" xlink:href="#DejaVuSans-2212"/>
       <use transform="translate(83.789062 0.09375)" xlink:href="#DejaVuSans-31"/>
       <use transform="translate(147.412109 0.09375)" xlink:href="#DejaVuSans-35"/>
      </g>
     </g>
    </g>
    <g id="xtick_2">
     <g id="line2d_3">
      <path clip-path="url(#p2c92afc2ff)" d="M 122.665274 248.865354 
L 122.665274 19.634646 
" style="fill:none;stroke:#000000;stroke-linecap:square;stroke-opacity:0.1;stroke-width:0.5;"/>
     </g>
     <g id="line2d_4">
      <g>
       <use style="stroke:#000000;stroke-width:0.5;" x="122.665274" xlink:href="#m901a9af3c9" y="248.865354"/>
      </g>
     </g>
     <g id="text_2">
      <!-- $\mathregular{-10}$ -->
      <g transform="translate(106.765274 263.763011)scale(0.15 -0.15)">
       <defs>
        <path d="M 2034 4250 
Q 1547 4250 1301 3770 
Q 1056 3291 1056 2328 
Q 1056 1369 1301 889 
Q 1547 409 2034 409 
Q 2525 409 2770 889 
Q 3016 1369 3016 2328 
Q 3016 3291 2770 3770 
Q 2525 4250 2034 4250 
z
M 2034 4750 
Q 2819 4750 3233 4129 
Q 3647 3509 3647 2328 
Q 3647 1150 3233 529 
Q 2819 -91 2034 -91 
Q 1250 -91 836 529 
Q 422 1150 422 2328 
Q 422 3509 836 4129 
Q 1250 4750 2034 4750 
z
" id="DejaVuSans-30" transform="scale(0.015625)"/>
       </defs>
       <use transform="translate(0 0.78125)" xlink:href="#DejaVuSans-2212"/>
       <use transform="translate(83.789062 0.78125)" xlink:href="#DejaVuSans-31"/>
       <use transform="translate(147.412109 0.78125)" xlink:href="#DejaVuSans-30"/>
      </g>
     </g>
    </g>
    <g id="xtick_3">
     <g id="line2d_5">
      <path clip-path="url(#p2c92afc2ff)" d="M 181.835174 248.865354 
L 181.835174 19.634646 
" style="fill:none;stroke:#000000;stroke-linecap:square;stroke-opacity:0.1;stroke-width:0.5;"/>
     </g>
     <g id="line2d_6">
      <g>
       <use style="stroke:#000000;stroke-width:0.5;" x="181.835174" xlink:href="#m901a9af3c9" y="248.865354"/>
      </g>
     </g>
     <g id="text_3">
      <!-- $\mathregular{-5}$ -->
      <g transform="translate(170.735174 263.763011)scale(0.15 -0.15)">
       <use transform="translate(0 0.09375)" xlink:href="#DejaVuSans-2212"/>
       <use transform="translate(83.789062 0.09375)" xlink:href="#DejaVuSans-35"/>
      </g>
     </g>
    </g>
    <g id="xtick_4">
     <g id="line2d_7">
      <path clip-path="url(#p2c92afc2ff)" d="M 241.005073 248.865354 
L 241.005073 19.634646 
" style="fill:none;stroke:#000000;stroke-linecap:square;stroke-opacity:0.1;stroke-width:0.5;"/>
     </g>
     <g id="line2d_8">
      <g>
       <use style="stroke:#000000;stroke-width:0.5;" x="241.005073" xlink:href="#m901a9af3c9" y="248.865354"/>
      </g>
     </g>
     <g id="text_4">
      <!-- $\mathregular{0}$ -->
      <g transform="translate(236.205073 263.763011)scale(0.15 -0.15)">
       <use transform="translate(0 0.78125)" xlink:href="#DejaVuSans-30"/>
      </g>
     </g>
    </g>
    <g id="xtick_5">
     <g id="line2d_9">
      <path clip-path="url(#p2c92afc2ff)" d="M 300.174973 248.865354 
L 300.174973 19.634646 
" style="fill:none;stroke:#000000;stroke-linecap:square;stroke-opacity:0.1;stroke-width:0.5;"/>
     </g>
     <g id="line2d_10">
      <g>
       <use style="stroke:#000000;stroke-width:0.5;" x="300.174973" xlink:href="#m901a9af3c9" y="248.865354"/>
      </g>
     </g>
     <g id="text_5">
      <!-- $\mathregular{5}$ -->
      <g transform="translate(295.374973 263.763011)scale(0.15 -0.15)">
       <use transform="translate(0 0.09375)" xlink:href="#DejaVuSans-35"/>
      </g>
     </g>
    </g>
    <g id="xtick_6">
     <g id="line2d_11">
      <path clip-path="url(#p2c92afc2ff)" d="M 359.344873 248.865354 
L 359.344873 19.634646 
" style="fill:none;stroke:#000000;stroke-linecap:square;stroke-opacity:0.1;stroke-width:0.5;"/>
     </g>
     <g id="line2d_12">
      <g>
       <use style="stroke:#000000;stroke-width:0.5;" x="359.344873" xlink:href="#m901a9af3c9" y="248.865354"/>
      </g>
     </g>
     <g id="text_6">
      <!-- $\mathregular{10}$ -->
      <g transform="translate(349.744873 263.763011)scale(0.15 -0.15)">
       <use transform="translate(0 0.78125)" xlink:href="#DejaVuSans-31"/>
       <use transform="translate(63.623047 0.78125)" xlink:href="#DejaVuSans-30"/>
      </g>
     </g>
    </g>
    <g id="xtick_7">
     <g id="line2d_13">
      <path clip-path="url(#p2c92afc2ff)" d="M 418.514772 248.865354 
L 418.514772 19.634646 
" style="fill:none;stroke:#000000;stroke-linecap:square;stroke-opacity:0.1;stroke-width:0.5;"/>
     </g>
     <g id="line2d_14">
      <g>
       <use style="stroke:#000000;stroke-width:0.5;" x="418.514772" xlink:href="#m901a9af3c9" y="248.865354"/>
      </g>
     </g>
     <g id="text_7">
      <!-- $\mathregular{15}$ -->
      <g transform="translate(408.914772 263.763011)scale(0.15 -0.15)">
       <use transform="translate(0 0.09375)" xlink:href="#DejaVuSans-31"/>
       <use transform="translate(63.623047 0.09375)" xlink:href="#DejaVuSans-35"/>
      </g>
     </g>
    </g>
    <g id="text_8">
     <!-- x -->
     <g transform="translate(236.566011 282.280198)scale(0.15 -0.15)">
      <defs>
       <path d="M 3513 3500 
L 2247 1797 
L 3578 0 
L 2900 0 
L 1881 1375 
L 863 0 
L 184 0 
L 1544 1831 
L 300 3500 
L 978 3500 
L 1906 2253 
L 2834 3500 
L 3513 3500 
z
" id="DejaVuSans-78" transform="scale(0.015625)"/>
      </defs>
      <use xlink:href="#DejaVuSans-78"/>
     </g>
    </g>
   </g>
   <g id="matplotlib.axis_2">
    <g id="ytick_1">
     <g id="line2d_15">
      <path clip-path="url(#p2c92afc2ff)" d="M 52.844792 242.377693 
L 429.165354 242.377693 
" style="fill:none;stroke:#000000;stroke-linecap:square;stroke-opacity:0.1;stroke-width:0.5;"/>
     </g>
     <g id="line2d_16">
      <defs>
       <path d="M 0 0 
L 2.5 0 
" id="m456db10260" style="stroke:#000000;stroke-width:0.5;"/>
      </defs>
      <g>
       <use style="stroke:#000000;stroke-width:0.5;" x="52.844792" xlink:href="#m456db10260" y="242.377693"/>
      </g>
     </g>
     <g id="text_9">
      <!-- $\mathregular{0.0}$ -->
      <g transform="translate(25.344792 248.076521)scale(0.15 -0.15)">
       <defs>
        <path d="M 684 794 
L 1344 794 
L 1344 0 
L 684 0 
L 684 794 
z
" id="DejaVuSans-2e" transform="scale(0.015625)"/>
       </defs>
       <use transform="translate(0 0.78125)" xlink:href="#DejaVuSans-30"/>
       <use transform="translate(63.623047 0.78125)" xlink:href="#DejaVuSans-2e"/>
       <use transform="translate(95.410156 0.78125)" xlink:href="#DejaVuSans-30"/>
      </g>
     </g>
    </g>
    <g id="ytick_2">
     <g id="line2d_17">
      <path clip-path="url(#p2c92afc2ff)" d="M 52.844792 203.993213 
L 429.165354 203.993213 
" style="fill:none;stroke:#000000;stroke-linecap:square;stroke-opacity:0.1;stroke-width:0.5;"/>
     </g>
     <g id="line2d_18">
      <g>
       <use style="stroke:#000000;stroke-width:0.5;" x="52.844792" xlink:href="#m456db10260" y="203.993213"/>
      </g>
     </g>
     <g id="text_10">
      <!-- $\mathregular{0.1}$ -->
      <g transform="translate(25.344792 209.692041)scale(0.15 -0.15)">
       <use transform="translate(0 0.78125)" xlink:href="#DejaVuSans-30"/>
       <use transform="translate(63.623047 0.78125)" xlink:href="#DejaVuSans-2e"/>
       <use transform="translate(95.410156 0.78125)" xlink:href="#DejaVuSans-31"/>
      </g>
     </g>
    </g>
    <g id="ytick_3">
     <g id="line2d_19">
      <path clip-path="url(#p2c92afc2ff)" d="M 52.844792 165.608733 
L 429.165354 165.608733 
" style="fill:none;stroke:#000000;stroke-linecap:square;stroke-opacity:0.1;stroke-width:0.5;"/>
     </g>
     <g id="line2d_20">
      <g>
       <use style="stroke:#000000;stroke-width:0.5;" x="52.844792" xlink:href="#m456db10260" y="165.608733"/>
      </g>
     </g>
     <g id="text_11">
      <!-- $\mathregular{0.2}$ -->
      <g transform="translate(26.244792 171.307561)scale(0.15 -0.15)">
       <defs>
        <path d="M 1228 531 
L 3431 531 
L 3431 0 
L 469 0 
L 469 531 
Q 828 903 1448 1529 
Q 2069 2156 2228 2338 
Q 2531 2678 2651 2914 
Q 2772 3150 2772 3378 
Q 2772 3750 2511 3984 
Q 2250 4219 1831 4219 
Q 1534 4219 1204 4116 
Q 875 4013 500 3803 
L 500 4441 
Q 881 4594 1212 4672 
Q 1544 4750 1819 4750 
Q 2544 4750 2975 4387 
Q 3406 4025 3406 3419 
Q 3406 3131 3298 2873 
Q 3191 2616 2906 2266 
Q 2828 2175 2409 1742 
Q 1991 1309 1228 531 
z
" id="DejaVuSans-32" transform="scale(0.015625)"/>
       </defs>
       <use transform="translate(0 0.78125)" xlink:href="#DejaVuSans-30"/>
       <use transform="translate(63.623047 0.78125)" xlink:href="#DejaVuSans-2e"/>
       <use transform="translate(89.910156 0.78125)" xlink:href="#DejaVuSans-32"/>
      </g>
     </g>
    </g>
    <g id="ytick_4">
     <g id="line2d_21">
      <path clip-path="url(#p2c92afc2ff)" d="M 52.844792 127.224253 
L 429.165354 127.224253 
" style="fill:none;stroke:#000000;stroke-linecap:square;stroke-opacity:0.1;stroke-width:0.5;"/>
     </g>
     <g id="line2d_22">
      <g>
       <use style="stroke:#000000;stroke-width:0.5;" x="52.844792" xlink:href="#m456db10260" y="127.224253"/>
      </g>
     </g>
     <g id="text_12">
      <!-- $\mathregular{0.3}$ -->
      <g transform="translate(25.344792 132.923081)scale(0.15 -0.15)">
       <defs>
        <path d="M 2597 2516 
Q 3050 2419 3304 2112 
Q 3559 1806 3559 1356 
Q 3559 666 3084 287 
Q 2609 -91 1734 -91 
Q 1441 -91 1130 -33 
Q 819 25 488 141 
L 488 750 
Q 750 597 1062 519 
Q 1375 441 1716 441 
Q 2309 441 2620 675 
Q 2931 909 2931 1356 
Q 2931 1769 2642 2001 
Q 2353 2234 1838 2234 
L 1294 2234 
L 1294 2753 
L 1863 2753 
Q 2328 2753 2575 2939 
Q 2822 3125 2822 3475 
Q 2822 3834 2567 4026 
Q 2313 4219 1838 4219 
Q 1578 4219 1281 4162 
Q 984 4106 628 3988 
L 628 4550 
Q 988 4650 1302 4700 
Q 1616 4750 1894 4750 
Q 2613 4750 3031 4423 
Q 3450 4097 3450 3541 
Q 3450 3153 3228 2886 
Q 3006 2619 2597 2516 
z
" id="DejaVuSans-33" transform="scale(0.015625)"/>
       </defs>
       <use transform="translate(0 0.78125)" xlink:href="#DejaVuSans-30"/>
       <use transform="translate(63.623047 0.78125)" xlink:href="#DejaVuSans-2e"/>
       <use transform="translate(95.410156 0.78125)" xlink:href="#DejaVuSans-33"/>
      </g>
     </g>
    </g>
    <g id="ytick_5">
     <g id="line2d_23">
      <path clip-path="url(#p2c92afc2ff)" d="M 52.844792 88.839773 
L 429.165354 88.839773 
" style="fill:none;stroke:#000000;stroke-linecap:square;stroke-opacity:0.1;stroke-width:0.5;"/>
     </g>
     <g id="line2d_24">
      <g>
       <use style="stroke:#000000;stroke-width:0.5;" x="52.844792" xlink:href="#m456db10260" y="88.839773"/>
      </g>
     </g>
     <g id="text_13">
      <!-- $\mathregular{0.4}$ -->
      <g transform="translate(25.344792 94.538601)scale(0.15 -0.15)">
       <defs>
        <path d="M 2419 4116 
L 825 1625 
L 2419 1625 
L 2419 4116 
z
M 2253 4666 
L 3047 4666 
L 3047 1625 
L 3713 1625 
L 3713 1100 
L 3047 1100 
L 3047 0 
L 2419 0 
L 2419 1100 
L 313 1100 
L 313 1709 
L 2253 4666 
z
" id="DejaVuSans-34" transform="scale(0.015625)"/>
       </defs>
       <use transform="translate(0 0.78125)" xlink:href="#DejaVuSans-30"/>
       <use transform="translate(63.623047 0.78125)" xlink:href="#DejaVuSans-2e"/>
       <use transform="translate(95.410156 0.78125)" xlink:href="#DejaVuSans-34"/>
      </g>
     </g>
    </g>
    <g id="ytick_6">
     <g id="line2d_25">
      <path clip-path="url(#p2c92afc2ff)" d="M 52.844792 50.455294 
L 429.165354 50.455294 
" style="fill:none;stroke:#000000;stroke-linecap:square;stroke-opacity:0.1;stroke-width:0.5;"/>
     </g>
     <g id="line2d_26">
      <g>
       <use style="stroke:#000000;stroke-width:0.5;" x="52.844792" xlink:href="#m456db10260" y="50.455294"/>
      </g>
     </g>
     <g id="text_14">
      <!-- $\mathregular{0.5}$ -->
      <g transform="translate(25.344792 56.154122)scale(0.15 -0.15)">
       <use transform="translate(0 0.78125)" xlink:href="#DejaVuSans-30"/>
       <use transform="translate(63.623047 0.78125)" xlink:href="#DejaVuSans-2e"/>
       <use transform="translate(95.410156 0.78125)" xlink:href="#DejaVuSans-35"/>
      </g>
     </g>
    </g>
    <g id="text_15">
     <!-- $p_\lambda(x|y)$ -->
     <g transform="translate(17.744792 159.6)rotate(-90)scale(0.15 -0.15)">
      <defs>
       <path d="M 3175 2156 
Q 3175 2616 2975 2859 
Q 2775 3103 2400 3103 
Q 2144 3103 1911 2972 
Q 1678 2841 1497 2591 
Q 1319 2344 1212 1994 
Q 1106 1644 1106 1300 
Q 1106 863 1306 627 
Q 1506 391 1875 391 
Q 2147 391 2380 519 
Q 2613 647 2778 891 
Q 2956 1147 3065 1494 
Q 3175 1841 3175 2156 
z
M 1394 2969 
Q 1625 3272 1939 3428 
Q 2253 3584 2638 3584 
Q 3175 3584 3472 3232 
Q 3769 2881 3769 2247 
Q 3769 1728 3584 1258 
Q 3400 788 3053 416 
Q 2822 169 2531 39 
Q 2241 -91 1919 -91 
Q 1547 -91 1294 64 
Q 1041 219 916 525 
L 556 -1331 
L -19 -1331 
L 922 3500 
L 1497 3500 
L 1394 2969 
z
" id="DejaVuSans-Oblique-70" transform="scale(0.015625)"/>
       <path d="M 2350 4316 
L 3125 0 
L 2516 0 
L 2038 2588 
L 328 0 
L -281 0 
L 1903 3356 
L 1794 3975 
Q 1725 4369 1391 4369 
L 1091 4369 
L 1184 4863 
L 1550 4856 
Q 2253 4847 2350 4316 
z
" id="DejaVuSans-Oblique-3bb" transform="scale(0.015625)"/>
       <path d="M 1984 4856 
Q 1566 4138 1362 3434 
Q 1159 2731 1159 2009 
Q 1159 1288 1364 580 
Q 1569 -128 1984 -844 
L 1484 -844 
Q 1016 -109 783 600 
Q 550 1309 550 2009 
Q 550 2706 781 3412 
Q 1013 4119 1484 4856 
L 1984 4856 
z
" id="DejaVuSans-28" transform="scale(0.015625)"/>
       <path d="M 3841 3500 
L 2234 1784 
L 3219 0 
L 2559 0 
L 1819 1388 
L 531 0 
L -166 0 
L 1556 1844 
L 641 3500 
L 1300 3500 
L 1972 2234 
L 3144 3500 
L 3841 3500 
z
" id="DejaVuSans-Oblique-78" transform="scale(0.015625)"/>
       <path d="M 1344 4891 
L 1344 -1509 
L 813 -1509 
L 813 4891 
L 1344 4891 
z
" id="DejaVuSans-7c" transform="scale(0.015625)"/>
       <path d="M 1588 -325 
Q 1188 -997 936 -1164 
Q 684 -1331 294 -1331 
L -159 -1331 
L -63 -850 
L 269 -850 
Q 509 -850 678 -719 
Q 847 -588 1056 -206 
L 1234 128 
L 459 3500 
L 1069 3500 
L 1650 819 
L 3256 3500 
L 3859 3500 
L 1588 -325 
z
" id="DejaVuSans-Oblique-79" transform="scale(0.015625)"/>
       <path d="M 513 4856 
L 1013 4856 
Q 1481 4119 1714 3412 
Q 1947 2706 1947 2009 
Q 1947 1309 1714 600 
Q 1481 -109 1013 -844 
L 513 -844 
Q 928 -128 1133 580 
Q 1338 1288 1338 2009 
Q 1338 2731 1133 3434 
Q 928 4138 513 4856 
z
" id="DejaVuSans-29" transform="scale(0.015625)"/>
      </defs>
      <use transform="translate(0 0.578125)" xlink:href="#DejaVuSans-Oblique-70"/>
      <use transform="translate(63.476562 -15.828125)scale(0.7)" xlink:href="#DejaVuSans-Oblique-3bb"/>
      <use transform="translate(107.636719 0.578125)" xlink:href="#DejaVuSans-28"/>
      <use transform="translate(146.650391 0.578125)" xlink:href="#DejaVuSans-Oblique-78"/>
      <use transform="translate(205.830078 0.578125)" xlink:href="#DejaVuSans-7c"/>
      <use transform="translate(239.521484 0.578125)" xlink:href="#DejaVuSans-Oblique-79"/>
      <use transform="translate(298.701172 0.578125)" xlink:href="#DejaVuSans-29"/>
     </g>
    </g>
   </g>
   <g id="line2d_27">
    <path clip-path="url(#p2c92afc2ff)" d="M 63.495374 242.377693 
L 313.521567 242.292734 
L 317.080659 242.117479 
L 319.749977 241.809961 
L 321.529523 241.449276 
L 323.309069 240.893392 
L 325.088615 240.057735 
L 326.868161 238.832681 
L 327.757934 238.032554 
L 328.647707 237.081857 
L 329.53748 235.959538 
L 330.427253 234.643221 
L 331.317025 233.109479 
L 332.206798 231.334206 
L 333.096571 229.29307 
L 333.986344 226.962071 
L 335.76589 221.340139 
L 337.545436 214.309869 
L 339.324982 205.767536 
L 341.104528 195.693079 
L 342.884074 184.177385 
L 345.553392 164.728169 
L 350.89203 123.72535 
L 352.671576 111.756347 
L 354.451122 101.795172 
L 355.340894 97.764751 
L 356.230667 94.457376 
L 357.12044 91.927299 
L 358.010213 90.216584 
L 358.899986 89.353947 
L 359.789759 89.353947 
L 360.679532 90.216584 
L 361.569305 91.927299 
L 362.459078 94.457376 
L 363.348851 97.764751 
L 364.238624 101.795172 
L 366.01817 111.756347 
L 367.797715 123.72535 
L 370.467034 143.918605 
L 374.915899 177.943219 
L 376.695445 190.104731 
L 378.474991 200.919032 
L 380.254536 210.231263 
L 382.034082 218.009149 
L 383.813628 224.318193 
L 385.593174 229.29307 
L 387.37272 233.109479 
L 389.152266 235.959538 
L 390.931812 238.032554 
L 392.711357 239.501775 
L 394.490903 240.516769 
L 396.270449 241.200466 
L 398.049995 241.649627 
L 400.719314 242.038284 
L 404.278406 242.264343 
L 410.506816 242.364315 
L 418.514772 242.377122 
L 418.514772 242.377122 
" style="fill:none;stroke:#009afa;stroke-width:2;"/>
   </g>
   <g id="line2d_28">
    <path clip-path="url(#p2c92afc2ff)" d="M 63.495374 242.377693 
L 285.938606 242.272573 
L 289.497698 242.024808 
L 292.167017 241.562687 
L 293.946562 241.001178 
L 295.726108 240.115049 
L 296.615881 239.506154 
L 297.505654 238.75804 
L 298.395427 237.84587 
L 299.2852 236.742188 
L 300.174973 235.417096 
L 301.064746 233.838558 
L 301.954519 231.972859 
L 302.844292 229.785244 
L 303.734065 227.24072 
L 304.623838 224.30505 
L 305.513611 220.945919 
L 307.293156 212.845724 
L 309.072702 202.773434 
L 310.852248 190.687688 
L 312.631794 176.719874 
L 315.301113 153.045134 
L 319.749977 112.073626 
L 321.529523 97.862387 
L 322.419296 91.726532 
L 323.309069 86.391945 
L 324.198842 81.96041 
L 325.088615 78.518356 
L 325.978388 76.134057 
L 326.868161 74.855378 
L 327.757934 74.708181 
L 328.647707 75.69545 
L 329.53748 77.797196 
L 330.427253 80.971125 
L 331.317025 85.154056 
L 332.206798 90.264013 
L 333.986344 102.859598 
L 335.76589 117.837939 
L 342.884074 182.098164 
L 344.663619 195.396579 
L 346.443165 206.741446 
L 348.222711 216.070421 
L 350.002257 223.477124 
L 350.89203 226.519449 
L 351.781803 229.162025 
L 352.671576 231.43871 
L 353.561349 233.384403 
L 354.451122 235.034008 
L 355.340894 236.421576 
L 356.230667 237.579626 
L 357.12044 238.538649 
L 358.899986 239.969462 
L 360.679532 240.907452 
L 362.459078 241.504131 
L 364.238624 241.87255 
L 366.907943 242.166588 
L 371.356807 242.334635 
L 382.034082 242.377218 
L 418.514772 242.377693 
L 418.514772 242.377693 
" style="fill:none;stroke:#e36f47;stroke-width:2;"/>
   </g>
   <g id="patch_3">
    <path d="M 52.844792 248.865354 
L 52.844792 19.634646 
" style="fill:none;stroke:#000000;stroke-linecap:square;stroke-linejoin:miter;"/>
   </g>
   <g id="patch_4">
    <path d="M 52.844792 248.865354 
L 429.165354 248.865354 
" style="fill:none;stroke:#000000;stroke-linecap:square;stroke-linejoin:miter;"/>
   </g>
   <g id="line2d_29">
    <path clip-path="url(#p2c92afc2ff)" d="M 63.495374 242.377693 
L 261.914737 242.290705 
L 265.473829 242.049498 
L 267.253375 241.769773 
L 269.03292 241.286726 
L 270.812466 240.480863 
L 271.702239 239.906078 
L 272.592012 239.182508 
L 273.481785 238.279673 
L 274.371558 237.163167 
L 275.261331 235.794777 
L 276.151104 234.132807 
L 277.040877 232.132652 
L 277.93065 229.747629 
L 278.820423 226.930124 
L 279.710196 223.633035 
L 280.599969 219.811534 
L 281.489741 215.4251 
L 283.269287 204.830745 
L 285.048833 191.701987 
L 286.828379 176.113939 
L 288.607925 158.43105 
L 294.836335 92.659008 
L 296.615881 77.890121 
L 297.505654 72.002726 
L 298.395427 67.295796 
L 299.2852 63.877179 
L 300.174973 61.826458 
L 301.064746 61.191867 
L 301.954519 61.988405 
L 302.844292 64.197249 
L 303.734065 67.766494 
L 304.623838 72.613178 
L 305.513611 78.626487 
L 307.293156 93.596518 
L 309.072702 111.410497 
L 315.301113 177.058536 
L 317.080659 192.513946 
L 318.860204 205.498593 
L 320.63975 215.951976 
L 321.529523 220.272508 
L 322.419296 224.032414 
L 323.309069 227.272815 
L 324.198842 230.038893 
L 325.088615 232.377892 
L 325.978388 234.337387 
L 326.868161 235.963876 
L 327.757934 237.301673 
L 328.647707 238.392101 
L 329.53748 239.272954 
L 330.427253 239.978196 
L 332.206798 240.97811 
L 333.986344 241.586781 
L 335.76589 241.944672 
L 338.435209 242.212382 
L 342.884074 242.349344 
L 356.230667 242.377649 
L 418.514772 242.377693 
L 418.514772 242.377693 
" style="fill:none;stroke:#3ea44e;stroke-width:2;"/>
   </g>
   <g id="text_16">
    <!-- Power Posteriors -->
    <g transform="translate(183.042886 13.634646)scale(0.14 -0.14)">
     <defs>
      <path d="M 1259 4147 
L 1259 2394 
L 2053 2394 
Q 2494 2394 2734 2622 
Q 2975 2850 2975 3272 
Q 2975 3691 2734 3919 
Q 2494 4147 2053 4147 
L 1259 4147 
z
M 628 4666 
L 2053 4666 
Q 2838 4666 3239 4311 
Q 3641 3956 3641 3272 
Q 3641 2581 3239 2228 
Q 2838 1875 2053 1875 
L 1259 1875 
L 1259 0 
L 628 0 
L 628 4666 
z
" id="DejaVuSans-50" transform="scale(0.015625)"/>
      <path d="M 1959 3097 
Q 1497 3097 1228 2736 
Q 959 2375 959 1747 
Q 959 1119 1226 758 
Q 1494 397 1959 397 
Q 2419 397 2687 759 
Q 2956 1122 2956 1747 
Q 2956 2369 2687 2733 
Q 2419 3097 1959 3097 
z
M 1959 3584 
Q 2709 3584 3137 3096 
Q 3566 2609 3566 1747 
Q 3566 888 3137 398 
Q 2709 -91 1959 -91 
Q 1206 -91 779 398 
Q 353 888 353 1747 
Q 353 2609 779 3096 
Q 1206 3584 1959 3584 
z
" id="DejaVuSans-6f" transform="scale(0.015625)"/>
      <path d="M 269 3500 
L 844 3500 
L 1563 769 
L 2278 3500 
L 2956 3500 
L 3675 769 
L 4391 3500 
L 4966 3500 
L 4050 0 
L 3372 0 
L 2619 2869 
L 1863 0 
L 1184 0 
L 269 3500 
z
" id="DejaVuSans-77" transform="scale(0.015625)"/>
      <path d="M 3597 1894 
L 3597 1613 
L 953 1613 
Q 991 1019 1311 708 
Q 1631 397 2203 397 
Q 2534 397 2845 478 
Q 3156 559 3463 722 
L 3463 178 
Q 3153 47 2828 -22 
Q 2503 -91 2169 -91 
Q 1331 -91 842 396 
Q 353 884 353 1716 
Q 353 2575 817 3079 
Q 1281 3584 2069 3584 
Q 2775 3584 3186 3129 
Q 3597 2675 3597 1894 
z
M 3022 2063 
Q 3016 2534 2758 2815 
Q 2500 3097 2075 3097 
Q 1594 3097 1305 2825 
Q 1016 2553 972 2059 
L 3022 2063 
z
" id="DejaVuSans-65" transform="scale(0.015625)"/>
      <path d="M 2631 2963 
Q 2534 3019 2420 3045 
Q 2306 3072 2169 3072 
Q 1681 3072 1420 2755 
Q 1159 2438 1159 1844 
L 1159 0 
L 581 0 
L 581 3500 
L 1159 3500 
L 1159 2956 
Q 1341 3275 1631 3429 
Q 1922 3584 2338 3584 
Q 2397 3584 2469 3576 
Q 2541 3569 2628 3553 
L 2631 2963 
z
" id="DejaVuSans-72" transform="scale(0.015625)"/>
      <path id="DejaVuSans-20" transform="scale(0.015625)"/>
      <path d="M 2834 3397 
L 2834 2853 
Q 2591 2978 2328 3040 
Q 2066 3103 1784 3103 
Q 1356 3103 1142 2972 
Q 928 2841 928 2578 
Q 928 2378 1081 2264 
Q 1234 2150 1697 2047 
L 1894 2003 
Q 2506 1872 2764 1633 
Q 3022 1394 3022 966 
Q 3022 478 2636 193 
Q 2250 -91 1575 -91 
Q 1294 -91 989 -36 
Q 684 19 347 128 
L 347 722 
Q 666 556 975 473 
Q 1284 391 1588 391 
Q 1994 391 2212 530 
Q 2431 669 2431 922 
Q 2431 1156 2273 1281 
Q 2116 1406 1581 1522 
L 1381 1569 
Q 847 1681 609 1914 
Q 372 2147 372 2553 
Q 372 3047 722 3315 
Q 1072 3584 1716 3584 
Q 2034 3584 2315 3537 
Q 2597 3491 2834 3397 
z
" id="DejaVuSans-73" transform="scale(0.015625)"/>
      <path d="M 1172 4494 
L 1172 3500 
L 2356 3500 
L 2356 3053 
L 1172 3053 
L 1172 1153 
Q 1172 725 1289 603 
Q 1406 481 1766 481 
L 2356 481 
L 2356 0 
L 1766 0 
Q 1100 0 847 248 
Q 594 497 594 1153 
L 594 3053 
L 172 3053 
L 172 3500 
L 594 3500 
L 594 4494 
L 1172 4494 
z
" id="DejaVuSans-74" transform="scale(0.015625)"/>
      <path d="M 603 3500 
L 1178 3500 
L 1178 0 
L 603 0 
L 603 3500 
z
M 603 4863 
L 1178 4863 
L 1178 4134 
L 603 4134 
L 603 4863 
z
" id="DejaVuSans-69" transform="scale(0.015625)"/>
     </defs>
     <use xlink:href="#DejaVuSans-50"/>
     <use x="56.677734" xlink:href="#DejaVuSans-6f"/>
     <use x="117.859375" xlink:href="#DejaVuSans-77"/>
     <use x="199.646484" xlink:href="#DejaVuSans-65"/>
     <use x="261.169922" xlink:href="#DejaVuSans-72"/>
     <use x="302.283203" xlink:href="#DejaVuSans-20"/>
     <use x="334.070312" xlink:href="#DejaVuSans-50"/>
     <use x="390.748047" xlink:href="#DejaVuSans-6f"/>
     <use x="451.929688" xlink:href="#DejaVuSans-73"/>
     <use x="504.029297" xlink:href="#DejaVuSans-74"/>
     <use x="543.238281" xlink:href="#DejaVuSans-65"/>
     <use x="604.761719" xlink:href="#DejaVuSans-72"/>
     <use x="645.875" xlink:href="#DejaVuSans-69"/>
     <use x="673.658203" xlink:href="#DejaVuSans-6f"/>
     <use x="734.839844" xlink:href="#DejaVuSans-72"/>
     <use x="775.953125" xlink:href="#DejaVuSans-73"/>
    </g>
   </g>
   <g id="line2d_30">
    <path clip-path="url(#p2c92afc2ff)" d="M 63.495374 242.377693 
L 241.44996 242.29919 
L 245.009051 242.049243 
L 246.788597 241.741351 
L 248.568143 241.188646 
L 249.457916 240.774223 
L 250.347689 240.23483 
L 251.237462 239.539776 
L 252.127235 238.653119 
L 253.017008 237.533456 
L 253.906781 236.133938 
L 254.796554 234.402558 
L 255.686327 232.282794 
L 256.576099 229.714663 
L 257.465872 226.636232 
L 258.355645 222.985624 
L 259.245418 218.703509 
L 260.135191 213.73607 
L 261.024964 208.038352 
L 262.80451 194.338487 
L 264.584056 177.561038 
L 266.363602 158.031723 
L 269.03292 125.382256 
L 271.702239 92.781995 
L 273.481785 73.937955 
L 274.371558 66.052291 
L 275.261331 59.459483 
L 276.151104 54.328821 
L 277.040877 50.795007 
L 277.93065 48.952288 
L 278.820423 48.850274 
L 279.710196 50.49172 
L 280.599969 53.832405 
L 281.489741 58.783106 
L 282.379514 65.213564 
L 283.269287 72.958173 
L 285.048833 91.594146 
L 287.718152 124.079608 
L 290.387471 156.822364 
L 292.167017 176.492882 
L 293.946562 193.443721 
L 295.726108 207.324905 
L 296.615881 213.110154 
L 297.505654 218.160623 
L 298.395427 222.520004 
L 299.2852 226.241259 
L 300.174973 229.383236 
L 301.064746 232.007653 
L 301.954519 234.176548 
L 302.844292 235.95022 
L 303.734065 237.385656 
L 304.623838 238.53543 
L 305.513611 239.447016 
L 306.403383 240.162453 
L 308.182929 241.14589 
L 309.962475 241.717077 
L 311.742021 242.035994 
L 314.41134 242.258918 
L 318.860204 242.36066 
L 338.435209 242.377693 
L 418.514772 242.377693 
L 418.514772 242.377693 
" style="fill:none;stroke:#c371d2;stroke-width:2;"/>
   </g>
   <g id="line2d_31">
    <path clip-path="url(#p2c92afc2ff)" d="M 63.495374 242.377693 
L 223.654501 242.299111 
L 226.32382 242.128337 
L 228.103366 241.865944 
L 229.882912 241.369332 
L 230.772685 240.98368 
L 231.662457 240.470045 
L 232.55223 239.793586 
L 233.442003 238.912693 
L 234.331776 237.778552 
L 235.221549 236.334994 
L 236.111322 234.518718 
L 237.001095 232.259999 
L 237.890868 229.483984 
L 238.780641 226.112662 
L 239.670414 222.067567 
L 240.560187 217.273224 
L 241.44996 211.661303 
L 242.339733 205.175376 
L 244.119278 189.446493 
L 245.898824 170.071368 
L 247.67837 147.543787 
L 253.017008 74.782151 
L 253.906781 64.545092 
L 254.796554 55.593122 
L 255.686327 48.176757 
L 256.576099 42.510122 
L 257.465872 38.760685 
L 258.355645 37.041045 
L 259.245418 37.403311 
L 260.135191 39.836483 
L 261.024964 44.267001 
L 261.914737 50.562444 
L 262.80451 58.538102 
L 263.694283 67.965976 
L 265.473829 90.115884 
L 271.702239 173.680869 
L 273.481785 192.442748 
L 275.261331 207.528294 
L 276.151104 213.705448 
L 277.040877 219.026514 
L 277.93065 223.552623 
L 278.820423 227.355093 
L 279.710196 230.510874 
L 280.599969 233.098628 
L 281.489741 235.195537 
L 282.379514 236.874862 
L 283.269287 238.204215 
L 284.15906 239.244473 
L 285.048833 240.049257 
L 285.938606 240.664847 
L 287.718152 241.478674 
L 289.497698 241.924647 
L 292.167017 242.227532 
L 296.615881 242.358245 
L 312.631794 242.377691 
L 418.514772 242.377693 
L 418.514772 242.377693 
" style="fill:none;stroke:#ac8e18;stroke-width:2;"/>
   </g>
   <g id="line2d_32">
    <path clip-path="url(#p2c92afc2ff)" d="M 63.495374 242.377693 
L 207.638588 242.301309 
L 210.307907 242.118682 
L 212.087453 241.82522 
L 213.866999 241.251373 
L 214.756772 240.796548 
L 215.646545 240.183012 
L 216.536318 239.365653 
L 217.426091 238.290362 
L 218.315864 236.893554 
L 219.205637 235.102127 
L 220.095409 232.834037 
L 220.985182 229.999636 
L 221.874955 226.503933 
L 222.764728 222.249869 
L 223.654501 217.142682 
L 224.544274 211.095309 
L 225.434047 204.034714 
L 226.32382 195.908886 
L 228.103366 176.402317 
L 229.882912 152.84928 
L 232.55223 112.360164 
L 235.221549 71.828401 
L 237.001095 49.241533 
L 237.890868 40.306256 
L 238.780641 33.334548 
L 239.670414 28.55362 
L 240.560187 26.122307 
L 241.44996 26.122307 
L 242.339733 28.55362 
L 243.229506 33.334548 
L 244.119278 40.306256 
L 245.009051 49.241533 
L 245.898824 59.857078 
L 247.67837 84.806224 
L 253.017008 165.087116 
L 254.796554 186.694149 
L 256.576099 204.034714 
L 257.465872 211.095309 
L 258.355645 217.142682 
L 259.245418 222.249869 
L 260.135191 226.503933 
L 261.024964 229.999636 
L 261.914737 232.834037 
L 262.80451 235.102127 
L 263.694283 236.893554 
L 264.584056 238.290362 
L 265.473829 239.365653 
L 266.363602 240.183012 
L 267.253375 240.796548 
L 269.03292 241.584386 
L 270.812466 241.997267 
L 273.481785 242.261632 
L 277.93065 242.364894 
L 300.174973 242.377693 
L 418.514772 242.377693 
L 418.514772 242.377693 
" style="fill:none;stroke:#00aaae;stroke-width:2;"/>
   </g>
   <g id="legend_1">
    <g id="patch_5">
     <path d="M 300.828636 175.737771 
L 421.665354 175.737771 
L 421.665354 27.134646 
L 300.828636 27.134646 
z
" style="fill:#ffffff;stroke:#000000;stroke-linejoin:miter;"/>
    </g>
    <g id="line2d_33">
     <path d="M 312.828636 45.282302 
L 342.828636 45.282302 
" style="fill:none;stroke:#009afa;stroke-linejoin:miter;stroke-width:1.875;"/>
    </g>
    <g id="line2d_34"/>
    <g id="text_17">
     <!-- λ = 0.0 -->
     <g transform="translate(354.828636 50.532302)scale(0.15 -0.15)">
      <defs>
       <path d="M 1981 4316 
L 3597 0 
L 2988 0 
L 2006 2588 
L 800 0 
L 191 0 
L 1725 3356 
L 1494 3975 
Q 1347 4369 1013 4369 
L 713 4369 
L 713 4863 
L 1078 4856 
Q 1784 4847 1981 4316 
z
" id="DejaVuSans-3bb" transform="scale(0.015625)"/>
       <path d="M 678 2906 
L 4684 2906 
L 4684 2381 
L 678 2381 
L 678 2906 
z
M 678 1631 
L 4684 1631 
L 4684 1100 
L 678 1100 
L 678 1631 
z
" id="DejaVuSans-3d" transform="scale(0.015625)"/>
      </defs>
      <use xlink:href="#DejaVuSans-3bb"/>
      <use x="59.179688" xlink:href="#DejaVuSans-20"/>
      <use x="90.966797" xlink:href="#DejaVuSans-3d"/>
      <use x="174.755859" xlink:href="#DejaVuSans-20"/>
      <use x="206.542969" xlink:href="#DejaVuSans-30"/>
      <use x="270.166016" xlink:href="#DejaVuSans-2e"/>
      <use x="301.953125" xlink:href="#DejaVuSans-30"/>
     </g>
    </g>
    <g id="line2d_35">
     <path d="M 312.828636 67.299489 
L 342.828636 67.299489 
" style="fill:none;stroke:#e36f47;stroke-linejoin:miter;stroke-width:1.875;"/>
    </g>
    <g id="line2d_36"/>
    <g id="text_18">
     <!-- λ = 0.2 -->
     <g transform="translate(354.828636 72.549489)scale(0.15 -0.15)">
      <use xlink:href="#DejaVuSans-3bb"/>
      <use x="59.179688" xlink:href="#DejaVuSans-20"/>
      <use x="90.966797" xlink:href="#DejaVuSans-3d"/>
      <use x="174.755859" xlink:href="#DejaVuSans-20"/>
      <use x="206.542969" xlink:href="#DejaVuSans-30"/>
      <use x="270.166016" xlink:href="#DejaVuSans-2e"/>
      <use x="301.953125" xlink:href="#DejaVuSans-32"/>
     </g>
    </g>
    <g id="line2d_37">
     <path d="M 312.828636 89.316677 
L 342.828636 89.316677 
" style="fill:none;stroke:#3ea44e;stroke-linejoin:miter;stroke-width:1.875;"/>
    </g>
    <g id="line2d_38"/>
    <g id="text_19">
     <!-- λ = 0.4 -->
     <g transform="translate(354.828636 94.566677)scale(0.15 -0.15)">
      <use xlink:href="#DejaVuSans-3bb"/>
      <use x="59.179688" xlink:href="#DejaVuSans-20"/>
      <use x="90.966797" xlink:href="#DejaVuSans-3d"/>
      <use x="174.755859" xlink:href="#DejaVuSans-20"/>
      <use x="206.542969" xlink:href="#DejaVuSans-30"/>
      <use x="270.166016" xlink:href="#DejaVuSans-2e"/>
      <use x="301.953125" xlink:href="#DejaVuSans-34"/>
     </g>
    </g>
    <g id="line2d_39">
     <path d="M 312.828636 111.333864 
L 342.828636 111.333864 
" style="fill:none;stroke:#c371d2;stroke-linejoin:miter;stroke-width:1.875;"/>
    </g>
    <g id="line2d_40"/>
    <g id="text_20">
     <!-- λ = 0.6 -->
     <g transform="translate(354.828636 116.583864)scale(0.15 -0.15)">
      <defs>
       <path d="M 2113 2584 
Q 1688 2584 1439 2293 
Q 1191 2003 1191 1497 
Q 1191 994 1439 701 
Q 1688 409 2113 409 
Q 2538 409 2786 701 
Q 3034 994 3034 1497 
Q 3034 2003 2786 2293 
Q 2538 2584 2113 2584 
z
M 3366 4563 
L 3366 3988 
Q 3128 4100 2886 4159 
Q 2644 4219 2406 4219 
Q 1781 4219 1451 3797 
Q 1122 3375 1075 2522 
Q 1259 2794 1537 2939 
Q 1816 3084 2150 3084 
Q 2853 3084 3261 2657 
Q 3669 2231 3669 1497 
Q 3669 778 3244 343 
Q 2819 -91 2113 -91 
Q 1303 -91 875 529 
Q 447 1150 447 2328 
Q 447 3434 972 4092 
Q 1497 4750 2381 4750 
Q 2619 4750 2861 4703 
Q 3103 4656 3366 4563 
z
" id="DejaVuSans-36" transform="scale(0.015625)"/>
      </defs>
      <use xlink:href="#DejaVuSans-3bb"/>
      <use x="59.179688" xlink:href="#DejaVuSans-20"/>
      <use x="90.966797" xlink:href="#DejaVuSans-3d"/>
      <use x="174.755859" xlink:href="#DejaVuSans-20"/>
      <use x="206.542969" xlink:href="#DejaVuSans-30"/>
      <use x="270.166016" xlink:href="#DejaVuSans-2e"/>
      <use x="301.953125" xlink:href="#DejaVuSans-36"/>
     </g>
    </g>
    <g id="line2d_41">
     <path d="M 312.828636 133.351052 
L 342.828636 133.351052 
" style="fill:none;stroke:#ac8e18;stroke-linejoin:miter;stroke-width:1.875;"/>
    </g>
    <g id="line2d_42"/>
    <g id="text_21">
     <!-- λ = 0.8 -->
     <g transform="translate(354.828636 138.601052)scale(0.15 -0.15)">
      <defs>
       <path d="M 2034 2216 
Q 1584 2216 1326 1975 
Q 1069 1734 1069 1313 
Q 1069 891 1326 650 
Q 1584 409 2034 409 
Q 2484 409 2743 651 
Q 3003 894 3003 1313 
Q 3003 1734 2745 1975 
Q 2488 2216 2034 2216 
z
M 1403 2484 
Q 997 2584 770 2862 
Q 544 3141 544 3541 
Q 544 4100 942 4425 
Q 1341 4750 2034 4750 
Q 2731 4750 3128 4425 
Q 3525 4100 3525 3541 
Q 3525 3141 3298 2862 
Q 3072 2584 2669 2484 
Q 3125 2378 3379 2068 
Q 3634 1759 3634 1313 
Q 3634 634 3220 271 
Q 2806 -91 2034 -91 
Q 1263 -91 848 271 
Q 434 634 434 1313 
Q 434 1759 690 2068 
Q 947 2378 1403 2484 
z
M 1172 3481 
Q 1172 3119 1398 2916 
Q 1625 2713 2034 2713 
Q 2441 2713 2670 2916 
Q 2900 3119 2900 3481 
Q 2900 3844 2670 4047 
Q 2441 4250 2034 4250 
Q 1625 4250 1398 4047 
Q 1172 3844 1172 3481 
z
" id="DejaVuSans-38" transform="scale(0.015625)"/>
      </defs>
      <use xlink:href="#DejaVuSans-3bb"/>
      <use x="59.179688" xlink:href="#DejaVuSans-20"/>
      <use x="90.966797" xlink:href="#DejaVuSans-3d"/>
      <use x="174.755859" xlink:href="#DejaVuSans-20"/>
      <use x="206.542969" xlink:href="#DejaVuSans-30"/>
      <use x="270.166016" xlink:href="#DejaVuSans-2e"/>
      <use x="301.953125" xlink:href="#DejaVuSans-38"/>
     </g>
    </g>
    <g id="line2d_43">
     <path d="M 312.828636 155.368239 
L 342.828636 155.368239 
" style="fill:none;stroke:#00aaae;stroke-linejoin:miter;stroke-width:1.875;"/>
    </g>
    <g id="line2d_44"/>
    <g id="text_22">
     <!-- λ = 1.0 -->
     <g transform="translate(354.828636 160.618239)scale(0.15 -0.15)">
      <use xlink:href="#DejaVuSans-3bb"/>
      <use x="59.179688" xlink:href="#DejaVuSans-20"/>
      <use x="90.966797" xlink:href="#DejaVuSans-3d"/>
      <use x="174.755859" xlink:href="#DejaVuSans-20"/>
      <use x="206.542969" xlink:href="#DejaVuSans-31"/>
      <use x="270.166016" xlink:href="#DejaVuSans-2e"/>
      <use x="301.953125" xlink:href="#DejaVuSans-30"/>
     </g>
    </g>
   </g>
  </g>
 </g>
 <defs>
  <clipPath id="p2c92afc2ff">
   <rect height="229.230709" width="376.320562" x="52.844792" y="19.634646"/>
  </clipPath>
 </defs>
</svg>
