<?xml version="1.0" encoding="utf-8" standalone="no"?>
<!DOCTYPE svg PUBLIC "-//W3C//DTD SVG 1.1//EN"
  "http://www.w3.org/Graphics/SVG/1.1/DTD/svg11.dtd">
<!-- Created with matplotlib (https://matplotlib.org/) -->
<svg height="288pt" version="1.1" viewBox="0 0 432 288" width="432pt" xmlns="http://www.w3.org/2000/svg" xmlns:xlink="http://www.w3.org/1999/xlink">
 <metadata>
  <rdf:RDF xmlns:cc="http://creativecommons.org/ns#" xmlns:dc="http://purl.org/dc/elements/1.1/" xmlns:rdf="http://www.w3.org/1999/02/22-rdf-syntax-ns#">
   <cc:Work>
    <dc:type rdf:resource="http://purl.org/dc/dcmitype/StillImage"/>
    <dc:date>2020-11-29T19:16:50.899501</dc:date>
    <dc:format>image/svg+xml</dc:format>
    <dc:creator>
     <cc:Agent>
      <dc:title>Matplotlib v3.3.3, https://matplotlib.org/</dc:title>
     </cc:Agent>
    </dc:creator>
   </cc:Work>
  </rdf:RDF>
 </metadata>
 <defs>
  <style type="text/css">*{stroke-linecap:butt;stroke-linejoin:round;}</style>
 </defs>
 <g id="figure_1">
  <g id="patch_1">
   <path d="M 0 288 
L 432 288 
L 432 0 
L 0 0 
z
" style="fill:#ffffff;"/>
  </g>
  <g id="axes_1">
   <g id="patch_2">
    <path d="M 52.844792 248.865354 
L 429.165354 248.865354 
L 429.165354 19.634646 
L 52.844792 19.634646 
z
" style="fill:#ffffff;"/>
   </g>
   <g id="matplotlib.axis_1">
    <g id="xtick_1">
     <g id="line2d_1">
      <path clip-path="url(#pf040b5a610)" d="M 63.495374 248.865354 
L 63.495374 19.634646 
" style="fill:none;stroke:#000000;stroke-linecap:square;stroke-opacity:0.1;stroke-width:0.5;"/>
     </g>
     <g id="line2d_2">
      <defs>
       <path d="M 0 0 
L 0 -2.5 
" id="m1194931501" style="stroke:#000000;stroke-width:0.5;"/>
      </defs>
      <g>
       <use style="stroke:#000000;stroke-width:0.5;" x="63.495374" xlink:href="#m1194931501" y="248.865354"/>
      </g>
     </g>
     <g id="text_1">
      <!-- $\mathregular{-15}$ -->
      <g transform="translate(47.595374 263.763011)scale(0.15 -0.15)">
       <defs>
        <path d="M 10.59375 35.5 
L 73.1875 35.5 
L 73.1875 27.203125 
L 10.59375 27.203125 
z
" id="DejaVuSans-8722"/>
        <path d="M 12.40625 8.296875 
L 28.515625 8.296875 
L 28.515625 63.921875 
L 10.984375 60.40625 
L 10.984375 69.390625 
L 28.421875 72.90625 
L 38.28125 72.90625 
L 38.28125 8.296875 
L 54.390625 8.296875 
L 54.390625 0 
L 12.40625 0 
z
" id="DejaVuSans-49"/>
        <path d="M 10.796875 72.90625 
L 49.515625 72.90625 
L 49.515625 64.59375 
L 19.828125 64.59375 
L 19.828125 46.734375 
Q 21.96875 47.46875 24.109375 47.828125 
Q 26.265625 48.1875 28.421875 48.1875 
Q 40.625 48.1875 47.75 41.5 
Q 54.890625 34.8125 54.890625 23.390625 
Q 54.890625 11.625 47.5625 5.09375 
Q 40.234375 -1.421875 26.90625 -1.421875 
Q 22.3125 -1.421875 17.546875 -0.640625 
Q 12.796875 0.140625 7.71875 1.703125 
L 7.71875 11.625 
Q 12.109375 9.234375 16.796875 8.0625 
Q 21.484375 6.890625 26.703125 6.890625 
Q 35.15625 6.890625 40.078125 11.328125 
Q 45.015625 15.765625 45.015625 23.390625 
Q 45.015625 31 40.078125 35.4375 
Q 35.15625 39.890625 26.703125 39.890625 
Q 22.75 39.890625 18.8125 39.015625 
Q 14.890625 38.140625 10.796875 36.28125 
z
" id="DejaVuSans-53"/>
       </defs>
       <use transform="translate(0 0.09375)" xlink:href="#DejaVuSans-8722"/>
       <use transform="translate(83.789062 0.09375)" xlink:href="#DejaVuSans-49"/>
       <use transform="translate(147.412109 0.09375)" xlink:href="#DejaVuSans-53"/>
      </g>
     </g>
    </g>
    <g id="xtick_2">
     <g id="line2d_3">
      <path clip-path="url(#pf040b5a610)" d="M 122.665274 248.865354 
L 122.665274 19.634646 
" style="fill:none;stroke:#000000;stroke-linecap:square;stroke-opacity:0.1;stroke-width:0.5;"/>
     </g>
     <g id="line2d_4">
      <g>
       <use style="stroke:#000000;stroke-width:0.5;" x="122.665274" xlink:href="#m1194931501" y="248.865354"/>
      </g>
     </g>
     <g id="text_2">
      <!-- $\mathregular{-10}$ -->
      <g transform="translate(106.765274 263.763011)scale(0.15 -0.15)">
       <defs>
        <path d="M 31.78125 66.40625 
Q 24.171875 66.40625 20.328125 58.90625 
Q 16.5 51.421875 16.5 36.375 
Q 16.5 21.390625 20.328125 13.890625 
Q 24.171875 6.390625 31.78125 6.390625 
Q 39.453125 6.390625 43.28125 13.890625 
Q 47.125 21.390625 47.125 36.375 
Q 47.125 51.421875 43.28125 58.90625 
Q 39.453125 66.40625 31.78125 66.40625 
z
M 31.78125 74.21875 
Q 44.046875 74.21875 50.515625 64.515625 
Q 56.984375 54.828125 56.984375 36.375 
Q 56.984375 17.96875 50.515625 8.265625 
Q 44.046875 -1.421875 31.78125 -1.421875 
Q 19.53125 -1.421875 13.0625 8.265625 
Q 6.59375 17.96875 6.59375 36.375 
Q 6.59375 54.828125 13.0625 64.515625 
Q 19.53125 74.21875 31.78125 74.21875 
z
" id="DejaVuSans-48"/>
       </defs>
       <use transform="translate(0 0.78125)" xlink:href="#DejaVuSans-8722"/>
       <use transform="translate(83.789062 0.78125)" xlink:href="#DejaVuSans-49"/>
       <use transform="translate(147.412109 0.78125)" xlink:href="#DejaVuSans-48"/>
      </g>
     </g>
    </g>
    <g id="xtick_3">
     <g id="line2d_5">
      <path clip-path="url(#pf040b5a610)" d="M 181.835174 248.865354 
L 181.835174 19.634646 
" style="fill:none;stroke:#000000;stroke-linecap:square;stroke-opacity:0.1;stroke-width:0.5;"/>
     </g>
     <g id="line2d_6">
      <g>
       <use style="stroke:#000000;stroke-width:0.5;" x="181.835174" xlink:href="#m1194931501" y="248.865354"/>
      </g>
     </g>
     <g id="text_3">
      <!-- $\mathregular{-5}$ -->
      <g transform="translate(170.735174 263.763011)scale(0.15 -0.15)">
       <use transform="translate(0 0.09375)" xlink:href="#DejaVuSans-8722"/>
       <use transform="translate(83.789062 0.09375)" xlink:href="#DejaVuSans-53"/>
      </g>
     </g>
    </g>
    <g id="xtick_4">
     <g id="line2d_7">
      <path clip-path="url(#pf040b5a610)" d="M 241.005073 248.865354 
L 241.005073 19.634646 
" style="fill:none;stroke:#000000;stroke-linecap:square;stroke-opacity:0.1;stroke-width:0.5;"/>
     </g>
     <g id="line2d_8">
      <g>
       <use style="stroke:#000000;stroke-width:0.5;" x="241.005073" xlink:href="#m1194931501" y="248.865354"/>
      </g>
     </g>
     <g id="text_4">
      <!-- $\mathregular{0}$ -->
      <g transform="translate(236.205073 263.763011)scale(0.15 -0.15)">
       <use transform="translate(0 0.78125)" xlink:href="#DejaVuSans-48"/>
      </g>
     </g>
    </g>
    <g id="xtick_5">
     <g id="line2d_9">
      <path clip-path="url(#pf040b5a610)" d="M 300.174973 248.865354 
L 300.174973 19.634646 
" style="fill:none;stroke:#000000;stroke-linecap:square;stroke-opacity:0.1;stroke-width:0.5;"/>
     </g>
     <g id="line2d_10">
      <g>
       <use style="stroke:#000000;stroke-width:0.5;" x="300.174973" xlink:href="#m1194931501" y="248.865354"/>
      </g>
     </g>
     <g id="text_5">
      <!-- $\mathregular{5}$ -->
      <g transform="translate(295.374973 263.763011)scale(0.15 -0.15)">
       <use transform="translate(0 0.09375)" xlink:href="#DejaVuSans-53"/>
      </g>
     </g>
    </g>
    <g id="xtick_6">
     <g id="line2d_11">
      <path clip-path="url(#pf040b5a610)" d="M 359.344873 248.865354 
L 359.344873 19.634646 
" style="fill:none;stroke:#000000;stroke-linecap:square;stroke-opacity:0.1;stroke-width:0.5;"/>
     </g>
     <g id="line2d_12">
      <g>
       <use style="stroke:#000000;stroke-width:0.5;" x="359.344873" xlink:href="#m1194931501" y="248.865354"/>
      </g>
     </g>
     <g id="text_6">
      <!-- $\mathregular{10}$ -->
      <g transform="translate(349.744873 263.763011)scale(0.15 -0.15)">
       <use transform="translate(0 0.78125)" xlink:href="#DejaVuSans-49"/>
       <use transform="translate(63.623047 0.78125)" xlink:href="#DejaVuSans-48"/>
      </g>
     </g>
    </g>
    <g id="xtick_7">
     <g id="line2d_13">
      <path clip-path="url(#pf040b5a610)" d="M 418.514772 248.865354 
L 418.514772 19.634646 
" style="fill:none;stroke:#000000;stroke-linecap:square;stroke-opacity:0.1;stroke-width:0.5;"/>
     </g>
     <g id="line2d_14">
      <g>
       <use style="stroke:#000000;stroke-width:0.5;" x="418.514772" xlink:href="#m1194931501" y="248.865354"/>
      </g>
     </g>
     <g id="text_7">
      <!-- $\mathregular{15}$ -->
      <g transform="translate(408.914772 263.763011)scale(0.15 -0.15)">
       <use transform="translate(0 0.09375)" xlink:href="#DejaVuSans-49"/>
       <use transform="translate(63.623047 0.09375)" xlink:href="#DejaVuSans-53"/>
      </g>
     </g>
    </g>
    <g id="text_8">
     <!-- x -->
     <g transform="translate(236.566011 282.280198)scale(0.15 -0.15)">
      <defs>
       <path d="M 54.890625 54.6875 
L 35.109375 28.078125 
L 55.90625 0 
L 45.3125 0 
L 29.390625 21.484375 
L 13.484375 0 
L 2.875 0 
L 24.125 28.609375 
L 4.6875 54.6875 
L 15.28125 54.6875 
L 29.78125 35.203125 
L 44.28125 54.6875 
z
" id="DejaVuSans-120"/>
      </defs>
      <use xlink:href="#DejaVuSans-120"/>
     </g>
    </g>
   </g>
   <g id="matplotlib.axis_2">
    <g id="ytick_1">
     <g id="line2d_15">
      <path clip-path="url(#pf040b5a610)" d="M 52.844792 242.377693 
L 429.165354 242.377693 
" style="fill:none;stroke:#000000;stroke-linecap:square;stroke-opacity:0.1;stroke-width:0.5;"/>
     </g>
     <g id="line2d_16">
      <defs>
       <path d="M 0 0 
L 2.5 0 
" id="m3ae319bf63" style="stroke:#000000;stroke-width:0.5;"/>
      </defs>
      <g>
       <use style="stroke:#000000;stroke-width:0.5;" x="52.844792" xlink:href="#m3ae319bf63" y="242.377693"/>
      </g>
     </g>
     <g id="text_9">
      <!-- $\mathregular{0.0}$ -->
      <g transform="translate(25.344792 248.076521)scale(0.15 -0.15)">
       <defs>
        <path d="M 10.6875 12.40625 
L 21 12.40625 
L 21 0 
L 10.6875 0 
z
" id="DejaVuSans-46"/>
       </defs>
       <use transform="translate(0 0.78125)" xlink:href="#DejaVuSans-48"/>
       <use transform="translate(63.623047 0.78125)" xlink:href="#DejaVuSans-46"/>
       <use transform="translate(95.410156 0.78125)" xlink:href="#DejaVuSans-48"/>
      </g>
     </g>
    </g>
    <g id="ytick_2">
     <g id="line2d_17">
      <path clip-path="url(#pf040b5a610)" d="M 52.844792 203.993213 
L 429.165354 203.993213 
" style="fill:none;stroke:#000000;stroke-linecap:square;stroke-opacity:0.1;stroke-width:0.5;"/>
     </g>
     <g id="line2d_18">
      <g>
       <use style="stroke:#000000;stroke-width:0.5;" x="52.844792" xlink:href="#m3ae319bf63" y="203.993213"/>
      </g>
     </g>
     <g id="text_10">
      <!-- $\mathregular{0.1}$ -->
      <g transform="translate(25.344792 209.692041)scale(0.15 -0.15)">
       <use transform="translate(0 0.78125)" xlink:href="#DejaVuSans-48"/>
       <use transform="translate(63.623047 0.78125)" xlink:href="#DejaVuSans-46"/>
       <use transform="translate(95.410156 0.78125)" xlink:href="#DejaVuSans-49"/>
      </g>
     </g>
    </g>
    <g id="ytick_3">
     <g id="line2d_19">
      <path clip-path="url(#pf040b5a610)" d="M 52.844792 165.608733 
L 429.165354 165.608733 
" style="fill:none;stroke:#000000;stroke-linecap:square;stroke-opacity:0.1;stroke-width:0.5;"/>
     </g>
     <g id="line2d_20">
      <g>
       <use style="stroke:#000000;stroke-width:0.5;" x="52.844792" xlink:href="#m3ae319bf63" y="165.608733"/>
      </g>
     </g>
     <g id="text_11">
      <!-- $\mathregular{0.2}$ -->
      <g transform="translate(26.244792 171.307561)scale(0.15 -0.15)">
       <defs>
        <path d="M 19.1875 8.296875 
L 53.609375 8.296875 
L 53.609375 0 
L 7.328125 0 
L 7.328125 8.296875 
Q 12.9375 14.109375 22.625 23.890625 
Q 32.328125 33.6875 34.8125 36.53125 
Q 39.546875 41.84375 41.421875 45.53125 
Q 43.3125 49.21875 43.3125 52.78125 
Q 43.3125 58.59375 39.234375 62.25 
Q 35.15625 65.921875 28.609375 65.921875 
Q 23.96875 65.921875 18.8125 64.3125 
Q 13.671875 62.703125 7.8125 59.421875 
L 7.8125 69.390625 
Q 13.765625 71.78125 18.9375 73 
Q 24.125 74.21875 28.421875 74.21875 
Q 39.75 74.21875 46.484375 68.546875 
Q 53.21875 62.890625 53.21875 53.421875 
Q 53.21875 48.921875 51.53125 44.890625 
Q 49.859375 40.875 45.40625 35.40625 
Q 44.1875 33.984375 37.640625 27.21875 
Q 31.109375 20.453125 19.1875 8.296875 
z
" id="DejaVuSans-50"/>
       </defs>
       <use transform="translate(0 0.78125)" xlink:href="#DejaVuSans-48"/>
       <use transform="translate(63.623047 0.78125)" xlink:href="#DejaVuSans-46"/>
       <use transform="translate(89.910156 0.78125)" xlink:href="#DejaVuSans-50"/>
      </g>
     </g>
    </g>
    <g id="ytick_4">
     <g id="line2d_21">
      <path clip-path="url(#pf040b5a610)" d="M 52.844792 127.224253 
L 429.165354 127.224253 
" style="fill:none;stroke:#000000;stroke-linecap:square;stroke-opacity:0.1;stroke-width:0.5;"/>
     </g>
     <g id="line2d_22">
      <g>
       <use style="stroke:#000000;stroke-width:0.5;" x="52.844792" xlink:href="#m3ae319bf63" y="127.224253"/>
      </g>
     </g>
     <g id="text_12">
      <!-- $\mathregular{0.3}$ -->
      <g transform="translate(25.344792 132.923081)scale(0.15 -0.15)">
       <defs>
        <path d="M 40.578125 39.3125 
Q 47.65625 37.796875 51.625 33 
Q 55.609375 28.21875 55.609375 21.1875 
Q 55.609375 10.40625 48.1875 4.484375 
Q 40.765625 -1.421875 27.09375 -1.421875 
Q 22.515625 -1.421875 17.65625 -0.515625 
Q 12.796875 0.390625 7.625 2.203125 
L 7.625 11.71875 
Q 11.71875 9.328125 16.59375 8.109375 
Q 21.484375 6.890625 26.8125 6.890625 
Q 36.078125 6.890625 40.9375 10.546875 
Q 45.796875 14.203125 45.796875 21.1875 
Q 45.796875 27.640625 41.28125 31.265625 
Q 36.765625 34.90625 28.71875 34.90625 
L 20.21875 34.90625 
L 20.21875 43.015625 
L 29.109375 43.015625 
Q 36.375 43.015625 40.234375 45.921875 
Q 44.09375 48.828125 44.09375 54.296875 
Q 44.09375 59.90625 40.109375 62.90625 
Q 36.140625 65.921875 28.71875 65.921875 
Q 24.65625 65.921875 20.015625 65.03125 
Q 15.375 64.15625 9.8125 62.3125 
L 9.8125 71.09375 
Q 15.4375 72.65625 20.34375 73.4375 
Q 25.25 74.21875 29.59375 74.21875 
Q 40.828125 74.21875 47.359375 69.109375 
Q 53.90625 64.015625 53.90625 55.328125 
Q 53.90625 49.265625 50.4375 45.09375 
Q 46.96875 40.921875 40.578125 39.3125 
z
" id="DejaVuSans-51"/>
       </defs>
       <use transform="translate(0 0.78125)" xlink:href="#DejaVuSans-48"/>
       <use transform="translate(63.623047 0.78125)" xlink:href="#DejaVuSans-46"/>
       <use transform="translate(95.410156 0.78125)" xlink:href="#DejaVuSans-51"/>
      </g>
     </g>
    </g>
    <g id="ytick_5">
     <g id="line2d_23">
      <path clip-path="url(#pf040b5a610)" d="M 52.844792 88.839773 
L 429.165354 88.839773 
" style="fill:none;stroke:#000000;stroke-linecap:square;stroke-opacity:0.1;stroke-width:0.5;"/>
     </g>
     <g id="line2d_24">
      <g>
       <use style="stroke:#000000;stroke-width:0.5;" x="52.844792" xlink:href="#m3ae319bf63" y="88.839773"/>
      </g>
     </g>
     <g id="text_13">
      <!-- $\mathregular{0.4}$ -->
      <g transform="translate(25.344792 94.538601)scale(0.15 -0.15)">
       <defs>
        <path d="M 37.796875 64.3125 
L 12.890625 25.390625 
L 37.796875 25.390625 
z
M 35.203125 72.90625 
L 47.609375 72.90625 
L 47.609375 25.390625 
L 58.015625 25.390625 
L 58.015625 17.1875 
L 47.609375 17.1875 
L 47.609375 0 
L 37.796875 0 
L 37.796875 17.1875 
L 4.890625 17.1875 
L 4.890625 26.703125 
z
" id="DejaVuSans-52"/>
       </defs>
       <use transform="translate(0 0.78125)" xlink:href="#DejaVuSans-48"/>
       <use transform="translate(63.623047 0.78125)" xlink:href="#DejaVuSans-46"/>
       <use transform="translate(95.410156 0.78125)" xlink:href="#DejaVuSans-52"/>
      </g>
     </g>
    </g>
    <g id="ytick_6">
     <g id="line2d_25">
      <path clip-path="url(#pf040b5a610)" d="M 52.844792 50.455294 
L 429.165354 50.455294 
" style="fill:none;stroke:#000000;stroke-linecap:square;stroke-opacity:0.1;stroke-width:0.5;"/>
     </g>
     <g id="line2d_26">
      <g>
       <use style="stroke:#000000;stroke-width:0.5;" x="52.844792" xlink:href="#m3ae319bf63" y="50.455294"/>
      </g>
     </g>
     <g id="text_14">
      <!-- $\mathregular{0.5}$ -->
      <g transform="translate(25.344792 56.154122)scale(0.15 -0.15)">
       <use transform="translate(0 0.78125)" xlink:href="#DejaVuSans-48"/>
       <use transform="translate(63.623047 0.78125)" xlink:href="#DejaVuSans-46"/>
       <use transform="translate(95.410156 0.78125)" xlink:href="#DejaVuSans-53"/>
      </g>
     </g>
    </g>
    <g id="text_15">
     <!-- $p_\lambda(x|y)$ -->
     <g transform="translate(17.744792 159.6)rotate(-90)scale(0.15 -0.15)">
      <defs>
       <path d="M 49.609375 33.6875 
Q 49.609375 40.875 46.484375 44.671875 
Q 43.359375 48.484375 37.5 48.484375 
Q 33.5 48.484375 29.859375 46.4375 
Q 26.21875 44.390625 23.390625 40.484375 
Q 20.609375 36.625 18.9375 31.15625 
Q 17.28125 25.6875 17.28125 20.3125 
Q 17.28125 13.484375 20.40625 9.796875 
Q 23.53125 6.109375 29.296875 6.109375 
Q 33.546875 6.109375 37.1875 8.109375 
Q 40.828125 10.109375 43.40625 13.921875 
Q 46.1875 17.921875 47.890625 23.34375 
Q 49.609375 28.765625 49.609375 33.6875 
z
M 21.78125 46.390625 
Q 25.390625 51.125 30.296875 53.5625 
Q 35.203125 56 41.21875 56 
Q 49.609375 56 54.25 50.5 
Q 58.890625 45.015625 58.890625 35.109375 
Q 58.890625 27 56 19.65625 
Q 53.125 12.3125 47.703125 6.5 
Q 44.09375 2.640625 39.546875 0.609375 
Q 35.015625 -1.421875 29.984375 -1.421875 
Q 24.171875 -1.421875 20.21875 1 
Q 16.265625 3.421875 14.3125 8.203125 
L 8.6875 -20.796875 
L -0.296875 -20.796875 
L 14.40625 54.6875 
L 23.390625 54.6875 
z
" id="DejaVuSans-Oblique-112"/>
       <path d="M 36.71875 67.4375 
L 48.828125 0 
L 39.3125 0 
L 31.84375 40.4375 
L 5.125 0 
L -4.390625 0 
L 29.734375 52.4375 
L 28.03125 62.109375 
Q 26.953125 68.265625 21.734375 68.265625 
L 17.046875 68.265625 
L 18.5 75.984375 
L 24.21875 75.875 
Q 35.203125 75.734375 36.71875 67.4375 
z
" id="DejaVuSans-Oblique-955"/>
       <path d="M 31 75.875 
Q 24.46875 64.65625 21.28125 53.65625 
Q 18.109375 42.671875 18.109375 31.390625 
Q 18.109375 20.125 21.3125 9.0625 
Q 24.515625 -2 31 -13.1875 
L 23.1875 -13.1875 
Q 15.875 -1.703125 12.234375 9.375 
Q 8.59375 20.453125 8.59375 31.390625 
Q 8.59375 42.28125 12.203125 53.3125 
Q 15.828125 64.359375 23.1875 75.875 
z
" id="DejaVuSans-40"/>
       <path d="M 60.015625 54.6875 
L 34.90625 27.875 
L 50.296875 0 
L 39.984375 0 
L 28.421875 21.6875 
L 8.296875 0 
L -2.59375 0 
L 24.3125 28.8125 
L 10.015625 54.6875 
L 20.3125 54.6875 
L 30.8125 34.90625 
L 49.125 54.6875 
z
" id="DejaVuSans-Oblique-120"/>
       <path d="M 21 76.421875 
L 21 -23.578125 
L 12.703125 -23.578125 
L 12.703125 76.421875 
z
" id="DejaVuSans-124"/>
       <path d="M 24.8125 -5.078125 
Q 18.5625 -15.578125 14.625 -18.1875 
Q 10.6875 -20.796875 4.59375 -20.796875 
L -2.484375 -20.796875 
L -0.984375 -13.28125 
L 4.203125 -13.28125 
Q 7.953125 -13.28125 10.59375 -11.234375 
Q 13.234375 -9.1875 16.5 -3.21875 
L 19.28125 2 
L 7.171875 54.6875 
L 16.703125 54.6875 
L 25.78125 12.796875 
L 50.875 54.6875 
L 60.296875 54.6875 
z
" id="DejaVuSans-Oblique-121"/>
       <path d="M 8.015625 75.875 
L 15.828125 75.875 
Q 23.140625 64.359375 26.78125 53.3125 
Q 30.421875 42.28125 30.421875 31.390625 
Q 30.421875 20.453125 26.78125 9.375 
Q 23.140625 -1.703125 15.828125 -13.1875 
L 8.015625 -13.1875 
Q 14.5 -2 17.703125 9.0625 
Q 20.90625 20.125 20.90625 31.390625 
Q 20.90625 42.671875 17.703125 53.65625 
Q 14.5 64.65625 8.015625 75.875 
z
" id="DejaVuSans-41"/>
      </defs>
      <use transform="translate(0 0.578125)" xlink:href="#DejaVuSans-Oblique-112"/>
      <use transform="translate(63.476562 -15.828125)scale(0.7)" xlink:href="#DejaVuSans-Oblique-955"/>
      <use transform="translate(107.636719 0.578125)" xlink:href="#DejaVuSans-40"/>
      <use transform="translate(146.650391 0.578125)" xlink:href="#DejaVuSans-Oblique-120"/>
      <use transform="translate(205.830078 0.578125)" xlink:href="#DejaVuSans-124"/>
      <use transform="translate(239.521484 0.578125)" xlink:href="#DejaVuSans-Oblique-121"/>
      <use transform="translate(298.701172 0.578125)" xlink:href="#DejaVuSans-41"/>
     </g>
    </g>
   </g>
   <g id="line2d_27">
    <path clip-path="url(#pf040b5a610)" d="M 63.495374 242.377693 
L 313.521567 242.292734 
L 317.080659 242.117479 
L 319.749977 241.809961 
L 321.529523 241.449276 
L 323.309069 240.893392 
L 325.088615 240.057735 
L 326.868161 238.832681 
L 327.757934 238.032554 
L 328.647707 237.081857 
L 329.53748 235.959538 
L 330.427253 234.643221 
L 331.317025 233.109479 
L 332.206798 231.334206 
L 333.096571 229.29307 
L 333.986344 226.962071 
L 335.76589 221.340139 
L 337.545436 214.309869 
L 339.324982 205.767536 
L 341.104528 195.693079 
L 342.884074 184.177385 
L 345.553392 164.728169 
L 350.89203 123.72535 
L 352.671576 111.756347 
L 354.451122 101.795172 
L 355.340894 97.764751 
L 356.230667 94.457376 
L 357.12044 91.927299 
L 358.010213 90.216584 
L 358.899986 89.353947 
L 359.789759 89.353947 
L 360.679532 90.216584 
L 361.569305 91.927299 
L 362.459078 94.457376 
L 363.348851 97.764751 
L 364.238624 101.795172 
L 366.01817 111.756347 
L 367.797715 123.72535 
L 370.467034 143.918605 
L 374.915899 177.943219 
L 376.695445 190.104731 
L 378.474991 200.919032 
L 380.254536 210.231263 
L 382.034082 218.009149 
L 383.813628 224.318193 
L 385.593174 229.29307 
L 387.37272 233.109479 
L 389.152266 235.959538 
L 390.931812 238.032554 
L 392.711357 239.501775 
L 394.490903 240.516769 
L 396.270449 241.200466 
L 398.049995 241.649627 
L 400.719314 242.038284 
L 404.278406 242.264343 
L 410.506816 242.364315 
L 418.514772 242.377122 
L 418.514772 242.377122 
" style="fill:none;stroke:#009afa;stroke-width:2;"/>
   </g>
   <g id="line2d_28">
    <path clip-path="url(#pf040b5a610)" d="M 63.495374 242.377693 
L 285.938606 242.272573 
L 289.497698 242.024808 
L 292.167017 241.562687 
L 293.946562 241.001178 
L 295.726108 240.115049 
L 296.615881 239.506154 
L 297.505654 238.75804 
L 298.395427 237.84587 
L 299.2852 236.742188 
L 300.174973 235.417096 
L 301.064746 233.838558 
L 301.954519 231.972859 
L 302.844292 229.785244 
L 303.734065 227.24072 
L 304.623838 224.30505 
L 305.513611 220.945919 
L 307.293156 212.845724 
L 309.072702 202.773434 
L 310.852248 190.687688 
L 312.631794 176.719874 
L 315.301113 153.045134 
L 319.749977 112.073626 
L 321.529523 97.862387 
L 322.419296 91.726532 
L 323.309069 86.391945 
L 324.198842 81.96041 
L 325.088615 78.518356 
L 325.978388 76.134057 
L 326.868161 74.855378 
L 327.757934 74.708181 
L 328.647707 75.69545 
L 329.53748 77.797196 
L 330.427253 80.971125 
L 331.317025 85.154056 
L 332.206798 90.264013 
L 333.986344 102.859598 
L 335.76589 117.837939 
L 342.884074 182.098164 
L 344.663619 195.396579 
L 346.443165 206.741446 
L 348.222711 216.070421 
L 350.002257 223.477124 
L 350.89203 226.519449 
L 351.781803 229.162025 
L 352.671576 231.43871 
L 353.561349 233.384403 
L 354.451122 235.034008 
L 355.340894 236.421576 
L 356.230667 237.579626 
L 357.12044 238.538649 
L 358.899986 239.969462 
L 360.679532 240.907452 
L 362.459078 241.504131 
L 364.238624 241.87255 
L 366.907943 242.166588 
L 371.356807 242.334635 
L 382.034082 242.377218 
L 418.514772 242.377693 
L 418.514772 242.377693 
" style="fill:none;stroke:#e36f47;stroke-width:2;"/>
   </g>
   <g id="patch_3">
    <path d="M 52.844792 248.865354 
L 52.844792 19.634646 
" style="fill:none;stroke:#000000;stroke-linecap:square;stroke-linejoin:miter;"/>
   </g>
   <g id="patch_4">
    <path d="M 52.844792 248.865354 
L 429.165354 248.865354 
" style="fill:none;stroke:#000000;stroke-linecap:square;stroke-linejoin:miter;"/>
   </g>
   <g id="line2d_29">
    <path clip-path="url(#pf040b5a610)" d="M 63.495374 242.377693 
L 261.914737 242.290705 
L 265.473829 242.049498 
L 267.253375 241.769773 
L 269.03292 241.286726 
L 270.812466 240.480863 
L 271.702239 239.906078 
L 272.592012 239.182508 
L 273.481785 238.279673 
L 274.371558 237.163167 
L 275.261331 235.794777 
L 276.151104 234.132807 
L 277.040877 232.132652 
L 277.93065 229.747629 
L 278.820423 226.930124 
L 279.710196 223.633035 
L 280.599969 219.811534 
L 281.489741 215.4251 
L 283.269287 204.830745 
L 285.048833 191.701987 
L 286.828379 176.113939 
L 288.607925 158.43105 
L 294.836335 92.659008 
L 296.615881 77.890121 
L 297.505654 72.002726 
L 298.395427 67.295796 
L 299.2852 63.877179 
L 300.174973 61.826458 
L 301.064746 61.191867 
L 301.954519 61.988405 
L 302.844292 64.197249 
L 303.734065 67.766494 
L 304.623838 72.613178 
L 305.513611 78.626487 
L 307.293156 93.596518 
L 309.072702 111.410497 
L 315.301113 177.058536 
L 317.080659 192.513946 
L 318.860204 205.498593 
L 320.63975 215.951976 
L 321.529523 220.272508 
L 322.419296 224.032414 
L 323.309069 227.272815 
L 324.198842 230.038893 
L 325.088615 232.377892 
L 325.978388 234.337387 
L 326.868161 235.963876 
L 327.757934 237.301673 
L 328.647707 238.392101 
L 329.53748 239.272954 
L 330.427253 239.978196 
L 332.206798 240.97811 
L 333.986344 241.586781 
L 335.76589 241.944672 
L 338.435209 242.212382 
L 342.884074 242.349344 
L 356.230667 242.377649 
L 418.514772 242.377693 
L 418.514772 242.377693 
" style="fill:none;stroke:#3ea44e;stroke-width:2;"/>
   </g>
   <g id="text_16">
    <!-- Power Posteriors -->
    <g transform="translate(183.042886 13.634646)scale(0.14 -0.14)">
     <defs>
      <path d="M 19.671875 64.796875 
L 19.671875 37.40625 
L 32.078125 37.40625 
Q 38.96875 37.40625 42.71875 40.96875 
Q 46.484375 44.53125 46.484375 51.125 
Q 46.484375 57.671875 42.71875 61.234375 
Q 38.96875 64.796875 32.078125 64.796875 
z
M 9.8125 72.90625 
L 32.078125 72.90625 
Q 44.34375 72.90625 50.609375 67.359375 
Q 56.890625 61.8125 56.890625 51.125 
Q 56.890625 40.328125 50.609375 34.8125 
Q 44.34375 29.296875 32.078125 29.296875 
L 19.671875 29.296875 
L 19.671875 0 
L 9.8125 0 
z
" id="DejaVuSans-80"/>
      <path d="M 30.609375 48.390625 
Q 23.390625 48.390625 19.1875 42.75 
Q 14.984375 37.109375 14.984375 27.296875 
Q 14.984375 17.484375 19.15625 11.84375 
Q 23.34375 6.203125 30.609375 6.203125 
Q 37.796875 6.203125 41.984375 11.859375 
Q 46.1875 17.53125 46.1875 27.296875 
Q 46.1875 37.015625 41.984375 42.703125 
Q 37.796875 48.390625 30.609375 48.390625 
z
M 30.609375 56 
Q 42.328125 56 49.015625 48.375 
Q 55.71875 40.765625 55.71875 27.296875 
Q 55.71875 13.875 49.015625 6.21875 
Q 42.328125 -1.421875 30.609375 -1.421875 
Q 18.84375 -1.421875 12.171875 6.21875 
Q 5.515625 13.875 5.515625 27.296875 
Q 5.515625 40.765625 12.171875 48.375 
Q 18.84375 56 30.609375 56 
z
" id="DejaVuSans-111"/>
      <path d="M 4.203125 54.6875 
L 13.1875 54.6875 
L 24.421875 12.015625 
L 35.59375 54.6875 
L 46.1875 54.6875 
L 57.421875 12.015625 
L 68.609375 54.6875 
L 77.59375 54.6875 
L 63.28125 0 
L 52.6875 0 
L 40.921875 44.828125 
L 29.109375 0 
L 18.5 0 
z
" id="DejaVuSans-119"/>
      <path d="M 56.203125 29.59375 
L 56.203125 25.203125 
L 14.890625 25.203125 
Q 15.484375 15.921875 20.484375 11.0625 
Q 25.484375 6.203125 34.421875 6.203125 
Q 39.59375 6.203125 44.453125 7.46875 
Q 49.3125 8.734375 54.109375 11.28125 
L 54.109375 2.78125 
Q 49.265625 0.734375 44.1875 -0.34375 
Q 39.109375 -1.421875 33.890625 -1.421875 
Q 20.796875 -1.421875 13.15625 6.1875 
Q 5.515625 13.8125 5.515625 26.8125 
Q 5.515625 40.234375 12.765625 48.109375 
Q 20.015625 56 32.328125 56 
Q 43.359375 56 49.78125 48.890625 
Q 56.203125 41.796875 56.203125 29.59375 
z
M 47.21875 32.234375 
Q 47.125 39.59375 43.09375 43.984375 
Q 39.0625 48.390625 32.421875 48.390625 
Q 24.90625 48.390625 20.390625 44.140625 
Q 15.875 39.890625 15.1875 32.171875 
z
" id="DejaVuSans-101"/>
      <path d="M 41.109375 46.296875 
Q 39.59375 47.171875 37.8125 47.578125 
Q 36.03125 48 33.890625 48 
Q 26.265625 48 22.1875 43.046875 
Q 18.109375 38.09375 18.109375 28.8125 
L 18.109375 0 
L 9.078125 0 
L 9.078125 54.6875 
L 18.109375 54.6875 
L 18.109375 46.1875 
Q 20.953125 51.171875 25.484375 53.578125 
Q 30.03125 56 36.53125 56 
Q 37.453125 56 38.578125 55.875 
Q 39.703125 55.765625 41.0625 55.515625 
z
" id="DejaVuSans-114"/>
      <path id="DejaVuSans-32"/>
      <path d="M 44.28125 53.078125 
L 44.28125 44.578125 
Q 40.484375 46.53125 36.375 47.5 
Q 32.28125 48.484375 27.875 48.484375 
Q 21.1875 48.484375 17.84375 46.4375 
Q 14.5 44.390625 14.5 40.28125 
Q 14.5 37.15625 16.890625 35.375 
Q 19.28125 33.59375 26.515625 31.984375 
L 29.59375 31.296875 
Q 39.15625 29.25 43.1875 25.515625 
Q 47.21875 21.78125 47.21875 15.09375 
Q 47.21875 7.46875 41.1875 3.015625 
Q 35.15625 -1.421875 24.609375 -1.421875 
Q 20.21875 -1.421875 15.453125 -0.5625 
Q 10.6875 0.296875 5.421875 2 
L 5.421875 11.28125 
Q 10.40625 8.6875 15.234375 7.390625 
Q 20.0625 6.109375 24.8125 6.109375 
Q 31.15625 6.109375 34.5625 8.28125 
Q 37.984375 10.453125 37.984375 14.40625 
Q 37.984375 18.0625 35.515625 20.015625 
Q 33.0625 21.96875 24.703125 23.78125 
L 21.578125 24.515625 
Q 13.234375 26.265625 9.515625 29.90625 
Q 5.8125 33.546875 5.8125 39.890625 
Q 5.8125 47.609375 11.28125 51.796875 
Q 16.75 56 26.8125 56 
Q 31.78125 56 36.171875 55.265625 
Q 40.578125 54.546875 44.28125 53.078125 
z
" id="DejaVuSans-115"/>
      <path d="M 18.3125 70.21875 
L 18.3125 54.6875 
L 36.8125 54.6875 
L 36.8125 47.703125 
L 18.3125 47.703125 
L 18.3125 18.015625 
Q 18.3125 11.328125 20.140625 9.421875 
Q 21.96875 7.515625 27.59375 7.515625 
L 36.8125 7.515625 
L 36.8125 0 
L 27.59375 0 
Q 17.1875 0 13.234375 3.875 
Q 9.28125 7.765625 9.28125 18.015625 
L 9.28125 47.703125 
L 2.6875 47.703125 
L 2.6875 54.6875 
L 9.28125 54.6875 
L 9.28125 70.21875 
z
" id="DejaVuSans-116"/>
      <path d="M 9.421875 54.6875 
L 18.40625 54.6875 
L 18.40625 0 
L 9.421875 0 
z
M 9.421875 75.984375 
L 18.40625 75.984375 
L 18.40625 64.59375 
L 9.421875 64.59375 
z
" id="DejaVuSans-105"/>
     </defs>
     <use xlink:href="#DejaVuSans-80"/>
     <use x="56.677734" xlink:href="#DejaVuSans-111"/>
     <use x="117.859375" xlink:href="#DejaVuSans-119"/>
     <use x="199.646484" xlink:href="#DejaVuSans-101"/>
     <use x="261.169922" xlink:href="#DejaVuSans-114"/>
     <use x="302.283203" xlink:href="#DejaVuSans-32"/>
     <use x="334.070312" xlink:href="#DejaVuSans-80"/>
     <use x="390.748047" xlink:href="#DejaVuSans-111"/>
     <use x="451.929688" xlink:href="#DejaVuSans-115"/>
     <use x="504.029297" xlink:href="#DejaVuSans-116"/>
     <use x="543.238281" xlink:href="#DejaVuSans-101"/>
     <use x="604.761719" xlink:href="#DejaVuSans-114"/>
     <use x="645.875" xlink:href="#DejaVuSans-105"/>
     <use x="673.658203" xlink:href="#DejaVuSans-111"/>
     <use x="734.839844" xlink:href="#DejaVuSans-114"/>
     <use x="775.953125" xlink:href="#DejaVuSans-115"/>
    </g>
   </g>
   <g id="line2d_30">
    <path clip-path="url(#pf040b5a610)" d="M 63.495374 242.377693 
L 241.44996 242.29919 
L 245.009051 242.049243 
L 246.788597 241.741351 
L 248.568143 241.188646 
L 249.457916 240.774223 
L 250.347689 240.23483 
L 251.237462 239.539776 
L 252.127235 238.653119 
L 253.017008 237.533456 
L 253.906781 236.133938 
L 254.796554 234.402558 
L 255.686327 232.282794 
L 256.576099 229.714663 
L 257.465872 226.636232 
L 258.355645 222.985624 
L 259.245418 218.703509 
L 260.135191 213.73607 
L 261.024964 208.038352 
L 262.80451 194.338487 
L 264.584056 177.561038 
L 266.363602 158.031723 
L 269.03292 125.382256 
L 271.702239 92.781995 
L 273.481785 73.937955 
L 274.371558 66.052291 
L 275.261331 59.459483 
L 276.151104 54.328821 
L 277.040877 50.795007 
L 277.93065 48.952288 
L 278.820423 48.850274 
L 279.710196 50.49172 
L 280.599969 53.832405 
L 281.489741 58.783106 
L 282.379514 65.213564 
L 283.269287 72.958173 
L 285.048833 91.594146 
L 287.718152 124.079608 
L 290.387471 156.822364 
L 292.167017 176.492882 
L 293.946562 193.443721 
L 295.726108 207.324905 
L 296.615881 213.110154 
L 297.505654 218.160623 
L 298.395427 222.520004 
L 299.2852 226.241259 
L 300.174973 229.383236 
L 301.064746 232.007653 
L 301.954519 234.176548 
L 302.844292 235.95022 
L 303.734065 237.385656 
L 304.623838 238.53543 
L 305.513611 239.447016 
L 306.403383 240.162453 
L 308.182929 241.14589 
L 309.962475 241.717077 
L 311.742021 242.035994 
L 314.41134 242.258918 
L 318.860204 242.36066 
L 338.435209 242.377693 
L 418.514772 242.377693 
L 418.514772 242.377693 
" style="fill:none;stroke:#c371d2;stroke-width:2;"/>
   </g>
   <g id="line2d_31">
    <path clip-path="url(#pf040b5a610)" d="M 63.495374 242.377693 
L 223.654501 242.299111 
L 226.32382 242.128337 
L 228.103366 241.865944 
L 229.882912 241.369332 
L 230.772685 240.98368 
L 231.662457 240.470045 
L 232.55223 239.793586 
L 233.442003 238.912693 
L 234.331776 237.778552 
L 235.221549 236.334994 
L 236.111322 234.518718 
L 237.001095 232.259999 
L 237.890868 229.483984 
L 238.780641 226.112662 
L 239.670414 222.067567 
L 240.560187 217.273224 
L 241.44996 211.661303 
L 242.339733 205.175376 
L 244.119278 189.446493 
L 245.898824 170.071368 
L 247.67837 147.543787 
L 253.017008 74.782151 
L 253.906781 64.545092 
L 254.796554 55.593122 
L 255.686327 48.176757 
L 256.576099 42.510122 
L 257.465872 38.760685 
L 258.355645 37.041045 
L 259.245418 37.403311 
L 260.135191 39.836483 
L 261.024964 44.267001 
L 261.914737 50.562444 
L 262.80451 58.538102 
L 263.694283 67.965976 
L 265.473829 90.115884 
L 271.702239 173.680869 
L 273.481785 192.442748 
L 275.261331 207.528294 
L 276.151104 213.705448 
L 277.040877 219.026514 
L 277.93065 223.552623 
L 278.820423 227.355093 
L 279.710196 230.510874 
L 280.599969 233.098628 
L 281.489741 235.195537 
L 282.379514 236.874862 
L 283.269287 238.204215 
L 284.15906 239.244473 
L 285.048833 240.049257 
L 285.938606 240.664847 
L 287.718152 241.478674 
L 289.497698 241.924647 
L 292.167017 242.227532 
L 296.615881 242.358245 
L 312.631794 242.377691 
L 418.514772 242.377693 
L 418.514772 242.377693 
" style="fill:none;stroke:#ac8e18;stroke-width:2;"/>
   </g>
   <g id="line2d_32">
    <path clip-path="url(#pf040b5a610)" d="M 63.495374 242.377693 
L 207.638588 242.301309 
L 210.307907 242.118682 
L 212.087453 241.82522 
L 213.866999 241.251373 
L 214.756772 240.796548 
L 215.646545 240.183012 
L 216.536318 239.365653 
L 217.426091 238.290362 
L 218.315864 236.893554 
L 219.205637 235.102127 
L 220.095409 232.834037 
L 220.985182 229.999636 
L 221.874955 226.503933 
L 222.764728 222.249869 
L 223.654501 217.142682 
L 224.544274 211.095309 
L 225.434047 204.034714 
L 226.32382 195.908886 
L 228.103366 176.402317 
L 229.882912 152.84928 
L 232.55223 112.360164 
L 235.221549 71.828401 
L 237.001095 49.241533 
L 237.890868 40.306256 
L 238.780641 33.334548 
L 239.670414 28.55362 
L 240.560187 26.122307 
L 241.44996 26.122307 
L 242.339733 28.55362 
L 243.229506 33.334548 
L 244.119278 40.306256 
L 245.009051 49.241533 
L 245.898824 59.857078 
L 247.67837 84.806224 
L 253.017008 165.087116 
L 254.796554 186.694149 
L 256.576099 204.034714 
L 257.465872 211.095309 
L 258.355645 217.142682 
L 259.245418 222.249869 
L 260.135191 226.503933 
L 261.024964 229.999636 
L 261.914737 232.834037 
L 262.80451 235.102127 
L 263.694283 236.893554 
L 264.584056 238.290362 
L 265.473829 239.365653 
L 266.363602 240.183012 
L 267.253375 240.796548 
L 269.03292 241.584386 
L 270.812466 241.997267 
L 273.481785 242.261632 
L 277.93065 242.364894 
L 300.174973 242.377693 
L 418.514772 242.377693 
L 418.514772 242.377693 
" style="fill:none;stroke:#00aaae;stroke-width:2;"/>
   </g>
   <g id="legend_1">
    <g id="patch_5">
     <path d="M 60.344792 175.737771 
L 181.181511 175.737771 
L 181.181511 27.134646 
L 60.344792 27.134646 
z
" style="fill:#ffffff;stroke:#000000;stroke-linejoin:miter;"/>
    </g>
    <g id="line2d_33">
     <path d="M 72.344792 45.282302 
L 102.344792 45.282302 
" style="fill:none;stroke:#009afa;stroke-linejoin:miter;stroke-width:1.875;"/>
    </g>
    <g id="line2d_34"/>
    <g id="text_17">
     <!-- λ = 0.0 -->
     <g transform="translate(114.344792 50.532302)scale(0.15 -0.15)">
      <defs>
       <path d="M 30.953125 67.4375 
L 56.203125 0 
L 46.6875 0 
L 31.34375 40.4375 
L 12.5 0 
L 2.984375 0 
L 26.953125 52.4375 
L 23.34375 62.109375 
Q 21.046875 68.265625 15.828125 68.265625 
L 11.140625 68.265625 
L 11.140625 75.984375 
L 16.84375 75.875 
Q 27.875 75.734375 30.953125 67.4375 
z
" id="DejaVuSans-955"/>
       <path d="M 10.59375 45.40625 
L 73.1875 45.40625 
L 73.1875 37.203125 
L 10.59375 37.203125 
z
M 10.59375 25.484375 
L 73.1875 25.484375 
L 73.1875 17.1875 
L 10.59375 17.1875 
z
" id="DejaVuSans-61"/>
      </defs>
      <use xlink:href="#DejaVuSans-955"/>
      <use x="59.179688" xlink:href="#DejaVuSans-32"/>
      <use x="90.966797" xlink:href="#DejaVuSans-61"/>
      <use x="174.755859" xlink:href="#DejaVuSans-32"/>
      <use x="206.542969" xlink:href="#DejaVuSans-48"/>
      <use x="270.166016" xlink:href="#DejaVuSans-46"/>
      <use x="301.953125" xlink:href="#DejaVuSans-48"/>
     </g>
    </g>
    <g id="line2d_35">
     <path d="M 72.344792 67.299489 
L 102.344792 67.299489 
" style="fill:none;stroke:#e36f47;stroke-linejoin:miter;stroke-width:1.875;"/>
    </g>
    <g id="line2d_36"/>
    <g id="text_18">
     <!-- λ = 0.2 -->
     <g transform="translate(114.344792 72.549489)scale(0.15 -0.15)">
      <use xlink:href="#DejaVuSans-955"/>
      <use x="59.179688" xlink:href="#DejaVuSans-32"/>
      <use x="90.966797" xlink:href="#DejaVuSans-61"/>
      <use x="174.755859" xlink:href="#DejaVuSans-32"/>
      <use x="206.542969" xlink:href="#DejaVuSans-48"/>
      <use x="270.166016" xlink:href="#DejaVuSans-46"/>
      <use x="301.953125" xlink:href="#DejaVuSans-50"/>
     </g>
    </g>
    <g id="line2d_37">
     <path d="M 72.344792 89.316677 
L 102.344792 89.316677 
" style="fill:none;stroke:#3ea44e;stroke-linejoin:miter;stroke-width:1.875;"/>
    </g>
    <g id="line2d_38"/>
    <g id="text_19">
     <!-- λ = 0.4 -->
     <g transform="translate(114.344792 94.566677)scale(0.15 -0.15)">
      <use xlink:href="#DejaVuSans-955"/>
      <use x="59.179688" xlink:href="#DejaVuSans-32"/>
      <use x="90.966797" xlink:href="#DejaVuSans-61"/>
      <use x="174.755859" xlink:href="#DejaVuSans-32"/>
      <use x="206.542969" xlink:href="#DejaVuSans-48"/>
      <use x="270.166016" xlink:href="#DejaVuSans-46"/>
      <use x="301.953125" xlink:href="#DejaVuSans-52"/>
     </g>
    </g>
    <g id="line2d_39">
     <path d="M 72.344792 111.333864 
L 102.344792 111.333864 
" style="fill:none;stroke:#c371d2;stroke-linejoin:miter;stroke-width:1.875;"/>
    </g>
    <g id="line2d_40"/>
    <g id="text_20">
     <!-- λ = 0.6 -->
     <g transform="translate(114.344792 116.583864)scale(0.15 -0.15)">
      <defs>
       <path d="M 33.015625 40.375 
Q 26.375 40.375 22.484375 35.828125 
Q 18.609375 31.296875 18.609375 23.390625 
Q 18.609375 15.53125 22.484375 10.953125 
Q 26.375 6.390625 33.015625 6.390625 
Q 39.65625 6.390625 43.53125 10.953125 
Q 47.40625 15.53125 47.40625 23.390625 
Q 47.40625 31.296875 43.53125 35.828125 
Q 39.65625 40.375 33.015625 40.375 
z
M 52.59375 71.296875 
L 52.59375 62.3125 
Q 48.875 64.0625 45.09375 64.984375 
Q 41.3125 65.921875 37.59375 65.921875 
Q 27.828125 65.921875 22.671875 59.328125 
Q 17.53125 52.734375 16.796875 39.40625 
Q 19.671875 43.65625 24.015625 45.921875 
Q 28.375 48.1875 33.59375 48.1875 
Q 44.578125 48.1875 50.953125 41.515625 
Q 57.328125 34.859375 57.328125 23.390625 
Q 57.328125 12.15625 50.6875 5.359375 
Q 44.046875 -1.421875 33.015625 -1.421875 
Q 20.359375 -1.421875 13.671875 8.265625 
Q 6.984375 17.96875 6.984375 36.375 
Q 6.984375 53.65625 15.1875 63.9375 
Q 23.390625 74.21875 37.203125 74.21875 
Q 40.921875 74.21875 44.703125 73.484375 
Q 48.484375 72.75 52.59375 71.296875 
z
" id="DejaVuSans-54"/>
      </defs>
      <use xlink:href="#DejaVuSans-955"/>
      <use x="59.179688" xlink:href="#DejaVuSans-32"/>
      <use x="90.966797" xlink:href="#DejaVuSans-61"/>
      <use x="174.755859" xlink:href="#DejaVuSans-32"/>
      <use x="206.542969" xlink:href="#DejaVuSans-48"/>
      <use x="270.166016" xlink:href="#DejaVuSans-46"/>
      <use x="301.953125" xlink:href="#DejaVuSans-54"/>
     </g>
    </g>
    <g id="line2d_41">
     <path d="M 72.344792 133.351052 
L 102.344792 133.351052 
" style="fill:none;stroke:#ac8e18;stroke-linejoin:miter;stroke-width:1.875;"/>
    </g>
    <g id="line2d_42"/>
    <g id="text_21">
     <!-- λ = 0.8 -->
     <g transform="translate(114.344792 138.601052)scale(0.15 -0.15)">
      <defs>
       <path d="M 31.78125 34.625 
Q 24.75 34.625 20.71875 30.859375 
Q 16.703125 27.09375 16.703125 20.515625 
Q 16.703125 13.921875 20.71875 10.15625 
Q 24.75 6.390625 31.78125 6.390625 
Q 38.8125 6.390625 42.859375 10.171875 
Q 46.921875 13.96875 46.921875 20.515625 
Q 46.921875 27.09375 42.890625 30.859375 
Q 38.875 34.625 31.78125 34.625 
z
M 21.921875 38.8125 
Q 15.578125 40.375 12.03125 44.71875 
Q 8.5 49.078125 8.5 55.328125 
Q 8.5 64.0625 14.71875 69.140625 
Q 20.953125 74.21875 31.78125 74.21875 
Q 42.671875 74.21875 48.875 69.140625 
Q 55.078125 64.0625 55.078125 55.328125 
Q 55.078125 49.078125 51.53125 44.71875 
Q 48 40.375 41.703125 38.8125 
Q 48.828125 37.15625 52.796875 32.3125 
Q 56.78125 27.484375 56.78125 20.515625 
Q 56.78125 9.90625 50.3125 4.234375 
Q 43.84375 -1.421875 31.78125 -1.421875 
Q 19.734375 -1.421875 13.25 4.234375 
Q 6.78125 9.90625 6.78125 20.515625 
Q 6.78125 27.484375 10.78125 32.3125 
Q 14.796875 37.15625 21.921875 38.8125 
z
M 18.3125 54.390625 
Q 18.3125 48.734375 21.84375 45.5625 
Q 25.390625 42.390625 31.78125 42.390625 
Q 38.140625 42.390625 41.71875 45.5625 
Q 45.3125 48.734375 45.3125 54.390625 
Q 45.3125 60.0625 41.71875 63.234375 
Q 38.140625 66.40625 31.78125 66.40625 
Q 25.390625 66.40625 21.84375 63.234375 
Q 18.3125 60.0625 18.3125 54.390625 
z
" id="DejaVuSans-56"/>
      </defs>
      <use xlink:href="#DejaVuSans-955"/>
      <use x="59.179688" xlink:href="#DejaVuSans-32"/>
      <use x="90.966797" xlink:href="#DejaVuSans-61"/>
      <use x="174.755859" xlink:href="#DejaVuSans-32"/>
      <use x="206.542969" xlink:href="#DejaVuSans-48"/>
      <use x="270.166016" xlink:href="#DejaVuSans-46"/>
      <use x="301.953125" xlink:href="#DejaVuSans-56"/>
     </g>
    </g>
    <g id="line2d_43">
     <path d="M 72.344792 155.368239 
L 102.344792 155.368239 
" style="fill:none;stroke:#00aaae;stroke-linejoin:miter;stroke-width:1.875;"/>
    </g>
    <g id="line2d_44"/>
    <g id="text_22">
     <!-- λ = 1.0 -->
     <g transform="translate(114.344792 160.618239)scale(0.15 -0.15)">
      <use xlink:href="#DejaVuSans-955"/>
      <use x="59.179688" xlink:href="#DejaVuSans-32"/>
      <use x="90.966797" xlink:href="#DejaVuSans-61"/>
      <use x="174.755859" xlink:href="#DejaVuSans-32"/>
      <use x="206.542969" xlink:href="#DejaVuSans-49"/>
      <use x="270.166016" xlink:href="#DejaVuSans-46"/>
      <use x="301.953125" xlink:href="#DejaVuSans-48"/>
     </g>
    </g>
   </g>
  </g>
 </g>
 <defs>
  <clipPath id="pf040b5a610">
   <rect height="229.230709" width="376.320562" x="52.844792" y="19.634646"/>
  </clipPath>
 </defs>
</svg>
