<?xml version="1.0" encoding="utf-8" standalone="no"?>
<!DOCTYPE svg PUBLIC "-//W3C//DTD SVG 1.1//EN"
  "http://www.w3.org/Graphics/SVG/1.1/DTD/svg11.dtd">
<!-- Created with matplotlib (https://matplotlib.org/) -->
<svg height="288pt" version="1.1" viewBox="0 0 432 288" width="432pt" xmlns="http://www.w3.org/2000/svg" xmlns:xlink="http://www.w3.org/1999/xlink">
 <defs>
  <style type="text/css">
*{stroke-linecap:butt;stroke-linejoin:round;}
  </style>
 </defs>
 <g id="figure_1">
  <g id="patch_1">
   <path d="M 0 288 
L 432 288 
L 432 0 
L 0 0 
z
" style="fill:#ffffff;"/>
  </g>
  <g id="axes_1">
   <g id="patch_2">
    <path d="M 29.191537 254.625354 
L 429.165354 254.625354 
L 429.165354 2.834646 
L 29.191537 2.834646 
z
" style="fill:#ffffff;"/>
   </g>
   <g id="matplotlib.axis_1">
    <g id="xtick_1">
     <g id="line2d_1">
      <path clip-path="url(#p4687373b44)" d="M 40.51155 254.625354 
L 40.51155 2.834646 
" style="fill:none;stroke:#000000;stroke-linecap:square;stroke-opacity:0.1;stroke-width:0.5;"/>
     </g>
     <g id="line2d_2">
      <defs>
       <path d="M 0 0 
L 0 -2.5 
" id="m966a546e16" style="stroke:#000000;stroke-width:0.5;"/>
      </defs>
      <g>
       <use style="stroke:#000000;stroke-width:0.5;" x="40.51155" xlink:href="#m966a546e16" y="254.625354"/>
      </g>
     </g>
     <g id="text_1">
      <!-- $\mathregular{0.00}$ -->
      <defs>
       <path d="M 31.78125 66.40625 
Q 24.171875 66.40625 20.328125 58.90625 
Q 16.5 51.421875 16.5 36.375 
Q 16.5 21.390625 20.328125 13.890625 
Q 24.171875 6.390625 31.78125 6.390625 
Q 39.453125 6.390625 43.28125 13.890625 
Q 47.125 21.390625 47.125 36.375 
Q 47.125 51.421875 43.28125 58.90625 
Q 39.453125 66.40625 31.78125 66.40625 
z
M 31.78125 74.21875 
Q 44.046875 74.21875 50.515625 64.515625 
Q 56.984375 54.828125 56.984375 36.375 
Q 56.984375 17.96875 50.515625 8.265625 
Q 44.046875 -1.421875 31.78125 -1.421875 
Q 19.53125 -1.421875 13.0625 8.265625 
Q 6.59375 17.96875 6.59375 36.375 
Q 6.59375 54.828125 13.0625 64.515625 
Q 19.53125 74.21875 31.78125 74.21875 
z
" id="DejaVuSans-48"/>
       <path d="M 10.6875 12.40625 
L 21 12.40625 
L 21 0 
L 10.6875 0 
z
" id="DejaVuSans-46"/>
      </defs>
      <g transform="translate(31.59155 264.204104)scale(0.08 -0.08)">
       <use transform="translate(0 0.78125)" xlink:href="#DejaVuSans-48"/>
       <use transform="translate(63.623047 0.78125)" xlink:href="#DejaVuSans-46"/>
       <use transform="translate(95.410156 0.78125)" xlink:href="#DejaVuSans-48"/>
       <use transform="translate(159.033203 0.78125)" xlink:href="#DejaVuSans-48"/>
      </g>
     </g>
    </g>
    <g id="xtick_2">
     <g id="line2d_3">
      <path clip-path="url(#p4687373b44)" d="M 134.844998 254.625354 
L 134.844998 2.834646 
" style="fill:none;stroke:#000000;stroke-linecap:square;stroke-opacity:0.1;stroke-width:0.5;"/>
     </g>
     <g id="line2d_4">
      <g>
       <use style="stroke:#000000;stroke-width:0.5;" x="134.844998" xlink:href="#m966a546e16" y="254.625354"/>
      </g>
     </g>
     <g id="text_2">
      <!-- $\mathregular{0.25}$ -->
      <defs>
       <path d="M 19.1875 8.296875 
L 53.609375 8.296875 
L 53.609375 0 
L 7.328125 0 
L 7.328125 8.296875 
Q 12.9375 14.109375 22.625 23.890625 
Q 32.328125 33.6875 34.8125 36.53125 
Q 39.546875 41.84375 41.421875 45.53125 
Q 43.3125 49.21875 43.3125 52.78125 
Q 43.3125 58.59375 39.234375 62.25 
Q 35.15625 65.921875 28.609375 65.921875 
Q 23.96875 65.921875 18.8125 64.3125 
Q 13.671875 62.703125 7.8125 59.421875 
L 7.8125 69.390625 
Q 13.765625 71.78125 18.9375 73 
Q 24.125 74.21875 28.421875 74.21875 
Q 39.75 74.21875 46.484375 68.546875 
Q 53.21875 62.890625 53.21875 53.421875 
Q 53.21875 48.921875 51.53125 44.890625 
Q 49.859375 40.875 45.40625 35.40625 
Q 44.1875 33.984375 37.640625 27.21875 
Q 31.109375 20.453125 19.1875 8.296875 
z
" id="DejaVuSans-50"/>
       <path d="M 10.796875 72.90625 
L 49.515625 72.90625 
L 49.515625 64.59375 
L 19.828125 64.59375 
L 19.828125 46.734375 
Q 21.96875 47.46875 24.109375 47.828125 
Q 26.265625 48.1875 28.421875 48.1875 
Q 40.625 48.1875 47.75 41.5 
Q 54.890625 34.8125 54.890625 23.390625 
Q 54.890625 11.625 47.5625 5.09375 
Q 40.234375 -1.421875 26.90625 -1.421875 
Q 22.3125 -1.421875 17.546875 -0.640625 
Q 12.796875 0.140625 7.71875 1.703125 
L 7.71875 11.625 
Q 12.109375 9.234375 16.796875 8.0625 
Q 21.484375 6.890625 26.703125 6.890625 
Q 35.15625 6.890625 40.078125 11.328125 
Q 45.015625 15.765625 45.015625 23.390625 
Q 45.015625 31 40.078125 35.4375 
Q 35.15625 39.890625 26.703125 39.890625 
Q 22.75 39.890625 18.8125 39.015625 
Q 14.890625 38.140625 10.796875 36.28125 
z
" id="DejaVuSans-53"/>
      </defs>
      <g transform="translate(125.924998 264.204104)scale(0.08 -0.08)">
       <use transform="translate(0 0.78125)" xlink:href="#DejaVuSans-48"/>
       <use transform="translate(63.623047 0.78125)" xlink:href="#DejaVuSans-46"/>
       <use transform="translate(95.332031 0.78125)" xlink:href="#DejaVuSans-50"/>
       <use transform="translate(158.955078 0.78125)" xlink:href="#DejaVuSans-53"/>
      </g>
     </g>
    </g>
    <g id="xtick_3">
     <g id="line2d_5">
      <path clip-path="url(#p4687373b44)" d="M 229.178445 254.625354 
L 229.178445 2.834646 
" style="fill:none;stroke:#000000;stroke-linecap:square;stroke-opacity:0.1;stroke-width:0.5;"/>
     </g>
     <g id="line2d_6">
      <g>
       <use style="stroke:#000000;stroke-width:0.5;" x="229.178445" xlink:href="#m966a546e16" y="254.625354"/>
      </g>
     </g>
     <g id="text_3">
      <!-- $\mathregular{0.50}$ -->
      <g transform="translate(220.258445 264.204104)scale(0.08 -0.08)">
       <use transform="translate(0 0.78125)" xlink:href="#DejaVuSans-48"/>
       <use transform="translate(63.623047 0.78125)" xlink:href="#DejaVuSans-46"/>
       <use transform="translate(95.410156 0.78125)" xlink:href="#DejaVuSans-53"/>
       <use transform="translate(159.033203 0.78125)" xlink:href="#DejaVuSans-48"/>
      </g>
     </g>
    </g>
    <g id="xtick_4">
     <g id="line2d_7">
      <path clip-path="url(#p4687373b44)" d="M 323.511893 254.625354 
L 323.511893 2.834646 
" style="fill:none;stroke:#000000;stroke-linecap:square;stroke-opacity:0.1;stroke-width:0.5;"/>
     </g>
     <g id="line2d_8">
      <g>
       <use style="stroke:#000000;stroke-width:0.5;" x="323.511893" xlink:href="#m966a546e16" y="254.625354"/>
      </g>
     </g>
     <g id="text_4">
      <!-- $\mathregular{0.75}$ -->
      <defs>
       <path d="M 8.203125 72.90625 
L 55.078125 72.90625 
L 55.078125 68.703125 
L 28.609375 0 
L 18.3125 0 
L 43.21875 64.59375 
L 8.203125 64.59375 
z
" id="DejaVuSans-55"/>
      </defs>
      <g transform="translate(314.591893 264.204104)scale(0.08 -0.08)">
       <use transform="translate(0 0.78125)" xlink:href="#DejaVuSans-48"/>
       <use transform="translate(63.623047 0.78125)" xlink:href="#DejaVuSans-46"/>
       <use transform="translate(95.300781 0.78125)" xlink:href="#DejaVuSans-55"/>
       <use transform="translate(158.923828 0.78125)" xlink:href="#DejaVuSans-53"/>
      </g>
     </g>
    </g>
    <g id="xtick_5">
     <g id="line2d_9">
      <path clip-path="url(#p4687373b44)" d="M 417.845341 254.625354 
L 417.845341 2.834646 
" style="fill:none;stroke:#000000;stroke-linecap:square;stroke-opacity:0.1;stroke-width:0.5;"/>
     </g>
     <g id="line2d_10">
      <g>
       <use style="stroke:#000000;stroke-width:0.5;" x="417.845341" xlink:href="#m966a546e16" y="254.625354"/>
      </g>
     </g>
     <g id="text_5">
      <!-- $\mathregular{1.00}$ -->
      <defs>
       <path d="M 12.40625 8.296875 
L 28.515625 8.296875 
L 28.515625 63.921875 
L 10.984375 60.40625 
L 10.984375 69.390625 
L 28.421875 72.90625 
L 38.28125 72.90625 
L 38.28125 8.296875 
L 54.390625 8.296875 
L 54.390625 0 
L 12.40625 0 
z
" id="DejaVuSans-49"/>
      </defs>
      <g transform="translate(408.925341 264.204104)scale(0.08 -0.08)">
       <use transform="translate(0 0.78125)" xlink:href="#DejaVuSans-49"/>
       <use transform="translate(63.623047 0.78125)" xlink:href="#DejaVuSans-46"/>
       <use transform="translate(95.410156 0.78125)" xlink:href="#DejaVuSans-48"/>
       <use transform="translate(159.033203 0.78125)" xlink:href="#DejaVuSans-48"/>
      </g>
     </g>
    </g>
    <g id="text_6">
     <!-- $\lambda$ -->
     <defs>
      <path d="M 36.71875 67.4375 
L 48.828125 0 
L 39.3125 0 
L 31.84375 40.4375 
L 5.125 0 
L -4.390625 0 
L 29.734375 52.4375 
L 28.03125 62.109375 
Q 26.953125 68.265625 21.734375 68.265625 
L 17.046875 68.265625 
L 18.5 75.984375 
L 24.21875 75.875 
Q 35.203125 75.734375 36.71875 67.4375 
z
" id="DejaVuSans-Oblique-955"/>
     </defs>
     <g transform="translate(224.678445 281.265511)scale(0.15 -0.15)">
      <use transform="translate(0 0.015625)" xlink:href="#DejaVuSans-Oblique-955"/>
     </g>
    </g>
   </g>
   <g id="matplotlib.axis_2">
    <g id="ytick_1">
     <g id="line2d_11">
      <path clip-path="url(#p4687373b44)" d="M 29.191537 246.134892 
L 429.165354 246.134892 
" style="fill:none;stroke:#000000;stroke-linecap:square;stroke-opacity:0.1;stroke-width:0.5;"/>
     </g>
     <g id="line2d_12">
      <defs>
       <path d="M 0 0 
L 2.5 0 
" id="m21c2d7116f" style="stroke:#000000;stroke-width:0.5;"/>
      </defs>
      <g>
       <use style="stroke:#000000;stroke-width:0.5;" x="29.191537" xlink:href="#m21c2d7116f" y="246.134892"/>
      </g>
     </g>
     <g id="text_7">
      <!-- $\mathregular{-100}$ -->
      <defs>
       <path d="M 10.59375 35.5 
L 73.1875 35.5 
L 73.1875 27.203125 
L 10.59375 27.203125 
z
" id="DejaVuSans-8722"/>
      </defs>
      <g transform="translate(3.691537 249.174267)scale(0.08 -0.08)">
       <use transform="translate(0 0.78125)" xlink:href="#DejaVuSans-8722"/>
       <use transform="translate(83.789062 0.78125)" xlink:href="#DejaVuSans-49"/>
       <use transform="translate(147.412109 0.78125)" xlink:href="#DejaVuSans-48"/>
       <use transform="translate(211.035156 0.78125)" xlink:href="#DejaVuSans-48"/>
      </g>
     </g>
    </g>
    <g id="ytick_2">
     <g id="line2d_13">
      <path clip-path="url(#p4687373b44)" d="M 29.191537 186.543979 
L 429.165354 186.543979 
" style="fill:none;stroke:#000000;stroke-linecap:square;stroke-opacity:0.1;stroke-width:0.5;"/>
     </g>
     <g id="line2d_14">
      <g>
       <use style="stroke:#000000;stroke-width:0.5;" x="29.191537" xlink:href="#m21c2d7116f" y="186.543979"/>
      </g>
     </g>
     <g id="text_8">
      <!-- $\mathregular{-75}$ -->
      <g transform="translate(8.731537 189.583354)scale(0.08 -0.08)">
       <use transform="translate(0 0.09375)" xlink:href="#DejaVuSans-8722"/>
       <use transform="translate(83.789062 0.09375)" xlink:href="#DejaVuSans-55"/>
       <use transform="translate(147.412109 0.09375)" xlink:href="#DejaVuSans-53"/>
      </g>
     </g>
    </g>
    <g id="ytick_3">
     <g id="line2d_15">
      <path clip-path="url(#p4687373b44)" d="M 29.191537 126.953066 
L 429.165354 126.953066 
" style="fill:none;stroke:#000000;stroke-linecap:square;stroke-opacity:0.1;stroke-width:0.5;"/>
     </g>
     <g id="line2d_16">
      <g>
       <use style="stroke:#000000;stroke-width:0.5;" x="29.191537" xlink:href="#m21c2d7116f" y="126.953066"/>
      </g>
     </g>
     <g id="text_9">
      <!-- $\mathregular{-50}$ -->
      <g transform="translate(8.731537 129.992441)scale(0.08 -0.08)">
       <use transform="translate(0 0.78125)" xlink:href="#DejaVuSans-8722"/>
       <use transform="translate(83.789062 0.78125)" xlink:href="#DejaVuSans-53"/>
       <use transform="translate(147.412109 0.78125)" xlink:href="#DejaVuSans-48"/>
      </g>
     </g>
    </g>
    <g id="ytick_4">
     <g id="line2d_17">
      <path clip-path="url(#p4687373b44)" d="M 29.191537 67.362153 
L 429.165354 67.362153 
" style="fill:none;stroke:#000000;stroke-linecap:square;stroke-opacity:0.1;stroke-width:0.5;"/>
     </g>
     <g id="line2d_18">
      <g>
       <use style="stroke:#000000;stroke-width:0.5;" x="29.191537" xlink:href="#m21c2d7116f" y="67.362153"/>
      </g>
     </g>
     <g id="text_10">
      <!-- $\mathregular{-25}$ -->
      <g transform="translate(8.731537 70.401528)scale(0.08 -0.08)">
       <use transform="translate(0 0.78125)" xlink:href="#DejaVuSans-8722"/>
       <use transform="translate(83.789062 0.78125)" xlink:href="#DejaVuSans-50"/>
       <use transform="translate(147.412109 0.78125)" xlink:href="#DejaVuSans-53"/>
      </g>
     </g>
    </g>
    <g id="ytick_5">
     <g id="line2d_19">
      <path clip-path="url(#p4687373b44)" d="M 29.191537 7.771241 
L 429.165354 7.771241 
" style="fill:none;stroke:#000000;stroke-linecap:square;stroke-opacity:0.1;stroke-width:0.5;"/>
     </g>
     <g id="line2d_20">
      <g>
       <use style="stroke:#000000;stroke-width:0.5;" x="29.191537" xlink:href="#m21c2d7116f" y="7.771241"/>
      </g>
     </g>
     <g id="text_11">
      <!-- $\mathregular{0}$ -->
      <g transform="translate(20.571537 10.810616)scale(0.08 -0.08)">
       <use transform="translate(0 0.78125)" xlink:href="#DejaVuSans-48"/>
      </g>
     </g>
    </g>
   </g>
   <g id="line2d_21">
    <path clip-path="url(#p4687373b44)" d="M 40.51155 9.961656 
L 47.310357 10.071553 
L 51.842895 10.30881 
L 52.220607 10.235752 
L 52.97603 10.377955 
L 54.109164 10.389404 
L 55.62001 10.472304 
L 57.130856 10.623945 
L 57.508568 10.755638 
L 58.641702 10.671044 
L 59.774837 10.856093 
L 60.152548 11.017748 
L 61.663394 10.916354 
L 62.041106 11.054794 
L 62.796529 11.034965 
L 63.551952 11.181787 
L 63.929663 11.265097 
L 64.685086 11.22451 
L 65.062798 11.400662 
L 65.440509 11.255078 
L 65.818221 11.532378 
L 66.195932 11.412163 
L 66.573644 11.536858 
L 66.951355 11.534467 
L 67.329067 11.722022 
L 68.08449 11.745847 
L 68.462201 11.902702 
L 68.839913 11.714922 
L 69.217624 11.715404 
L 69.973047 12.067419 
L 70.350759 11.880115 
L 70.72847 11.973045 
L 71.483893 12.289756 
L 72.239316 12.192475 
L 72.617028 12.529541 
L 72.994739 12.397678 
L 73.372451 12.751349 
L 73.750162 12.550484 
L 74.127874 12.637908 
L 74.505585 12.523085 
L 75.261008 12.805328 
L 75.63872 12.5775 
L 76.016431 12.748305 
L 76.394143 12.685215 
L 76.771854 12.889198 
L 77.149566 12.930594 
L 77.904989 13.230252 
L 78.2827 13.078997 
L 78.660412 13.454686 
L 79.038123 13.216679 
L 81.304392 13.627874 
L 81.682104 13.597945 
L 82.059815 13.826987 
L 82.437527 13.71333 
L 82.815238 13.932668 
L 83.19295 13.816208 
L 83.570661 14.043075 
L 83.948373 13.974816 
L 84.703796 14.248286 
L 85.081507 14.197522 
L 85.459219 14.57497 
L 85.83693 14.145702 
L 86.214642 14.273449 
L 86.592353 14.753906 
L 86.970065 14.592913 
L 87.347776 14.660092 
L 87.725488 15.004146 
L 88.103199 14.98607 
L 88.858622 15.198226 
L 89.991757 15.025876 
L 91.124892 15.540308 
L 91.502603 15.559735 
L 92.635738 15.987847 
L 93.013449 15.940353 
L 93.391161 15.597176 
L 93.768872 15.936101 
L 94.146584 15.928688 
L 94.524295 16.119626 
L 94.902007 16.105355 
L 95.279718 16.722154 
L 95.65743 16.300042 
L 96.035141 16.739367 
L 96.412853 16.82037 
L 96.790564 16.371929 
L 97.545987 16.535397 
L 97.923699 16.860878 
L 98.30141 17.352111 
L 98.679122 17.146031 
L 99.056833 16.79732 
L 99.434545 17.119504 
L 100.567679 17.530829 
L 100.945391 17.38065 
L 101.323102 17.888126 
L 101.700814 17.790951 
L 102.078525 18.27232 
L 102.456237 17.986119 
L 104.722506 18.813239 
L 105.100217 18.220847 
L 105.477929 19.321075 
L 105.85564 18.48794 
L 106.233352 18.904468 
L 106.611063 18.764411 
L 108.121909 19.431078 
L 108.499621 19.814896 
L 108.877332 19.083098 
L 110.010467 20.068768 
L 110.76589 19.918335 
L 111.521313 20.250386 
L 111.899024 20.382244 
L 112.276736 20.071988 
L 112.654447 20.573888 
L 113.032159 20.577607 
L 113.40987 20.90202 
L 113.787582 20.443444 
L 114.165293 20.395779 
L 114.543005 21.430863 
L 114.920716 20.941461 
L 115.298428 21.020146 
L 115.676139 21.313972 
L 116.053851 21.240342 
L 116.431562 21.827566 
L 116.809274 21.146775 
L 117.186985 21.490414 
L 117.564697 21.579176 
L 117.942408 21.876577 
L 118.32012 21.934108 
L 118.697831 21.6981 
L 119.075543 22.485017 
L 119.453254 22.045751 
L 120.208677 22.931084 
L 120.586389 22.925632 
L 120.9641 22.72923 
L 121.719523 23.03528 
L 122.097235 22.941853 
L 122.474946 23.315415 
L 122.852658 23.026981 
L 123.230369 23.576443 
L 123.608081 23.820392 
L 123.985792 23.598519 
L 124.363504 23.92545 
L 124.741215 23.98847 
L 125.118927 23.731368 
L 125.496638 24.519005 
L 125.87435 24.059903 
L 126.252061 24.320562 
L 126.629773 24.278871 
L 127.007484 24.370591 
L 127.385196 24.871771 
L 127.762907 24.200057 
L 128.140619 24.999306 
L 128.51833 24.70155 
L 128.896042 24.640553 
L 129.273753 25.085805 
L 129.651465 24.938605 
L 130.029176 25.080163 
L 130.406888 25.481002 
L 130.784599 25.420101 
L 131.162311 25.668407 
L 131.540022 25.745489 
L 131.917734 25.62098 
L 132.295445 25.806244 
L 132.673157 25.770979 
L 133.050868 26.318563 
L 133.42858 26.437251 
L 133.806291 26.741956 
L 134.184003 26.150033 
L 134.561714 26.824046 
L 134.939426 27.00106 
L 136.07256 26.730986 
L 136.450272 27.438732 
L 136.827983 26.653641 
L 137.205695 27.540223 
L 137.583406 27.61784 
L 138.338829 27.368667 
L 138.716541 27.97777 
L 139.094252 28.017494 
L 139.471964 28.459638 
L 139.849675 27.86005 
L 140.227387 29.237761 
L 140.98281 28.440965 
L 141.360521 28.980229 
L 142.115944 29.443833 
L 142.493656 29.169018 
L 142.871367 29.848762 
L 143.249079 28.841875 
L 143.62679 29.46701 
L 144.004502 29.675235 
L 144.382213 30.134693 
L 144.759925 29.790575 
L 145.137636 29.651058 
L 145.515348 29.703879 
L 145.893059 30.447744 
L 146.270771 30.78379 
L 146.648482 30.582228 
L 147.026194 30.805416 
L 147.403905 30.777055 
L 147.781617 30.882883 
L 148.159328 31.581764 
L 148.53704 30.942892 
L 149.292463 31.302036 
L 149.670174 31.831104 
L 150.047886 31.665003 
L 150.425597 31.178974 
L 150.803309 31.371619 
L 151.558732 32.204086 
L 151.936443 32.282245 
L 152.314155 32.68751 
L 152.691866 32.010025 
L 153.069578 32.554869 
L 153.447289 32.816617 
L 154.202712 32.982025 
L 154.580424 32.650051 
L 154.958135 33.358937 
L 155.713558 33.334167 
L 156.468981 33.734322 
L 156.846693 33.62988 
L 157.224404 33.656687 
L 157.602116 34.529232 
L 157.979827 34.865366 
L 158.357539 34.357078 
L 158.73525 34.210683 
L 159.112962 34.275933 
L 159.490673 35.043441 
L 159.868385 35.179214 
L 160.246096 35.053017 
L 161.001519 35.286028 
L 161.379231 35.048017 
L 161.756942 35.841261 
L 162.512365 35.878794 
L 162.890077 36.741479 
L 163.267788 35.952481 
L 163.6455 36.021129 
L 164.400923 37.114034 
L 164.778634 36.727782 
L 165.156346 36.831028 
L 165.534057 36.65989 
L 165.911769 37.288617 
L 166.28948 37.484898 
L 166.667192 37.387809 
L 167.044903 36.164909 
L 167.422615 37.98601 
L 167.800326 37.514155 
L 168.178038 37.491033 
L 168.555749 37.976265 
L 168.933461 38.034605 
L 169.311172 38.477351 
L 169.688884 37.509992 
L 170.066595 38.470778 
L 170.444307 38.359253 
L 170.822018 38.813698 
L 171.19973 39.007573 
L 171.577441 38.844401 
L 172.332864 39.869403 
L 172.710576 39.206475 
L 173.088287 39.462095 
L 173.465999 40.136951 
L 173.84371 39.648504 
L 174.599133 40.166369 
L 174.976845 40.6608 
L 175.354556 40.478508 
L 175.732268 41.164129 
L 176.109979 40.758921 
L 176.487691 41.498863 
L 176.865402 40.949826 
L 177.243114 41.17282 
L 177.620825 41.680507 
L 177.998537 41.585324 
L 178.376248 42.181881 
L 178.75396 42.153705 
L 179.131671 41.47424 
L 179.509383 41.771759 
L 179.887094 42.989632 
L 180.264806 42.443653 
L 180.642517 42.404553 
L 181.020229 42.848276 
L 181.39794 42.731486 
L 181.775652 41.991901 
L 182.531075 43.353376 
L 182.908786 43.029221 
L 183.286498 44.073133 
L 183.664209 43.243081 
L 184.041921 43.830462 
L 184.419632 44.12488 
L 184.797344 44.79821 
L 185.175055 44.335355 
L 185.552767 44.345566 
L 185.930478 44.848709 
L 186.685901 44.412548 
L 187.063613 44.418925 
L 187.441324 45.559361 
L 187.819036 45.530867 
L 188.196747 45.768449 
L 188.95217 45.581234 
L 189.329882 46.074218 
L 189.707593 45.495924 
L 190.085305 46.011997 
L 190.463016 45.889425 
L 190.840728 47.309671 
L 191.218439 46.82404 
L 191.596151 46.89173 
L 191.973863 47.54711 
L 192.351574 47.24922 
L 192.729286 47.531865 
L 193.106997 46.840981 
L 193.484709 47.867102 
L 193.86242 47.403996 
L 194.240132 47.535199 
L 194.617843 47.261911 
L 194.995555 48.09437 
L 195.373266 47.767917 
L 195.750978 48.296539 
L 196.128689 48.572296 
L 196.506401 47.855642 
L 196.884112 49.058681 
L 197.261824 49.146536 
L 198.017247 49.001484 
L 198.394958 49.473286 
L 198.77267 50.477501 
L 199.150381 49.611039 
L 199.905804 50.64409 
L 201.038939 50.711435 
L 201.41665 50.840967 
L 202.172073 51.908241 
L 202.549785 51.037524 
L 202.927496 51.188218 
L 203.305208 52.109043 
L 203.682919 51.422311 
L 204.060631 51.818862 
L 204.438342 51.776456 
L 204.816054 52.401627 
L 205.193765 52.118259 
L 205.571477 53.076937 
L 205.949188 52.250409 
L 206.3269 52.444281 
L 207.082323 52.296796 
L 207.460034 53.389317 
L 207.837746 53.179036 
L 208.215457 52.839855 
L 208.593169 54.030209 
L 208.97088 54.226323 
L 209.348592 53.472798 
L 209.726303 54.149423 
L 210.104015 54.455133 
L 210.481726 54.293122 
L 210.859438 55.199794 
L 211.237149 55.149658 
L 211.614861 54.670845 
L 211.992572 53.971104 
L 212.370284 55.43992 
L 212.747995 54.66544 
L 213.125707 55.952225 
L 213.503418 55.063183 
L 213.88113 56.32451 
L 214.258841 56.464583 
L 214.636553 55.925963 
L 215.014264 57.268673 
L 215.391976 56.545006 
L 215.769687 56.433271 
L 216.147399 57.037025 
L 216.52511 56.677547 
L 216.902822 56.978926 
L 217.280533 56.402063 
L 218.035956 57.966293 
L 218.413668 57.536757 
L 218.791379 58.039578 
L 219.169091 58.264132 
L 219.546802 58.008076 
L 219.924514 57.605758 
L 220.302225 58.192558 
L 220.679937 58.449138 
L 221.057648 58.928555 
L 221.43536 59.029608 
L 221.813071 59.402544 
L 222.190783 59.144126 
L 222.568494 59.810094 
L 223.323917 59.586806 
L 223.701629 59.534608 
L 224.07934 60.031586 
L 224.457052 59.328812 
L 224.834763 59.38528 
L 225.212475 60.479773 
L 225.590186 61.198908 
L 225.967898 60.815957 
L 226.723321 61.885323 
L 227.101032 61.006458 
L 227.856455 61.331 
L 228.234167 61.231297 
L 228.611878 62.086903 
L 228.98959 62.142786 
L 229.745013 63.039107 
L 230.122724 61.877343 
L 230.500436 62.8436 
L 231.255859 62.473709 
L 231.63357 63.316327 
L 232.011282 62.853995 
L 232.388993 64.278414 
L 232.766705 63.98946 
L 233.144416 64.240628 
L 233.522128 64.65434 
L 233.899839 64.02032 
L 234.277551 64.464976 
L 234.655262 65.357326 
L 235.032974 63.9277 
L 235.410685 64.406101 
L 235.788397 65.387509 
L 236.166108 65.22169 
L 236.54382 65.767108 
L 236.921531 66.081844 
L 237.299243 65.532978 
L 237.676954 66.068924 
L 238.054666 66.346762 
L 238.432377 65.499707 
L 238.810089 66.271446 
L 239.565512 66.549546 
L 239.943223 67.591186 
L 240.320935 66.733546 
L 240.698646 67.316445 
L 241.076358 67.296725 
L 241.454069 66.683489 
L 241.831781 68.112034 
L 242.209492 67.551359 
L 242.587204 67.509404 
L 242.964915 68.592581 
L 243.342627 68.776161 
L 243.720338 67.097614 
L 244.09805 68.771259 
L 244.475761 68.467003 
L 244.853473 68.875466 
L 245.231184 69.547192 
L 245.608896 69.291168 
L 245.986607 69.203135 
L 246.364319 69.390862 
L 246.74203 69.421843 
L 247.119742 69.965646 
L 247.497453 69.755241 
L 247.875165 69.823775 
L 248.252876 70.540711 
L 248.630588 70.635504 
L 249.008299 70.395956 
L 249.386011 70.720555 
L 249.763722 70.712406 
L 250.141434 70.881447 
L 250.519145 72.144615 
L 250.896857 71.276652 
L 251.274568 71.717052 
L 251.65228 71.550535 
L 252.029991 72.477999 
L 252.785414 72.046616 
L 253.163126 73.243028 
L 253.540837 72.232951 
L 253.918549 71.700774 
L 254.29626 72.488005 
L 254.673972 72.908509 
L 255.051683 72.492138 
L 255.807106 74.855381 
L 256.184818 73.748313 
L 256.940241 74.41346 
L 257.317952 74.048383 
L 257.695664 74.148433 
L 258.073375 74.425328 
L 258.451087 74.325966 
L 258.828798 74.742749 
L 259.20651 75.355753 
L 259.584221 75.031753 
L 259.961933 74.98716 
L 260.339644 76.607173 
L 260.717356 75.952186 
L 261.472779 75.81008 
L 261.85049 77.135259 
L 262.228202 76.823252 
L 262.605913 76.201636 
L 262.983625 76.723773 
L 263.361336 76.925192 
L 263.739048 77.332061 
L 264.116759 77.487281 
L 264.494471 77.141779 
L 264.872182 77.566855 
L 265.249894 77.143585 
L 265.627605 78.716587 
L 266.005317 78.340834 
L 266.383028 78.799269 
L 266.76074 78.616314 
L 267.138451 78.562222 
L 267.516163 79.159168 
L 267.893874 78.989709 
L 268.271586 79.802063 
L 268.649297 79.861514 
L 269.027009 78.774081 
L 269.40472 79.970617 
L 269.782432 79.405437 
L 270.160143 79.9606 
L 270.537855 80.985322 
L 270.915566 80.281952 
L 271.293278 79.958926 
L 271.670989 80.349385 
L 272.048701 81.780352 
L 272.426412 81.480647 
L 272.804124 80.524627 
L 273.181835 82.296629 
L 273.559547 81.622547 
L 274.31497 81.543204 
L 274.692681 81.787925 
L 275.070393 82.541714 
L 275.448104 82.081355 
L 275.825816 82.231632 
L 276.203527 83.564072 
L 276.581239 82.909911 
L 276.95895 82.83538 
L 277.336662 83.468747 
L 277.714373 82.982013 
L 278.469796 82.564723 
L 278.847508 83.270449 
L 279.225219 83.575702 
L 279.602931 83.111874 
L 279.980642 84.787429 
L 280.358354 84.982094 
L 280.736065 83.832376 
L 281.113777 84.548394 
L 281.491488 84.80815 
L 281.8692 84.808832 
L 282.246911 85.60861 
L 282.624623 85.524277 
L 283.380046 86.135288 
L 283.757757 85.49553 
L 284.135469 85.753013 
L 284.51318 86.634166 
L 285.268603 86.024244 
L 285.646315 87.651585 
L 286.024026 86.281615 
L 286.401738 87.776712 
L 286.779449 87.150318 
L 287.157161 86.989139 
L 287.534872 88.275047 
L 287.912584 88.637168 
L 288.290295 88.453591 
L 288.668007 88.774854 
L 289.045718 88.341311 
L 289.42343 88.740265 
L 289.801141 88.177982 
L 290.178853 89.968723 
L 290.556564 89.31829 
L 290.934276 89.005892 
L 291.311987 89.185593 
L 291.689699 89.067977 
L 292.06741 90.431349 
L 292.445122 90.567785 
L 292.822833 91.451327 
L 293.200545 90.968902 
L 293.578257 90.117427 
L 293.955968 90.367233 
L 294.33368 91.139754 
L 294.711391 90.937479 
L 295.466814 90.896292 
L 295.844526 92.163848 
L 296.599949 91.593768 
L 296.97766 92.46766 
L 297.355372 92.33652 
L 298.110795 93.414707 
L 298.488506 92.341466 
L 298.866218 93.137499 
L 299.243929 93.080874 
L 299.621641 93.175912 
L 300.377064 93.841762 
L 300.754775 93.903566 
L 301.132487 93.756158 
L 301.510198 93.926324 
L 301.88791 93.968432 
L 302.265621 94.658722 
L 303.021044 94.506331 
L 303.398756 94.750869 
L 304.154179 95.646787 
L 304.909602 95.260216 
L 305.287313 96.238062 
L 305.665025 95.757218 
L 306.042736 96.374395 
L 306.420448 95.471626 
L 306.798159 96.463436 
L 307.175871 96.856968 
L 308.309005 97.053193 
L 308.686717 97.058274 
L 309.064428 97.379514 
L 309.44214 96.964505 
L 309.819851 98.141825 
L 310.575274 98.157569 
L 310.952986 98.625739 
L 311.330697 98.8209 
L 311.708409 98.741308 
L 312.08612 98.113741 
L 313.219255 99.725144 
L 313.596966 98.53291 
L 313.974678 99.393321 
L 314.352389 100.855661 
L 314.730101 100.492762 
L 315.107812 100.869633 
L 315.485524 100.556454 
L 315.863235 101.520061 
L 316.240947 100.573281 
L 316.618658 101.885658 
L 317.374081 101.760046 
L 317.751793 101.053464 
L 318.129504 101.21267 
L 318.507216 100.837107 
L 319.262639 101.663075 
L 319.64035 101.539973 
L 320.018062 102.644484 
L 320.395773 102.881801 
L 320.773485 103.568289 
L 321.151196 102.890662 
L 321.528908 102.78978 
L 321.906619 103.096116 
L 322.284331 103.115982 
L 322.662042 103.383956 
L 323.417465 104.672868 
L 323.795177 104.062054 
L 324.172888 103.815914 
L 324.5506 104.701505 
L 325.306023 105.403384 
L 325.683734 104.745223 
L 326.061446 105.089981 
L 326.439157 106.021114 
L 326.816869 105.237207 
L 327.19458 104.772364 
L 327.572292 106.469847 
L 327.950003 106.603941 
L 328.327715 105.658129 
L 328.705426 107.030949 
L 329.083138 107.379359 
L 329.460849 106.744445 
L 329.838561 107.46678 
L 330.216272 107.669458 
L 330.593984 107.402673 
L 330.971695 108.490629 
L 331.349407 107.681283 
L 331.727118 108.086624 
L 332.10483 108.246629 
L 332.482541 107.839391 
L 332.860253 107.844503 
L 333.237964 108.040467 
L 333.615676 109.284789 
L 333.993387 108.840447 
L 334.371099 109.588548 
L 334.74881 109.894617 
L 335.126522 109.219989 
L 335.504233 110.283909 
L 335.881945 109.380586 
L 336.259656 110.812287 
L 336.637368 110.999293 
L 337.015079 110.227262 
L 337.770502 111.209302 
L 338.148214 110.432472 
L 338.525925 111.372007 
L 338.903637 110.966565 
L 339.281348 110.969446 
L 340.036771 112.005036 
L 340.414483 111.664377 
L 340.792194 111.571524 
L 341.169906 112.330415 
L 341.547617 112.729742 
L 341.925329 112.143521 
L 342.30304 113.267843 
L 343.436175 112.576812 
L 343.813886 114.509383 
L 344.191598 113.524652 
L 344.569309 113.807545 
L 344.947021 113.244249 
L 345.324732 114.889963 
L 345.702444 115.025601 
L 346.080155 114.774113 
L 346.835578 115.499759 
L 347.21329 114.997774 
L 347.591001 115.711441 
L 347.968713 115.414623 
L 348.346424 114.37767 
L 348.724136 117.087097 
L 349.101847 116.562556 
L 349.479559 116.246806 
L 349.85727 115.455514 
L 350.234982 115.649969 
L 350.612693 116.263545 
L 350.990405 117.124915 
L 351.368116 116.595111 
L 351.745828 117.02084 
L 352.123539 116.904179 
L 352.501251 118.191254 
L 352.878962 117.766198 
L 353.256674 117.661344 
L 353.634385 117.955199 
L 354.012097 117.405232 
L 354.76752 118.169311 
L 355.145231 118.239238 
L 355.522943 118.965108 
L 356.278366 118.829984 
L 356.656077 119.144379 
L 357.033789 119.787915 
L 357.4115 119.737381 
L 357.789212 120.176498 
L 358.166923 120.022881 
L 358.922346 120.249144 
L 359.300058 119.873675 
L 359.677769 120.552418 
L 360.055481 120.769476 
L 360.433192 121.410206 
L 360.810904 121.377514 
L 361.188615 121.766157 
L 361.566327 121.582594 
L 361.944038 122.523202 
L 362.32175 121.447034 
L 362.699461 123.108337 
L 363.077173 122.083803 
L 363.832596 122.921581 
L 364.210307 122.903558 
L 364.588019 123.078735 
L 364.96573 123.489801 
L 365.343442 122.618042 
L 366.098865 124.164841 
L 366.476576 123.40783 
L 366.854288 123.596616 
L 367.231999 123.371759 
L 367.609711 124.781146 
L 367.987422 123.994157 
L 368.742845 126.082216 
L 369.120557 124.33849 
L 369.498268 125.144781 
L 370.253691 125.007308 
L 370.631403 126.360598 
L 371.386826 126.301062 
L 371.764537 126.55211 
L 372.142249 125.871257 
L 372.51996 125.882723 
L 372.897672 126.814295 
L 373.275383 127.088586 
L 373.653095 126.221152 
L 374.030806 126.643022 
L 374.408518 128.052017 
L 374.786229 126.745883 
L 375.163941 127.647038 
L 375.541652 127.782846 
L 375.919364 127.643189 
L 376.297075 128.011293 
L 376.674787 128.737911 
L 377.052498 128.301908 
L 377.807921 128.924974 
L 378.185633 128.897976 
L 378.563344 129.254024 
L 378.941056 129.851843 
L 379.318767 129.369504 
L 379.696479 130.641566 
L 380.451902 128.883371 
L 380.829613 130.32585 
L 381.207325 130.199267 
L 381.585036 131.17939 
L 381.962748 130.405639 
L 382.340459 131.09355 
L 382.718171 131.102246 
L 383.473594 130.523061 
L 383.851305 131.650333 
L 384.229017 131.157402 
L 384.606728 132.206393 
L 384.98444 132.319982 
L 385.739863 132.229533 
L 386.117574 133.339655 
L 386.495286 132.739476 
L 386.872997 132.637818 
L 387.250709 132.71433 
L 388.006132 133.685052 
L 388.383843 134.181584 
L 388.761555 135.265992 
L 389.139266 134.001853 
L 389.516978 134.758227 
L 389.894689 133.855046 
L 390.272401 135.443668 
L 390.650112 135.026552 
L 391.027824 135.790043 
L 391.405535 134.91176 
L 391.783247 135.613644 
L 392.160958 134.877606 
L 392.53867 134.612135 
L 392.916381 135.155322 
L 393.294093 136.650964 
L 393.671804 136.051967 
L 394.049516 136.402882 
L 394.804939 136.514459 
L 395.182651 136.53101 
L 395.560362 137.776504 
L 395.938074 137.287146 
L 396.315785 137.637841 
L 396.693497 137.637228 
L 397.071208 137.307766 
L 397.44892 138.535612 
L 398.204343 137.405363 
L 398.582054 137.633882 
L 398.959766 138.688793 
L 399.337477 138.856016 
L 399.715189 138.747442 
L 400.0929 139.308541 
L 400.470612 138.774072 
L 400.848323 138.861109 
L 401.226035 139.424572 
L 401.603746 139.649914 
L 401.981458 140.036039 
L 402.359169 140.655327 
L 402.736881 139.816557 
L 403.492304 141.494649 
L 403.870015 141.338188 
L 404.247727 140.702278 
L 404.625438 141.543674 
L 405.00315 142.77854 
L 405.380861 141.087887 
L 405.758573 141.507048 
L 406.136284 142.781802 
L 406.513996 141.701768 
L 407.269419 143.007427 
L 407.64713 142.471299 
L 408.024842 142.208755 
L 408.402553 143.506865 
L 408.780265 142.411365 
L 409.157976 142.491047 
L 409.535688 142.370603 
L 409.913399 143.484325 
L 410.291111 143.641198 
L 410.668822 144.365978 
L 411.046534 143.70195 
L 411.424245 143.69719 
L 411.801957 144.085784 
L 412.179668 143.762661 
L 412.55738 144.549439 
L 412.935091 145.062608 
L 413.312803 145.920883 
L 413.690514 146.066941 
L 414.068226 145.284663 
L 414.445937 145.968254 
L 414.823649 146.154474 
L 415.20136 145.255764 
L 415.579072 145.070945 
L 415.956783 146.102745 
L 416.334495 146.099742 
L 416.712206 147.561776 
L 417.089918 146.37274 
L 417.467629 146.228242 
L 417.845341 147.077765 
L 417.845341 147.077765 
" style="fill:none;stroke:#009afa;stroke-width:2;"/>
   </g>
   <g id="line2d_22">
    <path clip-path="url(#p4687373b44)" d="M -1 247.499202 
L 433 247.499202 
" style="fill:none;stroke:#e36f47;stroke-width:2;"/>
   </g>
   <g id="patch_3">
    <path d="M 29.191537 254.625354 
L 29.191537 2.834646 
" style="fill:none;stroke:#000000;stroke-linecap:square;stroke-linejoin:miter;"/>
   </g>
   <g id="patch_4">
    <path d="M 29.191537 254.625354 
L 429.165354 254.625354 
" style="fill:none;stroke:#000000;stroke-linecap:square;stroke-linejoin:miter;"/>
   </g>
   <g id="legend_1">
    <g id="patch_5">
     <path d="M 36.691537 247.125354 
L 330.361068 247.125354 
L 330.361068 186.590979 
L 36.691537 186.590979 
z
" style="fill:#ffffff;stroke:#000000;stroke-linejoin:miter;"/>
    </g>
    <g id="line2d_23">
     <path d="M 48.691537 204.738636 
L 78.691537 204.738636 
" style="fill:none;stroke:#009afa;stroke-linejoin:miter;stroke-width:1.875;"/>
    </g>
    <g id="line2d_24"/>
    <g id="text_12">
     <!-- Therm. Int. -->
     <defs>
      <path d="M -0.296875 72.90625 
L 61.375 72.90625 
L 61.375 64.59375 
L 35.5 64.59375 
L 35.5 0 
L 25.59375 0 
L 25.59375 64.59375 
L -0.296875 64.59375 
z
" id="DejaVuSans-84"/>
      <path d="M 54.890625 33.015625 
L 54.890625 0 
L 45.90625 0 
L 45.90625 32.71875 
Q 45.90625 40.484375 42.875 44.328125 
Q 39.84375 48.1875 33.796875 48.1875 
Q 26.515625 48.1875 22.3125 43.546875 
Q 18.109375 38.921875 18.109375 30.90625 
L 18.109375 0 
L 9.078125 0 
L 9.078125 75.984375 
L 18.109375 75.984375 
L 18.109375 46.1875 
Q 21.34375 51.125 25.703125 53.5625 
Q 30.078125 56 35.796875 56 
Q 45.21875 56 50.046875 50.171875 
Q 54.890625 44.34375 54.890625 33.015625 
z
" id="DejaVuSans-104"/>
      <path d="M 56.203125 29.59375 
L 56.203125 25.203125 
L 14.890625 25.203125 
Q 15.484375 15.921875 20.484375 11.0625 
Q 25.484375 6.203125 34.421875 6.203125 
Q 39.59375 6.203125 44.453125 7.46875 
Q 49.3125 8.734375 54.109375 11.28125 
L 54.109375 2.78125 
Q 49.265625 0.734375 44.1875 -0.34375 
Q 39.109375 -1.421875 33.890625 -1.421875 
Q 20.796875 -1.421875 13.15625 6.1875 
Q 5.515625 13.8125 5.515625 26.8125 
Q 5.515625 40.234375 12.765625 48.109375 
Q 20.015625 56 32.328125 56 
Q 43.359375 56 49.78125 48.890625 
Q 56.203125 41.796875 56.203125 29.59375 
z
M 47.21875 32.234375 
Q 47.125 39.59375 43.09375 43.984375 
Q 39.0625 48.390625 32.421875 48.390625 
Q 24.90625 48.390625 20.390625 44.140625 
Q 15.875 39.890625 15.1875 32.171875 
z
" id="DejaVuSans-101"/>
      <path d="M 41.109375 46.296875 
Q 39.59375 47.171875 37.8125 47.578125 
Q 36.03125 48 33.890625 48 
Q 26.265625 48 22.1875 43.046875 
Q 18.109375 38.09375 18.109375 28.8125 
L 18.109375 0 
L 9.078125 0 
L 9.078125 54.6875 
L 18.109375 54.6875 
L 18.109375 46.1875 
Q 20.953125 51.171875 25.484375 53.578125 
Q 30.03125 56 36.53125 56 
Q 37.453125 56 38.578125 55.875 
Q 39.703125 55.765625 41.0625 55.515625 
z
" id="DejaVuSans-114"/>
      <path d="M 52 44.1875 
Q 55.375 50.25 60.0625 53.125 
Q 64.75 56 71.09375 56 
Q 79.640625 56 84.28125 50.015625 
Q 88.921875 44.046875 88.921875 33.015625 
L 88.921875 0 
L 79.890625 0 
L 79.890625 32.71875 
Q 79.890625 40.578125 77.09375 44.375 
Q 74.3125 48.1875 68.609375 48.1875 
Q 61.625 48.1875 57.5625 43.546875 
Q 53.515625 38.921875 53.515625 30.90625 
L 53.515625 0 
L 44.484375 0 
L 44.484375 32.71875 
Q 44.484375 40.625 41.703125 44.40625 
Q 38.921875 48.1875 33.109375 48.1875 
Q 26.21875 48.1875 22.15625 43.53125 
Q 18.109375 38.875 18.109375 30.90625 
L 18.109375 0 
L 9.078125 0 
L 9.078125 54.6875 
L 18.109375 54.6875 
L 18.109375 46.1875 
Q 21.1875 51.21875 25.484375 53.609375 
Q 29.78125 56 35.6875 56 
Q 41.65625 56 45.828125 52.96875 
Q 50 49.953125 52 44.1875 
z
" id="DejaVuSans-109"/>
      <path id="DejaVuSans-32"/>
      <path d="M 9.8125 72.90625 
L 19.671875 72.90625 
L 19.671875 0 
L 9.8125 0 
z
" id="DejaVuSans-73"/>
      <path d="M 54.890625 33.015625 
L 54.890625 0 
L 45.90625 0 
L 45.90625 32.71875 
Q 45.90625 40.484375 42.875 44.328125 
Q 39.84375 48.1875 33.796875 48.1875 
Q 26.515625 48.1875 22.3125 43.546875 
Q 18.109375 38.921875 18.109375 30.90625 
L 18.109375 0 
L 9.078125 0 
L 9.078125 54.6875 
L 18.109375 54.6875 
L 18.109375 46.1875 
Q 21.34375 51.125 25.703125 53.5625 
Q 30.078125 56 35.796875 56 
Q 45.21875 56 50.046875 50.171875 
Q 54.890625 44.34375 54.890625 33.015625 
z
" id="DejaVuSans-110"/>
      <path d="M 18.3125 70.21875 
L 18.3125 54.6875 
L 36.8125 54.6875 
L 36.8125 47.703125 
L 18.3125 47.703125 
L 18.3125 18.015625 
Q 18.3125 11.328125 20.140625 9.421875 
Q 21.96875 7.515625 27.59375 7.515625 
L 36.8125 7.515625 
L 36.8125 0 
L 27.59375 0 
Q 17.1875 0 13.234375 3.875 
Q 9.28125 7.765625 9.28125 18.015625 
L 9.28125 47.703125 
L 2.6875 47.703125 
L 2.6875 54.6875 
L 9.28125 54.6875 
L 9.28125 70.21875 
z
" id="DejaVuSans-116"/>
     </defs>
     <g transform="translate(90.691537 209.988636)scale(0.15 -0.15)">
      <use xlink:href="#DejaVuSans-84"/>
      <use x="61.083984" xlink:href="#DejaVuSans-104"/>
      <use x="124.462891" xlink:href="#DejaVuSans-101"/>
      <use x="185.986328" xlink:href="#DejaVuSans-114"/>
      <use x="227.083984" xlink:href="#DejaVuSans-109"/>
      <use x="324.496094" xlink:href="#DejaVuSans-46"/>
      <use x="356.283203" xlink:href="#DejaVuSans-32"/>
      <use x="388.070312" xlink:href="#DejaVuSans-73"/>
      <use x="417.5625" xlink:href="#DejaVuSans-110"/>
      <use x="480.941406" xlink:href="#DejaVuSans-116"/>
      <use x="520.150391" xlink:href="#DejaVuSans-46"/>
     </g>
    </g>
    <g id="line2d_25">
     <path d="M 48.691537 226.755823 
L 78.691537 226.755823 
" style="fill:none;stroke:#e36f47;stroke-linejoin:miter;stroke-width:1.875;"/>
    </g>
    <g id="line2d_26"/>
    <g id="text_13">
     <!-- logZ = -100.57236494292468 -->
     <defs>
      <path d="M 9.421875 75.984375 
L 18.40625 75.984375 
L 18.40625 0 
L 9.421875 0 
z
" id="DejaVuSans-108"/>
      <path d="M 30.609375 48.390625 
Q 23.390625 48.390625 19.1875 42.75 
Q 14.984375 37.109375 14.984375 27.296875 
Q 14.984375 17.484375 19.15625 11.84375 
Q 23.34375 6.203125 30.609375 6.203125 
Q 37.796875 6.203125 41.984375 11.859375 
Q 46.1875 17.53125 46.1875 27.296875 
Q 46.1875 37.015625 41.984375 42.703125 
Q 37.796875 48.390625 30.609375 48.390625 
z
M 30.609375 56 
Q 42.328125 56 49.015625 48.375 
Q 55.71875 40.765625 55.71875 27.296875 
Q 55.71875 13.875 49.015625 6.21875 
Q 42.328125 -1.421875 30.609375 -1.421875 
Q 18.84375 -1.421875 12.171875 6.21875 
Q 5.515625 13.875 5.515625 27.296875 
Q 5.515625 40.765625 12.171875 48.375 
Q 18.84375 56 30.609375 56 
z
" id="DejaVuSans-111"/>
      <path d="M 45.40625 27.984375 
Q 45.40625 37.75 41.375 43.109375 
Q 37.359375 48.484375 30.078125 48.484375 
Q 22.859375 48.484375 18.828125 43.109375 
Q 14.796875 37.75 14.796875 27.984375 
Q 14.796875 18.265625 18.828125 12.890625 
Q 22.859375 7.515625 30.078125 7.515625 
Q 37.359375 7.515625 41.375 12.890625 
Q 45.40625 18.265625 45.40625 27.984375 
z
M 54.390625 6.78125 
Q 54.390625 -7.171875 48.1875 -13.984375 
Q 42 -20.796875 29.203125 -20.796875 
Q 24.46875 -20.796875 20.265625 -20.09375 
Q 16.0625 -19.390625 12.109375 -17.921875 
L 12.109375 -9.1875 
Q 16.0625 -11.328125 19.921875 -12.34375 
Q 23.78125 -13.375 27.78125 -13.375 
Q 36.625 -13.375 41.015625 -8.765625 
Q 45.40625 -4.15625 45.40625 5.171875 
L 45.40625 9.625 
Q 42.625 4.78125 38.28125 2.390625 
Q 33.9375 0 27.875 0 
Q 17.828125 0 11.671875 7.65625 
Q 5.515625 15.328125 5.515625 27.984375 
Q 5.515625 40.671875 11.671875 48.328125 
Q 17.828125 56 27.875 56 
Q 33.9375 56 38.28125 53.609375 
Q 42.625 51.21875 45.40625 46.390625 
L 45.40625 54.6875 
L 54.390625 54.6875 
z
" id="DejaVuSans-103"/>
      <path d="M 5.609375 72.90625 
L 62.890625 72.90625 
L 62.890625 65.375 
L 16.796875 8.296875 
L 64.015625 8.296875 
L 64.015625 0 
L 4.5 0 
L 4.5 7.515625 
L 50.59375 64.59375 
L 5.609375 64.59375 
z
" id="DejaVuSans-90"/>
      <path d="M 10.59375 45.40625 
L 73.1875 45.40625 
L 73.1875 37.203125 
L 10.59375 37.203125 
z
M 10.59375 25.484375 
L 73.1875 25.484375 
L 73.1875 17.1875 
L 10.59375 17.1875 
z
" id="DejaVuSans-61"/>
      <path d="M 4.890625 31.390625 
L 31.203125 31.390625 
L 31.203125 23.390625 
L 4.890625 23.390625 
z
" id="DejaVuSans-45"/>
      <path d="M 40.578125 39.3125 
Q 47.65625 37.796875 51.625 33 
Q 55.609375 28.21875 55.609375 21.1875 
Q 55.609375 10.40625 48.1875 4.484375 
Q 40.765625 -1.421875 27.09375 -1.421875 
Q 22.515625 -1.421875 17.65625 -0.515625 
Q 12.796875 0.390625 7.625 2.203125 
L 7.625 11.71875 
Q 11.71875 9.328125 16.59375 8.109375 
Q 21.484375 6.890625 26.8125 6.890625 
Q 36.078125 6.890625 40.9375 10.546875 
Q 45.796875 14.203125 45.796875 21.1875 
Q 45.796875 27.640625 41.28125 31.265625 
Q 36.765625 34.90625 28.71875 34.90625 
L 20.21875 34.90625 
L 20.21875 43.015625 
L 29.109375 43.015625 
Q 36.375 43.015625 40.234375 45.921875 
Q 44.09375 48.828125 44.09375 54.296875 
Q 44.09375 59.90625 40.109375 62.90625 
Q 36.140625 65.921875 28.71875 65.921875 
Q 24.65625 65.921875 20.015625 65.03125 
Q 15.375 64.15625 9.8125 62.3125 
L 9.8125 71.09375 
Q 15.4375 72.65625 20.34375 73.4375 
Q 25.25 74.21875 29.59375 74.21875 
Q 40.828125 74.21875 47.359375 69.109375 
Q 53.90625 64.015625 53.90625 55.328125 
Q 53.90625 49.265625 50.4375 45.09375 
Q 46.96875 40.921875 40.578125 39.3125 
z
" id="DejaVuSans-51"/>
      <path d="M 33.015625 40.375 
Q 26.375 40.375 22.484375 35.828125 
Q 18.609375 31.296875 18.609375 23.390625 
Q 18.609375 15.53125 22.484375 10.953125 
Q 26.375 6.390625 33.015625 6.390625 
Q 39.65625 6.390625 43.53125 10.953125 
Q 47.40625 15.53125 47.40625 23.390625 
Q 47.40625 31.296875 43.53125 35.828125 
Q 39.65625 40.375 33.015625 40.375 
z
M 52.59375 71.296875 
L 52.59375 62.3125 
Q 48.875 64.0625 45.09375 64.984375 
Q 41.3125 65.921875 37.59375 65.921875 
Q 27.828125 65.921875 22.671875 59.328125 
Q 17.53125 52.734375 16.796875 39.40625 
Q 19.671875 43.65625 24.015625 45.921875 
Q 28.375 48.1875 33.59375 48.1875 
Q 44.578125 48.1875 50.953125 41.515625 
Q 57.328125 34.859375 57.328125 23.390625 
Q 57.328125 12.15625 50.6875 5.359375 
Q 44.046875 -1.421875 33.015625 -1.421875 
Q 20.359375 -1.421875 13.671875 8.265625 
Q 6.984375 17.96875 6.984375 36.375 
Q 6.984375 53.65625 15.1875 63.9375 
Q 23.390625 74.21875 37.203125 74.21875 
Q 40.921875 74.21875 44.703125 73.484375 
Q 48.484375 72.75 52.59375 71.296875 
z
" id="DejaVuSans-54"/>
      <path d="M 37.796875 64.3125 
L 12.890625 25.390625 
L 37.796875 25.390625 
z
M 35.203125 72.90625 
L 47.609375 72.90625 
L 47.609375 25.390625 
L 58.015625 25.390625 
L 58.015625 17.1875 
L 47.609375 17.1875 
L 47.609375 0 
L 37.796875 0 
L 37.796875 17.1875 
L 4.890625 17.1875 
L 4.890625 26.703125 
z
" id="DejaVuSans-52"/>
      <path d="M 10.984375 1.515625 
L 10.984375 10.5 
Q 14.703125 8.734375 18.5 7.8125 
Q 22.3125 6.890625 25.984375 6.890625 
Q 35.75 6.890625 40.890625 13.453125 
Q 46.046875 20.015625 46.78125 33.40625 
Q 43.953125 29.203125 39.59375 26.953125 
Q 35.25 24.703125 29.984375 24.703125 
Q 19.046875 24.703125 12.671875 31.3125 
Q 6.296875 37.9375 6.296875 49.421875 
Q 6.296875 60.640625 12.9375 67.421875 
Q 19.578125 74.21875 30.609375 74.21875 
Q 43.265625 74.21875 49.921875 64.515625 
Q 56.59375 54.828125 56.59375 36.375 
Q 56.59375 19.140625 48.40625 8.859375 
Q 40.234375 -1.421875 26.421875 -1.421875 
Q 22.703125 -1.421875 18.890625 -0.6875 
Q 15.09375 0.046875 10.984375 1.515625 
z
M 30.609375 32.421875 
Q 37.25 32.421875 41.125 36.953125 
Q 45.015625 41.5 45.015625 49.421875 
Q 45.015625 57.28125 41.125 61.84375 
Q 37.25 66.40625 30.609375 66.40625 
Q 23.96875 66.40625 20.09375 61.84375 
Q 16.21875 57.28125 16.21875 49.421875 
Q 16.21875 41.5 20.09375 36.953125 
Q 23.96875 32.421875 30.609375 32.421875 
z
" id="DejaVuSans-57"/>
      <path d="M 31.78125 34.625 
Q 24.75 34.625 20.71875 30.859375 
Q 16.703125 27.09375 16.703125 20.515625 
Q 16.703125 13.921875 20.71875 10.15625 
Q 24.75 6.390625 31.78125 6.390625 
Q 38.8125 6.390625 42.859375 10.171875 
Q 46.921875 13.96875 46.921875 20.515625 
Q 46.921875 27.09375 42.890625 30.859375 
Q 38.875 34.625 31.78125 34.625 
z
M 21.921875 38.8125 
Q 15.578125 40.375 12.03125 44.71875 
Q 8.5 49.078125 8.5 55.328125 
Q 8.5 64.0625 14.71875 69.140625 
Q 20.953125 74.21875 31.78125 74.21875 
Q 42.671875 74.21875 48.875 69.140625 
Q 55.078125 64.0625 55.078125 55.328125 
Q 55.078125 49.078125 51.53125 44.71875 
Q 48 40.375 41.703125 38.8125 
Q 48.828125 37.15625 52.796875 32.3125 
Q 56.78125 27.484375 56.78125 20.515625 
Q 56.78125 9.90625 50.3125 4.234375 
Q 43.84375 -1.421875 31.78125 -1.421875 
Q 19.734375 -1.421875 13.25 4.234375 
Q 6.78125 9.90625 6.78125 20.515625 
Q 6.78125 27.484375 10.78125 32.3125 
Q 14.796875 37.15625 21.921875 38.8125 
z
M 18.3125 54.390625 
Q 18.3125 48.734375 21.84375 45.5625 
Q 25.390625 42.390625 31.78125 42.390625 
Q 38.140625 42.390625 41.71875 45.5625 
Q 45.3125 48.734375 45.3125 54.390625 
Q 45.3125 60.0625 41.71875 63.234375 
Q 38.140625 66.40625 31.78125 66.40625 
Q 25.390625 66.40625 21.84375 63.234375 
Q 18.3125 60.0625 18.3125 54.390625 
z
" id="DejaVuSans-56"/>
     </defs>
     <g transform="translate(90.691537 232.005823)scale(0.15 -0.15)">
      <use xlink:href="#DejaVuSans-108"/>
      <use x="27.783203" xlink:href="#DejaVuSans-111"/>
      <use x="88.964844" xlink:href="#DejaVuSans-103"/>
      <use x="152.441406" xlink:href="#DejaVuSans-90"/>
      <use x="220.947266" xlink:href="#DejaVuSans-32"/>
      <use x="252.734375" xlink:href="#DejaVuSans-61"/>
      <use x="336.523438" xlink:href="#DejaVuSans-32"/>
      <use x="368.310547" xlink:href="#DejaVuSans-45"/>
      <use x="404.394531" xlink:href="#DejaVuSans-49"/>
      <use x="468.017578" xlink:href="#DejaVuSans-48"/>
      <use x="531.640625" xlink:href="#DejaVuSans-48"/>
      <use x="595.263672" xlink:href="#DejaVuSans-46"/>
      <use x="627.050781" xlink:href="#DejaVuSans-53"/>
      <use x="690.673828" xlink:href="#DejaVuSans-55"/>
      <use x="754.296875" xlink:href="#DejaVuSans-50"/>
      <use x="817.919922" xlink:href="#DejaVuSans-51"/>
      <use x="881.542969" xlink:href="#DejaVuSans-54"/>
      <use x="945.166016" xlink:href="#DejaVuSans-52"/>
      <use x="1008.789062" xlink:href="#DejaVuSans-57"/>
      <use x="1072.412109" xlink:href="#DejaVuSans-52"/>
      <use x="1136.035156" xlink:href="#DejaVuSans-50"/>
      <use x="1199.658203" xlink:href="#DejaVuSans-57"/>
      <use x="1263.28125" xlink:href="#DejaVuSans-50"/>
      <use x="1326.904297" xlink:href="#DejaVuSans-52"/>
      <use x="1390.527344" xlink:href="#DejaVuSans-54"/>
      <use x="1454.150391" xlink:href="#DejaVuSans-56"/>
     </g>
    </g>
   </g>
  </g>
 </g>
 <defs>
  <clipPath id="p4687373b44">
   <rect height="251.790709" width="399.973818" x="29.191537" y="2.834646"/>
  </clipPath>
 </defs>
</svg>
