<?xml version="1.0" encoding="utf-8" standalone="no"?>
<!DOCTYPE svg PUBLIC "-//W3C//DTD SVG 1.1//EN"
  "http://www.w3.org/Graphics/SVG/1.1/DTD/svg11.dtd">
<svg height="288pt" version="1.1" viewBox="0 0 432 288" width="432pt" xmlns="http://www.w3.org/2000/svg" xmlns:xlink="http://www.w3.org/1999/xlink">
 <metadata>
  <rdf:RDF xmlns:cc="http://creativecommons.org/ns#" xmlns:dc="http://purl.org/dc/elements/1.1/" xmlns:rdf="http://www.w3.org/1999/02/22-rdf-syntax-ns#">
   <cc:Work>
    <dc:type rdf:resource="http://purl.org/dc/dcmitype/StillImage"/>
    <dc:date>2021-04-28T16:15:13.728241</dc:date>
    <dc:format>image/svg+xml</dc:format>
    <dc:creator>
     <cc:Agent>
      <dc:title>Matplotlib v3.4.1, https://matplotlib.org/</dc:title>
     </cc:Agent>
    </dc:creator>
   </cc:Work>
  </rdf:RDF>
 </metadata>
 <defs>
  <style type="text/css">*{stroke-linecap:butt;stroke-linejoin:round;}</style>
 </defs>
 <g id="figure_1">
  <g id="patch_1">
   <path d="M 0 288 
L 432 288 
L 432 0 
L 0 0 
z
" style="fill:#ffffff;"/>
  </g>
  <g id="axes_1">
   <g id="patch_2">
    <path d="M 135.721844 243.105354 
L 429.165354 243.105354 
L 429.165354 10.466646 
L 135.721844 10.466646 
z
" style="fill:#ffffff;"/>
   </g>
   <g id="matplotlib.axis_1">
    <g id="xtick_1">
     <g id="line2d_1">
      <path clip-path="url(#p4baf3e0a6d)" d="M 189.170857 243.105354 
L 189.170857 10.466646 
" style="fill:none;stroke:#000000;stroke-linecap:square;stroke-opacity:0.1;stroke-width:0.5;"/>
     </g>
     <g id="line2d_2">
      <defs>
       <path d="M 0 0 
L 0 -2.5 
" id="m5eb8d3af35" style="stroke:#000000;stroke-width:0.5;"/>
      </defs>
      <g>
       <use style="stroke:#000000;stroke-width:0.5;" x="189.170857" xlink:href="#m5eb8d3af35" y="243.105354"/>
      </g>
     </g>
     <g id="text_1">
      <!-- $\mathregular{1}$ -->
      <g transform="translate(184.370857 258.003011)scale(0.15 -0.15)">
       <defs>
        <path d="M 794 531 
L 1825 531 
L 1825 4091 
L 703 3866 
L 703 4441 
L 1819 4666 
L 2450 4666 
L 2450 531 
L 3481 531 
L 3481 0 
L 794 0 
L 794 531 
z
" id="DejaVuSans-31" transform="scale(0.015625)"/>
       </defs>
       <use transform="translate(0 0.09375)" xlink:href="#DejaVuSans-31"/>
      </g>
     </g>
    </g>
    <g id="xtick_2">
     <g id="line2d_3">
      <path clip-path="url(#p4baf3e0a6d)" d="M 282.443599 243.105354 
L 282.443599 10.466646 
" style="fill:none;stroke:#000000;stroke-linecap:square;stroke-opacity:0.1;stroke-width:0.5;"/>
     </g>
     <g id="line2d_4">
      <g>
       <use style="stroke:#000000;stroke-width:0.5;" x="282.443599" xlink:href="#m5eb8d3af35" y="243.105354"/>
      </g>
     </g>
     <g id="text_2">
      <!-- $\mathregular{2}$ -->
      <g transform="translate(277.643599 258.003011)scale(0.15 -0.15)">
       <defs>
        <path d="M 1228 531 
L 3431 531 
L 3431 0 
L 469 0 
L 469 531 
Q 828 903 1448 1529 
Q 2069 2156 2228 2338 
Q 2531 2678 2651 2914 
Q 2772 3150 2772 3378 
Q 2772 3750 2511 3984 
Q 2250 4219 1831 4219 
Q 1534 4219 1204 4116 
Q 875 4013 500 3803 
L 500 4441 
Q 881 4594 1212 4672 
Q 1544 4750 1819 4750 
Q 2544 4750 2975 4387 
Q 3406 4025 3406 3419 
Q 3406 3131 3298 2873 
Q 3191 2616 2906 2266 
Q 2828 2175 2409 1742 
Q 1991 1309 1228 531 
z
" id="DejaVuSans-32" transform="scale(0.015625)"/>
       </defs>
       <use transform="translate(0 0.78125)" xlink:href="#DejaVuSans-32"/>
      </g>
     </g>
    </g>
    <g id="xtick_3">
     <g id="line2d_5">
      <path clip-path="url(#p4baf3e0a6d)" d="M 375.716342 243.105354 
L 375.716342 10.466646 
" style="fill:none;stroke:#000000;stroke-linecap:square;stroke-opacity:0.1;stroke-width:0.5;"/>
     </g>
     <g id="line2d_6">
      <g>
       <use style="stroke:#000000;stroke-width:0.5;" x="375.716342" xlink:href="#m5eb8d3af35" y="243.105354"/>
      </g>
     </g>
     <g id="text_3">
      <!-- $\mathregular{3}$ -->
      <g transform="translate(370.916342 258.003011)scale(0.15 -0.15)">
       <defs>
        <path d="M 2597 2516 
Q 3050 2419 3304 2112 
Q 3559 1806 3559 1356 
Q 3559 666 3084 287 
Q 2609 -91 1734 -91 
Q 1441 -91 1130 -33 
Q 819 25 488 141 
L 488 750 
Q 750 597 1062 519 
Q 1375 441 1716 441 
Q 2309 441 2620 675 
Q 2931 909 2931 1356 
Q 2931 1769 2642 2001 
Q 2353 2234 1838 2234 
L 1294 2234 
L 1294 2753 
L 1863 2753 
Q 2328 2753 2575 2939 
Q 2822 3125 2822 3475 
Q 2822 3834 2567 4026 
Q 2313 4219 1838 4219 
Q 1578 4219 1281 4162 
Q 984 4106 628 3988 
L 628 4550 
Q 988 4650 1302 4700 
Q 1616 4750 1894 4750 
Q 2613 4750 3031 4423 
Q 3450 4097 3450 3541 
Q 3450 3153 3228 2886 
Q 3006 2619 2597 2516 
z
" id="DejaVuSans-33" transform="scale(0.015625)"/>
       </defs>
       <use transform="translate(0 0.78125)" xlink:href="#DejaVuSans-33"/>
      </g>
     </g>
    </g>
    <g id="text_4">
     <!-- μᵢ -->
     <g transform="translate(274.293599 280.319417)scale(0.2 -0.2)">
      <defs>
       <path d="M 544 -1331 
L 544 3500 
L 1119 3500 
L 1119 1325 
Q 1119 872 1334 640 
Q 1550 409 1972 409 
Q 2434 409 2667 671 
Q 2900 934 2900 1459 
L 2900 3500 
L 3475 3500 
L 3475 806 
Q 3475 619 3529 530 
Q 3584 441 3700 441 
Q 3728 441 3778 458 
Q 3828 475 3916 513 
L 3916 50 
Q 3788 -22 3673 -56 
Q 3559 -91 3450 -91 
Q 3234 -91 3106 31 
Q 2978 153 2931 403 
Q 2775 156 2548 32 
Q 2322 -91 2016 -91 
Q 1697 -91 1473 31 
Q 1250 153 1119 397 
L 1119 -1331 
L 544 -1331 
z
" id="DejaVuSans-3bc" transform="scale(0.015625)"/>
       <path d="M 381 1935 
L 744 1935 
L 744 -24 
L 381 -24 
L 381 1935 
z
M 381 2697 
L 744 2697 
L 744 2291 
L 381 2291 
L 381 2697 
z
" id="DejaVuSans-1d62" transform="scale(0.015625)"/>
      </defs>
      <use xlink:href="#DejaVuSans-3bc"/>
      <use x="63.623047" xlink:href="#DejaVuSans-1d62"/>
     </g>
    </g>
   </g>
   <g id="matplotlib.axis_2">
    <g id="ytick_1">
     <g id="line2d_7">
      <path clip-path="url(#p4baf3e0a6d)" d="M 135.721844 243.105354 
L 429.165354 243.105354 
" style="fill:none;stroke:#000000;stroke-linecap:square;stroke-opacity:0.1;stroke-width:0.5;"/>
     </g>
     <g id="line2d_8">
      <defs>
       <path d="M 0 0 
L 2.5 0 
" id="m9a4cdb4f89" style="stroke:#000000;stroke-width:0.5;"/>
      </defs>
      <g>
       <use style="stroke:#000000;stroke-width:0.5;" x="135.721844" xlink:href="#m9a4cdb4f89" y="243.105354"/>
      </g>
     </g>
     <g id="text_5">
      <!-- $\mathregular{-3.0×10^{-16}}$ -->
      <g transform="translate(41.321844 248.804182)scale(0.15 -0.15)">
       <defs>
        <path d="M 678 2272 
L 4684 2272 
L 4684 1741 
L 678 1741 
L 678 2272 
z
" id="DejaVuSans-2212" transform="scale(0.015625)"/>
        <path d="M 684 794 
L 1344 794 
L 1344 0 
L 684 0 
L 684 794 
z
" id="DejaVuSans-2e" transform="scale(0.015625)"/>
        <path d="M 2034 4250 
Q 1547 4250 1301 3770 
Q 1056 3291 1056 2328 
Q 1056 1369 1301 889 
Q 1547 409 2034 409 
Q 2525 409 2770 889 
Q 3016 1369 3016 2328 
Q 3016 3291 2770 3770 
Q 2525 4250 2034 4250 
z
M 2034 4750 
Q 2819 4750 3233 4129 
Q 3647 3509 3647 2328 
Q 3647 1150 3233 529 
Q 2819 -91 2034 -91 
Q 1250 -91 836 529 
Q 422 1150 422 2328 
Q 422 3509 836 4129 
Q 1250 4750 2034 4750 
z
" id="DejaVuSans-30" transform="scale(0.015625)"/>
        <path d="M 4488 3438 
L 3059 2003 
L 4488 575 
L 4116 197 
L 2681 1631 
L 1247 197 
L 878 575 
L 2303 2003 
L 878 3438 
L 1247 3816 
L 2681 2381 
L 4116 3816 
L 4488 3438 
z
" id="DejaVuSans-d7" transform="scale(0.015625)"/>
        <path d="M 2113 2584 
Q 1688 2584 1439 2293 
Q 1191 2003 1191 1497 
Q 1191 994 1439 701 
Q 1688 409 2113 409 
Q 2538 409 2786 701 
Q 3034 994 3034 1497 
Q 3034 2003 2786 2293 
Q 2538 2584 2113 2584 
z
M 3366 4563 
L 3366 3988 
Q 3128 4100 2886 4159 
Q 2644 4219 2406 4219 
Q 1781 4219 1451 3797 
Q 1122 3375 1075 2522 
Q 1259 2794 1537 2939 
Q 1816 3084 2150 3084 
Q 2853 3084 3261 2657 
Q 3669 2231 3669 1497 
Q 3669 778 3244 343 
Q 2819 -91 2113 -91 
Q 1303 -91 875 529 
Q 447 1150 447 2328 
Q 447 3434 972 4092 
Q 1497 4750 2381 4750 
Q 2619 4750 2861 4703 
Q 3103 4656 3366 4563 
z
" id="DejaVuSans-36" transform="scale(0.015625)"/>
       </defs>
       <use transform="translate(0 0.765625)" xlink:href="#DejaVuSans-2212"/>
       <use transform="translate(83.789062 0.765625)" xlink:href="#DejaVuSans-33"/>
       <use transform="translate(147.412109 0.765625)" xlink:href="#DejaVuSans-2e"/>
       <use transform="translate(179.199219 0.765625)" xlink:href="#DejaVuSans-30"/>
       <use transform="translate(242.822266 0.765625)" xlink:href="#DejaVuSans-d7"/>
       <use transform="translate(326.611328 0.765625)" xlink:href="#DejaVuSans-31"/>
       <use transform="translate(390.234375 0.765625)" xlink:href="#DejaVuSans-30"/>
       <use transform="translate(454.814453 39.046875)scale(0.7)" xlink:href="#DejaVuSans-2212"/>
       <use transform="translate(513.466797 39.046875)scale(0.7)" xlink:href="#DejaVuSans-31"/>
       <use transform="translate(558.00293 39.046875)scale(0.7)" xlink:href="#DejaVuSans-36"/>
      </g>
     </g>
    </g>
    <g id="ytick_2">
     <g id="line2d_9">
      <path clip-path="url(#p4baf3e0a6d)" d="M 135.721844 165.559118 
L 429.165354 165.559118 
" style="fill:none;stroke:#000000;stroke-linecap:square;stroke-opacity:0.1;stroke-width:0.5;"/>
     </g>
     <g id="line2d_10">
      <g>
       <use style="stroke:#000000;stroke-width:0.5;" x="135.721844" xlink:href="#m9a4cdb4f89" y="165.559118"/>
      </g>
     </g>
     <g id="text_6">
      <!-- $\mathregular{0}$ -->
      <g transform="translate(122.621844 171.257946)scale(0.15 -0.15)">
       <use transform="translate(0 0.78125)" xlink:href="#DejaVuSans-30"/>
      </g>
     </g>
    </g>
    <g id="ytick_3">
     <g id="line2d_11">
      <path clip-path="url(#p4baf3e0a6d)" d="M 135.721844 88.012882 
L 429.165354 88.012882 
" style="fill:none;stroke:#000000;stroke-linecap:square;stroke-opacity:0.1;stroke-width:0.5;"/>
     </g>
     <g id="line2d_12">
      <g>
       <use style="stroke:#000000;stroke-width:0.5;" x="135.721844" xlink:href="#m9a4cdb4f89" y="88.012882"/>
      </g>
     </g>
     <g id="text_7">
      <!-- $\mathregular{3.0×10^{-16}}$ -->
      <g transform="translate(53.921844 93.71171)scale(0.15 -0.15)">
       <use transform="translate(0 0.765625)" xlink:href="#DejaVuSans-33"/>
       <use transform="translate(63.623047 0.765625)" xlink:href="#DejaVuSans-2e"/>
       <use transform="translate(95.410156 0.765625)" xlink:href="#DejaVuSans-30"/>
       <use transform="translate(159.033203 0.765625)" xlink:href="#DejaVuSans-d7"/>
       <use transform="translate(242.822266 0.765625)" xlink:href="#DejaVuSans-31"/>
       <use transform="translate(306.445312 0.765625)" xlink:href="#DejaVuSans-30"/>
       <use transform="translate(371.025391 39.046875)scale(0.7)" xlink:href="#DejaVuSans-2212"/>
       <use transform="translate(429.677734 39.046875)scale(0.7)" xlink:href="#DejaVuSans-31"/>
       <use transform="translate(474.213867 39.046875)scale(0.7)" xlink:href="#DejaVuSans-36"/>
      </g>
     </g>
    </g>
    <g id="ytick_4">
     <g id="line2d_13">
      <path clip-path="url(#p4baf3e0a6d)" d="M 135.721844 10.466646 
L 429.165354 10.466646 
" style="fill:none;stroke:#000000;stroke-linecap:square;stroke-opacity:0.1;stroke-width:0.5;"/>
     </g>
     <g id="line2d_14">
      <g>
       <use style="stroke:#000000;stroke-width:0.5;" x="135.721844" xlink:href="#m9a4cdb4f89" y="10.466646"/>
      </g>
     </g>
     <g id="text_8">
      <!-- $\mathregular{6.0×10^{-16}}$ -->
      <g transform="translate(53.921844 16.165474)scale(0.15 -0.15)">
       <use transform="translate(0 0.765625)" xlink:href="#DejaVuSans-36"/>
       <use transform="translate(63.623047 0.765625)" xlink:href="#DejaVuSans-2e"/>
       <use transform="translate(95.410156 0.765625)" xlink:href="#DejaVuSans-30"/>
       <use transform="translate(159.033203 0.765625)" xlink:href="#DejaVuSans-d7"/>
       <use transform="translate(242.822266 0.765625)" xlink:href="#DejaVuSans-31"/>
       <use transform="translate(306.445312 0.765625)" xlink:href="#DejaVuSans-30"/>
       <use transform="translate(371.025391 39.046875)scale(0.7)" xlink:href="#DejaVuSans-2212"/>
       <use transform="translate(429.677734 39.046875)scale(0.7)" xlink:href="#DejaVuSans-31"/>
       <use transform="translate(474.213867 39.046875)scale(0.7)" xlink:href="#DejaVuSans-36"/>
      </g>
     </g>
    </g>
    <g id="text_9">
     <!-- $\Delta \frac{dKL}{d\mu_i}$ -->
     <g transform="translate(26.121844 147.886)rotate(-90)scale(0.2 -0.2)">
      <defs>
       <path d="M 2188 4044 
L 906 525 
L 3472 525 
L 2188 4044 
z
M 50 0 
L 1831 4666 
L 2547 4666 
L 4325 0 
L 50 0 
z
" id="DejaVuSans-394" transform="scale(0.015625)"/>
       <path d="M 2675 525 
Q 2444 222 2128 65 
Q 1813 -91 1428 -91 
Q 903 -91 598 267 
Q 294 625 294 1247 
Q 294 1766 478 2236 
Q 663 2706 1013 3078 
Q 1244 3325 1534 3454 
Q 1825 3584 2144 3584 
Q 2481 3584 2739 3421 
Q 2997 3259 3138 2956 
L 3513 4863 
L 4091 4863 
L 3144 0 
L 2566 0 
L 2675 525 
z
M 891 1350 
Q 891 897 1095 644 
Q 1300 391 1663 391 
Q 1931 391 2161 520 
Q 2391 650 2566 903 
Q 2750 1166 2856 1509 
Q 2963 1853 2963 2188 
Q 2963 2622 2758 2865 
Q 2553 3109 2194 3109 
Q 1922 3109 1687 2981 
Q 1453 2853 1288 2613 
Q 1106 2353 998 2009 
Q 891 1666 891 1350 
z
" id="DejaVuSans-Oblique-64" transform="scale(0.015625)"/>
       <path d="M 1081 4666 
L 1716 4666 
L 1331 2700 
L 3781 4666 
L 4622 4666 
L 1850 2438 
L 3878 0 
L 3109 0 
L 1247 2272 
L 806 0 
L 172 0 
L 1081 4666 
z
" id="DejaVuSans-Oblique-4b" transform="scale(0.015625)"/>
       <path d="M 1075 4666 
L 1709 4666 
L 909 525 
L 3181 525 
L 3078 0 
L 172 0 
L 1075 4666 
z
" id="DejaVuSans-Oblique-4c" transform="scale(0.015625)"/>
       <path d="M -84 -1331 
L 856 3500 
L 1434 3500 
L 1009 1322 
Q 997 1256 987 1175 
Q 978 1094 978 1013 
Q 978 722 1161 565 
Q 1344 409 1684 409 
Q 2147 409 2431 671 
Q 2716 934 2816 1459 
L 3213 3500 
L 3788 3500 
L 3266 809 
Q 3253 750 3248 706 
Q 3244 663 3244 628 
Q 3244 531 3283 486 
Q 3322 441 3406 441 
Q 3438 441 3492 456 
Q 3547 472 3647 513 
L 3559 50 
Q 3422 -19 3297 -55 
Q 3172 -91 3053 -91 
Q 2847 -91 2730 40 
Q 2613 172 2613 403 
Q 2438 153 2195 31 
Q 1953 -91 1625 -91 
Q 1334 -91 1117 43 
Q 900 178 831 397 
L 494 -1331 
L -84 -1331 
z
" id="DejaVuSans-Oblique-3bc" transform="scale(0.015625)"/>
       <path d="M 1172 4863 
L 1747 4863 
L 1606 4134 
L 1031 4134 
L 1172 4863 
z
M 909 3500 
L 1484 3500 
L 800 0 
L 225 0 
L 909 3500 
z
" id="DejaVuSans-Oblique-69" transform="scale(0.015625)"/>
      </defs>
      <use transform="translate(0 0.01875)" xlink:href="#DejaVuSans-394"/>
      <use transform="translate(68.408203 44.810938)scale(0.7)" xlink:href="#DejaVuSans-Oblique-64"/>
      <use transform="translate(112.841797 44.810938)scale(0.7)" xlink:href="#DejaVuSans-Oblique-4b"/>
      <use transform="translate(158.745117 44.810938)scale(0.7)" xlink:href="#DejaVuSans-Oblique-4c"/>
      <use transform="translate(80.408203 -40.623437)scale(0.7)" xlink:href="#DejaVuSans-Oblique-64"/>
      <use transform="translate(124.841797 -40.623437)scale(0.7)" xlink:href="#DejaVuSans-Oblique-3bc"/>
      <use transform="translate(169.37793 -52.107812)scale(0.49)" xlink:href="#DejaVuSans-Oblique-69"/>
      <path d="M 68.408203 18.815625 
L 68.408203 25.065625 
L 197.744141 25.065625 
L 197.744141 18.815625 
L 68.408203 18.815625 
z
"/>
     </g>
    </g>
   </g>
   <g id="patch_3">
    <path clip-path="url(#p4baf3e0a6d)" d="M 151.86176 158.38465 
L 151.86176 165.559118 
L 226.479954 165.559118 
L 226.479954 158.38465 
L 151.86176 158.38465 
" style="fill:#009afa;stroke:#000000;stroke-linejoin:miter;"/>
   </g>
   <g id="patch_4">
    <path clip-path="url(#p4baf3e0a6d)" d="M 245.134502 165.559118 
L 245.134502 165.559118 
L 319.752696 165.559118 
L 319.752696 165.559118 
L 245.134502 165.559118 
" style="fill:#009afa;stroke:#000000;stroke-linejoin:miter;"/>
   </g>
   <g id="patch_5">
    <path clip-path="url(#p4baf3e0a6d)" d="M 338.407245 108.163373 
L 338.407245 165.559118 
L 413.025439 165.559118 
L 413.025439 108.163373 
L 338.407245 108.163373 
" style="fill:#009afa;stroke:#000000;stroke-linejoin:miter;"/>
   </g>
   <g id="patch_6">
    <path d="M 135.721844 243.105354 
L 135.721844 10.466646 
" style="fill:none;stroke:#000000;stroke-linecap:square;stroke-linejoin:miter;"/>
   </g>
   <g id="patch_7">
    <path d="M 135.721844 243.105354 
L 429.165354 243.105354 
" style="fill:none;stroke:#000000;stroke-linecap:square;stroke-linejoin:miter;"/>
   </g>
  </g>
 </g>
 <defs>
  <clipPath id="p4baf3e0a6d">
   <rect height="232.638709" width="293.44351" x="135.721844" y="10.466646"/>
  </clipPath>
 </defs>
</svg>
